<svg width="787" height="145" viewBox="0 0 787 145" fill="none" xmlns="http://www.w3.org/2000/svg">
<rect x="1.5" y="1.5" width="784" height="142" rx="36.5" fill="#2A2734" stroke="white" stroke-width="3"/>
<path d="M179.211 99C177.454 99 176.88 98.1943 177.49 96.583L195.435 49.4517C196.191 47.4741 197.339 46.4854 198.877 46.4854H204.004C205.542 46.4854 206.689 47.4741 207.446 49.4517L225.391 96.583C226.001 98.1943 225.427 99 223.669 99H217.847C216.235 99 215.112 98.1577 214.478 96.4731L210.742 86.6221H192.139L188.403 96.4731C187.769 98.1577 186.646 99 185.034 99H179.211ZM195.544 77.54H207.336L202.832 65.8945C202.295 64.5273 201.965 63.5386 201.843 62.9282C201.746 62.2935 201.636 61.3657 201.514 60.145H201.367C201.245 61.3657 201.123 62.2935 201.001 62.9282C200.903 63.5386 200.586 64.5273 200.049 65.8945L195.544 77.54ZM234.473 99C232.764 99 231.909 98.0845 231.909 96.2534V49.2319C231.909 47.4009 232.764 46.4854 234.473 46.4854H263.44C265.271 46.4854 266.187 47.2788 266.187 48.8657V53.187C266.187 54.7739 265.271 55.5674 263.44 55.5674H242.603V68.3115H260.437C262.268 68.3115 263.184 69.105 263.184 70.6919V75.0132C263.184 76.6001 262.268 77.3936 260.437 77.3936H242.603V96.2534C242.603 98.0845 241.748 99 240.039 99H234.473ZM273.108 55.8604C271.277 55.8604 270.361 55.0669 270.361 53.48V48.8657C270.361 47.2788 271.277 46.4854 273.108 46.4854H310.754C312.585 46.4854 313.501 47.2788 313.501 48.8657V53.48C313.501 55.0669 312.585 55.8604 310.754 55.8604H297.278V96.9858C297.278 98.3286 296.667 99 295.447 99H288.416C287.195 99 286.584 98.3286 286.584 96.9858V55.8604H273.108ZM323.169 99C321.46 99 320.605 98.0845 320.605 96.2534V49.2319C320.605 47.4009 321.46 46.4854 323.169 46.4854H354.59C356.421 46.4854 357.336 47.2788 357.336 48.8657V53.187C357.336 54.7739 356.421 55.5674 354.59 55.5674H331.299V67.2129H352.649C354.48 67.2129 355.396 68.0063 355.396 69.5933V73.9146C355.396 75.5015 354.48 76.2949 352.649 76.2949H331.299V89.918H355.762C357.593 89.918 358.508 90.7114 358.508 92.2983V96.6196C358.508 98.2065 357.593 99 355.762 99H323.169ZM370.044 99C368.335 99 367.48 98.0845 367.48 96.2534V49.2319C367.48 47.4009 368.335 46.4854 370.044 46.4854H387C394.543 46.4854 400.049 47.6572 403.516 50.001C406.982 52.3203 408.716 56.1045 408.716 61.3535C408.716 65.2598 407.312 68.3726 404.504 70.6919C401.697 73.0112 398.132 74.5493 393.811 75.3062V75.3794C396.155 76.2583 397.925 77.479 399.121 79.0415C400.317 80.604 401.294 81.9712 402.051 83.1431L410.107 95.8506C411.45 97.9502 410.986 99 408.716 99H402.344C401.001 99 399.902 98.2798 399.048 96.8394L391.65 84.498C390.845 83.1797 389.368 81.7393 387.219 80.1768C385.095 78.5898 382.983 77.7964 380.884 77.7964H378.174V96.2534C378.174 98.0845 377.319 99 375.61 99H370.044ZM378.174 68.7144H384.729C389.612 68.7144 393.079 68.165 395.129 67.0664C397.205 65.9434 398.242 64.1733 398.242 61.7563C398.242 59.1196 397.241 57.4106 395.239 56.6294C393.262 55.8237 390.344 55.4209 386.487 55.4209H378.174V68.7144ZM447.974 99C446.265 99 445.41 98.0845 445.41 96.2534V49.2319C445.41 47.4009 446.265 46.4854 447.974 46.4854H479.395C481.226 46.4854 482.141 47.2788 482.141 48.8657V53.187C482.141 54.7739 481.226 55.5674 479.395 55.5674H456.104V67.2129H477.454C479.285 67.2129 480.2 68.0063 480.2 69.5933V73.9146C480.2 75.5015 479.285 76.2949 477.454 76.2949H456.104V89.918H480.566C482.397 89.918 483.313 90.7114 483.313 92.2983V96.6196C483.313 98.2065 482.397 99 480.566 99H447.974ZM494.849 99C493.14 99 492.285 98.0845 492.285 96.2534V49.2319C492.285 47.4009 493.14 46.4854 494.849 46.4854H523.816C525.647 46.4854 526.562 47.2788 526.562 48.8657V53.187C526.562 54.7739 525.647 55.5674 523.816 55.5674H502.979V68.3115H520.813C522.644 68.3115 523.56 69.105 523.56 70.6919V75.0132C523.56 76.6001 522.644 77.3936 520.813 77.3936H502.979V96.2534C502.979 98.0845 502.124 99 500.415 99H494.849ZM537.915 99C536.206 99 535.352 98.0845 535.352 96.2534V49.2319C535.352 47.4009 536.206 46.4854 537.915 46.4854H566.882C568.713 46.4854 569.629 47.2788 569.629 48.8657V53.187C569.629 54.7739 568.713 55.5674 566.882 55.5674H546.045V68.3115H563.879C565.71 68.3115 566.626 69.105 566.626 70.6919V75.0132C566.626 76.6001 565.71 77.3936 563.879 77.3936H546.045V96.2534C546.045 98.0845 545.19 99 543.481 99H537.915ZM580.981 99C579.272 99 578.418 98.0845 578.418 96.2534V49.2319C578.418 47.4009 579.272 46.4854 580.981 46.4854H612.402C614.233 46.4854 615.149 47.2788 615.149 48.8657V53.187C615.149 54.7739 614.233 55.5674 612.402 55.5674H589.111V67.2129H610.461C612.292 67.2129 613.208 68.0063 613.208 69.5933V73.9146C613.208 75.5015 612.292 76.2949 610.461 76.2949H589.111V89.918H613.574C615.405 89.918 616.321 90.7114 616.321 92.2983V96.6196C616.321 98.2065 615.405 99 613.574 99H580.981ZM622.583 72.7427C622.583 64.3198 624.719 57.6304 628.992 52.6743C633.264 47.7183 639.429 45.2402 647.485 45.2402C652.124 45.2402 656.055 45.9604 659.277 47.4009C662.5 48.8413 664.771 50.9287 666.089 53.6631C666.968 55.4697 666.821 56.6904 665.649 57.3252L661.255 59.6689C659.717 60.499 658.447 60.0352 657.446 58.2773C656.812 57.1543 655.627 56.1411 653.894 55.2378C652.185 54.3345 650.171 53.8828 647.852 53.8828C642.725 53.8828 639.136 55.5063 637.085 58.7534C635.034 61.9761 634.009 66.6392 634.009 72.7427C634.009 78.8462 635.034 83.5215 637.085 86.7686C639.136 89.9912 642.725 91.6025 647.852 91.6025C650.61 91.6025 652.93 90.98 654.81 89.7349C656.714 88.4897 658.032 87.3057 658.765 86.1826C659.961 84.3516 661.23 83.8877 662.573 84.791L666.968 87.7207C668.164 88.5264 668.286 89.7471 667.334 91.3828C665.918 93.8242 663.489 95.9116 660.046 97.645C656.604 99.3784 652.417 100.245 647.485 100.245C639.551 100.245 633.411 97.7671 629.065 92.811C624.744 87.855 622.583 81.1655 622.583 72.7427ZM675.354 55.8604C673.523 55.8604 672.607 55.0669 672.607 53.48V48.8657C672.607 47.2788 673.523 46.4854 675.354 46.4854H713C714.832 46.4854 715.747 47.2788 715.747 48.8657V53.48C715.747 55.0669 714.832 55.8604 713 55.8604H699.524V96.9858C699.524 98.3286 698.914 99 697.693 99H690.662C689.441 99 688.831 98.3286 688.831 96.9858V55.8604H675.354ZM723.474 95.0815C721.96 93.9341 721.594 92.7744 722.375 91.6025L725.195 87.3545C726.123 85.9629 727.478 85.8896 729.26 87.1348C730.627 88.0869 732.41 89.0757 734.607 90.1011C736.829 91.1021 739.16 91.6025 741.602 91.6025C743.311 91.6025 744.958 91.4072 746.545 91.0166C748.132 90.626 749.341 89.8691 750.171 88.7461C751.001 87.623 751.416 86.2925 751.416 84.7544C751.416 83.6558 751.233 82.6914 750.867 81.8613C750.5 81.0312 749.902 80.3477 749.072 79.8105C748.242 79.2734 747.388 78.8218 746.509 78.4556C744.971 77.8208 743.03 77.1982 740.686 76.5879C738.367 75.9531 736.072 75.1963 733.801 74.3174C731.775 73.5361 729.919 72.4619 728.235 71.0947C726.55 69.7275 725.244 68.1895 724.316 66.4805C723.389 64.7715 722.925 62.4888 722.925 59.6323C722.925 56.2388 724.023 53.3335 726.221 50.9165C728.418 48.4995 730.945 46.9492 733.801 46.2656C736.658 45.582 739.539 45.2402 742.444 45.2402C745.325 45.2402 748.291 45.6797 751.343 46.5586C754.419 47.4375 756.738 48.5361 758.301 49.8545C759.839 51.1484 760.217 52.3203 759.436 53.3701L756.47 57.3618C755.469 58.729 754.126 58.8389 752.441 57.6914C751.367 56.959 749.89 56.1411 748.01 55.2378C746.155 54.3345 744.214 53.8828 742.188 53.8828C740.747 53.8828 739.417 54.0049 738.196 54.249C737 54.4932 735.938 55.0791 735.01 56.0068C734.082 56.9346 733.618 58.082 733.618 59.4492C733.618 60.7676 733.96 61.8418 734.644 62.6719C735.327 63.4775 736.084 64.0879 736.914 64.5029C737.744 64.8936 738.586 65.2231 739.441 65.4917C742.078 66.3462 744.434 67.103 746.509 67.7622C748.584 68.397 750.5 69.105 752.258 69.8862C754.7 70.9849 756.567 72.0835 757.861 73.1821C759.155 74.2808 760.217 75.7822 761.047 77.6865C761.902 79.5908 762.329 81.8613 762.329 84.498C762.329 88.4043 761.084 91.6392 758.594 94.2026C756.104 96.7417 753.333 98.3774 750.281 99.1099C747.253 99.8667 744.299 100.245 741.418 100.245C737.17 100.245 733.716 99.8301 731.055 99C728.394 98.1943 725.867 96.8882 723.474 95.0815Z" fill="white"/>
<g clip-path="url(#clip0_53_2)">
<path d="M37.5 14.5H152.5V129.5H37.5V14.5Z" fill="#1F0740"/>
<path d="M31 8V136H159V8H31ZM152.5 129.5H37.5V14.5H152.5V129.5Z" fill="#D490C5"/>
<path d="M134.5 67.2C134.5 67.2 133.9 52.6 118 52.6C102 52.6 100.7 74.6 100.7 74.6V79.3C100.7 79.3 103.5 97.6 117 97.6C130.5 97.6 131.8 95 131.8 95V86.9C131.8 86.9 112.5 96.1 110.6 76.9H134.6V67.2H134.5ZM125.5 69.6H110.5C110.5 69.6 110.5 61.3 118 60.4C126.2 60.4 125.5 69.6 125.5 69.6ZM81.5 37.9H69.4V41.7L53.4 96.6H62.8L67.2 80.5H84L88.5 96.6H98.8L81.5 37.9ZM69.2 71.1L75.6 46.6L82 71.1H69.2Z" fill="#D490C5"/>
</g>
<defs>
<clipPath id="clip0_53_2">
<rect width="128" height="128" fill="white" transform="translate(31 8)"/>
</clipPath>
</defs>
</svg>
