<svg width="659" height="145" viewBox="0 0 659 145" fill="none" xmlns="http://www.w3.org/2000/svg">
<rect x="1.5" y="1.5" width="656" height="142" rx="36.5" fill="#2A2734" stroke="white" stroke-width="3"/>
<path d="M109.842 134.887C98.8664 133.833 89.0264 130.571 81.1569 125.379L79.5036 124.288L79.106 121.217C78.6653 117.799 78.203 112.361 78.2069 110.573V109.406L83.3409 109.364C86.1646 109.341 89.332 109.234 90.3809 109.119C92.0449 108.943 92.374 108.973 92.9783 109.352C98.5756 112.867 107.126 115.199 114.399 115.191C126.053 115.183 136.351 110.883 144.664 102.557C148.341 98.8721 150.362 96.1041 152.568 91.7158C158.629 79.686 158.759 65.9213 152.933 53.8797C147.164 41.9607 135.915 33.2037 123.061 30.6307C119.747 29.9642 115.183 29.6123 112.456 29.8073L110.232 29.9691L110.795 29.1722C111.108 28.736 113.171 26.5257 115.382 24.2634L119.404 20.1515L117.75 18.6127C115.413 16.4298 112.183 13.7343 109.762 11.9386L107.689 10.4036L108.469 10.2193C110.011 9.85568 119.013 9.96645 122.234 10.3879C148.701 13.849 169.827 33.089 175.563 58.961C177.44 67.419 177.478 76.7876 175.677 85.5407C173.4 96.5873 167.612 107.48 159.574 115.838C149.151 126.669 135.189 133.393 120.229 134.787C117.735 135.02 111.811 135.074 109.842 134.887ZM70.6782 116.907C67.1308 113.361 62.3376 107.603 62.6628 107.277C62.7235 107.215 64.0633 107.43 65.6353 107.748C68.0231 108.234 73.3941 109.049 74.2051 109.049C74.3275 109.049 74.4303 110.064 74.4342 111.355C74.4382 113.468 74.6595 116.497 75.0395 119.625C75.1463 120.506 75.1081 120.866 74.9122 120.866C74.7594 120.866 72.8505 119.086 70.6782 116.907ZM78.2069 104.241C78.2069 102.338 78.7005 96.6707 78.8837 96.4717C78.9718 96.3795 79.7181 97.195 80.5447 98.287C81.3674 99.3818 83.2342 101.453 84.6915 102.889L87.3389 105.508H78.2069V104.241ZM73.3637 105.11C69.4148 104.624 61.3954 103.081 60.7578 102.686C60.562 102.564 60.796 101.614 61.5805 99.3436C62.6167 96.357 65.0613 90.4876 65.4443 90.0779C65.5393 89.978 66.8292 90.5259 68.31 91.2992C69.7938 92.0726 71.9436 93.1067 73.0954 93.6037L75.1845 94.4995L75.0395 95.5797C74.7065 98.0988 74.4382 101.507 74.4342 103.321C74.4313 104.394 74.3461 105.255 74.2511 105.236C74.1512 105.217 73.7535 105.16 73.3637 105.11ZM56.1967 94.9445C54.9081 91.5506 53.8986 88.0571 53.1782 84.4987C52.4486 80.8769 52.4711 80.8505 54.7208 82.6266C55.7609 83.4499 57.754 84.9006 59.1477 85.8465C60.5384 86.7972 61.6795 87.6118 61.6795 87.6539C61.6795 87.7 61.2436 88.6802 60.7118 89.829C59.9956 91.4152 59.3179 93.0186 58.6795 94.6377C58.0948 96.1306 57.5395 97.4411 57.4406 97.544C57.3446 97.6469 56.7863 96.4756 56.1967 94.9445ZM73.1796 88.8331C71.3667 87.9989 68.0769 86.3179 67.6284 86.0004C67.5363 85.9347 69.9623 81.9336 71.1983 80.1153L72.1659 78.6872L72.3344 79.3988C73.4166 83.9322 74.0679 86.2376 74.7408 87.9147C75.1815 89.0125 75.5292 89.9093 75.5175 89.9093C75.5018 89.9054 74.4499 89.4232 73.1796 88.8331ZM60.8225 81.7395C58.2741 79.9585 54.0156 76.6053 53.7482 76.172C53.4965 75.7623 62.1731 67.3465 62.8498 67.3465C62.9615 67.3465 63.9027 68.4639 64.9389 69.8283C65.98 71.1947 67.3678 72.9296 68.0299 73.6834C68.692 74.4381 69.2346 75.1046 69.2346 75.1654C69.2346 75.2262 68.4021 76.5249 67.3796 78.0481C66.362 79.5684 65.1798 81.4298 64.7597 82.1757C64.3385 82.9226 63.8606 83.5352 63.6921 83.5352C63.5276 83.5352 62.2338 82.7275 60.8225 81.7395ZM52 70.4125C52.0343 67.4455 53.0333 60.6871 54.0127 56.8046C54.9842 52.9613 54.7933 52.9877 56.5572 56.4792C57.4063 58.168 58.5728 60.3352 59.1428 61.2997L60.18 63.0464L58.3896 64.5814C57.4063 65.4243 55.566 67.1347 54.2996 68.3796C53.0333 69.6273 52 70.5428 52 70.4125ZM70.9809 69.6352C69.117 67.4102 66.8899 64.3206 67.0084 64.1295C67.169 63.8688 69.9202 62.0005 72.1581 60.6302C73.6576 59.7108 73.7731 59.6765 73.6233 60.1823C73.0729 62.0691 72.2913 66.036 72.0739 68.0434C71.9328 69.3333 71.7947 70.4164 71.7644 70.4468C71.734 70.4782 71.3824 70.1106 70.9809 69.6352ZM62.7891 57.8044C60.3406 53.5347 57.5131 47.4281 57.8421 47.1253C58.371 46.6312 67.3453 44.1161 69.9966 43.7181L71.0298 43.5613L71.5499 46.7126C71.8339 48.4475 72.3109 50.8813 72.6135 52.1262L73.161 54.3923L71.2218 55.495C70.1542 56.1047 68.1102 57.3829 66.6832 58.3366L64.0898 60.0715L62.7891 57.8044ZM77.2892 48.0251C77.0412 46.7009 76.81 45.3736 76.5958 44.0435L76.397 42.7105L77.6016 42.5694C78.2676 42.4929 80.0815 42.3586 81.6348 42.2753L84.4624 42.1253L83.4937 43.1594C81.8953 44.8669 80.0776 47.1605 78.8954 48.9719L77.7818 50.6745L77.2892 48.0251ZM61.462 39.3837C63.0761 36.6461 68.1758 30.1484 69.9045 28.6213L70.4138 28.1695V38.1007L68.3472 38.5026C66.55 38.8515 62.7088 39.7895 61.3425 40.211C60.9253 40.3414 60.9341 40.2718 61.462 39.3837ZM75.8886 31.3698C75.9308 28.1116 76.0258 25.3857 76.1031 25.3093C76.3676 25.0407 87.4192 27.2422 87.8364 27.6441C87.8756 27.6833 87.5426 28.9193 87.0979 30.3974C86.6503 31.8795 86.0989 33.8967 85.8698 34.8808L85.4525 36.6804L82.1245 36.8274C80.292 36.9078 78.1227 37.045 77.3039 37.1332L75.8123 37.294L75.8886 31.3698ZM91.662 36.2138C91.662 36.106 92.5992 32.7175 93.0968 31.0326L93.564 29.4555L96.4483 30.6425C100.27 32.2157 100.183 32.1588 99.3287 32.5146C97.3356 33.3537 94.0497 34.9455 93.04 35.5699C91.9685 36.2285 91.662 36.3707 91.662 36.2138ZM102.287 26.7178C101.441 26.2934 99.6196 25.4887 98.2387 24.9299L95.7255 23.9155L95.9704 23.2146C96.2798 22.3266 99.7381 15.3878 100.386 14.3538L100.871 13.5774L102.347 14.5723C104.28 15.8819 107.83 18.5391 109 19.5576L109.931 20.3662L107.463 23.1842C106.108 24.731 104.735 26.3346 104.41 26.7443L103.82 27.4951L102.287 26.7178ZM86.8217 21.2503C85.2941 20.8599 83.7602 20.4949 82.2205 20.1555L80.6828 19.8379L82.7631 18.6009C84.0043 17.8702 85.2649 17.173 86.5436 16.5102C88.3604 15.5917 93.8392 13.3324 93.9577 13.451C93.9969 13.4892 93.5757 14.4155 93.0174 15.5074C92.4621 16.5984 91.5895 18.448 91.0812 19.6193C90.5719 20.7867 90.0978 21.809 90.0244 21.8855C89.9519 21.9629 88.5102 21.6757 86.8217 21.2503Z" fill="#3EB049"/>
<path d="M206.211 99C204.454 99 203.88 98.1943 204.49 96.583L222.435 49.4517C223.191 47.4741 224.339 46.4854 225.877 46.4854H231.004C232.542 46.4854 233.689 47.4741 234.446 49.4517L252.391 96.583C253.001 98.1943 252.427 99 250.669 99H244.847C243.235 99 242.112 98.1577 241.478 96.4731L237.742 86.6221H219.139L215.403 96.4731C214.769 98.1577 213.646 99 212.034 99H206.211ZM222.544 77.54H234.336L229.832 65.8945C229.295 64.5273 228.965 63.5386 228.843 62.9282C228.746 62.2935 228.636 61.3657 228.514 60.145H228.367C228.245 61.3657 228.123 62.2935 228.001 62.9282C227.903 63.5386 227.586 64.5273 227.049 65.8945L222.544 77.54ZM261.473 99C259.764 99 258.909 98.0845 258.909 96.2534V49.2319C258.909 47.4009 259.764 46.4854 261.473 46.4854H266.893C268.992 46.4854 270.579 47.3398 271.653 49.0488L290.33 79.0415H290.586C290.464 77.5767 290.403 76.1118 290.403 74.647V49.2319C290.403 47.4009 291.258 46.4854 292.967 46.4854H298.533C300.242 46.4854 301.097 47.4009 301.097 49.2319V96.2534C301.097 98.0845 300.242 99 298.533 99H293.479C291.38 99 289.793 98.1455 288.719 96.4365L269.676 65.8945H269.419C269.542 67.3594 269.603 68.8242 269.603 70.2891V96.2534C269.603 98.0845 268.748 99 267.039 99H261.473ZM311.167 99C309.41 99 308.836 98.1943 309.446 96.583L327.391 49.4517C328.147 47.4741 329.295 46.4854 330.833 46.4854H335.96C337.498 46.4854 338.646 47.4741 339.402 49.4517L357.347 96.583C357.957 98.1943 357.383 99 355.625 99H349.803C348.191 99 347.068 98.1577 346.434 96.4731L342.698 86.6221H324.095L320.359 96.4731C319.725 98.1577 318.602 99 316.99 99H311.167ZM327.5 77.54H339.292L334.788 65.8945C334.251 64.5273 333.921 63.5386 333.799 62.9282C333.702 62.2935 333.592 61.3657 333.47 60.145H333.323C333.201 61.3657 333.079 62.2935 332.957 62.9282C332.859 63.5386 332.542 64.5273 332.005 65.8945L327.5 77.54ZM361.155 72.7427C361.155 64.3198 363.292 57.6304 367.564 52.6743C371.836 47.7183 378.001 45.2402 386.058 45.2402C390.696 45.2402 394.627 45.9604 397.85 47.4009C401.072 48.8413 403.343 50.9287 404.661 53.6631C405.54 55.4697 405.394 56.6904 404.222 57.3252L399.827 59.6689C398.289 60.499 397.02 60.0352 396.019 58.2773C395.384 57.1543 394.2 56.1411 392.466 55.2378C390.757 54.3345 388.743 53.8828 386.424 53.8828C381.297 53.8828 377.708 55.5063 375.657 58.7534C373.606 61.9761 372.581 66.6392 372.581 72.7427C372.581 78.8462 373.606 83.5215 375.657 86.7686C377.708 89.9912 381.297 91.6025 386.424 91.6025C389.183 91.6025 391.502 90.98 393.382 89.7349C395.286 88.4897 396.604 87.3057 397.337 86.1826C398.533 84.3516 399.803 83.8877 401.146 84.791L405.54 87.7207C406.736 88.5264 406.858 89.7471 405.906 91.3828C404.49 93.8242 402.061 95.9116 398.619 97.645C395.176 99.3784 390.989 100.245 386.058 100.245C378.123 100.245 371.983 97.7671 367.637 92.811C363.316 87.855 361.155 81.1655 361.155 72.7427ZM413.084 72.7427C413.084 64.3198 415.257 57.6304 419.603 52.6743C423.948 47.7183 430.149 45.2402 438.206 45.2402C446.263 45.2402 452.464 47.7183 456.81 52.6743C461.155 57.6304 463.328 64.3198 463.328 72.7427C463.328 81.1655 461.155 87.855 456.81 92.811C452.464 97.7671 446.263 100.245 438.206 100.245C430.149 100.245 423.948 97.7671 419.603 92.811C415.257 87.855 413.084 81.1655 413.084 72.7427ZM424.51 72.7427C424.51 78.8462 425.596 83.5215 427.769 86.7686C429.966 89.9912 433.445 91.6025 438.206 91.6025C442.967 91.6025 446.434 89.9912 448.606 86.7686C450.804 83.5215 451.902 78.8462 451.902 72.7427C451.902 66.6392 450.804 61.9761 448.606 58.7534C446.434 55.5063 442.967 53.8828 438.206 53.8828C433.445 53.8828 429.966 55.5063 427.769 58.7534C425.596 61.9761 424.51 66.6392 424.51 72.7427ZM474.9 99C473.191 99 472.337 98.0845 472.337 96.2534V49.2319C472.337 47.4009 473.191 46.4854 474.9 46.4854H480.32C482.42 46.4854 484.007 47.3398 485.081 49.0488L503.758 79.0415H504.014C503.892 77.5767 503.831 76.1118 503.831 74.647V49.2319C503.831 47.4009 504.686 46.4854 506.395 46.4854H511.961C513.67 46.4854 514.524 47.4009 514.524 49.2319V96.2534C514.524 98.0845 513.67 99 511.961 99H506.907C504.808 99 503.221 98.1455 502.146 96.4365L483.104 65.8945H482.847C482.969 67.3594 483.03 68.8242 483.03 70.2891V96.2534C483.03 98.0845 482.176 99 480.467 99H474.9ZM528.807 99C527.098 99 526.243 98.0845 526.243 96.2534V49.2319C526.243 47.4009 527.098 46.4854 528.807 46.4854H541.587C552.818 46.4854 560.411 48.7559 564.366 53.2969C568.345 57.8379 570.335 64.2954 570.335 72.6694C570.335 81.0435 568.345 87.5254 564.366 92.1152C560.411 96.7051 552.818 99 541.587 99H528.807ZM536.937 89.918H540.892C548.46 89.918 553.355 88.5142 555.577 85.7065C557.798 82.8745 558.909 78.5288 558.909 72.6694C558.909 66.8101 557.798 62.4888 555.577 59.7056C553.355 56.8979 548.46 55.4941 540.892 55.4941H536.937V89.918ZM577.696 99C575.938 99 575.364 98.1943 575.975 96.583L593.919 49.4517C594.676 47.4741 595.823 46.4854 597.361 46.4854H602.488C604.026 46.4854 605.174 47.4741 605.931 49.4517L623.875 96.583C624.485 98.1943 623.912 99 622.154 99H616.331C614.72 99 613.597 98.1577 612.962 96.4731L609.227 86.6221H590.623L586.888 96.4731C586.253 98.1577 585.13 99 583.519 99H577.696ZM594.029 77.54H605.821L601.316 65.8945C600.779 64.5273 600.45 63.5386 600.328 62.9282C600.23 62.2935 600.12 61.3657 599.998 60.145H599.852C599.729 61.3657 599.607 62.2935 599.485 62.9282C599.388 63.5386 599.07 64.5273 598.533 65.8945L594.029 77.54Z" fill="white"/>
</svg>
