<svg width="478" height="145" viewBox="0 0 478 145" fill="none" xmlns="http://www.w3.org/2000/svg">
<rect x="1.5" y="1.5" width="475" height="142" rx="36.5" fill="#2A2734" stroke="white" stroke-width="3"/>
<path d="M161.211 99C159.454 99 158.88 98.1943 159.49 96.583L177.435 49.4517C178.191 47.4741 179.339 46.4854 180.877 46.4854H186.004C187.542 46.4854 188.689 47.4741 189.446 49.4517L207.391 96.583C208.001 98.1943 207.427 99 205.669 99H199.847C198.235 99 197.112 98.1577 196.478 96.4731L192.742 86.6221H174.139L170.403 96.4731C169.769 98.1577 168.646 99 167.034 99H161.211ZM177.544 77.54H189.336L184.832 65.8945C184.295 64.5273 183.965 63.5386 183.843 62.9282C183.746 62.2935 183.636 61.3657 183.514 60.145H183.367C183.245 61.3657 183.123 62.2935 183.001 62.9282C182.903 63.5386 182.586 64.5273 182.049 65.8945L177.544 77.54ZM216.473 99C214.764 99 213.909 98.0845 213.909 96.2534V49.2319C213.909 47.4009 214.764 46.4854 216.473 46.4854H230.169C238.958 46.4854 245.049 47.9136 248.443 50.77C251.861 53.6265 253.57 57.6792 253.57 62.9282C253.57 68.1772 251.861 72.23 248.443 75.0864C245.049 77.9429 238.958 79.3711 230.169 79.3711H224.603V96.2534C224.603 98.0845 223.748 99 222.039 99H216.473ZM224.603 70.4355H230.132C235.015 70.4355 238.335 69.8618 240.093 68.7144C241.851 67.5425 242.73 65.6138 242.73 62.9282C242.73 60.2427 241.851 58.3262 240.093 57.1787C238.335 56.0068 235.015 55.4209 230.132 55.4209H224.603V70.4355ZM257.452 99C255.694 99 255.12 98.1943 255.73 96.583L273.675 49.4517C274.432 47.4741 275.579 46.4854 277.117 46.4854H282.244C283.782 46.4854 284.93 47.4741 285.687 49.4517L303.631 96.583C304.241 98.1943 303.667 99 301.91 99H296.087C294.476 99 293.353 98.1577 292.718 96.4731L288.982 86.6221H270.379L266.644 96.4731C266.009 98.1577 264.886 99 263.274 99H257.452ZM273.785 77.54H285.577L281.072 65.8945C280.535 64.5273 280.206 63.5386 280.083 62.9282C279.986 62.2935 279.876 61.3657 279.754 60.145H279.607C279.485 61.3657 279.363 62.2935 279.241 62.9282C279.144 63.5386 278.826 64.5273 278.289 65.8945L273.785 77.54ZM307.439 72.7427C307.439 64.3198 309.576 57.6304 313.848 52.6743C318.121 47.7183 324.285 45.2402 332.342 45.2402C336.98 45.2402 340.911 45.9604 344.134 47.4009C347.356 48.8413 349.627 50.9287 350.945 53.6631C351.824 55.4697 351.678 56.6904 350.506 57.3252L346.111 59.6689C344.573 60.499 343.304 60.0352 342.303 58.2773C341.668 57.1543 340.484 56.1411 338.75 55.2378C337.042 54.3345 335.027 53.8828 332.708 53.8828C327.581 53.8828 323.992 55.5063 321.941 58.7534C319.891 61.9761 318.865 66.6392 318.865 72.7427C318.865 78.8462 319.891 83.5215 321.941 86.7686C323.992 89.9912 327.581 91.6025 332.708 91.6025C335.467 91.6025 337.786 90.98 339.666 89.7349C341.57 88.4897 342.889 87.3057 343.621 86.1826C344.817 84.3516 346.087 83.8877 347.43 84.791L351.824 87.7207C353.021 88.5264 353.143 89.7471 352.19 91.3828C350.774 93.8242 348.345 95.9116 344.903 97.645C341.46 99.3784 337.273 100.245 332.342 100.245C324.407 100.245 318.267 97.7671 313.921 92.811C309.6 87.855 307.439 81.1655 307.439 72.7427ZM364.642 99C362.933 99 362.078 98.0845 362.078 96.2534V49.2319C362.078 47.4009 362.933 46.4854 364.642 46.4854H370.208C371.917 46.4854 372.771 47.4009 372.771 49.2319V67.1396H392.474V49.2319C392.474 47.4009 393.328 46.4854 395.037 46.4854H400.604C402.312 46.4854 403.167 47.4009 403.167 49.2319V96.2534C403.167 98.0845 402.312 99 400.604 99H395.037C393.328 99 392.474 98.0845 392.474 96.2534V76.2217H372.771V96.2534C372.771 98.0845 371.917 99 370.208 99H364.642ZM417.449 99C415.74 99 414.886 98.0845 414.886 96.2534V49.2319C414.886 47.4009 415.74 46.4854 417.449 46.4854H448.87C450.701 46.4854 451.617 47.2788 451.617 48.8657V53.187C451.617 54.7739 450.701 55.5674 448.87 55.5674H425.579V67.2129H446.929C448.76 67.2129 449.676 68.0063 449.676 69.5933V73.9146C449.676 75.5015 448.76 76.2949 446.929 76.2949H425.579V89.918H450.042C451.873 89.918 452.789 90.7114 452.789 92.2983V96.6196C452.789 98.2065 451.873 99 450.042 99H417.449Z" fill="white"/>
<path d="M115.522 8.60602C113.515 9.79102 110.174 13.146 106.204 18.013L109.856 24.916C112.426 21.25 115.033 17.939 117.663 15.116C116.811 16.049 114.226 19.072 110.33 25.057C114.085 24.872 119.848 24.101 124.552 23.301C125.959 15.457 123.182 11.872 123.182 11.872C123.182 11.872 119.655 6.17002 115.522 8.60602Z" fill="url(#paint0_linear_53_2)"/>
<path d="M103.234 66.5959C102.767 66.6769 102.294 66.7659 101.797 66.8479C101.797 66.8479 101.79 66.8479 101.79 66.8549L102.53 66.7439C102.76 66.6919 102.997 66.6479 103.234 66.5959Z" fill="#BD202E"/>
<path opacity="0.35" d="M103.234 66.5959C102.767 66.6769 102.294 66.7659 101.797 66.8479C101.797 66.8479 101.79 66.8479 101.79 66.8549L102.53 66.7439C102.76 66.6919 102.997 66.6479 103.234 66.5959Z" fill="#BD202E"/>
<path d="M104.456 60.559C104.449 60.559 104.449 60.559 104.449 60.566C104.523 60.559 104.604 60.544 104.679 60.529C104.989 60.485 105.293 60.433 105.589 60.359C105.219 60.426 104.849 60.492 104.456 60.559Z" fill="#BD202E"/>
<path opacity="0.35" d="M104.456 60.559C104.449 60.559 104.449 60.559 104.449 60.566C104.523 60.559 104.604 60.544 104.679 60.529C104.989 60.485 105.293 60.433 105.589 60.359C105.219 60.426 104.849 60.492 104.456 60.559Z" fill="#BD202E"/>
<path d="M99.071 42.76C100.162 40.7154 101.286 38.6881 102.441 36.679C103.596 34.665 104.791 32.6746 106.026 30.709C106.093 30.597 106.174 30.479 106.241 30.368C107.402 28.5264 108.605 26.7113 109.848 24.924L106.197 18.02C105.917 18.3608 105.64 18.7041 105.367 19.05C104.252 20.4413 103.16 21.8515 102.093 23.28C100.767 25.0558 99.4706 26.8534 98.204 28.672C96.9439 30.4811 95.7094 32.3079 94.501 34.152C93.424 35.7968 92.3696 37.4563 91.338 39.13C91.301 39.19 91.264 39.256 91.228 39.323L95.99 48.73C96.9857 46.724 98.0128 44.7338 99.071 42.76Z" fill="url(#paint1_linear_53_2)"/>
<path d="M77.3831 95.735C76.7393 97.4961 76.1073 99.2615 75.4871 101.031C75.4791 101.053 75.4721 101.083 75.4571 101.105C75.3681 101.357 75.2721 101.616 75.1911 101.868C74.7611 103.083 74.3911 104.179 73.5391 106.661C74.9391 107.298 76.0651 108.986 77.1311 110.897C77.0329 108.879 76.1376 106.982 74.6421 105.624C81.5531 105.934 87.5091 104.187 90.5901 99.135C90.8641 98.683 91.1161 98.216 91.3451 97.705C89.9451 99.483 88.2051 100.231 84.9381 100.053C89.7531 97.898 92.1601 95.831 94.3011 92.409C94.8051 91.595 95.3011 90.713 95.8051 89.728C91.5971 94.046 86.7311 95.276 81.5981 94.343L77.7461 94.765C77.6201 95.091 77.5091 95.409 77.3831 95.735Z" fill="url(#paint2_linear_53_2)"/>
<path d="M79.183 87.12C80.013 84.973 80.872 82.795 81.746 80.603C82.594 78.4826 83.4583 76.3689 84.339 74.262C85.2325 72.1271 86.1358 69.9964 87.049 67.87C87.983 65.7 88.946 63.537 89.931 61.381C90.8927 59.258 91.8755 57.1445 92.879 55.041C93.234 54.285 93.605 53.53 93.968 52.781C94.598 51.485 95.234 50.196 95.878 48.922C95.916 48.856 95.945 48.782 95.982 48.715L91.22 39.308C91.1454 39.4367 91.0663 39.5627 90.983 39.686C89.8572 41.5214 88.7584 43.3733 87.687 45.241C86.5816 47.1693 85.5072 49.1153 84.464 51.078C83.5782 52.7493 82.7114 54.4308 81.864 56.122C81.694 56.462 81.531 56.811 81.361 57.152C80.3718 59.1911 79.4309 61.2534 78.539 63.337C77.6286 65.4543 76.7816 67.5982 75.999 69.766C75.509 71.106 75.072 72.396 74.665 73.64C74.332 74.699 74.02 75.766 73.709 76.825C73.0032 79.2841 72.3927 81.7696 71.879 84.276L76.665 93.72C77.295 92.032 77.946 90.313 78.613 88.58C78.813 88.084 78.991 87.595 79.183 87.12Z" fill="url(#paint3_linear_53_2)"/>
<path d="M71.828 84.595C71.228 87.617 70.798 90.625 70.583 93.617L70.5611 93.927C69.0651 91.535 65.0731 89.202 65.0801 89.224C67.9471 93.372 70.1171 97.491 70.4351 101.534C68.9021 101.846 66.805 101.394 64.384 100.505C66.91 102.831 68.8061 103.468 69.5541 103.645C67.2281 103.794 64.814 105.387 62.376 107.224C65.939 105.772 68.8211 105.194 70.8801 105.661C67.6061 114.919 64.332 125.141 61.05 136C62.058 135.704 62.6581 135.022 62.9911 134.111C63.5761 132.148 67.451 119.245 73.531 102.305C73.709 101.824 73.88 101.335 74.057 100.853C74.102 100.713 74.1541 100.579 74.2061 100.453C74.8431 98.676 75.5161 96.861 76.1981 95.009C76.3541 94.587 76.5091 94.165 76.6721 93.743C76.6721 93.735 76.68 93.728 76.68 93.72L71.8871 84.276C71.8696 84.3828 71.8506 84.4892 71.828 84.595Z" fill="url(#paint4_linear_53_2)"/>
<path d="M96.723 49.5C96.583 49.782 96.449 50.063 96.308 50.345C95.894 51.196 95.478 52.063 95.049 52.952C94.589 53.915 94.131 54.892 93.664 55.9C93.427 56.404 93.19 56.915 92.953 57.433C92.2218 59.0284 91.5008 60.6285 90.79 62.233C89.8553 64.3335 88.9392 66.4423 88.042 68.559C87.161 70.647 86.249 72.803 85.346 75.039C84.479 77.159 83.606 79.351 82.716 81.602C81.9019 83.6649 81.1046 85.7343 80.324 87.81C80.287 87.906 80.25 88.017 80.213 88.113C79.413 90.224 78.605 92.395 77.798 94.617C77.783 94.668 77.761 94.713 77.746 94.772L81.598 94.35C81.524 94.335 81.442 94.328 81.368 94.313C85.968 93.743 92.094 90.298 96.042 86.054C97.864 84.099 99.516 81.788 101.042 79.084C102.175 77.077 103.249 74.84 104.271 72.374C105.214 70.0664 106.069 67.7237 106.834 65.351C105.774 65.907 104.567 66.321 103.234 66.603C102.997 66.655 102.76 66.699 102.516 66.743C102.271 66.788 102.026 66.825 101.775 66.855C101.775 66.855 101.782 66.855 101.782 66.848C106.078 65.196 108.782 62.011 110.745 58.108C109.619 58.878 107.782 59.885 105.582 60.366C105.205 60.4486 104.824 60.518 104.442 60.574H104.456C105.952 59.952 107.204 59.248 108.293 58.426C108.53 58.248 108.76 58.07 108.967 57.878C109.3 57.588 109.612 57.285 109.923 56.974C110.115 56.767 110.3 56.559 110.486 56.344C110.916 55.834 111.316 55.285 111.686 54.693C111.796 54.507 111.916 54.33 112.019 54.137C112.167 53.863 112.3 53.589 112.434 53.33C112.964 52.2763 113.451 51.2014 113.893 50.108C114.085 49.634 114.248 49.204 114.396 48.789C114.456 48.626 114.507 48.471 114.559 48.315C114.715 47.863 114.833 47.463 114.929 47.108C115.078 46.574 115.167 46.152 115.211 45.848C115.063 45.96 114.901 46.078 114.707 46.189C113.411 46.967 111.189 47.663 109.397 47.997C109.374 48.004 109.345 48.004 109.315 48.011C109.13 48.041 108.96 48.071 108.775 48.093L108.863 48.048L96.768 49.374C96.7608 49.4184 96.7455 49.4611 96.723 49.5Z" fill="url(#paint5_linear_53_2)"/>
<path d="M110.337 25.0569C109.13 26.9191 107.957 28.803 106.819 30.7079C105.563 32.8229 104.338 34.9565 103.145 37.1079C102.023 39.1459 100.927 41.1977 99.856 43.2629C98.8104 45.2893 97.7856 47.3265 96.782 49.3739L108.878 48.0479C112.404 46.4259 113.974 44.9669 115.5 42.8409C115.9 42.2559 116.315 41.6489 116.715 41.0109C117.996 39.0019 119.18 36.9328 120.263 34.8109C121.314 32.7609 122.24 30.7309 122.951 28.8939C123.365 27.8478 123.722 26.7795 124.018 25.6939C124.24 24.8569 124.411 24.0569 124.544 23.2939C119.855 24.1009 114.085 24.8719 110.337 25.0569Z" fill="url(#paint6_linear_53_2)"/>
<path d="M102.516 66.729C102.271 66.773 102.026 66.81 101.775 66.84C102.027 66.818 102.279 66.773 102.516 66.729Z" fill="#BD202E"/>
<path opacity="0.35" d="M102.516 66.729C102.271 66.773 102.026 66.81 101.775 66.84C102.027 66.818 102.279 66.773 102.516 66.729Z" fill="#BD202E"/>
<path d="M102.516 66.729C102.271 66.773 102.026 66.81 101.775 66.84C102.027 66.818 102.279 66.773 102.516 66.729Z" fill="url(#paint7_linear_53_2)"/>
<path d="M104.449 60.5661C104.523 60.5591 104.604 60.5441 104.679 60.5291C104.604 60.5371 104.53 60.5591 104.449 60.5661Z" fill="#BD202E"/>
<path opacity="0.35" d="M104.449 60.5661C104.523 60.5591 104.604 60.5441 104.679 60.5291C104.604 60.5371 104.53 60.5591 104.449 60.5661Z" fill="#BD202E"/>
<path d="M104.449 60.5661C104.523 60.5591 104.604 60.5441 104.679 60.5291C104.604 60.5371 104.53 60.5591 104.449 60.5661Z" fill="url(#paint8_linear_53_2)"/>
<defs>
<linearGradient id="paint0_linear_53_2" x1="109.277" y1="18.871" x2="136.078" y2="11.42" gradientUnits="userSpaceOnUse">
<stop stop-color="#F59723"/>
<stop offset="0.312" stop-color="#F69822"/>
<stop offset="0.838" stop-color="#E87726"/>
</linearGradient>
<linearGradient id="paint1_linear_53_2" x1="50.611" y1="139.156" x2="105.124" y2="22.252" gradientUnits="userSpaceOnUse">
<stop offset="0.323" stop-color="#9C2063"/>
<stop offset="0.63" stop-color="#C82037"/>
<stop offset="0.751" stop-color="#CC2135"/>
<stop offset="1" stop-color="#E87726"/>
</linearGradient>
<linearGradient id="paint2_linear_53_2" x1="68.9031" y1="130.505" x2="101.387" y2="60.841" gradientUnits="userSpaceOnUse">
<stop stop-color="#282661"/>
<stop offset="0.095" stop-color="#662E8C"/>
<stop offset="0.788" stop-color="#9E2064"/>
<stop offset="0.949" stop-color="#CC2032"/>
</linearGradient>
<linearGradient id="paint3_linear_53_2" x1="52.576" y1="132.078" x2="107.089" y2="15.174" gradientUnits="userSpaceOnUse">
<stop offset="0.323" stop-color="#9C2063"/>
<stop offset="0.63" stop-color="#C82037"/>
<stop offset="0.751" stop-color="#CC2135"/>
<stop offset="1" stop-color="#E87726"/>
</linearGradient>
<linearGradient id="paint4_linear_53_2" x1="58.138" y1="124.292" x2="86.786" y2="62.855" gradientUnits="userSpaceOnUse">
<stop stop-color="#282661"/>
<stop offset="0.095" stop-color="#662E8C"/>
<stop offset="0.788" stop-color="#9E2064"/>
<stop offset="0.949" stop-color="#CC2032"/>
</linearGradient>
<linearGradient id="paint5_linear_53_2" x1="64.68" y1="137.722" x2="119.192" y2="20.818" gradientUnits="userSpaceOnUse">
<stop offset="0.323" stop-color="#9C2063"/>
<stop offset="0.63" stop-color="#C82037"/>
<stop offset="0.751" stop-color="#CC2135"/>
<stop offset="1" stop-color="#E87726"/>
</linearGradient>
<linearGradient id="paint6_linear_53_2" x1="60.692" y1="144.692" x2="115.205" y2="27.7879" gradientUnits="userSpaceOnUse">
<stop offset="0.323" stop-color="#9C2063"/>
<stop offset="0.63" stop-color="#C82037"/>
<stop offset="0.751" stop-color="#CC2135"/>
<stop offset="1" stop-color="#E87726"/>
</linearGradient>
<linearGradient id="paint7_linear_53_2" x1="68.2721" y1="139.397" x2="122.784" y2="22.4932" gradientUnits="userSpaceOnUse">
<stop offset="0.323" stop-color="#9C2063"/>
<stop offset="0.63" stop-color="#C82037"/>
<stop offset="0.751" stop-color="#CC2135"/>
<stop offset="1" stop-color="#E87726"/>
</linearGradient>
<linearGradient id="paint8_linear_53_2" x1="67.8644" y1="139.214" x2="122.383" y2="22.3027" gradientUnits="userSpaceOnUse">
<stop offset="0.323" stop-color="#9C2063"/>
<stop offset="0.63" stop-color="#C82037"/>
<stop offset="0.751" stop-color="#CC2135"/>
<stop offset="1" stop-color="#E87726"/>
</linearGradient>
</defs>
</svg>
