<svg width="431" height="145" viewBox="0 0 431 145" fill="none" xmlns="http://www.w3.org/2000/svg">
<rect x="1.5" y="1.5" width="428" height="142" rx="36.5" fill="#2A2734" stroke="white" stroke-width="3"/>
<path fill-rule="evenodd" clip-rule="evenodd" d="M96.1129 12.886C90.8199 25.7883 87.6285 34.2297 81.7379 46.7493C85.3512 50.554 89.7847 54.9915 96.984 59.9993C89.2418 56.8313 83.9644 53.6516 80.0152 50.3508C72.4762 65.9954 60.6637 88.2844 36.691 131.12C55.5347 120.304 70.1402 113.636 83.7496 111.089C83.1637 108.589 82.8316 105.886 82.8551 103.066L82.8785 102.464C83.1754 90.4602 89.4566 81.2258 96.8941 81.8547C104.332 82.4797 110.117 92.7258 109.816 104.73C109.761 106.991 109.503 109.163 109.054 111.179C122.519 113.8 136.968 120.452 155.554 131.12C151.89 124.413 148.621 118.363 145.496 112.601C140.574 108.808 135.441 103.874 124.972 98.5266C132.168 100.39 137.32 102.534 141.336 104.933C109.578 46.1204 107.003 38.3079 96.1129 12.886Z" fill="#1791CF"/>
<path d="M156.14 120.57V117.327H154.925V116.894H157.855V117.327H156.632V120.57H156.14Z" fill="#1791CF"/>
<path d="M158.363 120.57V116.894H159.097L159.972 119.495C160.054 119.738 160.113 119.921 160.148 120.038C160.191 119.906 160.257 119.71 160.347 119.452L161.23 116.894H161.89V120.57H161.418V117.491L160.343 120.57H159.902L158.836 117.441V120.57H158.363Z" fill="#1791CF"/>
<path d="M179.211 99C177.454 99 176.88 98.1943 177.49 96.583L195.435 49.4517C196.191 47.4741 197.339 46.4854 198.877 46.4854H204.004C205.542 46.4854 206.689 47.4741 207.446 49.4517L225.391 96.583C226.001 98.1943 225.427 99 223.669 99H217.847C216.235 99 215.112 98.1577 214.478 96.4731L210.742 86.6221H192.139L188.403 96.4731C187.769 98.1577 186.646 99 185.034 99H179.211ZM195.544 77.54H207.336L202.832 65.8945C202.295 64.5273 201.965 63.5386 201.843 62.9282C201.746 62.2935 201.636 61.3657 201.514 60.145H201.367C201.245 61.3657 201.123 62.2935 201.001 62.9282C200.903 63.5386 200.586 64.5273 200.049 65.8945L195.544 77.54ZM234.473 99C232.764 99 231.909 98.0845 231.909 96.2534V49.2319C231.909 47.4009 232.764 46.4854 234.473 46.4854H251.428C258.972 46.4854 264.478 47.6572 267.944 50.001C271.411 52.3203 273.145 56.1045 273.145 61.3535C273.145 65.2598 271.741 68.3726 268.933 70.6919C266.125 73.0112 262.561 74.5493 258.24 75.3062V75.3794C260.583 76.2583 262.354 77.479 263.55 79.0415C264.746 80.604 265.723 81.9712 266.479 83.1431L274.536 95.8506C275.879 97.9502 275.415 99 273.145 99H266.772C265.43 99 264.331 98.2798 263.477 96.8394L256.079 84.498C255.273 83.1797 253.796 81.7393 251.648 80.1768C249.524 78.5898 247.412 77.7964 245.312 77.7964H242.603V96.2534C242.603 98.0845 241.748 99 240.039 99H234.473ZM242.603 68.7144H249.158C254.041 68.7144 257.507 68.165 259.558 67.0664C261.633 65.9434 262.671 64.1733 262.671 61.7563C262.671 59.1196 261.67 57.4106 259.668 56.6294C257.69 55.8237 254.773 55.4209 250.916 55.4209H242.603V68.7144ZM281.494 72.7427C281.494 64.3198 283.63 57.6304 287.903 52.6743C292.175 47.7183 298.34 45.2402 306.396 45.2402C311.035 45.2402 314.966 45.9604 318.188 47.4009C321.411 48.8413 323.682 50.9287 325 53.6631C325.879 55.4697 325.732 56.6904 324.561 57.3252L320.166 59.6689C318.628 60.499 317.358 60.0352 316.357 58.2773C315.723 57.1543 314.539 56.1411 312.805 55.2378C311.096 54.3345 309.082 53.8828 306.763 53.8828C301.636 53.8828 298.047 55.5063 295.996 58.7534C293.945 61.9761 292.92 66.6392 292.92 72.7427C292.92 78.8462 293.945 83.5215 295.996 86.7686C298.047 89.9912 301.636 91.6025 306.763 91.6025C309.521 91.6025 311.841 90.98 313.721 89.7349C315.625 88.4897 316.943 87.3057 317.676 86.1826C318.872 84.3516 320.142 83.8877 321.484 84.791L325.879 87.7207C327.075 88.5264 327.197 89.7471 326.245 91.3828C324.829 93.8242 322.4 95.9116 318.958 97.645C315.515 99.3784 311.328 100.245 306.396 100.245C298.462 100.245 292.322 97.7671 287.976 92.811C283.655 87.855 281.494 81.1655 281.494 72.7427ZM338.696 99C336.987 99 336.133 98.0845 336.133 96.2534V49.2319C336.133 47.4009 336.987 46.4854 338.696 46.4854H344.263C345.972 46.4854 346.826 47.4009 346.826 49.2319V67.1396H366.528V49.2319C366.528 47.4009 367.383 46.4854 369.092 46.4854H374.658C376.367 46.4854 377.222 47.4009 377.222 49.2319V96.2534C377.222 98.0845 376.367 99 374.658 99H369.092C367.383 99 366.528 98.0845 366.528 96.2534V76.2217H346.826V96.2534C346.826 98.0845 345.972 99 344.263 99H338.696Z" fill="white"/>
</svg>
