<svg width="536" height="145" viewBox="0 0 536 145" fill="none" xmlns="http://www.w3.org/2000/svg">
<rect x="1.5" y="1.5" width="533" height="142" rx="36.5" fill="#2A2734" stroke="white" stroke-width="3"/>
<path d="M179.211 99C177.454 99 176.88 98.1943 177.49 96.583L195.435 49.4517C196.191 47.4741 197.339 46.4854 198.877 46.4854H204.004C205.542 46.4854 206.689 47.4741 207.446 49.4517L225.391 96.583C226.001 98.1943 225.427 99 223.669 99H217.847C216.235 99 215.112 98.1577 214.478 96.4731L210.742 86.6221H192.139L188.403 96.4731C187.769 98.1577 186.646 99 185.034 99H179.211ZM195.544 77.54H207.336L202.832 65.8945C202.295 64.5273 201.965 63.5386 201.843 62.9282C201.746 62.2935 201.636 61.3657 201.514 60.145H201.367C201.245 61.3657 201.123 62.2935 201.001 62.9282C200.903 63.5386 200.586 64.5273 200.049 65.8945L195.544 77.54ZM234.473 99C232.764 99 231.909 98.0845 231.909 96.2534V49.2319C231.909 47.4009 232.764 46.4854 234.473 46.4854H251.428C258.972 46.4854 264.478 47.6572 267.944 50.001C271.411 52.3203 273.145 56.1045 273.145 61.3535C273.145 65.2598 271.741 68.3726 268.933 70.6919C266.125 73.0112 262.561 74.5493 258.24 75.3062V75.3794C260.583 76.2583 262.354 77.479 263.55 79.0415C264.746 80.604 265.723 81.9712 266.479 83.1431L274.536 95.8506C275.879 97.9502 275.415 99 273.145 99H266.772C265.43 99 264.331 98.2798 263.477 96.8394L256.079 84.498C255.273 83.1797 253.796 81.7393 251.648 80.1768C249.524 78.5898 247.412 77.7964 245.312 77.7964H242.603V96.2534C242.603 98.0845 241.748 99 240.039 99H234.473ZM242.603 68.7144H249.158C254.041 68.7144 257.507 68.165 259.558 67.0664C261.633 65.9434 262.671 64.1733 262.671 61.7563C262.671 59.1196 261.67 57.4106 259.668 56.6294C257.69 55.8237 254.773 55.4209 250.916 55.4209H242.603V68.7144ZM286.768 99C285.059 99 284.204 98.0845 284.204 96.2534V49.2319C284.204 47.4009 285.059 46.4854 286.768 46.4854H299.548C310.779 46.4854 318.372 48.7559 322.327 53.2969C326.306 57.8379 328.296 64.2954 328.296 72.6694C328.296 81.0435 326.306 87.5254 322.327 92.1152C318.372 96.7051 310.779 99 299.548 99H286.768ZM294.897 89.918H298.853C306.421 89.918 311.316 88.5142 313.538 85.7065C315.759 82.8745 316.87 78.5288 316.87 72.6694C316.87 66.8101 315.759 62.4888 313.538 59.7056C311.316 56.8979 306.421 55.4941 298.853 55.4941H294.897V89.918ZM337.305 77.1372V48.4995C337.305 47.1567 338.159 46.4854 339.868 46.4854H345.435C347.144 46.4854 347.998 47.1567 347.998 48.4995V76.771C347.998 83.3628 348.962 87.4888 350.891 89.1489C352.844 90.7847 355.042 91.6025 357.483 91.6025C359.924 91.6025 362.109 90.7847 364.038 89.1489C365.991 87.4888 366.968 83.3628 366.968 76.771V48.4995C366.968 47.1567 367.822 46.4854 369.531 46.4854H375.098C376.807 46.4854 377.661 47.1567 377.661 48.4995V77.1372C377.661 85.6821 375.854 91.6758 372.241 95.1182C368.628 98.5361 363.708 100.245 357.483 100.245C351.257 100.245 346.338 98.5361 342.725 95.1182C339.111 91.6758 337.305 85.6821 337.305 77.1372ZM391.943 99C390.234 99 389.38 98.0845 389.38 96.2534V49.2319C389.38 47.4009 390.234 46.4854 391.943 46.4854H397.51C399.219 46.4854 400.073 47.4009 400.073 49.2319V96.2534C400.073 98.0845 399.219 99 397.51 99H391.943ZM414.355 99C412.646 99 411.792 98.0845 411.792 96.2534V49.2319C411.792 47.4009 412.646 46.4854 414.355 46.4854H419.775C421.875 46.4854 423.462 47.3398 424.536 49.0488L443.213 79.0415H443.469C443.347 77.5767 443.286 76.1118 443.286 74.647V49.2319C443.286 47.4009 444.141 46.4854 445.85 46.4854H451.416C453.125 46.4854 453.979 47.4009 453.979 49.2319V96.2534C453.979 98.0845 453.125 99 451.416 99H446.362C444.263 99 442.676 98.1455 441.602 96.4365L422.559 65.8945H422.302C422.424 67.3594 422.485 68.8242 422.485 70.2891V96.2534C422.485 98.0845 421.631 99 419.922 99H414.355ZM462.988 72.7427C462.988 64.3198 465.161 57.6304 469.507 52.6743C473.853 47.7183 480.054 45.2402 488.11 45.2402C496.167 45.2402 502.368 47.7183 506.714 52.6743C511.06 57.6304 513.232 64.3198 513.232 72.7427C513.232 81.1655 511.06 87.855 506.714 92.811C502.368 97.7671 496.167 100.245 488.11 100.245C480.054 100.245 473.853 97.7671 469.507 92.811C465.161 87.855 462.988 81.1655 462.988 72.7427ZM474.414 72.7427C474.414 78.8462 475.5 83.5215 477.673 86.7686C479.871 89.9912 483.35 91.6025 488.11 91.6025C492.871 91.6025 496.338 89.9912 498.511 86.7686C500.708 83.5215 501.807 78.8462 501.807 72.7427C501.807 66.6392 500.708 61.9761 498.511 58.7534C496.338 55.5063 492.871 53.8828 488.11 53.8828C483.35 53.8828 479.871 55.5063 477.673 58.7534C475.5 61.9761 474.414 66.6392 474.414 72.7427Z" fill="white"/>
<path fill-rule="evenodd" clip-rule="evenodd" d="M29 74.5772V64.9772C29.2 64.8772 29.2 64.6772 29.2 64.4772C32.2 51.3772 40.4 43.4772 53.4 40.3772C54.5 40.0772 55.7 40.1772 56.8 39.7772H63.2C63.3 39.9772 63.6 39.8772 63.8 39.8772C70.2 40.5772 76 42.8772 81.1 46.8772C85.5 50.1772 88.9 54.3772 92 58.8772C92.4 59.4772 92.6 59.4772 93 58.8772C94.8 56.2772 96.7 53.7772 98.9 51.4772C104.2 45.7772 110.6 41.7772 118.4 40.3772C119.5 40.0772 120.8 40.1772 121.9 39.7772H128.1C128.2 39.9772 128.4 39.8772 128.6 39.8772C130.5 40.0772 132.3 40.4772 134.1 40.9772C147.5 44.8772 157 57.1772 156.2 71.0772C155.6 82.7772 149.7 91.1772 139.4 96.4772C134.3 99.2772 128.7 99.9772 122.9 99.8772C115.3 99.7772 108.7 97.1772 103 92.1772C99 88.6772 95.9 84.4772 93 80.0772C92.6 79.4772 92.4 79.5772 92 80.1772C90.2 82.8772 88.3 85.5772 86.1 88.1772C82.2 92.5772 77.7 96.1772 72.1 98.0772C65.2 100.477 58.2 100.577 51.2 98.6772C41.1 95.7772 34.2 89.3772 30.4 79.5772C29.8 77.9772 29.5 76.1772 29 74.5772ZM60.8 89.2772C66.5 89.4772 71.4 87.5772 75.6 83.6772C79.9 79.6772 83 74.6772 86.1 69.7772C86.2 69.4772 86.2 69.2772 86 68.9772C83.4 64.8772 80.7 60.7772 77.1 57.3772C70.2 50.7772 62.1 48.5772 53 51.4772C45.5 53.9772 40.7 59.2772 39.6 67.2772C38.5 74.7772 41.4 80.7772 47.4 85.2772C51.4 88.1772 55.9 89.3772 60.8 89.2772ZM124.2 89.2772C126.4 89.2772 128.6 89.1772 130.7 88.5772C138.6 86.1772 143.8 81.2772 145.3 73.0772C146.8 64.9772 143.7 58.4772 136.9 53.8772C129.4 48.6772 118.5 49.1772 110.9 54.8772C105.8 58.6772 102.4 63.7772 99 69.0772C98.8 69.3772 98.9 69.5772 99 69.8772C101.7 74.1772 104.4 78.4772 107.9 82.1772C112.3 86.8772 117.6 89.5772 124.2 89.2772Z" fill="#00979C"/>
<path fill-rule="evenodd" clip-rule="evenodd" d="M60.7 66.5772C63.9 66.5772 67.2 66.6772 70.4 66.5772C71.2 66.5772 71.3 66.7772 71.3 67.5772C71.2 68.4772 71.2 69.3772 71.3 70.2772C71.4 71.0772 71.2 71.2772 70.3 71.2772H57.5C55.3 71.2772 53.1 71.1772 50.9 71.2772C50.2 71.2772 50 71.0772 50 70.2772C50.1 69.3772 50.1 68.4772 50 67.4772C50 66.7772 50.2 66.5772 50.9 66.5772C54.1 66.6772 57.4 66.5772 60.7 66.5772ZM123.7 60.1772C124.5 60.1772 125.3 60.2772 126 60.1772C126.5 60.1772 126.7 60.3772 126.7 60.8772C126.6 62.2772 126.7 63.6772 126.6 65.0772C126.6 65.7772 126.8 65.9772 127.5 65.9772C128.8 65.8772 130.2 65.9772 131.6 65.8772C132.2 65.8772 132.4 65.9772 132.4 66.6772V71.2772C132.4 71.7772 132.2 71.9772 131.7 71.9772C130.3 71.8772 128.9 71.9772 127.4 71.8772C126.8 71.8772 126.6 72.0772 126.6 72.6772C126.7 74.0772 126.6 75.4772 126.7 76.8772C126.7 77.4772 126.5 77.7772 125.9 77.7772C124.4 77.6772 122.9 77.6772 121.4 77.7772C120.8 77.7772 120.6 77.5772 120.6 76.9772C120.7 75.4772 120.6 74.0772 120.7 72.5772C120.7 72.0772 120.5 71.8772 120 71.8772C118.6 71.9772 117.2 71.8772 115.8 71.9772C115 71.9772 114.9 71.6772 114.9 71.0772C114.9 69.6772 115 68.2772 114.9 66.8772C114.8 66.0772 115.2 65.8772 115.9 65.8772C117.3 65.9772 118.6 65.8772 120 65.9772C120.5 65.9772 120.7 65.7772 120.7 65.2772C120.6 63.8772 120.7 62.3772 120.6 60.9772C120.6 60.3772 120.8 60.1772 121.4 60.1772C122.2 60.2772 122.9 60.1772 123.7 60.1772ZM153.552 32.5542C153.419 32.7532 153.372 32.8192 153.329 32.8862C153.087 33.2492 153.274 33.9832 152.665 33.9722C152.125 33.9602 152.262 33.2882 152.071 32.9212C152.021 32.8232 151.961 32.7332 151.794 32.4602C151.794 32.9642 151.802 33.2492 151.794 33.5382C151.786 33.7332 151.829 33.9792 151.52 33.9952C151.208 34.0112 151.227 33.7612 151.223 33.5652C151.216 32.8852 151.216 32.2102 151.22 31.5342C151.22 31.3042 151.184 31.0382 151.544 31.0302C151.814 31.0262 152.048 31.0152 152.161 31.3662C152.305 31.7962 152.356 32.2762 152.688 32.6902C153.005 32.2882 153.059 31.8232 153.18 31.3972C153.282 31.0502 153.497 31.0272 153.778 31.0272C154.134 31.0302 154.118 31.2802 154.122 31.5152C154.126 32.1952 154.126 32.8702 154.118 33.5502C154.114 33.7412 154.141 33.9952 153.837 33.9992C153.532 33.9992 153.555 33.7572 153.552 33.5572C153.544 33.2682 153.552 32.9832 153.552 32.5542ZM149.84 31.0222C149.927 31.0222 150.02 31.0072 150.102 31.0222C150.427 31.0852 150.93 30.8352 151.036 31.2222C151.18 31.7652 150.61 31.4922 150.368 31.6082C150.126 31.7252 150.173 31.9402 150.168 32.1362C150.157 32.6042 150.161 33.0732 150.161 33.5422C150.161 33.8002 150.111 34.0152 149.778 34.0022C149.473 33.9922 149.485 33.7682 149.485 33.5652C149.476 33.1266 149.475 32.6878 149.481 32.2492C149.493 31.8742 149.497 31.5222 148.958 31.5732C148.77 31.5892 148.606 31.5342 148.606 31.2962C148.606 30.9682 148.86 31.0342 149.048 31.0262C149.313 31.0142 149.575 31.0222 149.841 31.0222H149.84Z" fill="#00979C"/>
</svg>
