<svg width="536" height="145" viewBox="0 0 536 145" fill="none" xmlns="http://www.w3.org/2000/svg">
<rect x="1.5" y="1.5" width="533" height="142" rx="36.5" fill="#2A2734" stroke="white" stroke-width="3"/>
<path d="M183.789 99C181.836 99 180.859 98.0845 180.859 96.2534V49.2319C180.859 47.4009 181.836 46.4854 183.789 46.4854H196.24C205.615 46.4854 211.938 47.645 215.21 49.9644C218.506 52.2593 220.154 55.7993 220.154 60.5845C220.154 63.9292 218.921 66.5171 216.455 68.3481C214.014 70.1792 211.646 71.2412 209.351 71.5342V71.644C211.572 71.7905 214.185 72.9136 217.188 75.0132C220.19 77.1128 221.692 80.0791 221.692 83.9121C221.692 88.4043 219.861 92.042 216.199 94.8252C212.537 97.6084 206.494 99 198.071 99H183.789ZM191.553 90.0645H196.899C202.075 90.0645 205.591 89.6128 207.446 88.7095C209.326 87.8062 210.266 85.9751 210.266 83.2163C210.266 80.6284 209.18 78.8462 207.007 77.8696C204.858 76.8687 201.489 76.3682 196.899 76.3682H191.553V90.0645ZM191.553 67.7256H196.35C199.5 67.7256 202.441 67.1763 205.176 66.0776C207.935 64.979 209.314 63.27 209.314 60.9507C209.314 59.144 208.545 57.7769 207.007 56.8491C205.493 55.897 201.941 55.4209 196.35 55.4209H191.553V67.7256ZM233.96 99C232.251 99 231.396 98.0845 231.396 96.2534V49.2319C231.396 47.4009 232.251 46.4854 233.96 46.4854H239.893C241.357 46.4854 242.09 47.4009 242.09 49.2319V89.918H263.44C265.271 89.918 266.187 90.7114 266.187 92.2983V96.6196C266.187 98.2065 265.271 99 263.44 99H233.96ZM276.514 99C274.805 99 273.95 98.0845 273.95 96.2534V49.2319C273.95 47.4009 274.805 46.4854 276.514 46.4854H307.935C309.766 46.4854 310.681 47.2788 310.681 48.8657V53.187C310.681 54.7739 309.766 55.5674 307.935 55.5674H284.644V67.2129H305.994C307.825 67.2129 308.74 68.0063 308.74 69.5933V73.9146C308.74 75.5015 307.825 76.2949 305.994 76.2949H284.644V89.918H309.106C310.938 89.918 311.853 90.7114 311.853 92.2983V96.6196C311.853 98.2065 310.938 99 309.106 99H276.514ZM323.389 99C321.68 99 320.825 98.0845 320.825 96.2534V49.2319C320.825 47.4009 321.68 46.4854 323.389 46.4854H328.809C330.908 46.4854 332.495 47.3398 333.569 49.0488L352.246 79.0415H352.502C352.38 77.5767 352.319 76.1118 352.319 74.647V49.2319C352.319 47.4009 353.174 46.4854 354.883 46.4854H360.449C362.158 46.4854 363.013 47.4009 363.013 49.2319V96.2534C363.013 98.0845 362.158 99 360.449 99H355.396C353.296 99 351.709 98.1455 350.635 96.4365L331.592 65.8945H331.335C331.458 67.3594 331.519 68.8242 331.519 70.2891V96.2534C331.519 98.0845 330.664 99 328.955 99H323.389ZM377.295 99C375.586 99 374.731 98.0845 374.731 96.2534V49.2319C374.731 47.4009 375.586 46.4854 377.295 46.4854H390.076C401.306 46.4854 408.899 48.7559 412.854 53.2969C416.833 57.8379 418.823 64.2954 418.823 72.6694C418.823 81.0435 416.833 87.5254 412.854 92.1152C408.899 96.7051 401.306 99 390.076 99H377.295ZM385.425 89.918H389.38C396.948 89.918 401.843 88.5142 404.065 85.7065C406.287 82.8745 407.397 78.5288 407.397 72.6694C407.397 66.8101 406.287 62.4888 404.065 59.7056C401.843 56.8979 396.948 55.4941 389.38 55.4941H385.425V89.918ZM430.396 99C428.687 99 427.832 98.0845 427.832 96.2534V49.2319C427.832 47.4009 428.687 46.4854 430.396 46.4854H461.816C463.647 46.4854 464.563 47.2788 464.563 48.8657V53.187C464.563 54.7739 463.647 55.5674 461.816 55.5674H438.525V67.2129H459.875C461.707 67.2129 462.622 68.0063 462.622 69.5933V73.9146C462.622 75.5015 461.707 76.2949 459.875 76.2949H438.525V89.918H462.988C464.819 89.918 465.735 90.7114 465.735 92.2983V96.6196C465.735 98.2065 464.819 99 462.988 99H430.396ZM477.271 99C475.562 99 474.707 98.0845 474.707 96.2534V49.2319C474.707 47.4009 475.562 46.4854 477.271 46.4854H494.226C501.77 46.4854 507.275 47.6572 510.742 50.001C514.209 52.3203 515.942 56.1045 515.942 61.3535C515.942 65.2598 514.539 68.3726 511.731 70.6919C508.923 73.0112 505.359 74.5493 501.038 75.3062V75.3794C503.381 76.2583 505.151 77.479 506.348 79.0415C507.544 80.604 508.521 81.9712 509.277 83.1431L517.334 95.8506C518.677 97.9502 518.213 99 515.942 99H509.57C508.228 99 507.129 98.2798 506.274 96.8394L498.877 84.498C498.071 83.1797 496.594 81.7393 494.446 80.1768C492.322 78.5898 490.21 77.7964 488.11 77.7964H485.4V96.2534C485.4 98.0845 484.546 99 482.837 99H477.271ZM485.4 68.7144H491.956C496.838 68.7144 500.305 68.165 502.356 67.0664C504.431 65.9434 505.469 64.1733 505.469 61.7563C505.469 59.1196 504.468 57.4106 502.466 56.6294C500.488 55.8237 497.571 55.4209 493.713 55.4209H485.4V68.7144Z" fill="white"/>
<g clip-path="url(#clip0_53_2)">
<path d="M95.332 78.032C95.572 73.79 97.659 70.045 100.817 67.398C103.911 64.796 108.065 63.205 112.626 63.205C117.163 63.205 121.316 64.795 124.406 67.398C127.569 70.045 129.643 73.79 129.891 78.032C130.131 82.382 128.368 86.442 125.286 89.449C122.128 92.499 117.659 94.426 112.626 94.426C107.589 94.426 103.1 92.511 99.962 89.449C96.868 86.443 95.109 82.405 95.356 78.052L95.332 78.032Z" fill="#235785"/>
<path d="M68.245 87.002C68.273 88.662 68.809 91.892 69.605 94.406C71.287 99.742 74.142 104.679 78.095 109.005C82.157 113.47 87.169 117.06 92.945 119.615C99.018 122.285 105.61 123.652 112.45 123.652C119.29 123.643 125.882 122.252 131.954 119.55C137.73 116.968 142.744 113.382 146.804 108.893C150.778 104.519 153.624 99.586 155.295 94.246C156.132 91.5936 156.667 88.8553 156.89 86.083C157.098 83.393 157.01 80.678 156.627 77.963C155.877 72.7317 154.031 67.7176 151.21 63.249C148.636 59.099 145.294 55.489 141.32 52.436L141.332 52.432L101.377 21.926C101.341 21.898 101.309 21.87 101.273 21.846C98.654 19.844 94.229 19.852 91.363 21.854C88.449 23.885 88.113 27.239 90.707 29.35L90.695 29.358L107.377 42.842L56.588 42.893H56.52C52.323 42.897 48.281 45.632 47.49 49.106C46.67 52.627 49.525 55.566 53.902 55.566L53.894 55.582L79.63 55.534L33.58 90.524C33.524 90.568 33.46 90.612 33.404 90.656C29.069 93.95 27.67 99.446 30.4 102.9C33.178 106.422 39.066 106.446 43.447 102.92L68.505 82.51C68.505 82.51 68.137 85.268 68.169 86.907L68.245 87.002ZM132.805 96.221C127.637 101.449 120.389 104.431 112.578 104.431C104.747 104.443 97.499 101.513 92.33 96.289C89.804 93.73 87.953 90.816 86.802 87.698C85.6768 84.6299 85.2428 81.3512 85.531 78.096C85.8046 74.9199 86.7516 71.8386 88.309 69.057C89.816 66.343 91.899 63.877 94.449 61.79C99.482 57.732 105.869 55.51 112.549 55.51C119.258 55.502 125.646 57.684 130.679 61.746C133.229 63.821 135.304 66.275 136.819 68.989C138.38 71.7703 139.326 74.854 139.593 78.032C139.877 81.2858 139.443 84.5623 138.322 87.63C137.175 90.772 135.32 93.686 132.789 96.245L132.805 96.221Z" fill="#E87500"/>
</g>
<defs>
<clipPath id="clip0_53_2">
<rect width="128" height="128" fill="white" transform="translate(29 8)"/>
</clipPath>
</defs>
</svg>
