<svg width="253" height="145" viewBox="0 0 253 145" fill="none" xmlns="http://www.w3.org/2000/svg">
<rect x="1.5" y="1.5" width="250" height="142" rx="36.5" fill="#2A2734" stroke="white" stroke-width="3"/>
<path d="M178.149 72.7427C178.149 64.3198 180.286 57.6304 184.558 52.6743C188.831 47.7183 194.995 45.2402 203.052 45.2402C207.69 45.2402 211.621 45.9604 214.844 47.4009C218.066 48.8413 220.337 50.9287 221.655 53.6631C222.534 55.4697 222.388 56.6904 221.216 57.3252L216.821 59.6689C215.283 60.499 214.014 60.0352 213.013 58.2773C212.378 57.1543 211.194 56.1411 209.46 55.2378C207.751 54.3345 205.737 53.8828 203.418 53.8828C198.291 53.8828 194.702 55.5063 192.651 58.7534C190.601 61.9761 189.575 66.6392 189.575 72.7427C189.575 78.8462 190.601 83.5215 192.651 86.7686C194.702 89.9912 198.291 91.6025 203.418 91.6025C206.177 91.6025 208.496 90.98 210.376 89.7349C212.28 88.4897 213.599 87.3057 214.331 86.1826C215.527 84.3516 216.797 83.8877 218.14 84.791L222.534 87.7207C223.73 88.5264 223.853 89.7471 222.9 91.3828C221.484 93.8242 219.055 95.9116 215.613 97.645C212.17 99.3784 207.983 100.245 203.052 100.245C195.117 100.245 188.977 97.7671 184.631 92.811C180.31 87.855 178.149 81.1655 178.149 72.7427Z" fill="white"/>
<path d="M146.4 38.7L98.1 10.9C97.3 10.4 96.2 10.2 95 10.2C93.8 10.2 92.7 10.5 91.9 10.9L43.9 38.7999C42.2 39.7999 41 42.2999 41 44.2V99.9C41 101 41.2 102.3 42 103.4L148.8 41.4C148.2 40.2 147.3 39.3 146.4 38.7Z" fill="#659AD3"/>
<path d="M41.7 103.3C42.2 104.1 42.9 104.8 43.6 105.2L91.7999 133.1C92.5999 133.6 93.7 133.8 94.9 133.8C96.1 133.8 97.2 133.5 98 133.1L146 105.2C147.7 104.2 148.9 101.7 148.9 99.8001V44.1C148.9 43.2 148.8 42.2 148.3 41.3L41.7 103.3Z" fill="#03599C"/>
<path d="M116.3 84.1C112.1 91.5 104.1 96.5 95 96.5C81.5 96.5 70.5 85.5 70.5 72C70.5 58.5 81.5 47.5 95 47.5C104.1 47.5 112.1 52.5 116.3 60L129.3 52.5C122.5 40.6 109.7 32.5 95 32.5C73.2 32.5 55.5 50.2 55.5 72C55.5 93.8 73.2 111.5 95 111.5C109.6 111.5 122.4 103.5 129.2 91.7L116.3 84.1Z" fill="white"/>
</svg>
