<svg width="456" height="145" viewBox="0 0 456 145" fill="none" xmlns="http://www.w3.org/2000/svg">
<rect x="1.5" y="1.5" width="453" height="142" rx="36.5" fill="#2A2734" stroke="white" stroke-width="3"/>
<g clip-path="url(#clip0_53_2)">
<path d="M99.8 8.40002L37.3 131.8L105.4 73.9L99.8 8.40002Z" fill="#064F8C"/>
<path d="M160.8 135.7L76.8 101.8L37 135.7H160.8Z" fill="#249847"/>
<path d="M165 134.6L102.6 10.5L111.8 113.1L165 134.6Z" fill="#BE2128"/>
<path d="M108.9 112L105.8 77.1L79 100L108.9 112Z" fill="#CDCDCE"/>
</g>
<path d="M178.149 72.7427C178.149 64.3198 180.286 57.6304 184.558 52.6743C188.831 47.7183 194.995 45.2402 203.052 45.2402C207.69 45.2402 211.621 45.9604 214.844 47.4009C218.066 48.8413 220.337 50.9287 221.655 53.6631C222.534 55.4697 222.388 56.6904 221.216 57.3252L216.821 59.6689C215.283 60.499 214.014 60.0352 213.013 58.2773C212.378 57.1543 211.194 56.1411 209.46 55.2378C207.751 54.3345 205.737 53.8828 203.418 53.8828C198.291 53.8828 194.702 55.5063 192.651 58.7534C190.601 61.9761 189.575 66.6392 189.575 72.7427C189.575 78.8462 190.601 83.5215 192.651 86.7686C194.702 89.9912 198.291 91.6025 203.418 91.6025C206.177 91.6025 208.496 90.98 210.376 89.7349C212.28 88.4897 213.599 87.3057 214.331 86.1826C215.527 84.3516 216.797 83.8877 218.14 84.791L222.534 87.7207C223.73 88.5264 223.853 89.7471 222.9 91.3828C221.484 93.8242 219.055 95.9116 215.613 97.645C212.17 99.3784 207.983 100.245 203.052 100.245C195.117 100.245 188.977 97.7671 184.631 92.811C180.31 87.855 178.149 81.1655 178.149 72.7427ZM235.352 99C233.643 99 232.788 98.0845 232.788 96.2534V49.2319C232.788 47.4009 233.643 46.4854 235.352 46.4854H245.972C247.388 46.4854 248.401 47.4619 249.011 49.415L258.936 81.5317C259.375 82.9233 259.68 84.0708 259.851 84.9741C260.022 85.853 260.168 86.9028 260.291 88.1235H260.51C260.632 86.9028 260.779 85.853 260.95 84.9741C261.121 84.0708 261.426 82.9233 261.865 81.5317L271.79 49.415C272.4 47.4619 273.413 46.4854 274.829 46.4854H285.449C287.158 46.4854 288.013 47.4009 288.013 49.2319V96.2534C288.013 98.0845 287.158 99 285.449 99H279.883C278.174 99 277.319 98.0845 277.319 96.2534V66.0044C277.319 64.5396 277.38 63.0747 277.502 61.6099H277.246L266.663 96.0337C266.052 98.0112 265.002 99 263.513 99H257.288C255.798 99 254.749 98.0112 254.138 96.0337L243.555 61.6099H243.298C243.42 63.0747 243.481 64.5396 243.481 66.0044V96.2534C243.481 98.0845 242.627 99 240.918 99H235.352ZM298.083 99C296.326 99 295.752 98.1943 296.362 96.583L314.307 49.4517C315.063 47.4741 316.211 46.4854 317.749 46.4854H322.876C324.414 46.4854 325.562 47.4741 326.318 49.4517L344.263 96.583C344.873 98.1943 344.299 99 342.542 99H336.719C335.107 99 333.984 98.1577 333.35 96.4731L329.614 86.6221H311.011L307.275 96.4731C306.641 98.1577 305.518 99 303.906 99H298.083ZM314.417 77.54H326.208L321.704 65.8945C321.167 64.5273 320.837 63.5386 320.715 62.9282C320.618 62.2935 320.508 61.3657 320.386 60.145H320.239C320.117 61.3657 319.995 62.2935 319.873 62.9282C319.775 63.5386 319.458 64.5273 318.921 65.8945L314.417 77.54ZM353.345 99C351.636 99 350.781 98.0845 350.781 96.2534V49.2319C350.781 47.4009 351.636 46.4854 353.345 46.4854H358.911C360.62 46.4854 361.475 47.4009 361.475 49.2319V63.8071C361.475 65.272 361.414 66.7368 361.292 68.2017H361.548L379.346 48.646C380.664 47.2056 381.787 46.4854 382.715 46.4854H390.076C392.932 46.4854 393.396 47.5352 391.467 49.6348L374.805 67.8721L392.639 95.8506C393.982 97.9502 393.518 99 391.248 99H384.399C383.13 99 382.031 98.2798 381.104 96.8394L367.627 75.709L361.475 82.6304V96.2534C361.475 98.0845 360.62 99 358.911 99H353.345ZM403.223 99C401.514 99 400.659 98.0845 400.659 96.2534V49.2319C400.659 47.4009 401.514 46.4854 403.223 46.4854H434.644C436.475 46.4854 437.39 47.2788 437.39 48.8657V53.187C437.39 54.7739 436.475 55.5674 434.644 55.5674H411.353V67.2129H432.703C434.534 67.2129 435.449 68.0063 435.449 69.5933V73.9146C435.449 75.5015 434.534 76.2949 432.703 76.2949H411.353V89.918H435.815C437.646 89.918 438.562 90.7114 438.562 92.2983V96.6196C438.562 98.2065 437.646 99 435.815 99H403.223Z" fill="white"/>
<defs>
<clipPath id="clip0_53_2">
<rect width="128" height="128" fill="white" transform="translate(37 8)"/>
</clipPath>
</defs>
</svg>
