<svg width="348" height="145" viewBox="0 0 348 145" fill="none" xmlns="http://www.w3.org/2000/svg">
<rect x="1.5" y="1.5" width="345" height="142" rx="36.5" fill="#2A2734" stroke="white" stroke-width="3"/>
<path d="M178.149 72.7427C178.149 64.3198 180.286 57.6304 184.558 52.6743C188.831 47.7183 194.995 45.2402 203.052 45.2402C207.69 45.2402 211.621 45.9604 214.844 47.4009C218.066 48.8413 220.337 50.9287 221.655 53.6631C222.534 55.4697 222.388 56.6904 221.216 57.3252L216.821 59.6689C215.283 60.499 214.014 60.0352 213.013 58.2773C212.378 57.1543 211.194 56.1411 209.46 55.2378C207.751 54.3345 205.737 53.8828 203.418 53.8828C198.291 53.8828 194.702 55.5063 192.651 58.7534C190.601 61.9761 189.575 66.6392 189.575 72.7427C189.575 78.8462 190.601 83.5215 192.651 86.7686C194.702 89.9912 198.291 91.6025 203.418 91.6025C206.177 91.6025 208.496 90.98 210.376 89.7349C212.28 88.4897 213.599 87.3057 214.331 86.1826C215.527 84.3516 216.797 83.8877 218.14 84.791L222.534 87.7207C223.73 88.5264 223.853 89.7471 222.9 91.3828C221.484 93.8242 219.055 95.9116 215.613 97.645C212.17 99.3784 207.983 100.245 203.052 100.245C195.117 100.245 188.977 97.7671 184.631 92.811C180.31 87.855 178.149 81.1655 178.149 72.7427ZM231.873 75.8555C230.408 75.8555 229.675 75.2451 229.675 74.0244V70.875C229.675 69.6543 230.408 69.0439 231.873 69.0439H246.96V53.9561C246.96 52.4912 247.571 51.7588 248.792 51.7588H251.941C253.162 51.7588 253.772 52.4912 253.772 53.9561V69.0439H268.86C270.325 69.0439 271.057 69.6543 271.057 70.875V74.0244C271.057 75.2451 270.325 75.8555 268.86 75.8555H253.772V90.9434C253.772 92.4082 253.162 93.1406 251.941 93.1406H248.792C247.571 93.1406 246.96 92.4082 246.96 90.9434V75.8555H231.873ZM278.748 75.8555C277.283 75.8555 276.55 75.2451 276.55 74.0244V70.875C276.55 69.6543 277.283 69.0439 278.748 69.0439H293.835V53.9561C293.835 52.4912 294.446 51.7588 295.667 51.7588H298.816C300.037 51.7588 300.647 52.4912 300.647 53.9561V69.0439H315.735C317.2 69.0439 317.932 69.6543 317.932 70.875V74.0244C317.932 75.2451 317.2 75.8555 315.735 75.8555H300.647V90.9434C300.647 92.4082 300.037 93.1406 298.816 93.1406H295.667C294.446 93.1406 293.835 92.4082 293.835 90.9434V75.8555H278.748Z" fill="white"/>
<g clip-path="url(#clip0_53_2)">
<path d="M149.766 103.82C150.656 102.277 151.207 100.54 151.207 98.9769V44.7799C151.207 43.2219 150.657 41.4829 149.766 39.9399L94.446 71.8799L149.766 103.82Z" fill="#00599C"/>
<path d="M99.36 134.586L146.293 107.492C147.645 106.711 148.875 105.363 149.766 103.82L94.446 71.88L39.12 103.82C40.01 105.363 41.241 106.71 42.593 107.492L89.526 134.586C92.229 136.148 96.656 136.148 99.358 134.586H99.36Z" fill="#004482"/>
<path d="M149.766 39.941C148.875 38.395 147.645 37.047 146.293 36.27L99.3591 9.17201C96.6561 7.60901 92.2301 7.60901 89.5271 9.17201L42.5941 36.27C39.8901 37.828 37.6801 41.66 37.6801 44.78V98.976C37.6801 100.538 38.2301 102.276 39.1211 103.819L94.4451 71.88L149.766 39.941Z" fill="#659AD2"/>
<path d="M94.4451 34.0351C73.5781 34.0351 56.6021 51.0121 56.6021 71.8791C56.6021 92.7461 73.5781 109.723 94.4451 109.723C107.91 109.723 120.469 102.476 127.215 90.8131L110.84 81.3351C107.46 87.1751 101.18 90.8001 94.4451 90.8001C84.0121 90.8001 75.5231 82.3121 75.5231 71.8781C75.5231 61.4441 84.0131 52.9561 94.4451 52.9561C101.175 52.9561 107.462 56.5851 110.835 62.4211L127.215 52.9441C120.465 41.2801 107.91 34.0351 94.4451 34.0351ZM123.88 65.5701V69.7771H119.673V73.9801H123.88V78.1871H128.083V73.9801H132.286V69.7771H128.083V65.5701H123.88ZM139.646 65.5701V69.7771H135.442V73.9801H139.646V78.1871H143.853V73.9801H148.056V69.7771H143.853V65.5701H139.646Z" fill="white"/>
</g>
<defs>
<clipPath id="clip0_53_2">
<rect width="128" height="128" fill="white" transform="translate(31 8)"/>
</clipPath>
</defs>
</svg>
