<svg width="322" height="145" viewBox="0 0 322 145" fill="none" xmlns="http://www.w3.org/2000/svg">
<rect x="1.5" y="1.5" width="319" height="142" rx="36.5" fill="#2A2734" stroke="white" stroke-width="3"/>
<path d="M146.4 38.7L98.1 10.9C97.3 10.4 96.2 10.2 95 10.2C93.8 10.2 92.7 10.5 91.9 10.9L43.9 38.7999C42.2 39.7999 41 42.2999 41 44.2V99.9C41 101 41.2 102.3 42 103.4L148.8 41.4C148.2 40.2 147.3 39.3 146.4 38.7Z" fill="#9B4F96"/>
<path d="M41.7 103.3C42.2 104.1 42.9 104.8 43.6 105.2L91.8 133.1C92.6 133.6 93.7 133.8 94.9 133.8C96.1 133.8 97.2 133.5 98 133.1L146 105.2C147.7 104.2 148.9 101.7 148.9 99.8001V44.1C148.9 43.2 148.8 42.2 148.3 41.3L41.7 103.3Z" fill="#68217A"/>
<path d="M116.3 84.1C112.1 91.5 104.1 96.5 95 96.5C81.5 96.5 70.5 85.5 70.5 72C70.5 58.5 81.5 47.5 95 47.5C104.1 47.5 112.1 52.5 116.3 60L129.3 52.5C122.5 40.6 109.7 32.5 95 32.5C73.2 32.5 55.5 50.2 55.5 72C55.5 93.8 73.2 111.5 95 111.5C109.6 111.5 122.4 103.5 129.2 91.7L116.3 84.1ZM128 74.2L128.9 69.9H124.7V65.2H129.8L131 59H135.9L134.7 65.1H138.5L139.7 59H144.5L143.3 65.1H145.7V69.8H142.4L141.5 74.1H145.7V78.8H140.6L139.4 84.8H134.5L135.7 78.8H131.9L130.7 84.8H125.9L127.1 78.8H124.7V74.1H128V74.2ZM132.8 74.2H136.6L137.5 69.9H133.7L132.8 74.2Z" fill="white"/>
<path d="M178.149 72.7427C178.149 64.3198 180.286 57.6304 184.558 52.6743C188.831 47.7183 194.995 45.2402 203.052 45.2402C207.69 45.2402 211.621 45.9604 214.844 47.4009C218.066 48.8413 220.337 50.9287 221.655 53.6631C222.534 55.4697 222.388 56.6904 221.216 57.3252L216.821 59.6689C215.283 60.499 214.014 60.0352 213.013 58.2773C212.378 57.1543 211.194 56.1411 209.46 55.2378C207.751 54.3345 205.737 53.8828 203.418 53.8828C198.291 53.8828 194.702 55.5063 192.651 58.7534C190.601 61.9761 189.575 66.6392 189.575 72.7427C189.575 78.8462 190.601 83.5215 192.651 86.7686C194.702 89.9912 198.291 91.6025 203.418 91.6025C206.177 91.6025 208.496 90.98 210.376 89.7349C212.28 88.4897 213.599 87.3057 214.331 86.1826C215.527 84.3516 216.797 83.8877 218.14 84.791L222.534 87.7207C223.73 88.5264 223.853 89.7471 222.9 91.3828C221.484 93.8242 219.055 95.9116 215.613 97.645C212.17 99.3784 207.983 100.245 203.052 100.245C195.117 100.245 188.977 97.7671 184.631 92.811C180.31 87.855 178.149 81.1655 178.149 72.7427ZM231.946 86.4023C230.481 86.4023 229.846 85.792 230.042 84.5713L230.591 81.6416C230.811 80.4209 231.641 79.8105 233.081 79.8105H239.709L242.09 66.1143H235.498C234.058 66.1143 233.435 65.5039 233.63 64.2832L234.143 61.3535C234.363 60.1328 235.205 59.5225 236.67 59.5225H243.262L245.093 49.1221C245.361 47.6572 246.106 46.9248 247.327 46.9248H250.476C251.697 46.9248 252.173 47.6572 251.904 49.1221L250.073 59.5225H260.986L262.817 49.1221C263.086 47.6572 263.831 46.9248 265.051 46.9248H268.201C269.421 46.9248 269.897 47.6572 269.629 49.1221L267.798 59.5225H274.39C275.83 59.5225 276.453 60.1328 276.257 61.3535L275.745 64.2832C275.525 65.5039 274.683 66.1143 273.218 66.1143H266.626L264.246 79.8105H270.801C272.266 79.8105 272.9 80.4209 272.705 81.6416L272.156 84.5713C271.936 85.792 271.106 86.4023 269.666 86.4023H263.074L261.243 96.8027C260.974 98.2676 260.229 99 259.009 99H255.859C254.639 99 254.163 98.2676 254.431 96.8027L256.262 86.4023H245.349L243.518 96.8027C243.25 98.2676 242.505 99 241.284 99H238.135C236.914 99 236.438 98.2676 236.707 96.8027L238.538 86.4023H231.946ZM246.521 79.8105H257.434L259.814 66.1143H248.901L246.521 79.8105Z" fill="white"/>
</svg>
