<svg width="401" height="145" viewBox="0 0 401 145" fill="none" xmlns="http://www.w3.org/2000/svg">
<rect x="1.5" y="1.5" width="398" height="142" rx="36.5" fill="#2A2734" stroke="white" stroke-width="3"/>
<path d="M53.814 123.123L43.76 10.352H154.24L144.176 123.106L98.933 135.649L53.814 123.123Z" fill="#1572B6"/>
<path d="M99.001 126.062L135.56 115.926L144.161 19.572H99.001V126.062Z" fill="#33A9DC"/>
<path d="M99.001 60.429H117.303L118.567 46.266H99.001V32.435H133.683L133.351 36.146L129.951 74.26H99.001V60.429Z" fill="white"/>
<path d="M99.083 96.349L99.022 96.367L83.619 92.208L82.634 81.177H68.752L70.689 102.894L99.02 110.757L99.083 110.739V96.349Z" fill="#EBEBEB"/>
<path d="M116.127 73.675L114.461 92.197L99.035 96.361V110.751L127.389 102.893L127.597 100.556L130.003 73.675H116.127Z" fill="white"/>
<path d="M99.048 32.435V46.266H65.64L65.363 43.158L64.733 36.146L64.402 32.435H99.048ZM99.001 60.431V74.262H83.792L83.515 71.154L82.884 64.142L82.554 60.431H99.001Z" fill="#EBEBEB"/>
<path d="M178.149 72.7427C178.149 64.3198 180.286 57.6304 184.558 52.6743C188.831 47.7183 194.995 45.2402 203.052 45.2402C207.69 45.2402 211.621 45.9604 214.844 47.4009C218.066 48.8413 220.337 50.9287 221.655 53.6631C222.534 55.4697 222.388 56.6904 221.216 57.3252L216.821 59.6689C215.283 60.499 214.014 60.0352 213.013 58.2773C212.378 57.1543 211.194 56.1411 209.46 55.2378C207.751 54.3345 205.737 53.8828 203.418 53.8828C198.291 53.8828 194.702 55.5063 192.651 58.7534C190.601 61.9761 189.575 66.6392 189.575 72.7427C189.575 78.8462 190.601 83.5215 192.651 86.7686C194.702 89.9912 198.291 91.6025 203.418 91.6025C206.177 91.6025 208.496 90.98 210.376 89.7349C212.28 88.4897 213.599 87.3057 214.331 86.1826C215.527 84.3516 216.797 83.8877 218.14 84.791L222.534 87.7207C223.73 88.5264 223.853 89.7471 222.9 91.3828C221.484 93.8242 219.055 95.9116 215.613 97.645C212.17 99.3784 207.983 100.245 203.052 100.245C195.117 100.245 188.977 97.7671 184.631 92.811C180.31 87.855 178.149 81.1655 178.149 72.7427ZM233.411 95.0815C231.897 93.9341 231.531 92.7744 232.312 91.6025L235.132 87.3545C236.06 85.9629 237.415 85.8896 239.197 87.1348C240.564 88.0869 242.346 89.0757 244.543 90.1011C246.765 91.1021 249.097 91.6025 251.538 91.6025C253.247 91.6025 254.895 91.4072 256.482 91.0166C258.069 90.626 259.277 89.8691 260.107 88.7461C260.938 87.623 261.353 86.2925 261.353 84.7544C261.353 83.6558 261.169 82.6914 260.803 81.8613C260.437 81.0312 259.839 80.3477 259.009 79.8105C258.179 79.2734 257.324 78.8218 256.445 78.4556C254.907 77.8208 252.966 77.1982 250.623 76.5879C248.303 75.9531 246.008 75.1963 243.738 74.3174C241.711 73.5361 239.856 72.4619 238.171 71.0947C236.487 69.7275 235.181 68.1895 234.253 66.4805C233.325 64.7715 232.861 62.4888 232.861 59.6323C232.861 56.2388 233.96 53.3335 236.157 50.9165C238.354 48.4995 240.881 46.9492 243.738 46.2656C246.594 45.582 249.475 45.2402 252.38 45.2402C255.261 45.2402 258.228 45.6797 261.279 46.5586C264.355 47.4375 266.675 48.5361 268.237 49.8545C269.775 51.1484 270.154 52.3203 269.373 53.3701L266.406 57.3618C265.405 58.729 264.062 58.8389 262.378 57.6914C261.304 56.959 259.827 56.1411 257.947 55.2378C256.091 54.3345 254.15 53.8828 252.124 53.8828C250.684 53.8828 249.353 54.0049 248.132 54.249C246.936 54.4932 245.874 55.0791 244.946 56.0068C244.019 56.9346 243.555 58.082 243.555 59.4492C243.555 60.7676 243.896 61.8418 244.58 62.6719C245.264 63.4775 246.021 64.0879 246.851 64.5029C247.681 64.8936 248.523 65.2231 249.377 65.4917C252.014 66.3462 254.37 67.103 256.445 67.7622C258.521 68.397 260.437 69.105 262.195 69.8862C264.636 70.9849 266.504 72.0835 267.798 73.1821C269.092 74.2808 270.154 75.7822 270.984 77.6865C271.838 79.5908 272.266 81.8613 272.266 84.498C272.266 88.4043 271.021 91.6392 268.53 94.2026C266.04 96.7417 263.269 98.3774 260.217 99.1099C257.19 99.8667 254.236 100.245 251.355 100.245C247.107 100.245 243.652 99.8301 240.991 99C238.33 98.1943 235.803 96.8882 233.411 95.0815ZM281.311 95.0815C279.797 93.9341 279.431 92.7744 280.212 91.6025L283.032 87.3545C283.96 85.9629 285.315 85.8896 287.097 87.1348C288.464 88.0869 290.247 89.0757 292.444 90.1011C294.666 91.1021 296.997 91.6025 299.438 91.6025C301.147 91.6025 302.795 91.4072 304.382 91.0166C305.969 90.626 307.178 89.8691 308.008 88.7461C308.838 87.623 309.253 86.2925 309.253 84.7544C309.253 83.6558 309.07 82.6914 308.704 81.8613C308.337 81.0312 307.739 80.3477 306.909 79.8105C306.079 79.2734 305.225 78.8218 304.346 78.4556C302.808 77.8208 300.867 77.1982 298.523 76.5879C296.204 75.9531 293.909 75.1963 291.638 74.3174C289.612 73.5361 287.756 72.4619 286.072 71.0947C284.387 69.7275 283.081 68.1895 282.153 66.4805C281.226 64.7715 280.762 62.4888 280.762 59.6323C280.762 56.2388 281.86 53.3335 284.058 50.9165C286.255 48.4995 288.782 46.9492 291.638 46.2656C294.495 45.582 297.375 45.2402 300.281 45.2402C303.162 45.2402 306.128 45.6797 309.18 46.5586C312.256 47.4375 314.575 48.5361 316.138 49.8545C317.676 51.1484 318.054 52.3203 317.273 53.3701L314.307 57.3618C313.306 58.729 311.963 58.8389 310.278 57.6914C309.204 56.959 307.727 56.1411 305.847 55.2378C303.992 54.3345 302.051 53.8828 300.024 53.8828C298.584 53.8828 297.253 54.0049 296.033 54.249C294.836 54.4932 293.774 55.0791 292.847 56.0068C291.919 56.9346 291.455 58.082 291.455 59.4492C291.455 60.7676 291.797 61.8418 292.48 62.6719C293.164 63.4775 293.921 64.0879 294.751 64.5029C295.581 64.8936 296.423 65.2231 297.278 65.4917C299.915 66.3462 302.271 67.103 304.346 67.7622C306.421 68.397 308.337 69.105 310.095 69.8862C312.537 70.9849 314.404 72.0835 315.698 73.1821C316.992 74.2808 318.054 75.7822 318.884 77.6865C319.739 79.5908 320.166 81.8613 320.166 84.498C320.166 88.4043 318.921 91.6392 316.431 94.2026C313.94 96.7417 311.169 98.3774 308.118 99.1099C305.09 99.8667 302.136 100.245 299.255 100.245C295.007 100.245 291.553 99.8301 288.892 99C286.23 98.1943 283.704 96.8882 281.311 95.0815ZM327.6 95.2646C326.648 94.459 326.575 93.3115 327.38 91.8223L329.065 88.7461C329.871 87.2568 331.177 87.147 332.983 88.4165C334.497 89.4907 336.206 90.3696 338.11 91.0532C340.015 91.7124 342.139 92.042 344.482 92.042C347.705 92.042 350.012 91.1753 351.404 89.4419C352.795 87.6841 353.491 85.7188 353.491 83.5459C353.491 81.3242 352.661 79.3345 351.001 77.5767C349.365 75.7944 347.046 74.9033 344.043 74.9033H341.223C339.636 74.9033 338.843 74.2563 338.843 72.9624V68.9341C338.843 67.5913 339.636 66.9199 341.223 66.9199H343.42C345.667 66.9199 347.644 66.2241 349.353 64.8325C351.086 63.4409 351.953 61.6953 351.953 59.5957C351.953 57.96 351.379 56.605 350.232 55.5308C349.109 54.4321 347.266 53.8828 344.702 53.8828C342.285 53.8828 340.198 54.2368 338.44 54.9448C336.682 55.6528 335.291 56.5073 334.265 57.5083C332.8 58.9487 331.543 58.8877 330.493 57.3252L328.369 54.2124C327.563 53.0405 327.808 51.8442 329.102 50.6235C330.859 48.939 333.13 47.6938 335.913 46.8882C338.696 46.0825 341.418 45.6797 344.08 45.6797C350.354 45.6797 355.017 46.937 358.069 49.4517C361.121 51.9419 362.646 54.9937 362.646 58.6069C362.646 61.2925 361.597 63.7461 359.497 65.9678C357.397 68.165 355.176 69.6787 352.832 70.5088V70.6553C355.615 71.3389 358.252 72.8403 360.742 75.1597C363.232 77.4546 364.478 80.311 364.478 83.729C364.478 89.0757 362.793 93.165 359.424 95.9971C356.055 98.8291 350.916 100.245 344.006 100.245C341.101 100.245 338.086 99.8057 334.961 98.9268C331.86 98.0234 329.407 96.8027 327.6 95.2646Z" fill="white"/>
</svg>
