<svg width="496" height="145" viewBox="0 0 496 145" fill="none" xmlns="http://www.w3.org/2000/svg">
<rect x="1.5" y="1.5" width="493" height="142" rx="36.5" fill="#2A2734" stroke="white" stroke-width="3"/>
<path d="M108.776 75.531C106.711 75.559 109.167 76.594 111.863 77.01C112.565 76.4628 113.24 75.8818 113.886 75.269C112.207 75.679 110.499 75.688 108.776 75.531ZM119.862 72.768C121.091 71.071 121.989 69.212 122.304 67.29C122.028 68.659 121.285 69.843 120.584 71.091C116.724 73.522 120.221 69.648 120.582 68.175C116.432 73.4 120.012 71.308 119.862 72.768ZM123.955 62.12C124.204 58.4 123.222 59.576 122.892 60.995C123.276 61.196 123.582 63.617 123.955 62.12ZM100.944 11.283C102.046 11.481 103.325 11.633 103.146 11.895C104.352 11.632 104.626 11.389 100.944 11.283ZM103.146 11.895L102.367 12.057L103.092 11.993L103.146 11.895ZM137.518 63.53C137.641 66.87 136.54 68.491 135.549 71.359L133.763 72.251C132.303 75.089 133.905 74.053 132.86 76.31C130.579 78.337 125.939 82.655 124.454 83.048C123.37 83.025 125.188 81.77 125.426 81.277C122.374 83.375 122.977 84.424 118.308 85.699L118.172 85.394C106.656 90.811 90.662 80.076 90.873 65.428C90.75 66.359 90.524 66.125 90.268 66.502C89.674 58.965 93.749 51.395 100.621 48.306C107.343 44.977 115.223 46.343 120.038 50.83C117.394 47.365 112.129 43.693 105.89 44.037C99.779 44.134 94.062 48.017 92.155 52.233C89.023 54.205 88.66 59.833 87.296 60.861C85.461 74.352 90.749 80.179 99.694 87.036C101.101 87.985 100.09 88.129 100.281 88.851C97.309 87.459 94.587 85.358 92.35 82.786C93.536 84.525 94.818 86.215 96.475 87.542C93.672 86.593 89.929 80.752 88.835 80.514C93.667 89.163 108.434 95.683 116.168 92.449C112.589 92.58 108.044 92.522 104.023 91.036C102.335 90.167 100.039 88.367 100.449 88.029C111.002 91.973 121.905 91.017 131.035 83.696C133.358 81.886 135.896 78.809 136.629 78.766C135.524 80.427 136.817 79.566 135.969 81.032C138.285 77.299 134.964 79.511 138.363 74.584L139.619 76.313C139.152 73.215 143.467 69.452 143.029 64.551C144.019 63.052 144.133 66.163 143.083 69.612C144.54 65.787 143.467 65.172 143.842 62.015C144.246 63.077 144.777 64.203 145.05 65.323C144.1 61.627 146.025 59.097 146.5 56.95C146.033 56.742 145.036 58.584 144.808 54.218C144.842 52.322 145.336 53.225 145.526 52.758C145.153 52.543 144.177 51.09 143.582 48.302C144.013 47.647 144.733 50 145.321 50.097C144.943 47.88 144.293 46.19 144.268 44.488C142.555 40.909 143.662 44.966 142.272 42.952C140.449 37.265 143.785 41.632 144.01 39.049C146.773 43.052 148.349 49.257 149.072 51.826C148.52 48.693 147.629 45.658 146.54 42.721C147.379 43.075 145.188 36.275 147.631 40.778C145.022 31.178 136.465 22.209 128.593 18C129.555 18.881 130.772 19.989 130.336 20.162C126.421 17.831 127.109 17.649 126.549 16.664C123.359 15.367 123.15 16.768 121.038 16.667C115.026 13.479 113.867 13.817 108.335 11.819L108.587 12.996C104.603 11.669 103.946 13.499 99.642 13C99.379 12.795 101.021 12.26 102.372 12.063C98.522 12.571 98.702 11.304 94.934 12.203C95.863 11.552 96.843 11.121 97.834 10.566C94.695 10.757 90.339 12.394 91.683 10.905C86.562 13.191 77.465 16.398 72.361 21.185L72.2 20.112C69.861 22.921 62 28.499 61.374 32.134L60.749 32.28C59.531 34.34 58.745 36.676 57.779 38.797C56.187 41.51 55.445 39.841 55.672 40.266C52.54 46.615 50.985 51.949 49.642 56.323C50.6 57.755 49.664 64.937 50.027 70.687C48.455 99.081 69.955 126.649 93.457 133.016C96.902 134.246 102.024 134.2 106.381 134.327C101.24 132.856 100.575 133.549 95.568 131.802C91.954 130.101 91.163 128.158 88.604 125.938L89.618 127.728C84.599 125.953 86.7 125.53 82.616 124.237L83.699 122.825C82.072 122.702 79.39 120.085 78.657 118.634L76.878 118.704C74.74 116.066 73.601 114.166 73.684 112.693L73.109 113.717C72.457 112.598 65.244 103.824 68.986 105.867C68.29 105.23 67.366 104.832 66.364 103.011L67.126 102.14C65.324 99.824 63.811 96.853 63.926 95.864C64.886 97.162 65.553 97.404 66.213 97.627C61.665 86.342 61.41 97.005 57.965 86.14L58.694 86.081C58.135 85.239 57.796 84.325 57.347 83.429L57.663 80.268C54.389 76.482 56.747 64.17 57.22 57.417C57.548 54.671 59.953 51.748 61.783 47.165L60.669 46.973C62.8 43.256 72.836 32.045 77.484 32.622C79.735 29.793 77.038 32.611 76.598 31.899C81.543 26.78 83.098 28.282 86.436 27.362C90.036 25.225 83.347 28.195 85.053 26.547C91.276 24.958 89.463 22.934 97.581 22.127C98.438 22.614 95.594 22.879 94.88 23.512C100.065 20.976 111.288 21.553 118.577 24.92C127.035 28.872 136.538 40.558 136.913 51.551L137.34 51.665C137.124 56.035 138.009 61.089 136.475 65.731L137.518 63.53ZM86.233 78.366L85.943 79.814C87.3 81.659 88.378 83.657 90.11 85.097C88.864 82.663 87.937 81.657 86.233 78.366ZM89.441 78.24C88.723 77.445 88.297 76.489 87.821 75.536C88.277 77.211 89.209 78.65 90.076 80.114L89.441 78.24ZM146.226 65.897L145.922 66.659C145.362 70.6599 144.146 74.5411 142.323 78.146C144.346 74.3294 145.668 70.1806 146.226 65.897ZM101.353 10.293C102.749 9.78003 104.786 10.012 106.267 9.67603C104.337 9.83803 102.415 9.93503 100.517 10.179L101.353 10.293ZM52.326 36.362C52.648 39.341 50.084 40.497 52.893 38.533C54.399 35.143 52.305 37.598 52.326 36.362ZM49.025 50.15C49.671 48.164 49.789 46.97 50.036 45.822C48.248 48.107 49.213 48.595 49.025 50.15Z" fill="#A80030"/>
<path d="M183.423 99C181.714 99 180.859 98.0845 180.859 96.2534V49.2319C180.859 47.4009 181.714 46.4854 183.423 46.4854H196.204C207.434 46.4854 215.027 48.7559 218.982 53.2969C222.961 57.8379 224.951 64.2954 224.951 72.6694C224.951 81.0435 222.961 87.5254 218.982 92.1152C215.027 96.7051 207.434 99 196.204 99H183.423ZM191.553 89.918H195.508C203.076 89.918 207.971 88.5142 210.193 85.7065C212.415 82.8745 213.525 78.5288 213.525 72.6694C213.525 66.8101 212.415 62.4888 210.193 59.7056C207.971 56.8979 203.076 55.4941 195.508 55.4941H191.553V89.918ZM236.523 99C234.814 99 233.96 98.0845 233.96 96.2534V49.2319C233.96 47.4009 234.814 46.4854 236.523 46.4854H267.944C269.775 46.4854 270.691 47.2788 270.691 48.8657V53.187C270.691 54.7739 269.775 55.5674 267.944 55.5674H244.653V67.2129H266.003C267.834 67.2129 268.75 68.0063 268.75 69.5933V73.9146C268.75 75.5015 267.834 76.2949 266.003 76.2949H244.653V89.918H269.116C270.947 89.918 271.863 90.7114 271.863 92.2983V96.6196C271.863 98.2065 270.947 99 269.116 99H236.523ZM283.765 99C281.812 99 280.835 98.0845 280.835 96.2534V49.2319C280.835 47.4009 281.812 46.4854 283.765 46.4854H296.216C305.591 46.4854 311.914 47.645 315.186 49.9644C318.481 52.2593 320.129 55.7993 320.129 60.5845C320.129 63.9292 318.896 66.5171 316.431 68.3481C313.989 70.1792 311.621 71.2412 309.326 71.5342V71.644C311.548 71.7905 314.16 72.9136 317.163 75.0132C320.166 77.1128 321.667 80.0791 321.667 83.9121C321.667 88.4043 319.836 92.042 316.174 94.8252C312.512 97.6084 306.47 99 298.047 99H283.765ZM291.528 90.0645H296.875C302.051 90.0645 305.566 89.6128 307.422 88.7095C309.302 87.8062 310.242 85.9751 310.242 83.2163C310.242 80.6284 309.155 78.8462 306.982 77.8696C304.834 76.8687 301.465 76.3682 296.875 76.3682H291.528V90.0645ZM291.528 67.7256H296.326C299.475 67.7256 302.417 67.1763 305.151 66.0776C307.91 64.979 309.29 63.27 309.29 60.9507C309.29 59.144 308.521 57.7769 306.982 56.8491C305.469 55.897 301.917 55.4209 296.326 55.4209H291.528V67.7256ZM333.936 99C332.227 99 331.372 98.0845 331.372 96.2534V49.2319C331.372 47.4009 332.227 46.4854 333.936 46.4854H339.502C341.211 46.4854 342.065 47.4009 342.065 49.2319V96.2534C342.065 98.0845 341.211 99 339.502 99H333.936ZM352.136 99C350.378 99 349.805 98.1943 350.415 96.583L368.359 49.4517C369.116 47.4741 370.264 46.4854 371.802 46.4854H376.929C378.467 46.4854 379.614 47.4741 380.371 49.4517L398.315 96.583C398.926 98.1943 398.352 99 396.594 99H390.771C389.16 99 388.037 98.1577 387.402 96.4731L383.667 86.6221H365.063L361.328 96.4731C360.693 98.1577 359.57 99 357.959 99H352.136ZM368.469 77.54H380.261L375.757 65.8945C375.22 64.5273 374.89 63.5386 374.768 62.9282C374.67 62.2935 374.561 61.3657 374.438 60.145H374.292C374.17 61.3657 374.048 62.2935 373.926 62.9282C373.828 63.5386 373.511 64.5273 372.974 65.8945L368.469 77.54ZM407.397 99C405.688 99 404.834 98.0845 404.834 96.2534V49.2319C404.834 47.4009 405.688 46.4854 407.397 46.4854H412.817C414.917 46.4854 416.504 47.3398 417.578 49.0488L436.255 79.0415H436.511C436.389 77.5767 436.328 76.1118 436.328 74.647V49.2319C436.328 47.4009 437.183 46.4854 438.892 46.4854H444.458C446.167 46.4854 447.021 47.4009 447.021 49.2319V96.2534C447.021 98.0845 446.167 99 444.458 99H439.404C437.305 99 435.718 98.1455 434.644 96.4365L415.601 65.8945H415.344C415.466 67.3594 415.527 68.8242 415.527 70.2891V96.2534C415.527 98.0845 414.673 99 412.964 99H407.397Z" fill="white"/>
</svg>
