<svg width="515" height="145" viewBox="0 0 515 145" fill="none" xmlns="http://www.w3.org/2000/svg">
<rect x="1.5" y="1.5" width="512" height="142" rx="36.5" fill="#2A2734" stroke="white" stroke-width="3"/>
<path d="M94.4479 8H115.378V104.88C104.641 106.92 96.7579 107.735 88.1969 107.735C62.6459 107.734 49.3269 96.184 49.3269 74.03C49.3269 52.692 63.4619 38.83 85.3419 38.83C88.7399 38.83 91.3219 39.102 94.4479 39.917V8ZM94.4479 56.765C92.0019 55.95 89.9629 55.679 87.3809 55.679C76.7809 55.679 70.6639 62.202 70.6639 73.618C70.6639 84.763 76.5089 90.878 87.2459 90.878C89.5549 90.878 91.4579 90.742 94.4479 90.336V56.765Z" fill="#125E27"/>
<path d="M148.672 40.321V88.84C148.672 105.557 147.448 113.575 143.779 120.506C140.381 127.167 135.896 131.379 126.655 136L107.22 126.759C116.462 122.409 120.946 118.606 123.8 112.759C126.79 106.78 127.743 99.849 127.743 81.637V40.321H148.672ZM127.742 8.11099H148.672V29.585H127.742V8.11099Z" fill="#125E27"/>
<path d="M183.423 99C181.714 99 180.859 98.0845 180.859 96.2534V49.2319C180.859 47.4009 181.714 46.4854 183.423 46.4854H196.204C207.434 46.4854 215.027 48.7559 218.982 53.2969C222.961 57.8379 224.951 64.2954 224.951 72.6694C224.951 81.0435 222.961 87.5254 218.982 92.1152C215.027 96.7051 207.434 99 196.204 99H183.423ZM191.553 89.918H195.508C203.076 89.918 207.971 88.5142 210.193 85.7065C212.415 82.8745 213.525 78.5288 213.525 72.6694C213.525 66.8101 212.415 62.4888 210.193 59.7056C207.971 56.8979 203.076 55.4941 195.508 55.4941H191.553V89.918ZM231.396 98.3042C230.103 97.5474 229.614 96.6318 229.932 95.5576L231.47 90.5405C231.909 89.1001 233.057 88.9536 234.912 90.1011C236.499 91.1021 238.269 91.6025 240.222 91.6025C242.908 91.6025 244.653 90.6748 245.459 88.8193C246.289 86.9639 246.704 83.8755 246.704 79.5542V49.2319C246.704 47.4009 247.559 46.4854 249.268 46.4854H254.834C256.543 46.4854 257.397 47.4009 257.397 49.2319V78.8218C257.397 87.8062 255.884 93.6289 252.856 96.29C249.854 98.9268 245.679 100.245 240.332 100.245C236.597 100.245 233.618 99.5981 231.396 98.3042ZM267.029 99C265.271 99 264.697 98.1943 265.308 96.583L283.252 49.4517C284.009 47.4741 285.156 46.4854 286.694 46.4854H291.821C293.359 46.4854 294.507 47.4741 295.264 49.4517L313.208 96.583C313.818 98.1943 313.245 99 311.487 99H305.664C304.053 99 302.93 98.1577 302.295 96.4731L298.56 86.6221H279.956L276.221 96.4731C275.586 98.1577 274.463 99 272.852 99H267.029ZM283.362 77.54H295.154L290.649 65.8945C290.112 64.5273 289.783 63.5386 289.661 62.9282C289.563 62.2935 289.453 61.3657 289.331 60.145H289.185C289.062 61.3657 288.94 62.2935 288.818 62.9282C288.721 63.5386 288.403 64.5273 287.866 65.8945L283.362 77.54ZM322.29 99C320.581 99 319.727 98.0845 319.727 96.2534V49.2319C319.727 47.4009 320.581 46.4854 322.29 46.4854H327.71C329.81 46.4854 331.396 47.3398 332.471 49.0488L351.147 79.0415H351.404C351.282 77.5767 351.221 76.1118 351.221 74.647V49.2319C351.221 47.4009 352.075 46.4854 353.784 46.4854H359.351C361.06 46.4854 361.914 47.4009 361.914 49.2319V96.2534C361.914 98.0845 361.06 99 359.351 99H354.297C352.197 99 350.61 98.1455 349.536 96.4365L330.493 65.8945H330.237C330.359 67.3594 330.42 68.8242 330.42 70.2891V96.2534C330.42 98.0845 329.565 99 327.856 99H322.29ZM370.923 72.7427C370.923 64.3198 373.12 57.6304 377.515 52.6743C381.909 47.7183 388.135 45.2402 396.191 45.2402C401.05 45.2402 404.858 45.8628 407.617 47.1079C410.4 48.353 412.842 50.2817 414.941 52.894C416.211 54.481 416.174 55.7139 414.832 56.5928L410.657 59.3027C409.436 60.1084 408.13 59.7544 406.738 58.2407C405.591 56.9956 404.138 55.958 402.38 55.1279C400.623 54.2979 398.682 53.8828 396.558 53.8828C391.431 53.8828 387.781 55.5063 385.608 58.7534C383.435 61.9761 382.349 66.6392 382.349 72.7427C382.349 78.8462 383.435 83.5215 385.608 86.7686C387.781 89.9912 391.431 91.6025 396.558 91.6025C399.048 91.6025 401.196 91.3584 403.003 90.8701C404.81 90.3574 406.519 89.4419 408.13 88.1235V81.5684H400.183C398.352 81.5684 397.437 80.7749 397.437 79.188V74.8667C397.437 73.2798 398.352 72.4863 400.183 72.4863H416.077C417.908 72.4863 418.823 73.2798 418.823 74.8667V93.4702C415.405 95.9849 411.951 97.7427 408.459 98.7437C404.993 99.7446 400.903 100.245 396.191 100.245C388.257 100.245 382.056 97.7671 377.588 92.811C373.145 87.855 370.923 81.1655 370.923 72.7427ZM426.074 72.7427C426.074 64.3198 428.247 57.6304 432.593 52.6743C436.938 47.7183 443.14 45.2402 451.196 45.2402C459.253 45.2402 465.454 47.7183 469.8 52.6743C474.146 57.6304 476.318 64.3198 476.318 72.7427C476.318 81.1655 474.146 87.855 469.8 92.811C465.454 97.7671 459.253 100.245 451.196 100.245C443.14 100.245 436.938 97.7671 432.593 92.811C428.247 87.855 426.074 81.1655 426.074 72.7427ZM437.5 72.7427C437.5 78.8462 438.586 83.5215 440.759 86.7686C442.957 89.9912 446.436 91.6025 451.196 91.6025C455.957 91.6025 459.424 89.9912 461.597 86.7686C463.794 83.5215 464.893 78.8462 464.893 72.7427C464.893 66.6392 463.794 61.9761 461.597 58.7534C459.424 55.5063 455.957 53.8828 451.196 53.8828C446.436 53.8828 442.957 55.5063 440.759 58.7534C438.586 61.9761 437.5 66.6392 437.5 72.7427Z" fill="white"/>
</svg>
