<svg width="515" height="145" viewBox="0 0 515 145" fill="none" xmlns="http://www.w3.org/2000/svg">
<rect x="1.5" y="1.5" width="512" height="142" rx="36.5" fill="#2A2734" stroke="white" stroke-width="3"/>
<path fill-rule="evenodd" clip-rule="evenodd" d="M108.8 58.8H120.1V70.3H125.8C128.4 70.3 131.1 69.8 133.6 69C134.8 68.6 136.2 68 137.4 67.3C135.8 65.2 135 62.6 134.8 60C134.5 56.5 135.2 51.9 137.6 49.2L138.8 47.8L140.2 48.9C143.8 51.8 146.7 55.7 147.3 60.3C151.6 59 156.6 59.3 160.4 61.5L161.9 62.4L161.1 64C157.9 70.2 151.2 72.2 144.7 71.8C134.9 96.1 113.7 107.6 87.9 107.6C74.6 107.6 62.4 102.6 55.4 90.8L55.3 90.6L54.3 88.5C51.9 83.3 51.2 77.6 51.7 71.9L51.9 70.2H61.5V58.8H72.8V47.6H95.3V36.3H108.8V58.8Z" fill="#3A4D54"/>
<path d="M145.4 63.1C146.2 57.2 141.8 52.6 139 50.4C135.9 54 135.4 63.6 140.3 67.6C137.5 70 131.8 72.3 125.8 72.3H53.6C53 78.5 54.1 84.2 56.6 89.1L57.4 90.6C57.9 91.5 58.5 92.3 59.1 93.2C62.1 93.4 64.8 93.5 67.3 93.4C72.2 93.3 76.2 92.7 79.3 91.7C79.8 91.5 80.2 91.8 80.4 92.2C80.6 92.7 80.3 93.1 79.9 93.3C79.5 93.4 79.1 93.6 78.6 93.7C76.2 94.4 73.6 94.8 70.3 95H69.7C68.4 95.1 67 95.1 65.5 95.1C63.9 95.1 62.4 95.1 60.6 95C66.6 101.8 76 105.8 87.8 105.8C112.8 105.8 134 94.7 143.3 69.9C150 70.6 156.4 68.9 159.3 63.2C154.8 60.5 148.8 61.4 145.4 63.1Z" fill="#00AADA"/>
<path d="M145.4 63.1C146.2 57.2 141.8 52.6 139 50.4C135.9 54 135.4 63.6 140.3 67.6C137.5 70 131.8 72.3 125.8 72.3H57.8001C57.5001 81.8 61.0001 89 67.3001 93.3C72.2001 93.2 76.2001 92.6 79.3001 91.6C79.8001 91.4 80.2001 91.7 80.4001 92.1C80.6001 92.6 80.3001 93 79.9001 93.2C79.5001 93.3 79.1001 93.5 78.6001 93.6C76.2001 94.3 73.4001 94.8 70.1001 95L70.0001 94.9C78.5001 99.3 90.8001 99.2 105 93.8C120.8 87.7 135.6 76.1 145.9 62.9C145.7 63 145.5 63 145.4 63.1Z" fill="#28B8EB"/>
<path d="M53.7 79.8C54.1 83.1 55.1 86.2 56.6 89.1L57.4 90.6C57.9 91.5 58.5 92.3 59.1 93.2C62.1 93.4 64.7999 93.5 67.2999 93.4C72.1999 93.3 76.1999 92.7 79.2999 91.7C79.7999 91.5 80.2 91.8 80.4 92.2C80.6 92.7 80.3 93.1 79.9 93.3C79.5 93.4 79.0999 93.6 78.5999 93.7C76.1999 94.4 73.3999 94.9 70.0999 95.1H69.7C68.4 95.2 67 95.2 65.6 95.2C64 95.2 62.4 95.2 60.7 95.1C66.7 101.9 76.2 105.9 88 105.9C109.4 105.9 128 97.8 138.8 79.9H53.7V79.8Z" fill="#028BB8"/>
<path d="M58.5 79.8C59.8 85.6 62.8 90.2 67.3 93.3C72.2 93.2 76.2 92.6 79.3 91.6C79.8 91.4 80.2 91.7 80.4 92.1C80.6 92.6 80.3 93 79.9 93.2C79.5 93.3 79.1 93.5 78.6 93.6C76.2 94.3 73.4 94.8 70 95C78.5 99.4 90.8 99.3 104.9 93.9C113.4 90.6 121.7 85.7 129.1 79.8H58.5Z" fill="#019BC6"/>
<path fill-rule="evenodd" clip-rule="evenodd" d="M63.4 60.7H73.2V70.5H63.4V60.7ZM64.2 61.5H65V69.6H64.2V61.5ZM65.6 61.5H66.4V69.6H65.6V61.5ZM67.1 61.5H67.9V69.6H67.1V61.5ZM68.6 61.5H69.4V69.6H68.6V61.5ZM70.1 61.5H70.9V69.6H70.1V61.5ZM71.6 61.5H72.4V69.6H71.6V61.5ZM74.6 49.5H84.4V59.3H74.6V49.5ZM75.5 50.3H76.3V58.4H75.5V50.3ZM76.9 50.3H77.7V58.4H76.9V50.3ZM78.4 50.3H79.2V58.4H78.4V50.3ZM79.9 50.3H80.7V58.4H79.9V50.3ZM81.3 50.3H82.1V58.4H81.3V50.3ZM82.8 50.3H83.6V58.4H82.8V50.3Z" fill="#00ACD3"/>
<path fill-rule="evenodd" clip-rule="evenodd" d="M74.6 60.7H84.4V70.5H74.6V60.7ZM75.5 61.5H76.3V69.6H75.5V61.5ZM76.9 61.5H77.7V69.6H76.9V61.5ZM78.4 61.5H79.2V69.6H78.4V61.5ZM79.9 61.5H80.7V69.6H79.9V61.5ZM81.3 61.5H82.1V69.6H81.3V61.5ZM82.8 61.5H83.6V69.6H82.8V61.5Z" fill="#23C2EE"/>
<path fill-rule="evenodd" clip-rule="evenodd" d="M85.9 60.7H95.7V70.5H85.9V60.7ZM86.7 61.5H87.5V69.6H86.7V61.5ZM88.2 61.5H89V69.6H88.2V61.5ZM89.7 61.5H90.5V69.6H89.7V61.5ZM91.1 61.5H91.9V69.6H91.1V61.5ZM92.6 61.5H93.4V69.6H92.6V61.5ZM94.1 61.5H94.9V69.6H94.1V61.5Z" fill="#00ACD3"/>
<path fill-rule="evenodd" clip-rule="evenodd" d="M85.9 49.5H95.7V59.3H85.9V49.5ZM86.7 50.3H87.5V58.4H86.7V50.3ZM88.2 50.3H89V58.4H88.2V50.3ZM89.7 50.3H90.5V58.4H89.7V50.3ZM91.1 50.3H91.9V58.4H91.1V50.3ZM92.6 50.3H93.4V58.4H92.6V50.3ZM94.1 50.3H94.9V58.4H94.1V50.3ZM97.2 60.7H107V70.5H97.2V60.7ZM98 61.5H98.8V69.6H98V61.5ZM99.5 61.5H100.3V69.6H99.5V61.5ZM100.9 61.5H101.7V69.6H100.9V61.5ZM102.4 61.5H103.2V69.6H102.4V61.5ZM103.9 61.5H104.7V69.6H103.9V61.5ZM105.4 61.5H106.2V69.6H105.4V61.5Z" fill="#23C2EE"/>
<path fill-rule="evenodd" clip-rule="evenodd" d="M97.2 49.5H107V59.3H97.2V49.5ZM98 50.3H98.7999V58.4H98V50.3ZM99.5 50.3H100.3V58.4H99.5V50.3ZM100.9 50.3H101.7V58.4H100.9V50.3ZM102.4 50.3H103.2V58.4H102.4V50.3ZM103.9 50.3H104.7V58.4H103.9V50.3ZM105.4 50.3H106.2V58.4H105.4V50.3Z" fill="#00ACD3"/>
<path fill-rule="evenodd" clip-rule="evenodd" d="M97.2 38.2H107V48H97.2V38.2ZM98 39H98.7999V47.1H98V39ZM99.5 39H100.3V47.1H99.5V39ZM100.9 39H101.7V47.1H100.9V39ZM102.4 39H103.2V47.1H102.4V39ZM103.9 39H104.7V47.1H103.9V39ZM105.4 39H106.2V47.1H105.4V39Z" fill="#23C2EE"/>
<path fill-rule="evenodd" clip-rule="evenodd" d="M108.5 60.7H118.3V70.5H108.5V60.7ZM109.3 61.5H110.1V69.6H109.3V61.5ZM110.7 61.5H111.5V69.6H110.7V61.5ZM112.2 61.5H113V69.6H112.2V61.5ZM113.7 61.5H114.5V69.6H113.7V61.5ZM115.2 61.5H116V69.6H115.2V61.5ZM116.7 61.5H117.5V69.6H116.7V61.5Z" fill="#00ACD3"/>
<path fill-rule="evenodd" clip-rule="evenodd" d="M83.8 86.3C85.3 86.3 86.5 87.5 86.5 89C86.5 90.5 85.3 91.7 83.8 91.7C82.3 91.7 81.1 90.5 81.1 89C81.1 87.5 82.3 86.3 83.8 86.3Z" fill="#D4EEF1"/>
<path fill-rule="evenodd" clip-rule="evenodd" d="M83.8 87.1C84 87.1 84.3 87.1 84.5 87.2C84.3 87.3 84.1 87.6 84.1 87.9C84.1 88.3 84.5 88.7 84.9 88.7C85.2 88.7 85.5 88.5 85.6 88.3C85.7 88.5 85.7 88.8 85.7 89C85.7 90.1 84.8 90.9 83.8 90.9C82.7 90.9 81.9 90 81.9 89C81.9 88 82.7 87.1 83.8 87.1ZM36.1 80.8H161.5C158.8 80.1 152.9 79.2 153.8 75.6C148.8 81.3 136.9 79.6 133.8 76.8C130.4 81.7 110.8 79.8 109.5 76C105.3 81 92.2 81 88 76C86.6 79.8 67 81.7 63.7 76.8C60.7 79.6 48.7 81.3 43.7 75.6C44.8 79.1 38.8 80.1 36.1 80.8Z" fill="#3A4D54"/>
<path d="M91 105.8C84.3 102.6 80.7 98.3 78.6 93.6C76.1 94.3 73.1 94.8 69.7 95C68.4 95.1 67 95.1 65.6 95.1C63.9 95.1 62.2 95.1 60.4 95C66.4 101 74 105.7 87.9 105.8H91Z" fill="#BFDBE0"/>
<path d="M81.0999 97.9C80.1999 96.6 79.2999 95.1 78.5999 93.6C76.0999 94.3 73.1 94.8 69.7 95C72 96.2 75.3999 97.4 81.0999 97.9Z" fill="#D4EEF1"/>
<path d="M183.423 99C181.714 99 180.859 98.0845 180.859 96.2534V49.2319C180.859 47.4009 181.714 46.4854 183.423 46.4854H196.204C207.434 46.4854 215.027 48.7559 218.982 53.2969C222.961 57.8379 224.951 64.2954 224.951 72.6694C224.951 81.0435 222.961 87.5254 218.982 92.1152C215.027 96.7051 207.434 99 196.204 99H183.423ZM191.553 89.918H195.508C203.076 89.918 207.971 88.5142 210.193 85.7065C212.415 82.8745 213.525 78.5288 213.525 72.6694C213.525 66.8101 212.415 62.4888 210.193 59.7056C207.971 56.8979 203.076 55.4941 195.508 55.4941H191.553V89.918ZM231.25 72.7427C231.25 64.3198 233.423 57.6304 237.769 52.6743C242.114 47.7183 248.315 45.2402 256.372 45.2402C264.429 45.2402 270.63 47.7183 274.976 52.6743C279.321 57.6304 281.494 64.3198 281.494 72.7427C281.494 81.1655 279.321 87.855 274.976 92.811C270.63 97.7671 264.429 100.245 256.372 100.245C248.315 100.245 242.114 97.7671 237.769 92.811C233.423 87.855 231.25 81.1655 231.25 72.7427ZM242.676 72.7427C242.676 78.8462 243.762 83.5215 245.935 86.7686C248.132 89.9912 251.611 91.6025 256.372 91.6025C261.133 91.6025 264.6 89.9912 266.772 86.7686C268.97 83.5215 270.068 78.8462 270.068 72.7427C270.068 66.6392 268.97 61.9761 266.772 58.7534C264.6 55.5063 261.133 53.8828 256.372 53.8828C251.611 53.8828 248.132 55.5063 245.935 58.7534C243.762 61.9761 242.676 66.6392 242.676 72.7427ZM287.793 72.7427C287.793 64.3198 289.929 57.6304 294.202 52.6743C298.474 47.7183 304.639 45.2402 312.695 45.2402C317.334 45.2402 321.265 45.9604 324.487 47.4009C327.71 48.8413 329.98 50.9287 331.299 53.6631C332.178 55.4697 332.031 56.6904 330.859 57.3252L326.465 59.6689C324.927 60.499 323.657 60.0352 322.656 58.2773C322.021 57.1543 320.837 56.1411 319.104 55.2378C317.395 54.3345 315.381 53.8828 313.062 53.8828C307.935 53.8828 304.346 55.5063 302.295 58.7534C300.244 61.9761 299.219 66.6392 299.219 72.7427C299.219 78.8462 300.244 83.5215 302.295 86.7686C304.346 89.9912 307.935 91.6025 313.062 91.6025C315.82 91.6025 318.14 90.98 320.02 89.7349C321.924 88.4897 323.242 87.3057 323.975 86.1826C325.171 84.3516 326.44 83.8877 327.783 84.791L332.178 87.7207C333.374 88.5264 333.496 89.7471 332.544 91.3828C331.128 93.8242 328.699 95.9116 325.256 97.645C321.814 99.3784 317.627 100.245 312.695 100.245C304.761 100.245 298.621 97.7671 294.275 92.811C289.954 87.855 287.793 81.1655 287.793 72.7427ZM344.995 99C343.286 99 342.432 98.0845 342.432 96.2534V49.2319C342.432 47.4009 343.286 46.4854 344.995 46.4854H350.562C352.271 46.4854 353.125 47.4009 353.125 49.2319V63.8071C353.125 65.272 353.064 66.7368 352.942 68.2017H353.198L370.996 48.646C372.314 47.2056 373.438 46.4854 374.365 46.4854H381.726C384.583 46.4854 385.046 47.5352 383.118 49.6348L366.455 67.8721L384.29 95.8506C385.632 97.9502 385.168 99 382.898 99H376.05C374.78 99 373.682 98.2798 372.754 96.8394L359.277 75.709L353.125 82.6304V96.2534C353.125 98.0845 352.271 99 350.562 99H344.995ZM394.873 99C393.164 99 392.31 98.0845 392.31 96.2534V49.2319C392.31 47.4009 393.164 46.4854 394.873 46.4854H426.294C428.125 46.4854 429.041 47.2788 429.041 48.8657V53.187C429.041 54.7739 428.125 55.5674 426.294 55.5674H403.003V67.2129H424.353C426.184 67.2129 427.1 68.0063 427.1 69.5933V73.9146C427.1 75.5015 426.184 76.2949 424.353 76.2949H403.003V89.918H427.466C429.297 89.918 430.212 90.7114 430.212 92.2983V96.6196C430.212 98.2065 429.297 99 427.466 99H394.873ZM441.748 99C440.039 99 439.185 98.0845 439.185 96.2534V49.2319C439.185 47.4009 440.039 46.4854 441.748 46.4854H458.704C466.248 46.4854 471.753 47.6572 475.22 50.001C478.687 52.3203 480.42 56.1045 480.42 61.3535C480.42 65.2598 479.016 68.3726 476.208 70.6919C473.401 73.0112 469.836 74.5493 465.515 75.3062V75.3794C467.859 76.2583 469.629 77.479 470.825 79.0415C472.021 80.604 472.998 81.9712 473.755 83.1431L481.812 95.8506C483.154 97.9502 482.69 99 480.42 99H474.048C472.705 99 471.606 98.2798 470.752 96.8394L463.354 84.498C462.549 83.1797 461.072 81.7393 458.923 80.1768C456.799 78.5898 454.688 77.7964 452.588 77.7964H449.878V96.2534C449.878 98.0845 449.023 99 447.314 99H441.748ZM449.878 68.7144H456.433C461.316 68.7144 464.783 68.165 466.833 67.0664C468.909 65.9434 469.946 64.1733 469.946 61.7563C469.946 59.1196 468.945 57.4106 466.943 56.6294C464.966 55.8237 462.048 55.4209 458.191 55.4209H449.878V68.7144Z" fill="white"/>
</svg>
