<svg width="605" height="145" viewBox="0 0 605 145" fill="none" xmlns="http://www.w3.org/2000/svg">
<rect x="1.5" y="1.5" width="602" height="142" rx="36.5" fill="#2A2734" stroke="white" stroke-width="3"/>
<g clip-path="url(#clip0_53_2)">
<path d="M99.195 8H104.148C117.066 8.535 129.836 12.89 140.191 20.676C150 27.965 157.664 38.113 161.918 49.582C164.359 55.969 165.582 62.762 166 69.574V73.785C165.586 85.078 162.336 96.305 156.27 105.867C149.469 116.762 139.348 125.597 127.543 130.695C119.815 134.046 111.504 135.848 103.082 136H100.938C89.203 135.809 77.528 132.34 67.641 126.008C56.445 118.895 47.527 108.223 42.613 95.891C39.891 89.19 38.441 82.02 38 74.812V69.855C38.504 55.465 43.953 41.246 53.41 30.359C61.168 21.31 71.5 14.48 82.887 10.937C88.172 9.27 93.676 8.41 99.195 8ZM63.191 45.523C63.161 57.676 63.18 69.828 63.18 81.977C64.61 81.988 66.04 81.988 67.473 81.988C67.398 71.555 67.574 61.125 67.367 50.695C67.847 51.602 68.285 52.535 68.832 53.402C75.035 62.91 81.105 72.5 87.309 82C89.047 81.977 90.785 81.977 92.523 82.004C92.52 69.844 92.516 57.684 92.527 45.524C91.1104 45.5102 89.6937 45.5062 88.277 45.512C88.352 55.832 88.141 66.152 88.402 76.461C81.895 66.109 75.301 55.816 68.707 45.516C66.8683 45.5047 65.0296 45.507 63.191 45.523ZM102.035 45.512C101.906 57.672 102.031 69.832 101.988 81.988C108.457 81.973 114.926 82.012 121.398 81.968C121.375 80.6507 121.383 79.333 121.422 78.016C116.41 78 111.395 78.023 106.379 77.996C106.305 73.786 106.375 69.57 106.339 65.359C110.734 65.281 115.129 65.371 119.519 65.312C119.508 64.035 119.508 62.758 119.5 61.48C115.113 61.621 110.727 61.426 106.336 61.492C106.348 57.469 106.356 53.442 106.356 49.414C111.055 49.414 115.754 49.394 120.449 49.426C120.441 48.125 120.449 46.82 120.465 45.52C114.32 45.504 108.175 45.512 102.035 45.512ZM124.637 45.566C124.641 46.832 124.641 48.094 124.645 49.356C128.133 49.316 131.617 49.465 135.105 49.391C135.082 60.254 135.109 71.109 135.094 81.965C136.554 82.008 138.024 82 139.484 81.875C139.364 75.883 139.602 69.887 139.328 63.898C139.395 61.199 139.258 58.504 139.445 55.808C139.551 53.668 139.168 51.531 139.41 49.391C142.926 49.438 146.445 49.406 149.96 49.406C149.944 48.1282 149.969 46.8502 150.035 45.574C141.566 45.469 133.098 45.48 124.637 45.566ZM51.55 77.094C49.573 78.004 49.444 81.117 51.401 82.121C53.121 83.301 55.706 81.75 55.628 79.711C55.761 77.707 53.338 76.023 51.55 77.094ZM80.78 92.383C76.503 95.852 76.554 103.578 81.28 106.633C83.948 108.328 87.382 107.977 90.202 106.848C90.214 106.227 90.229 105.609 90.252 104.988C87.581 106.383 83.842 106.668 81.577 104.378C78.612 101.141 79.28 95.109 83.19 92.902C85.401 91.738 88.097 92.078 90.276 93.141C90.269 92.481 90.272 91.821 90.276 91.161C87.179 90.062 83.354 90.121 80.78 92.383ZM97.987 95.093C96.097 95.313 94.229 96.313 93.354 98.059C92.101 100.555 92.245 103.926 94.218 106.019C96.253 108.316 100.163 108.339 102.398 106.316C104.823 104.008 105.097 99.848 103.155 97.152C102.007 95.523 99.882 94.968 97.987 95.093ZM115.874 97.816C114.214 100.699 114.542 105.066 117.472 107.027C119.655 108.247 122.405 107.859 124.546 106.719C124.542 106.102 124.55 105.484 124.577 104.871C122.89 105.941 120.64 106.727 118.765 105.648C117.456 104.926 117.061 103.391 116.851 102.023C119.726 101.984 122.597 101.941 125.476 101.949C125.401 100.121 125.358 98.055 124.026 96.641C121.827 94.211 117.382 94.984 115.874 97.816ZM107.46 95.48V107.488C108.112 107.488 108.772 107.488 109.433 107.492C109.456 105.297 109.393 103.098 109.456 100.898C109.472 99.628 109.983 98.34 110.94 97.484C111.741 96.879 112.823 97.214 113.741 97.238C113.729 96.602 113.721 95.968 113.718 95.336C111.925 94.938 110.382 95.988 109.476 97.453C109.456 96.82 109.436 96.187 109.425 95.559C108.769 95.535 108.112 95.508 107.46 95.48Z" fill="#623697"/>
<path d="M96.758 97.223C98.41 96.418 100.781 96.813 101.703 98.523C102.753 100.41 102.73 102.906 101.566 104.734C100.046 107.02 96.039 106.52 95.043 103.992C94.035 101.734 94.426 98.509 96.758 97.223ZM117.04 100.414C117.086 98.84 118.184 97.277 119.766 96.934C120.742 96.77 121.863 96.941 122.539 97.727C123.211 98.441 123.352 99.441 123.519 100.367C121.359 100.379 119.2 100.336 117.04 100.414Z" fill="#623697"/>
</g>
<path d="M184.448 99C182.739 99 181.885 98.0845 181.885 96.2534V91.3462C181.885 89.5151 182.739 88.5996 184.448 88.5996H190.015C191.724 88.5996 192.578 89.5151 192.578 91.3462V96.2534C192.578 98.0845 191.724 99 190.015 99H184.448ZM207.886 99C206.177 99 205.322 98.0845 205.322 96.2534V49.2319C205.322 47.4009 206.177 46.4854 207.886 46.4854H213.306C215.405 46.4854 216.992 47.3398 218.066 49.0488L236.743 79.0415H237C236.877 77.5767 236.816 76.1118 236.816 74.647V49.2319C236.816 47.4009 237.671 46.4854 239.38 46.4854H244.946C246.655 46.4854 247.51 47.4009 247.51 49.2319V96.2534C247.51 98.0845 246.655 99 244.946 99H239.893C237.793 99 236.206 98.1455 235.132 96.4365L216.089 65.8945H215.833C215.955 67.3594 216.016 68.8242 216.016 70.2891V96.2534C216.016 98.0845 215.161 99 213.452 99H207.886ZM261.792 99C260.083 99 259.229 98.0845 259.229 96.2534V49.2319C259.229 47.4009 260.083 46.4854 261.792 46.4854H293.213C295.044 46.4854 295.959 47.2788 295.959 48.8657V53.187C295.959 54.7739 295.044 55.5674 293.213 55.5674H269.922V67.2129H291.272C293.103 67.2129 294.019 68.0063 294.019 69.5933V73.9146C294.019 75.5015 293.103 76.2949 291.272 76.2949H269.922V89.918H294.385C296.216 89.918 297.131 90.7114 297.131 92.2983V96.6196C297.131 98.2065 296.216 99 294.385 99H261.792ZM304.236 55.8604C302.405 55.8604 301.489 55.0669 301.489 53.48V48.8657C301.489 47.2788 302.405 46.4854 304.236 46.4854H341.882C343.713 46.4854 344.629 47.2788 344.629 48.8657V53.48C344.629 55.0669 343.713 55.8604 341.882 55.8604H328.406V96.9858C328.406 98.3286 327.795 99 326.575 99H319.543C318.323 99 317.712 98.3286 317.712 96.9858V55.8604H304.236ZM374.658 72.7427C374.658 64.3198 376.794 57.6304 381.067 52.6743C385.339 47.7183 391.504 45.2402 399.561 45.2402C404.199 45.2402 408.13 45.9604 411.353 47.4009C414.575 48.8413 416.846 50.9287 418.164 53.6631C419.043 55.4697 418.896 56.6904 417.725 57.3252L413.33 59.6689C411.792 60.499 410.522 60.0352 409.521 58.2773C408.887 57.1543 407.703 56.1411 405.969 55.2378C404.26 54.3345 402.246 53.8828 399.927 53.8828C394.8 53.8828 391.211 55.5063 389.16 58.7534C387.109 61.9761 386.084 66.6392 386.084 72.7427C386.084 78.8462 387.109 83.5215 389.16 86.7686C391.211 89.9912 394.8 91.6025 399.927 91.6025C402.686 91.6025 405.005 90.98 406.885 89.7349C408.789 88.4897 410.107 87.3057 410.84 86.1826C412.036 84.3516 413.306 83.8877 414.648 84.791L419.043 87.7207C420.239 88.5264 420.361 89.7471 419.409 91.3828C417.993 93.8242 415.564 95.9116 412.122 97.645C408.679 99.3784 404.492 100.245 399.561 100.245C391.626 100.245 385.486 97.7671 381.14 92.811C376.819 87.855 374.658 81.1655 374.658 72.7427ZM426.587 72.7427C426.587 64.3198 428.76 57.6304 433.105 52.6743C437.451 47.7183 443.652 45.2402 451.709 45.2402C459.766 45.2402 465.967 47.7183 470.312 52.6743C474.658 57.6304 476.831 64.3198 476.831 72.7427C476.831 81.1655 474.658 87.855 470.312 92.811C465.967 97.7671 459.766 100.245 451.709 100.245C443.652 100.245 437.451 97.7671 433.105 92.811C428.76 87.855 426.587 81.1655 426.587 72.7427ZM438.013 72.7427C438.013 78.8462 439.099 83.5215 441.272 86.7686C443.469 89.9912 446.948 91.6025 451.709 91.6025C456.47 91.6025 459.937 89.9912 462.109 86.7686C464.307 83.5215 465.405 78.8462 465.405 72.7427C465.405 66.6392 464.307 61.9761 462.109 58.7534C459.937 55.5063 456.47 53.8828 451.709 53.8828C446.948 53.8828 443.469 55.5063 441.272 58.7534C439.099 61.9761 438.013 66.6392 438.013 72.7427ZM488.403 99C486.694 99 485.84 98.0845 485.84 96.2534V49.2319C485.84 47.4009 486.694 46.4854 488.403 46.4854H505.359C512.903 46.4854 518.408 47.6572 521.875 50.001C525.342 52.3203 527.075 56.1045 527.075 61.3535C527.075 65.2598 525.671 68.3726 522.864 70.6919C520.056 73.0112 516.492 74.5493 512.17 75.3062V75.3794C514.514 76.2583 516.284 77.479 517.48 79.0415C518.677 80.604 519.653 81.9712 520.41 83.1431L528.467 95.8506C529.81 97.9502 529.346 99 527.075 99H520.703C519.36 99 518.262 98.2798 517.407 96.8394L510.01 84.498C509.204 83.1797 507.727 81.7393 505.579 80.1768C503.455 78.5898 501.343 77.7964 499.243 77.7964H496.533V96.2534C496.533 98.0845 495.679 99 493.97 99H488.403ZM496.533 68.7144H503.088C507.971 68.7144 511.438 68.165 513.489 67.0664C515.564 65.9434 516.602 64.1733 516.602 61.7563C516.602 59.1196 515.601 57.4106 513.599 56.6294C511.621 55.8237 508.704 55.4209 504.846 55.4209H496.533V68.7144ZM540.698 99C538.989 99 538.135 98.0845 538.135 96.2534V49.2319C538.135 47.4009 538.989 46.4854 540.698 46.4854H572.119C573.95 46.4854 574.866 47.2788 574.866 48.8657V53.187C574.866 54.7739 573.95 55.5674 572.119 55.5674H548.828V67.2129H570.178C572.009 67.2129 572.925 68.0063 572.925 69.5933V73.9146C572.925 75.5015 572.009 76.2949 570.178 76.2949H548.828V89.918H573.291C575.122 89.918 576.038 90.7114 576.038 92.2983V96.6196C576.038 98.2065 575.122 99 573.291 99H540.698Z" fill="white"/>
<defs>
<clipPath id="clip0_53_2">
<rect width="128" height="128" fill="white" transform="translate(38 8)"/>
</clipPath>
</defs>
</svg>
