<svg width="465" height="145" viewBox="0 0 465 145" fill="none" xmlns="http://www.w3.org/2000/svg">
<rect x="1.5" y="1.5" width="462" height="142" rx="36.5" fill="#2A2734" stroke="white" stroke-width="3"/>
<g clip-path="url(#clip0_53_2)">
<path d="M76.662 56.67L100.922 42.63C101.226 42.4772 101.562 42.3976 101.903 42.3976C102.244 42.3976 102.58 42.4772 102.884 42.63L127.247 56.67C127.867 56.98 128.28 57.702 128.28 58.321V86.401C128.28 87.124 127.867 87.743 127.247 88.156L102.987 102.196C102.683 102.349 102.347 102.428 102.006 102.428C101.665 102.428 101.329 102.349 101.025 102.196L76.662 88.156C76.042 87.846 75.629 87.124 75.629 86.401V58.321C75.629 57.701 76.042 56.979 76.662 56.67Z" fill="#8080F2"/>
<path d="M165.135 69.47L136.125 18.885C135.093 17.027 133.132 15.685 130.964 15.685H72.945C70.881 15.685 68.919 17.027 67.784 18.885L38.774 69.368C38.2663 70.284 37.9999 71.3142 37.9999 72.3615C37.9999 73.4088 38.2663 74.439 38.774 75.355L67.784 125.528C68.816 127.386 70.777 128.315 72.945 128.315H131.067C133.132 128.315 135.093 127.386 136.229 125.631L165.239 75.458C166.271 73.394 166.271 71.225 165.135 69.47ZM141.08 93.73C141.08 94.453 140.667 95.175 139.944 95.485L102.986 116.855C102.68 117.057 102.321 117.165 101.953 117.165C101.586 117.165 101.227 117.057 100.921 116.855L63.861 95.589C63.241 95.176 62.725 94.557 62.725 93.834V50.991C62.725 50.269 63.138 49.546 63.861 49.237L100.922 27.867C101.228 27.6649 101.587 27.5571 101.954 27.5571C102.322 27.5571 102.681 27.6649 102.987 27.867L140.049 49.237C140.668 49.649 141.184 50.269 141.184 50.991V93.731L141.08 93.73Z" fill="#4B32C3"/>
</g>
<path d="M183.423 99C181.714 99 180.859 98.0845 180.859 96.2534V49.2319C180.859 47.4009 181.714 46.4854 183.423 46.4854H214.844C216.675 46.4854 217.59 47.2788 217.59 48.8657V53.187C217.59 54.7739 216.675 55.5674 214.844 55.5674H191.553V67.2129H212.903C214.734 67.2129 215.649 68.0063 215.649 69.5933V73.9146C215.649 75.5015 214.734 76.2949 212.903 76.2949H191.553V89.918H216.016C217.847 89.918 218.762 90.7114 218.762 92.2983V96.6196C218.762 98.2065 217.847 99 216.016 99H183.423ZM228.357 95.0815C226.843 93.9341 226.477 92.7744 227.258 91.6025L230.078 87.3545C231.006 85.9629 232.361 85.8896 234.143 87.1348C235.51 88.0869 237.292 89.0757 239.49 90.1011C241.711 91.1021 244.043 91.6025 246.484 91.6025C248.193 91.6025 249.841 91.4072 251.428 91.0166C253.015 90.626 254.224 89.8691 255.054 88.7461C255.884 87.623 256.299 86.2925 256.299 84.7544C256.299 83.6558 256.116 82.6914 255.75 81.8613C255.383 81.0312 254.785 80.3477 253.955 79.8105C253.125 79.2734 252.271 78.8218 251.392 78.4556C249.854 77.8208 247.913 77.1982 245.569 76.5879C243.25 75.9531 240.955 75.1963 238.684 74.3174C236.658 73.5361 234.802 72.4619 233.118 71.0947C231.433 69.7275 230.127 68.1895 229.199 66.4805C228.271 64.7715 227.808 62.4888 227.808 59.6323C227.808 56.2388 228.906 53.3335 231.104 50.9165C233.301 48.4995 235.828 46.9492 238.684 46.2656C241.541 45.582 244.421 45.2402 247.327 45.2402C250.208 45.2402 253.174 45.6797 256.226 46.5586C259.302 47.4375 261.621 48.5361 263.184 49.8545C264.722 51.1484 265.1 52.3203 264.319 53.3701L261.353 57.3618C260.352 58.729 259.009 58.8389 257.324 57.6914C256.25 56.959 254.773 56.1411 252.893 55.2378C251.038 54.3345 249.097 53.8828 247.07 53.8828C245.63 53.8828 244.299 54.0049 243.079 54.249C241.882 54.4932 240.82 55.0791 239.893 56.0068C238.965 56.9346 238.501 58.082 238.501 59.4492C238.501 60.7676 238.843 61.8418 239.526 62.6719C240.21 63.4775 240.967 64.0879 241.797 64.5029C242.627 64.8936 243.469 65.2231 244.324 65.4917C246.96 66.3462 249.316 67.103 251.392 67.7622C253.467 68.397 255.383 69.105 257.141 69.8862C259.583 70.9849 261.45 72.0835 262.744 73.1821C264.038 74.2808 265.1 75.7822 265.93 77.6865C266.785 79.5908 267.212 81.8613 267.212 84.498C267.212 88.4043 265.967 91.6392 263.477 94.2026C260.986 96.7417 258.215 98.3774 255.164 99.1099C252.136 99.8667 249.182 100.245 246.301 100.245C242.053 100.245 238.599 99.8301 235.938 99C233.276 98.1943 230.75 96.8882 228.357 95.0815ZM278.198 99C276.489 99 275.635 98.0845 275.635 96.2534V49.2319C275.635 47.4009 276.489 46.4854 278.198 46.4854H284.131C285.596 46.4854 286.328 47.4009 286.328 49.2319V89.918H307.678C309.509 89.918 310.425 90.7114 310.425 92.2983V96.6196C310.425 98.2065 309.509 99 307.678 99H278.198ZM320.752 99C319.043 99 318.188 98.0845 318.188 96.2534V49.2319C318.188 47.4009 319.043 46.4854 320.752 46.4854H326.318C328.027 46.4854 328.882 47.4009 328.882 49.2319V96.2534C328.882 98.0845 328.027 99 326.318 99H320.752ZM343.164 99C341.455 99 340.601 98.0845 340.601 96.2534V49.2319C340.601 47.4009 341.455 46.4854 343.164 46.4854H348.584C350.684 46.4854 352.271 47.3398 353.345 49.0488L372.021 79.0415H372.278C372.156 77.5767 372.095 76.1118 372.095 74.647V49.2319C372.095 47.4009 372.949 46.4854 374.658 46.4854H380.225C381.934 46.4854 382.788 47.4009 382.788 49.2319V96.2534C382.788 98.0845 381.934 99 380.225 99H375.171C373.071 99 371.484 98.1455 370.41 96.4365L351.367 65.8945H351.111C351.233 67.3594 351.294 68.8242 351.294 70.2891V96.2534C351.294 98.0845 350.439 99 348.73 99H343.164ZM392.639 55.8604C390.808 55.8604 389.893 55.0669 389.893 53.48V48.8657C389.893 47.2788 390.808 46.4854 392.639 46.4854H430.286C432.117 46.4854 433.032 47.2788 433.032 48.8657V53.48C433.032 55.0669 432.117 55.8604 430.286 55.8604H416.809V96.9858C416.809 98.3286 416.199 99 414.978 99H407.947C406.726 99 406.116 98.3286 406.116 96.9858V55.8604H392.639Z" fill="white"/>
<defs>
<clipPath id="clip0_53_2">
<rect width="128" height="128" fill="white" transform="translate(38 8)"/>
</clipPath>
</defs>
</svg>
