<svg width="692" height="145" viewBox="0 0 692 145" fill="none" xmlns="http://www.w3.org/2000/svg">
<rect x="1.5" y="1.5" width="689" height="142" rx="36.5" fill="#2A2734" stroke="white" stroke-width="3"/>
<path d="M164.67 106.44C160.11 107.6 157.29 106.49 154.76 102.69C149.08 94.18 142.81 86.06 136.76 77.79C135.98 76.72 135.17 75.67 134.16 74.34C127 84 119.85 93.2 113.14 102.77C110.74 106.19 108.22 107.68 103.74 106.47L130.66 70.34L105.6 37.71C109.91 36.87 112.89 37.3 115.53 41.16C121.36 49.68 127.79 57.79 134.2 66.37C140.65 57.82 147 49.7 153 41.26C155.41 37.84 158 36.54 162.33 37.8C159.05 42.15 155.84 46.43 152.61 50.68C148.25 56.41 143.97 62.21 139.45 67.82C137.84 69.82 138.1 71.12 139.54 73.01C147.9 84 156.16 95.1 164.67 106.44ZM39.33 69.74C40.05 66.13 40.53 62.45 41.53 58.91C47.53 37.48 72.1301 28.57 89.03 41.85C98.93 49.64 101.39 60.62 100.9 73H45.1C44.26 95.21 60.2501 108.62 80.6301 101.78C87.7801 99.38 91.99 93.78 94.1 86.78C95.17 83.27 96.9401 82.72 100.24 83.72C98.5501 92.48 94.7201 99.8 86.7201 104.38C74.7201 111.24 57.59 109.02 48.58 99.49C43.26 93.89 41 86.92 40 79.39C39.85 78.19 39.54 77.01 39.3 75.82C39.32 73.7933 39.33 71.7667 39.33 69.74ZM45.2 68.25H95.6301C95.3 52.19 85.3 40.78 71.6301 40.68C56.6301 40.56 45.85 51.7 45.2 68.25Z" fill="white"/>
<path d="M207.423 99C205.714 99 204.859 98.0845 204.859 96.2534V49.2319C204.859 47.4009 205.714 46.4854 207.423 46.4854H238.844C240.675 46.4854 241.59 47.2788 241.59 48.8657V53.187C241.59 54.7739 240.675 55.5674 238.844 55.5674H215.553V67.2129H236.903C238.734 67.2129 239.649 68.0063 239.649 69.5933V73.9146C239.649 75.5015 238.734 76.2949 236.903 76.2949H215.553V89.918H240.016C241.847 89.918 242.762 90.7114 242.762 92.2983V96.6196C242.762 98.2065 241.847 99 240.016 99H207.423ZM251.954 99C249.61 99 249.146 97.9502 250.562 95.8506L266.786 71.9004L251.881 49.6348C250.465 47.5352 250.929 46.4854 253.272 46.4854H260.67C261.964 46.4854 263.062 47.2056 263.966 48.646L273.963 64.4663L283.961 48.646C284.864 47.2056 285.963 46.4854 287.257 46.4854H294.654C296.998 46.4854 297.462 47.5352 296.046 49.6348L281.104 71.9004L297.364 95.8506C298.78 97.9502 298.316 99 295.973 99H288.465C287.196 99 286.097 98.2798 285.169 96.8394L273.963 79.3345L262.757 96.8394C261.83 98.2798 260.731 99 259.461 99H251.954ZM306.227 99C304.518 99 303.663 98.0845 303.663 96.2534V49.2319C303.663 47.4009 304.518 46.4854 306.227 46.4854H319.923C328.712 46.4854 334.803 47.9136 338.197 50.77C341.615 53.6265 343.324 57.6792 343.324 62.9282C343.324 68.1772 341.615 72.23 338.197 75.0864C334.803 77.9429 328.712 79.3711 319.923 79.3711H314.356V96.2534C314.356 98.0845 313.502 99 311.793 99H306.227ZM314.356 70.4355H319.886C324.769 70.4355 328.089 69.8618 329.847 68.7144C331.605 67.5425 332.484 65.6138 332.484 62.9282C332.484 60.2427 331.605 58.3262 329.847 57.1787C328.089 56.0068 324.769 55.4209 319.886 55.4209H314.356V70.4355ZM354.859 99C353.15 99 352.296 98.0845 352.296 96.2534V49.2319C352.296 47.4009 353.15 46.4854 354.859 46.4854H371.815C379.359 46.4854 384.864 47.6572 388.331 50.001C391.798 52.3203 393.531 56.1045 393.531 61.3535C393.531 65.2598 392.127 68.3726 389.32 70.6919C386.512 73.0112 382.948 74.5493 378.626 75.3062V75.3794C380.97 76.2583 382.74 77.479 383.937 79.0415C385.133 80.604 386.109 81.9712 386.866 83.1431L394.923 95.8506C396.266 97.9502 395.802 99 393.531 99H387.159C385.816 99 384.718 98.2798 383.863 96.8394L376.466 84.498C375.66 83.1797 374.183 81.7393 372.035 80.1768C369.911 78.5898 367.799 77.7964 365.699 77.7964H362.989V96.2534C362.989 98.0845 362.135 99 360.426 99H354.859ZM362.989 68.7144H369.544C374.427 68.7144 377.894 68.165 379.945 67.0664C382.02 65.9434 383.058 64.1733 383.058 61.7563C383.058 59.1196 382.057 57.4106 380.055 56.6294C378.077 55.8237 375.16 55.4209 371.302 55.4209H362.989V68.7144ZM407.154 99C405.445 99 404.591 98.0845 404.591 96.2534V49.2319C404.591 47.4009 405.445 46.4854 407.154 46.4854H438.575C440.406 46.4854 441.322 47.2788 441.322 48.8657V53.187C441.322 54.7739 440.406 55.5674 438.575 55.5674H415.284V67.2129H436.634C438.465 67.2129 439.381 68.0063 439.381 69.5933V73.9146C439.381 75.5015 438.465 76.2949 436.634 76.2949H415.284V89.918H439.747C441.578 89.918 442.494 90.7114 442.494 92.2983V96.6196C442.494 98.2065 441.578 99 439.747 99H407.154ZM452.088 95.0815C450.575 93.9341 450.208 92.7744 450.99 91.6025L453.81 87.3545C454.737 85.9629 456.092 85.8896 457.875 87.1348C459.242 88.0869 461.024 89.0757 463.221 90.1011C465.443 91.1021 467.774 91.6025 470.216 91.6025C471.925 91.6025 473.573 91.4072 475.16 91.0166C476.747 90.626 477.955 89.8691 478.785 88.7461C479.615 87.623 480.03 86.2925 480.03 84.7544C480.03 83.6558 479.847 82.6914 479.481 81.8613C479.115 81.0312 478.517 80.3477 477.687 79.8105C476.856 79.2734 476.002 78.8218 475.123 78.4556C473.585 77.8208 471.644 77.1982 469.3 76.5879C466.981 75.9531 464.686 75.1963 462.416 74.3174C460.389 73.5361 458.534 72.4619 456.849 71.0947C455.165 69.7275 453.858 68.1895 452.931 66.4805C452.003 64.7715 451.539 62.4888 451.539 59.6323C451.539 56.2388 452.638 53.3335 454.835 50.9165C457.032 48.4995 459.559 46.9492 462.416 46.2656C465.272 45.582 468.153 45.2402 471.058 45.2402C473.939 45.2402 476.905 45.6797 479.957 46.5586C483.033 47.4375 485.353 48.5361 486.915 49.8545C488.453 51.1484 488.832 52.3203 488.05 53.3701L485.084 57.3618C484.083 58.729 482.74 58.8389 481.056 57.6914C479.981 56.959 478.504 56.1411 476.625 55.2378C474.769 54.3345 472.828 53.8828 470.802 53.8828C469.361 53.8828 468.031 54.0049 466.81 54.249C465.614 54.4932 464.552 55.0791 463.624 56.0068C462.696 56.9346 462.232 58.082 462.232 59.4492C462.232 60.7676 462.574 61.8418 463.258 62.6719C463.941 63.4775 464.698 64.0879 465.528 64.5029C466.358 64.8936 467.201 65.2231 468.055 65.4917C470.692 66.3462 473.048 67.103 475.123 67.7622C477.198 68.397 479.115 69.105 480.873 69.8862C483.314 70.9849 485.182 72.0835 486.476 73.1821C487.77 74.2808 488.832 75.7822 489.662 77.6865C490.516 79.5908 490.943 81.8613 490.943 84.498C490.943 88.4043 489.698 91.6392 487.208 94.2026C484.718 96.7417 481.947 98.3774 478.895 99.1099C475.868 99.8667 472.914 100.245 470.033 100.245C465.785 100.245 462.33 99.8301 459.669 99C457.008 98.1943 454.481 96.8882 452.088 95.0815ZM499.989 95.0815C498.475 93.9341 498.109 92.7744 498.89 91.6025L501.71 87.3545C502.638 85.9629 503.993 85.8896 505.775 87.1348C507.142 88.0869 508.924 89.0757 511.122 90.1011C513.343 91.1021 515.675 91.6025 518.116 91.6025C519.825 91.6025 521.473 91.4072 523.06 91.0166C524.647 90.626 525.855 89.8691 526.686 88.7461C527.516 87.623 527.931 86.2925 527.931 84.7544C527.931 83.6558 527.748 82.6914 527.381 81.8613C527.015 81.0312 526.417 80.3477 525.587 79.8105C524.757 79.2734 523.902 78.8218 523.023 78.4556C521.485 77.8208 519.544 77.1982 517.201 76.5879C514.881 75.9531 512.586 75.1963 510.316 74.3174C508.29 73.5361 506.434 72.4619 504.75 71.0947C503.065 69.7275 501.759 68.1895 500.831 66.4805C499.903 64.7715 499.439 62.4888 499.439 59.6323C499.439 56.2388 500.538 53.3335 502.735 50.9165C504.933 48.4995 507.459 46.9492 510.316 46.2656C513.172 45.582 516.053 45.2402 518.958 45.2402C521.839 45.2402 524.806 45.6797 527.857 46.5586C530.934 47.4375 533.253 48.5361 534.815 49.8545C536.354 51.1484 536.732 52.3203 535.951 53.3701L532.984 57.3618C531.983 58.729 530.641 58.8389 528.956 57.6914C527.882 56.959 526.405 56.1411 524.525 55.2378C522.669 54.3345 520.729 53.8828 518.702 53.8828C517.262 53.8828 515.931 54.0049 514.71 54.249C513.514 54.4932 512.452 55.0791 511.524 56.0068C510.597 56.9346 510.133 58.082 510.133 59.4492C510.133 60.7676 510.475 61.8418 511.158 62.6719C511.842 63.4775 512.599 64.0879 513.429 64.5029C514.259 64.8936 515.101 65.2231 515.956 65.4917C518.592 66.3462 520.948 67.103 523.023 67.7622C525.099 68.397 527.015 69.105 528.773 69.8862C531.214 70.9849 533.082 72.0835 534.376 73.1821C535.67 74.2808 536.732 75.7822 537.562 77.6865C538.417 79.5908 538.844 81.8613 538.844 84.498C538.844 88.4043 537.599 91.6392 535.108 94.2026C532.618 96.7417 529.847 98.3774 526.795 99.1099C523.768 99.8667 520.814 100.245 517.933 100.245C513.685 100.245 510.23 99.8301 507.569 99C504.908 98.1943 502.381 96.8882 499.989 95.0815ZM570.338 98.3042C569.044 97.5474 568.556 96.6318 568.873 95.5576L570.411 90.5405C570.851 89.1001 571.998 88.9536 573.854 90.1011C575.44 91.1021 577.21 91.6025 579.164 91.6025C581.849 91.6025 583.595 90.6748 584.4 88.8193C585.23 86.9639 585.646 83.8755 585.646 79.5542V49.2319C585.646 47.4009 586.5 46.4854 588.209 46.4854H593.775C595.484 46.4854 596.339 47.4009 596.339 49.2319V78.8218C596.339 87.8062 594.825 93.6289 591.798 96.29C588.795 98.9268 584.62 100.245 579.273 100.245C575.538 100.245 572.56 99.5981 570.338 98.3042ZM608.241 95.0815C606.727 93.9341 606.361 92.7744 607.142 91.6025L609.962 87.3545C610.89 85.9629 612.245 85.8896 614.027 87.1348C615.394 88.0869 617.176 89.0757 619.374 90.1011C621.595 91.1021 623.927 91.6025 626.368 91.6025C628.077 91.6025 629.725 91.4072 631.312 91.0166C632.899 90.626 634.107 89.8691 634.938 88.7461C635.768 87.623 636.183 86.2925 636.183 84.7544C636.183 83.6558 636 82.6914 635.633 81.8613C635.267 81.0312 634.669 80.3477 633.839 79.8105C633.009 79.2734 632.154 78.8218 631.275 78.4556C629.737 77.8208 627.796 77.1982 625.453 76.5879C623.133 75.9531 620.838 75.1963 618.568 74.3174C616.542 73.5361 614.686 72.4619 613.001 71.0947C611.317 69.7275 610.011 68.1895 609.083 66.4805C608.155 64.7715 607.691 62.4888 607.691 59.6323C607.691 56.2388 608.79 53.3335 610.987 50.9165C613.185 48.4995 615.711 46.9492 618.568 46.2656C621.424 45.582 624.305 45.2402 627.21 45.2402C630.091 45.2402 633.058 45.6797 636.109 46.5586C639.186 47.4375 641.505 48.5361 643.067 49.8545C644.605 51.1484 644.984 52.3203 644.203 53.3701L641.236 57.3618C640.235 58.729 638.893 58.8389 637.208 57.6914C636.134 56.959 634.657 56.1411 632.777 55.2378C630.921 54.3345 628.98 53.8828 626.954 53.8828C625.514 53.8828 624.183 54.0049 622.962 54.249C621.766 54.4932 620.704 55.0791 619.776 56.0068C618.849 56.9346 618.385 58.082 618.385 59.4492C618.385 60.7676 618.727 61.8418 619.41 62.6719C620.094 63.4775 620.851 64.0879 621.681 64.5029C622.511 64.8936 623.353 65.2231 624.208 65.4917C626.844 66.3462 629.2 67.103 631.275 67.7622C633.351 68.397 635.267 69.105 637.025 69.8862C639.466 70.9849 641.334 72.0835 642.628 73.1821C643.922 74.2808 644.984 75.7822 645.814 77.6865C646.668 79.5908 647.096 81.8613 647.096 84.498C647.096 88.4043 645.851 91.6392 643.36 94.2026C640.87 96.7417 638.099 98.3774 635.047 99.1099C632.02 99.8667 629.066 100.245 626.185 100.245C621.937 100.245 618.482 99.8301 615.821 99C613.16 98.1943 610.633 96.8882 608.241 95.0815Z" fill="white"/>
</svg>
