<svg width="497" height="145" viewBox="0 0 497 145" fill="none" xmlns="http://www.w3.org/2000/svg">
<rect x="1.5" y="1.5" width="494" height="142" rx="36.5" fill="#2A2734" stroke="white" stroke-width="3"/>
<g clip-path="url(#clip0_53_2)">
<path d="M165.82 72.004C165.82 36.754 137.246 8.17999 102 8.17999C66.7661 8.17999 38.2031 36.73 38.1801 71.957V121.347C38.2001 129.344 44.6841 135.82 52.6881 135.82H102.023C137.262 135.805 165.82 107.242 165.82 72.004Z" fill="#294172"/>
<path d="M74.9729 76.12H97.9099V99.06C97.9099 111.72 87.6369 121.997 74.9729 121.997C62.3129 121.997 52.0389 111.72 52.0389 99.06C52.0389 86.4 62.3129 76.122 74.9729 76.122V76.12Z" stroke="#3C6EB4" stroke-width="14.0033"/>
<path d="M120.738 76.164H97.801V53.231C97.801 40.571 108.078 30.293 120.738 30.293C133.398 30.293 143.676 40.567 143.676 53.231C143.676 65.891 133.398 76.164 120.738 76.164Z" stroke="#3C6EB4" stroke-width="14.0033"/>
<path d="M104.926 69.137V99.027C104.926 115.567 91.516 128.98 74.976 128.98C72.465 128.98 70.68 128.695 68.359 128.09C64.969 127.203 62.203 124.426 62.199 121.195C62.199 117.289 65.035 114.449 69.273 114.449C71.289 114.449 72.02 114.836 74.977 114.836C83.695 114.836 90.77 107.773 90.785 99.051V85.312C90.785 84.082 89.785 83.082 88.551 83.086L78.164 83.082C74.297 83.082 71.168 79.996 71.168 76.117C71.168 72.211 74.328 69.137 78.238 69.137" fill="white"/>
<path d="M90.785 83.148V53.262C90.785 36.719 104.195 23.309 120.738 23.309C123.246 23.309 125.031 23.589 127.355 24.199C130.742 25.086 133.512 27.863 133.512 31.094C133.512 35 130.676 37.84 126.442 37.84C124.422 37.84 123.692 37.453 120.738 37.453C112.016 37.453 104.941 44.516 104.926 53.234V66.977C104.928 67.568 105.165 68.1341 105.583 68.5512C106.002 68.9684 106.569 69.2027 107.16 69.203L117.547 69.207C121.418 69.207 124.543 72.293 124.543 76.172C124.547 80.078 121.383 83.152 117.473 83.152" fill="white"/>
<path d="M154.809 124.773V122.121L153.598 124.902L152.418 122.122V124.773H151.738V120.586H152.449L153.617 123.262L154.766 120.586H155.488V124.773H154.809ZM149.855 121.289V124.773H149.145V121.289H147.953V120.586H151.043V121.289" fill="#3C6EB4"/>
</g>
<path d="M183.423 99C181.714 99 180.859 98.0845 180.859 96.2534V49.2319C180.859 47.4009 181.714 46.4854 183.423 46.4854H212.39C214.221 46.4854 215.137 47.2788 215.137 48.8657V53.187C215.137 54.7739 214.221 55.5674 212.39 55.5674H191.553V68.3115H209.387C211.218 68.3115 212.134 69.105 212.134 70.6919V75.0132C212.134 76.6001 211.218 77.3936 209.387 77.3936H191.553V96.2534C191.553 98.0845 190.698 99 188.989 99H183.423ZM226.489 99C224.78 99 223.926 98.0845 223.926 96.2534V49.2319C223.926 47.4009 224.78 46.4854 226.489 46.4854H257.91C259.741 46.4854 260.657 47.2788 260.657 48.8657V53.187C260.657 54.7739 259.741 55.5674 257.91 55.5674H234.619V67.2129H255.969C257.8 67.2129 258.716 68.0063 258.716 69.5933V73.9146C258.716 75.5015 257.8 76.2949 255.969 76.2949H234.619V89.918H259.082C260.913 89.918 261.829 90.7114 261.829 92.2983V96.6196C261.829 98.2065 260.913 99 259.082 99H226.489ZM273.364 99C271.655 99 270.801 98.0845 270.801 96.2534V49.2319C270.801 47.4009 271.655 46.4854 273.364 46.4854H286.145C297.375 46.4854 304.968 48.7559 308.923 53.2969C312.903 57.8379 314.893 64.2954 314.893 72.6694C314.893 81.0435 312.903 87.5254 308.923 92.1152C304.968 96.7051 297.375 99 286.145 99H273.364ZM281.494 89.918H285.449C293.018 89.918 297.913 88.5142 300.134 85.7065C302.356 82.8745 303.467 78.5288 303.467 72.6694C303.467 66.8101 302.356 62.4888 300.134 59.7056C297.913 56.8979 293.018 55.4941 285.449 55.4941H281.494V89.918ZM321.191 72.7427C321.191 64.3198 323.364 57.6304 327.71 52.6743C332.056 47.7183 338.257 45.2402 346.313 45.2402C354.37 45.2402 360.571 47.7183 364.917 52.6743C369.263 57.6304 371.436 64.3198 371.436 72.7427C371.436 81.1655 369.263 87.855 364.917 92.811C360.571 97.7671 354.37 100.245 346.313 100.245C338.257 100.245 332.056 97.7671 327.71 92.811C323.364 87.855 321.191 81.1655 321.191 72.7427ZM332.617 72.7427C332.617 78.8462 333.704 83.5215 335.876 86.7686C338.074 89.9912 341.553 91.6025 346.313 91.6025C351.074 91.6025 354.541 89.9912 356.714 86.7686C358.911 83.5215 360.01 78.8462 360.01 72.7427C360.01 66.6392 358.911 61.9761 356.714 58.7534C354.541 55.5063 351.074 53.8828 346.313 53.8828C341.553 53.8828 338.074 55.5063 335.876 58.7534C333.704 61.9761 332.617 66.6392 332.617 72.7427ZM383.008 99C381.299 99 380.444 98.0845 380.444 96.2534V49.2319C380.444 47.4009 381.299 46.4854 383.008 46.4854H399.963C407.507 46.4854 413.013 47.6572 416.479 50.001C419.946 52.3203 421.68 56.1045 421.68 61.3535C421.68 65.2598 420.276 68.3726 417.468 70.6919C414.661 73.0112 411.096 74.5493 406.775 75.3062V75.3794C409.119 76.2583 410.889 77.479 412.085 79.0415C413.281 80.604 414.258 81.9712 415.015 83.1431L423.071 95.8506C424.414 97.9502 423.95 99 421.68 99H415.308C413.965 99 412.866 98.2798 412.012 96.8394L404.614 84.498C403.809 83.1797 402.332 81.7393 400.183 80.1768C398.059 78.5898 395.947 77.7964 393.848 77.7964H391.138V96.2534C391.138 98.0845 390.283 99 388.574 99H383.008ZM391.138 68.7144H397.693C402.576 68.7144 406.042 68.165 408.093 67.0664C410.168 65.9434 411.206 64.1733 411.206 61.7563C411.206 59.1196 410.205 57.4106 408.203 56.6294C406.226 55.8237 403.308 55.4209 399.451 55.4209H391.138V68.7144ZM431.091 99C429.333 99 428.76 98.1943 429.37 96.583L447.314 49.4517C448.071 47.4741 449.219 46.4854 450.757 46.4854H455.884C457.422 46.4854 458.569 47.4741 459.326 49.4517L477.271 96.583C477.881 98.1943 477.307 99 475.549 99H469.727C468.115 99 466.992 98.1577 466.357 96.4731L462.622 86.6221H444.019L440.283 96.4731C439.648 98.1577 438.525 99 436.914 99H431.091ZM447.424 77.54H459.216L454.712 65.8945C454.175 64.5273 453.845 63.5386 453.723 62.9282C453.625 62.2935 453.516 61.3657 453.394 60.145H453.247C453.125 61.3657 453.003 62.2935 452.881 62.9282C452.783 63.5386 452.466 64.5273 451.929 65.8945L447.424 77.54Z" fill="white"/>
<defs>
<clipPath id="clip0_53_2">
<rect width="128" height="128" fill="white" transform="translate(38 8)"/>
</clipPath>
</defs>
</svg>
