<svg width="439" height="145" viewBox="0 0 439 145" fill="none" xmlns="http://www.w3.org/2000/svg">
<rect x="1.5" y="1.5" width="436" height="142" rx="36.5" fill="#2A2734" stroke="white" stroke-width="3"/>
<g clip-path="url(#clip0_53_2)">
<path d="M83.5 141C95.4 141 105 131.4 105 119.5V98H83.5C71.6 98 62 107.6 62 119.5C62 131.4 71.6 141 83.5 141Z" fill="#0ACF83"/>
<path d="M62 76.5C62 64.6 71.6 55 83.5 55H105V98H83.5C71.6 98 62 88.4 62 76.5Z" fill="#A259FF"/>
<path d="M62 33.5C62 21.6 71.6 12 83.5 12H105V55H83.5C71.6 55 62 45.4 62 33.5Z" fill="#F24E1E"/>
<path d="M105 12H126.5C138.4 12 148 21.6 148 33.5C148 45.4 138.4 55 126.5 55H105V12Z" fill="#FF7262"/>
<path d="M148 76.5C148 88.4 138.4 98 126.5 98C114.6 98 105 88.4 105 76.5C105 64.6 114.6 55 126.5 55C138.4 55 148 64.6 148 76.5Z" fill="#1ABCFE"/>
</g>
<path d="M183.423 99C181.714 99 180.859 98.0845 180.859 96.2534V49.2319C180.859 47.4009 181.714 46.4854 183.423 46.4854H212.39C214.221 46.4854 215.137 47.2788 215.137 48.8657V53.187C215.137 54.7739 214.221 55.5674 212.39 55.5674H191.553V68.3115H209.387C211.218 68.3115 212.134 69.105 212.134 70.6919V75.0132C212.134 76.6001 211.218 77.3936 209.387 77.3936H191.553V96.2534C191.553 98.0845 190.698 99 188.989 99H183.423ZM226.489 99C224.78 99 223.926 98.0845 223.926 96.2534V49.2319C223.926 47.4009 224.78 46.4854 226.489 46.4854H232.056C233.765 46.4854 234.619 47.4009 234.619 49.2319V96.2534C234.619 98.0845 233.765 99 232.056 99H226.489ZM243.628 72.7427C243.628 64.3198 245.825 57.6304 250.22 52.6743C254.614 47.7183 260.84 45.2402 268.896 45.2402C273.755 45.2402 277.563 45.8628 280.322 47.1079C283.105 48.353 285.547 50.2817 287.646 52.894C288.916 54.481 288.879 55.7139 287.537 56.5928L283.362 59.3027C282.141 60.1084 280.835 59.7544 279.443 58.2407C278.296 56.9956 276.843 55.958 275.085 55.1279C273.328 54.2979 271.387 53.8828 269.263 53.8828C264.136 53.8828 260.486 55.5063 258.313 58.7534C256.14 61.9761 255.054 66.6392 255.054 72.7427C255.054 78.8462 256.14 83.5215 258.313 86.7686C260.486 89.9912 264.136 91.6025 269.263 91.6025C271.753 91.6025 273.901 91.3584 275.708 90.8701C277.515 90.3574 279.224 89.4419 280.835 88.1235V81.5684H272.888C271.057 81.5684 270.142 80.7749 270.142 79.188V74.8667C270.142 73.2798 271.057 72.4863 272.888 72.4863H288.782C290.613 72.4863 291.528 73.2798 291.528 74.8667V93.4702C288.11 95.9849 284.656 97.7427 281.165 98.7437C277.698 99.7446 273.608 100.245 268.896 100.245C260.962 100.245 254.761 97.7671 250.293 92.811C245.85 87.855 243.628 81.1655 243.628 72.7427ZM304.053 99C302.344 99 301.489 98.0845 301.489 96.2534V49.2319C301.489 47.4009 302.344 46.4854 304.053 46.4854H314.673C316.089 46.4854 317.102 47.4619 317.712 49.415L327.637 81.5317C328.076 82.9233 328.381 84.0708 328.552 84.9741C328.723 85.853 328.87 86.9028 328.992 88.1235H329.211C329.333 86.9028 329.48 85.853 329.651 84.9741C329.822 84.0708 330.127 82.9233 330.566 81.5317L340.491 49.415C341.101 47.4619 342.114 46.4854 343.53 46.4854H354.15C355.859 46.4854 356.714 47.4009 356.714 49.2319V96.2534C356.714 98.0845 355.859 99 354.15 99H348.584C346.875 99 346.021 98.0845 346.021 96.2534V66.0044C346.021 64.5396 346.082 63.0747 346.204 61.6099H345.947L335.364 96.0337C334.753 98.0112 333.704 99 332.214 99H325.989C324.5 99 323.45 98.0112 322.839 96.0337L312.256 61.6099H312C312.122 63.0747 312.183 64.5396 312.183 66.0044V96.2534C312.183 98.0845 311.328 99 309.619 99H304.053ZM366.785 99C365.027 99 364.453 98.1943 365.063 96.583L383.008 49.4517C383.765 47.4741 384.912 46.4854 386.45 46.4854H391.577C393.115 46.4854 394.263 47.4741 395.02 49.4517L412.964 96.583C413.574 98.1943 413 99 411.243 99H405.42C403.809 99 402.686 98.1577 402.051 96.4731L398.315 86.6221H379.712L375.977 96.4731C375.342 98.1577 374.219 99 372.607 99H366.785ZM383.118 77.54H394.91L390.405 65.8945C389.868 64.5273 389.539 63.5386 389.417 62.9282C389.319 62.2935 389.209 61.3657 389.087 60.145H388.94C388.818 61.3657 388.696 62.2935 388.574 62.9282C388.477 63.5386 388.159 64.5273 387.622 65.8945L383.118 77.54Z" fill="white"/>
<defs>
<clipPath id="clip0_53_2">
<rect width="128" height="128" fill="white" transform="translate(38 12)"/>
</clipPath>
</defs>
</svg>
