<svg width="330" height="145" viewBox="0 0 330 145" fill="none" xmlns="http://www.w3.org/2000/svg">
<rect x="1.5" y="1.5" width="327" height="142" rx="36.5" fill="#2A2734" stroke="white" stroke-width="3"/>
<g clip-path="url(#clip0_53_2)">
<path d="M163.737 64.378L108.621 9.26398C105.449 6.08998 100.301 6.08998 97.124 9.26398L85.68 20.71L100.198 35.228C103.573 34.089 107.441 34.853 110.13 37.542C112.833 40.248 113.591 44.149 112.424 47.535L126.416 61.528C129.801 60.361 133.708 61.115 136.41 63.823C140.19 67.6 140.19 73.723 136.41 77.502C135.512 78.4007 134.445 79.1136 133.271 79.6C132.097 80.0864 130.839 80.3368 129.568 80.3368C128.298 80.3368 127.04 80.0864 125.866 79.6C124.692 79.1136 123.625 78.4007 122.727 77.502C121.377 76.1515 120.457 74.4321 120.083 72.5599C119.708 70.6878 119.896 68.7467 120.622 66.981L107.574 53.933L107.572 88.274C108.519 88.7402 109.383 89.3576 110.131 90.102C113.909 93.879 113.909 100 110.131 103.785C106.352 107.562 100.227 107.562 96.452 103.785C92.674 100.001 92.674 93.88 96.452 90.102C97.3571 89.1954 98.4337 88.4781 99.619 87.992V53.333C98.4328 52.8482 97.3559 52.1304 96.452 51.222C93.59 48.362 92.901 44.162 94.369 40.646L80.056 26.333L42.264 64.123C40.7393 65.6481 39.8828 67.7164 39.8828 69.873C39.8828 72.0295 40.7393 74.0978 42.264 75.623L97.381 130.737C100.555 133.911 105.701 133.911 108.88 130.737L163.738 75.879C165.262 74.3534 166.119 72.2849 166.118 70.1283C166.118 67.9716 165.262 65.9033 163.737 64.378Z" fill="#F34F29"/>
</g>
<path d="M178.149 72.7427C178.149 64.3198 180.347 57.6304 184.741 52.6743C189.136 47.7183 195.361 45.2402 203.418 45.2402C208.276 45.2402 212.085 45.8628 214.844 47.1079C217.627 48.353 220.068 50.2817 222.168 52.894C223.438 54.481 223.401 55.7139 222.058 56.5928L217.883 59.3027C216.663 60.1084 215.356 59.7544 213.965 58.2407C212.817 56.9956 211.365 55.958 209.607 55.1279C207.849 54.2979 205.908 53.8828 203.784 53.8828C198.657 53.8828 195.007 55.5063 192.834 58.7534C190.662 61.9761 189.575 66.6392 189.575 72.7427C189.575 78.8462 190.662 83.5215 192.834 86.7686C195.007 89.9912 198.657 91.6025 203.784 91.6025C206.274 91.6025 208.423 91.3584 210.229 90.8701C212.036 90.3574 213.745 89.4419 215.356 88.1235V81.5684H207.41C205.579 81.5684 204.663 80.7749 204.663 79.188V74.8667C204.663 73.2798 205.579 72.4863 207.41 72.4863H223.303C225.134 72.4863 226.05 73.2798 226.05 74.8667V93.4702C222.632 95.9849 219.177 97.7427 215.686 98.7437C212.219 99.7446 208.13 100.245 203.418 100.245C195.483 100.245 189.282 97.7671 184.814 92.811C180.371 87.855 178.149 81.1655 178.149 72.7427ZM238.574 99C236.865 99 236.011 98.0845 236.011 96.2534V49.2319C236.011 47.4009 236.865 46.4854 238.574 46.4854H244.141C245.85 46.4854 246.704 47.4009 246.704 49.2319V96.2534C246.704 98.0845 245.85 99 244.141 99H238.574ZM256.555 55.8604C254.724 55.8604 253.809 55.0669 253.809 53.48V48.8657C253.809 47.2788 254.724 46.4854 256.555 46.4854H294.202C296.033 46.4854 296.948 47.2788 296.948 48.8657V53.48C296.948 55.0669 296.033 55.8604 294.202 55.8604H280.725V96.9858C280.725 98.3286 280.115 99 278.894 99H271.863C270.642 99 270.032 98.3286 270.032 96.9858V55.8604H256.555Z" fill="white"/>
<defs>
<clipPath id="clip0_53_2">
<rect width="128" height="128" fill="white" transform="translate(39 6)"/>
</clipPath>
</defs>
</svg>
