<svg width="492" height="145" viewBox="0 0 492 145" fill="none" xmlns="http://www.w3.org/2000/svg">
<rect x="1.5" y="1.5" width="489" height="142" rx="36.5" fill="#2A2734" stroke="white" stroke-width="3"/>
<path fill-rule="evenodd" clip-rule="evenodd" d="M102 16.103C68.6531 16.103 41.6121 43.138 41.6121 76.491C41.6121 103.173 58.9151 125.808 82.9091 133.794C85.9261 134.354 87.0341 132.484 87.0341 130.889C87.0341 129.449 86.9781 124.692 86.9521 119.646C70.1521 123.299 66.6071 112.521 66.6071 112.521C63.8601 105.541 59.9021 103.685 59.9021 103.685C54.4221 99.937 60.3151 100.015 60.3151 100.015C66.3781 100.44 69.5721 106.238 69.5721 106.238C74.9581 115.468 83.6991 112.8 87.1451 111.258C87.6871 107.355 89.2521 104.69 90.9791 103.182C77.5661 101.657 63.4651 96.478 63.4651 73.339C63.4651 66.746 65.8251 61.359 69.6881 57.129C69.0601 55.609 66.9931 49.467 70.2721 41.149C70.2721 41.149 75.3421 39.526 86.8821 47.339C91.7001 46 96.8671 45.327 102 45.304C107.13 45.327 112.3 45.998 117.127 47.337C128.653 39.524 133.717 41.147 133.717 41.147C137.004 49.464 134.937 55.607 134.31 57.127C138.182 61.357 140.525 66.744 140.525 73.337C140.525 96.531 126.398 101.637 112.951 103.133C115.118 105.007 117.048 108.683 117.048 114.316C117.048 122.396 116.978 128.899 116.978 130.888C116.978 132.495 118.066 134.378 121.126 133.785C145.106 125.791 162.389 103.163 162.389 76.491C162.388 43.14 135.35 16.103 102 16.103Z" fill="white"/>
<path d="M64.4841 102.806C64.3511 103.106 63.8791 103.196 63.4491 102.991C63.0091 102.795 62.7641 102.386 62.9061 102.085C63.0361 101.775 63.5091 101.69 63.9461 101.897C64.3861 102.094 64.6361 102.507 64.4831 102.807L64.4841 102.806ZM66.9301 105.535C66.6431 105.802 66.0801 105.678 65.6981 105.255C65.3021 104.835 65.2281 104.272 65.5211 104.001C65.8191 103.735 66.3651 103.861 66.7611 104.281C67.1551 104.707 67.2331 105.265 66.9311 105.536L66.9301 105.535ZM69.3121 109.012C68.9421 109.27 68.3361 109.029 67.9621 108.492C67.5921 107.954 67.5921 107.309 67.9721 107.052C68.3451 106.794 68.9421 107.027 69.3221 107.559C69.6901 108.104 69.6901 108.75 69.3121 109.012ZM72.5731 112.373C72.2431 112.738 71.5371 112.64 71.0211 112.143C70.4941 111.656 70.3471 110.963 70.6781 110.599C71.0141 110.233 71.7231 110.335 72.2421 110.829C72.7691 111.315 72.9281 112.009 72.5751 112.372L72.5731 112.373ZM77.0731 114.324C76.9261 114.797 76.2481 115.012 75.5631 114.81C74.8801 114.603 74.4331 114.05 74.5731 113.572C74.7131 113.095 75.3961 112.872 76.0851 113.087C76.7681 113.293 77.2151 113.843 77.0731 114.324ZM82.0161 114.685C82.0331 115.183 81.4531 115.595 80.7361 115.605C80.0131 115.622 79.4281 115.218 79.4211 114.728C79.4211 114.225 79.9891 113.818 80.7111 113.804C81.4281 113.791 82.0171 114.191 82.0171 114.684L82.0161 114.685ZM86.6141 113.903C86.7001 114.388 86.2011 114.887 85.4881 115.02C84.7881 115.15 84.1381 114.848 84.0481 114.367C83.9621 113.869 84.4701 113.37 85.1701 113.241C85.8841 113.118 86.5241 113.41 86.6141 113.903Z" fill="white"/>
<path d="M178.149 72.7427C178.149 64.3198 180.347 57.6304 184.741 52.6743C189.136 47.7183 195.361 45.2402 203.418 45.2402C208.276 45.2402 212.085 45.8628 214.844 47.1079C217.627 48.353 220.068 50.2817 222.168 52.894C223.438 54.481 223.401 55.7139 222.058 56.5928L217.883 59.3027C216.663 60.1084 215.356 59.7544 213.965 58.2407C212.817 56.9956 211.365 55.958 209.607 55.1279C207.849 54.2979 205.908 53.8828 203.784 53.8828C198.657 53.8828 195.007 55.5063 192.834 58.7534C190.662 61.9761 189.575 66.6392 189.575 72.7427C189.575 78.8462 190.662 83.5215 192.834 86.7686C195.007 89.9912 198.657 91.6025 203.784 91.6025C206.274 91.6025 208.423 91.3584 210.229 90.8701C212.036 90.3574 213.745 89.4419 215.356 88.1235V81.5684H207.41C205.579 81.5684 204.663 80.7749 204.663 79.188V74.8667C204.663 73.2798 205.579 72.4863 207.41 72.4863H223.303C225.134 72.4863 226.05 73.2798 226.05 74.8667V93.4702C222.632 95.9849 219.177 97.7427 215.686 98.7437C212.219 99.7446 208.13 100.245 203.418 100.245C195.483 100.245 189.282 97.7671 184.814 92.811C180.371 87.855 178.149 81.1655 178.149 72.7427ZM238.574 99C236.865 99 236.011 98.0845 236.011 96.2534V49.2319C236.011 47.4009 236.865 46.4854 238.574 46.4854H244.141C245.85 46.4854 246.704 47.4009 246.704 49.2319V96.2534C246.704 98.0845 245.85 99 244.141 99H238.574ZM256.555 55.8604C254.724 55.8604 253.809 55.0669 253.809 53.48V48.8657C253.809 47.2788 254.724 46.4854 256.555 46.4854H294.202C296.033 46.4854 296.948 47.2788 296.948 48.8657V53.48C296.948 55.0669 296.033 55.8604 294.202 55.8604H280.725V96.9858C280.725 98.3286 280.115 99 278.894 99H271.863C270.642 99 270.032 98.3286 270.032 96.9858V55.8604H256.555ZM306.616 99C304.907 99 304.053 98.0845 304.053 96.2534V49.2319C304.053 47.4009 304.907 46.4854 306.616 46.4854H312.183C313.892 46.4854 314.746 47.4009 314.746 49.2319V67.1396H334.448V49.2319C334.448 47.4009 335.303 46.4854 337.012 46.4854H342.578C344.287 46.4854 345.142 47.4009 345.142 49.2319V96.2534C345.142 98.0845 344.287 99 342.578 99H337.012C335.303 99 334.448 98.0845 334.448 96.2534V76.2217H314.746V96.2534C314.746 98.0845 313.892 99 312.183 99H306.616ZM356.86 77.1372V48.4995C356.86 47.1567 357.715 46.4854 359.424 46.4854H364.99C366.699 46.4854 367.554 47.1567 367.554 48.4995V76.771C367.554 83.3628 368.518 87.4888 370.447 89.1489C372.4 90.7847 374.597 91.6025 377.039 91.6025C379.48 91.6025 381.665 90.7847 383.594 89.1489C385.547 87.4888 386.523 83.3628 386.523 76.771V48.4995C386.523 47.1567 387.378 46.4854 389.087 46.4854H394.653C396.362 46.4854 397.217 47.1567 397.217 48.4995V77.1372C397.217 85.6821 395.41 91.6758 391.797 95.1182C388.184 98.5361 383.264 100.245 377.039 100.245C370.813 100.245 365.894 98.5361 362.28 95.1182C358.667 91.6758 356.86 85.6821 356.86 77.1372ZM411.865 99C409.912 99 408.936 98.0845 408.936 96.2534V49.2319C408.936 47.4009 409.912 46.4854 411.865 46.4854H424.316C433.691 46.4854 440.015 47.645 443.286 49.9644C446.582 52.2593 448.23 55.7993 448.23 60.5845C448.23 63.9292 446.997 66.5171 444.531 68.3481C442.09 70.1792 439.722 71.2412 437.427 71.5342V71.644C439.648 71.7905 442.261 72.9136 445.264 75.0132C448.267 77.1128 449.768 80.0791 449.768 83.9121C449.768 88.4043 447.937 92.042 444.275 94.8252C440.613 97.6084 434.57 99 426.147 99H411.865ZM419.629 90.0645H424.976C430.151 90.0645 433.667 89.6128 435.522 88.7095C437.402 87.8062 438.342 85.9751 438.342 83.2163C438.342 80.6284 437.256 78.8462 435.083 77.8696C432.935 76.8687 429.565 76.3682 424.976 76.3682H419.629V90.0645ZM419.629 67.7256H424.426C427.576 67.7256 430.518 67.1763 433.252 66.0776C436.011 64.979 437.39 63.27 437.39 60.9507C437.39 59.144 436.621 57.7769 435.083 56.8491C433.569 55.897 430.017 55.4209 424.426 55.4209H419.629V67.7256Z" fill="white"/>
</svg>
