<svg width="492" height="145" viewBox="0 0 492 145" fill="none" xmlns="http://www.w3.org/2000/svg">
<rect x="1.5" y="1.5" width="489" height="142" rx="36.5" fill="#2A2734" stroke="white" stroke-width="3"/>
<path d="M162.755 57.382L162.578 56.93L145.47 12.282C145.122 11.4068 144.505 10.6643 143.709 10.161C142.912 9.66634 141.983 9.42803 141.047 9.47828C140.11 9.52853 139.212 9.86492 138.473 10.442C137.742 11.0356 137.212 11.8402 136.955 12.746L125.404 48.088H78.629L67.077 12.746C66.8264 11.8356 66.2952 11.0273 65.559 10.436C64.8199 9.85892 63.9215 9.52253 62.9852 9.47228C62.0488 9.42203 61.1196 9.66034 60.323 10.155C59.5287 10.6605 58.9128 11.4023 58.562 12.276L41.422 56.904L41.252 57.356C36.193 70.575 40.489 85.548 51.789 94.072L51.848 94.118L52.005 94.229L78.066 113.745L90.959 123.503L98.813 129.433C99.7318 130.13 100.854 130.508 102.007 130.508C103.16 130.508 104.282 130.13 105.201 129.433L113.055 123.503L125.948 113.745L152.166 94.111L152.231 94.059C163.504 85.533 167.793 70.587 162.755 57.382Z" fill="#E24329"/>
<path d="M162.755 57.382L162.578 56.93C154.242 58.6411 146.386 62.1722 139.573 67.271L102 95.682C114.795 105.362 125.934 113.772 125.934 113.772L152.152 94.138L152.217 94.086C163.508 85.559 167.803 70.598 162.755 57.382Z" fill="#FC6D26"/>
<path d="M78.066 113.771L90.959 123.529L98.813 129.459C99.7318 130.156 100.854 130.534 102.007 130.534C103.16 130.534 104.282 130.156 105.201 129.459L113.055 123.529L125.948 113.771C125.948 113.771 114.796 105.335 102.001 95.681C94.0178 101.705 86.0395 107.735 78.066 113.771Z" fill="#FCA326"/>
<path d="M64.42 67.271C57.612 62.1622 49.7585 58.622 41.422 56.904L41.252 57.356C36.193 70.575 40.489 85.548 51.789 94.072L51.848 94.118L52.005 94.229L78.066 113.745L102 95.655L64.42 67.271Z" fill="#FC6D26"/>
<path d="M178.149 72.7427C178.149 64.3198 180.347 57.6304 184.741 52.6743C189.136 47.7183 195.361 45.2402 203.418 45.2402C208.276 45.2402 212.085 45.8628 214.844 47.1079C217.627 48.353 220.068 50.2817 222.168 52.894C223.438 54.481 223.401 55.7139 222.058 56.5928L217.883 59.3027C216.663 60.1084 215.356 59.7544 213.965 58.2407C212.817 56.9956 211.365 55.958 209.607 55.1279C207.849 54.2979 205.908 53.8828 203.784 53.8828C198.657 53.8828 195.007 55.5063 192.834 58.7534C190.662 61.9761 189.575 66.6392 189.575 72.7427C189.575 78.8462 190.662 83.5215 192.834 86.7686C195.007 89.9912 198.657 91.6025 203.784 91.6025C206.274 91.6025 208.423 91.3584 210.229 90.8701C212.036 90.3574 213.745 89.4419 215.356 88.1235V81.5684H207.41C205.579 81.5684 204.663 80.7749 204.663 79.188V74.8667C204.663 73.2798 205.579 72.4863 207.41 72.4863H223.303C225.134 72.4863 226.05 73.2798 226.05 74.8667V93.4702C222.632 95.9849 219.177 97.7427 215.686 98.7437C212.219 99.7446 208.13 100.245 203.418 100.245C195.483 100.245 189.282 97.7671 184.814 92.811C180.371 87.855 178.149 81.1655 178.149 72.7427ZM238.574 99C236.865 99 236.011 98.0845 236.011 96.2534V49.2319C236.011 47.4009 236.865 46.4854 238.574 46.4854H244.141C245.85 46.4854 246.704 47.4009 246.704 49.2319V96.2534C246.704 98.0845 245.85 99 244.141 99H238.574ZM256.555 55.8604C254.724 55.8604 253.809 55.0669 253.809 53.48V48.8657C253.809 47.2788 254.724 46.4854 256.555 46.4854H294.202C296.033 46.4854 296.948 47.2788 296.948 48.8657V53.48C296.948 55.0669 296.033 55.8604 294.202 55.8604H280.725V96.9858C280.725 98.3286 280.115 99 278.894 99H271.863C270.642 99 270.032 98.3286 270.032 96.9858V55.8604H256.555ZM306.616 99C304.907 99 304.053 98.0845 304.053 96.2534V49.2319C304.053 47.4009 304.907 46.4854 306.616 46.4854H312.549C314.014 46.4854 314.746 47.4009 314.746 49.2319V89.918H336.096C337.927 89.918 338.843 90.7114 338.843 92.2983V96.6196C338.843 98.2065 337.927 99 336.096 99H306.616ZM344.958 99C343.201 99 342.627 98.1943 343.237 96.583L361.182 49.4517C361.938 47.4741 363.086 46.4854 364.624 46.4854H369.751C371.289 46.4854 372.437 47.4741 373.193 49.4517L391.138 96.583C391.748 98.1943 391.174 99 389.417 99H383.594C381.982 99 380.859 98.1577 380.225 96.4731L376.489 86.6221H357.886L354.15 96.4731C353.516 98.1577 352.393 99 350.781 99H344.958ZM361.292 77.54H373.083L368.579 65.8945C368.042 64.5273 367.712 63.5386 367.59 62.9282C367.493 62.2935 367.383 61.3657 367.261 60.145H367.114C366.992 61.3657 366.87 62.2935 366.748 62.9282C366.65 63.5386 366.333 64.5273 365.796 65.8945L361.292 77.54ZM400.586 99C398.633 99 397.656 98.0845 397.656 96.2534V49.2319C397.656 47.4009 398.633 46.4854 400.586 46.4854H413.037C422.412 46.4854 428.735 47.645 432.007 49.9644C435.303 52.2593 436.951 55.7993 436.951 60.5845C436.951 63.9292 435.718 66.5171 433.252 68.3481C430.811 70.1792 428.442 71.2412 426.147 71.5342V71.644C428.369 71.7905 430.981 72.9136 433.984 75.0132C436.987 77.1128 438.489 80.0791 438.489 83.9121C438.489 88.4043 436.658 92.042 432.996 94.8252C429.333 97.6084 423.291 99 414.868 99H400.586ZM408.35 90.0645H413.696C418.872 90.0645 422.388 89.6128 424.243 88.7095C426.123 87.8062 427.063 85.9751 427.063 83.2163C427.063 80.6284 425.977 78.8462 423.804 77.8696C421.655 76.8687 418.286 76.3682 413.696 76.3682H408.35V90.0645ZM408.35 67.7256H413.147C416.296 67.7256 419.238 67.1763 421.973 66.0776C424.731 64.979 426.111 63.27 426.111 60.9507C426.111 59.144 425.342 57.7769 423.804 56.8491C422.29 55.897 418.738 55.4209 413.147 55.4209H408.35V67.7256Z" fill="white"/>
</svg>
