<svg width="512" height="145" viewBox="0 0 512 145" fill="none" xmlns="http://www.w3.org/2000/svg">
<rect x="1.5" y="1.5" width="509" height="142" rx="36.5" fill="#2A2734" stroke="white" stroke-width="3"/>
<mask id="mask0_53_2" style="mask-type:luminance" maskUnits="userSpaceOnUse" x="56" y="13" width="92" height="126">
<path d="M56.8 13H147.3V139H56.8V13Z" fill="white"/>
</mask>
<g mask="url(#mask0_53_2)">
<path fill-rule="evenodd" clip-rule="evenodd" d="M59.1 80.7C59.3 84.2 62.8 82.6 64.4 81.5C65.9 80.4 66.4 81.3 66.5 79.2C66.6 77.8 66.7 76.5 66.7 75.1C64.4 74.9 61.9 75.4 60 76.8C59.1 77.5 57.2 79.8 59.1 80.7Z" fill="#F6D2A2"/>
</g>
<mask id="mask1_53_2" style="mask-type:luminance" maskUnits="userSpaceOnUse" x="56" y="13" width="92" height="126">
<path d="M56.8 13H147.3V139H56.8V13Z" fill="white"/>
</mask>
<g mask="url(#mask1_53_2)">
<path d="M61 83.2C60.3 83.2 59 82.9 58.8 80.9C58.2 80.5 58 80 58 79.7C57.9 78.5 59.2 77.1 59.9 76.6C61.5 75.4 63.6 74.8 65.8 74.8H67.1V75.1C67.2 76.2 67.1 77.3 67 78.3C67 78.6 67 78.9 66.9 79.2C66.8 80.7 66.5 80.9 65.8 81.2C65.5 81.3 65.2 81.4 64.7 81.8C64.2 82.1 62.5 83.2 61 83.2ZM65.8 75.4C63.7 75.4 61.8 76 60.3 77.1C59.6 77.6 58.6 78.8 58.7 79.6C58.7 79.9 58.9 80.2 59.3 80.4L59.5 80.5V80.7C59.6 82.3 60.4 82.5 61 82.5C62 82.5 63.4 81.8 64.3 81.2C64.9 80.8 65.3 80.7 65.6 80.6C66.1 80.4 66.2 80.4 66.3 79.2C66.3 78.9 66.3 78.6 66.4 78.3C66.5 77.4 66.5 76.4 66.5 75.5C66.2 75.4 66 75.4 65.8 75.4Z" fill="black"/>
</g>
<mask id="mask2_53_2" style="mask-type:luminance" maskUnits="userSpaceOnUse" x="56" y="13" width="92" height="126">
<path d="M56.8 13H147.3V139H56.8V13Z" fill="white"/>
</mask>
<g mask="url(#mask2_53_2)">
<path fill-rule="evenodd" clip-rule="evenodd" d="M59.1 80.7C59.6 80.5 60.2 80.4 60.5 79.9L59.1 80.7Z" fill="#C6B198"/>
</g>
<mask id="mask3_53_2" style="mask-type:luminance" maskUnits="userSpaceOnUse" x="56" y="13" width="92" height="126">
<path d="M56.8 13H147.3V139H56.8V13Z" fill="white"/>
</mask>
<g mask="url(#mask3_53_2)">
<path d="M59.1 81C59 81 58.8 80.9 58.8 80.8C58.7 80.6 58.8 80.4 59 80.4C59.1 80.4 59.2 80.3 59.2 80.3C59.6 80.1 60 80 60.2 79.7C60.3 79.6 60.5 79.5 60.7 79.6C60.8 79.7 60.9 79.9 60.8 80.1C60.4 80.6 59.9 80.8 59.5 80.9L59.3 81H59.1Z" fill="black"/>
</g>
<mask id="mask4_53_2" style="mask-type:luminance" maskUnits="userSpaceOnUse" x="56" y="13" width="92" height="126">
<path d="M56.8 13H147.3V139H56.8V13Z" fill="white"/>
</mask>
<g mask="url(#mask4_53_2)">
<path fill-rule="evenodd" clip-rule="evenodd" d="M67.3 38.4C53.7 34.6 63.8 17.3 74.7 24.4L67.3 38.4Z" fill="#6AD7E5"/>
</g>
<mask id="mask5_53_2" style="mask-type:luminance" maskUnits="userSpaceOnUse" x="56" y="13" width="92" height="126">
<path d="M56.8 13H147.3V139H56.8V13Z" fill="white"/>
</mask>
<g mask="url(#mask5_53_2)">
<path d="M67.5 38.8L67.2 38.7C60.2 36.7 60.3 31.7 60.5 30.2C61 26.4 64.6 22.4 69.4 22.4C71.3 22.4 73.1 23 74.9 24.2L75.2 24.4L67.5 38.8ZM69.4 23.1C64.9 23.1 61.6 26.8 61.1 30.3C60.6 33.9 62.8 36.7 67.1 38L74.2 24.5C72.7 23.6 71.1 23.1 69.4 23.1Z" fill="black"/>
</g>
<mask id="mask6_53_2" style="mask-type:luminance" maskUnits="userSpaceOnUse" x="56" y="13" width="92" height="126">
<path d="M56.8 13H147.3V139H56.8V13Z" fill="white"/>
</mask>
<g mask="url(#mask6_53_2)">
<path fill-rule="evenodd" clip-rule="evenodd" d="M127.6 23.1C138.3 15.6 148.1 32.6 135.6 36.9L127.6 23.1Z" fill="#6AD7E5"/>
</g>
<mask id="mask7_53_2" style="mask-type:luminance" maskUnits="userSpaceOnUse" x="56" y="13" width="92" height="126">
<path d="M56.8 13H147.3V139H56.8V13Z" fill="white"/>
</mask>
<g mask="url(#mask7_53_2)">
<path d="M135.5 37.3L127.2 23L127.5 22.8C129.4 21.5 131.3 20.8 133.2 20.8C137.8 20.8 141.1 24.6 141.8 28.3C142.1 29.8 142.4 34.9 135.8 37.1L135.5 37.3ZM128.1 23.3L135.8 36.6C139.7 35.2 141.7 32.2 141.1 28.6C140.5 25.2 137.4 21.7 133.2 21.7C131.5 21.6 129.8 22.1 128.1 23.3Z" fill="black"/>
</g>
<mask id="mask8_53_2" style="mask-type:luminance" maskUnits="userSpaceOnUse" x="56" y="13" width="92" height="126">
<path d="M56.8 13H147.3V139H56.8V13Z" fill="white"/>
</mask>
<g mask="url(#mask8_53_2)">
<path fill-rule="evenodd" clip-rule="evenodd" d="M130 124.3C132.7 126 137.7 131.1 133.6 133.6C129.7 137.2 127.5 129.6 124 128.6C125.5 126.6 127.4 124.7 130 124.3Z" fill="#F6D2A2"/>
</g>
<mask id="mask9_53_2" style="mask-type:luminance" maskUnits="userSpaceOnUse" x="56" y="13" width="92" height="126">
<path d="M56.8 13H147.3V139H56.8V13Z" fill="white"/>
</mask>
<g mask="url(#mask9_53_2)">
<path d="M131.5 134.9C129.9 134.9 128.5 133.3 127.3 131.8C126.2 130.6 125.1 129.3 123.9 128.9L123.4 128.8L123.7 128.4C124.9 126.7 126.9 124.5 129.9 124H130L130.1 124.1C131.8 125.2 135.5 128.3 135.4 131.2C135.4 132.3 134.8 133.2 133.7 133.9C133 134.6 132.3 134.9 131.5 134.9ZM124.5 128.4C125.7 128.9 126.7 130.2 127.7 131.3C128.9 132.8 130.1 134.1 131.4 134.1C132 134.1 132.6 133.8 133.2 133.2H133.3C134.2 132.6 134.7 131.9 134.7 131C134.7 128.7 131.8 125.8 129.8 124.5C128 125 126.2 126.2 124.5 128.4ZM133.6 133.9C133.5 133.9 133.4 133.8 133.3 133.7C133.1 133.3 132.9 132.8 132.8 132.4C132.5 131.6 132.2 130.8 131.6 130.2C131.5 130.1 131.5 129.9 131.6 129.7C131.7 129.6 131.9 129.6 132.1 129.7C132.8 130.4 133.2 131.3 133.5 132.2L134 133.4C134.1 133.6 134 133.8 133.9 133.9H133.6Z" fill="black"/>
</g>
<mask id="mask10_53_2" style="mask-type:luminance" maskUnits="userSpaceOnUse" x="56" y="13" width="92" height="126">
<path d="M56.8 13H147.3V139H56.8V13Z" fill="white"/>
</mask>
<g mask="url(#mask10_53_2)">
<path fill-rule="evenodd" clip-rule="evenodd" d="M81.2 130.1C78 130.6 76.2 133.5 73.5 135C71 136.5 70 134.5 69.8 134.1C69.4 133.9 69.4 134.3 68.8 133.7C66.5 130 71.2 127.3 73.7 125.5C77.2 124.7 79.4 127.7 81.2 130.1Z" fill="#F6D2A2"/>
</g>
<mask id="mask11_53_2" style="mask-type:luminance" maskUnits="userSpaceOnUse" x="56" y="13" width="92" height="126">
<path d="M56.8 13H147.3V139H56.8V13Z" fill="white"/>
</mask>
<g mask="url(#mask11_53_2)">
<path d="M71.8 135.8C70.5 135.8 69.8 134.7 69.6 134.3H69.5C69.2 134.3 69 134.2 68.6 133.8V133.7C66.4 130.2 70.2 127.5 72.7 125.7L73.6 125.1H73.8C74.2 125 74.5 125 74.9 125C77.9 125 79.8 127.6 81.4 129.7L81.9 130.4L81.3 130.5C79.4 130.8 78 132 76.6 133.2C75.7 134 74.8 134.7 73.8 135.3C73 135.6 72.4 135.8 71.8 135.8ZM69.6 133.7C69.7 133.7 69.8 133.7 70 133.8H70.1L70.2 133.9C70.4 134.2 70.9 135.1 71.9 135.1C72.4 135.1 72.9 134.9 73.4 134.6C74.4 134.1 75.3 133.3 76.1 132.6C77.4 131.5 78.8 130.3 80.6 129.8C79.1 127.8 77.3 125.6 74.8 125.6C74.5 125.6 74.2 125.6 73.9 125.7L73.1 126.3C70.5 128.1 67.3 130.4 69.2 133.4C69.3 133.6 69.4 133.7 69.6 133.7ZM69.8 134.4C69.6 134.4 69.4 134.2 69.5 134C69.6 133 70.1 132.3 70.6 131.5C70.9 131.1 71.1 130.7 71.3 130.3C71.4 130.1 71.6 130.1 71.7 130.1C71.9 130.2 71.9 130.4 71.9 130.5C71.7 131 71.4 131.4 71.1 131.8C70.6 132.5 70.2 133.1 70.1 133.9C70.1 134.3 70 134.4 69.8 134.4Z" fill="black"/>
</g>
<mask id="mask12_53_2" style="mask-type:luminance" maskUnits="userSpaceOnUse" x="56" y="13" width="92" height="126">
<path d="M56.8 13H147.3V139H56.8V13Z" fill="white"/>
</mask>
<g mask="url(#mask12_53_2)">
<path fill-rule="evenodd" clip-rule="evenodd" d="M67.9 33.7C66.1 32.8 64.8 31.5 65.9 29.4C66.9 27.5 68.8 27.7 70.6 28.6L67.9 33.7ZM132.8 31.9C134.6 31 135.9 29.7 134.8 27.6C133.8 25.7 131.9 25.9 130.1 26.8L132.8 31.9Z" fill="black"/>
</g>
<mask id="mask13_53_2" style="mask-type:luminance" maskUnits="userSpaceOnUse" x="56" y="13" width="92" height="126">
<path d="M56.8 13H147.3V139H56.8V13Z" fill="white"/>
</mask>
<g mask="url(#mask13_53_2)">
<path fill-rule="evenodd" clip-rule="evenodd" d="M145.1 80.2C144.9 83.7 141.4 82.1 139.8 81C138.3 79.9 137.8 80.8 137.7 78.7C137.6 77.3 137.5 76 137.5 74.6C139.8 74.4 142.3 74.9 144.2 76.3C145.2 77.1 147 79.3 145.1 80.2Z" fill="#F6D2A2"/>
</g>
<mask id="mask14_53_2" style="mask-type:luminance" maskUnits="userSpaceOnUse" x="56" y="13" width="92" height="126">
<path d="M56.8 13H147.3V139H56.8V13Z" fill="white"/>
</mask>
<g mask="url(#mask14_53_2)">
<path d="M143.3 82.7C141.8 82.7 140.1 81.6 139.6 81.3C139.1 81 138.8 80.8 138.5 80.7C137.7 80.4 137.5 80.2 137.4 78.7C137.4 78.4 137.4 78.1 137.3 77.8C137.2 76.8 137.1 75.7 137.2 74.6V74.3H138.5C140.7 74.3 142.8 74.9 144.4 76.1C145.1 76.6 146.4 78 146.3 79.2C146.3 79.6 146.1 80.1 145.5 80.4C145.3 82.4 144 82.7 143.3 82.7ZM137.8 75C137.8 75.9 137.8 76.9 137.9 77.8C137.9 78.1 137.9 78.4 138 78.7C138.1 79.9 138.2 79.9 138.7 80.1C139 80.2 139.4 80.4 140 80.7C140.9 81.3 142.3 82 143.3 82C143.9 82 144.7 81.8 144.8 80.2V80L145 79.9C145.4 79.7 145.6 79.5 145.6 79.1C145.7 78.3 144.7 77.1 144 76.6C142.5 75.5 140.5 74.9 138.5 74.9C138.3 75 138.1 75 137.8 75Z" fill="black"/>
</g>
<mask id="mask15_53_2" style="mask-type:luminance" maskUnits="userSpaceOnUse" x="56" y="13" width="92" height="126">
<path d="M56.8 13H147.3V139H56.8V13Z" fill="white"/>
</mask>
<g mask="url(#mask15_53_2)">
<path fill-rule="evenodd" clip-rule="evenodd" d="M145.1 80.2C144.6 80 144 79.9 143.7 79.4L145.1 80.2Z" fill="#C6B198"/>
</g>
<mask id="mask16_53_2" style="mask-type:luminance" maskUnits="userSpaceOnUse" x="56" y="13" width="92" height="126">
<path d="M56.8 13H147.3V139H56.8V13Z" fill="white"/>
</mask>
<g mask="url(#mask16_53_2)">
<path d="M145.1 80.6H145L144.8 80.5C144.3 80.3 143.8 80.2 143.5 79.7C143.4 79.6 143.4 79.3 143.6 79.2C143.7 79.1 144 79.1 144.1 79.3C144.3 79.6 144.7 79.7 145.1 79.9C145.2 79.9 145.3 80 145.3 80C145.5 80.1 145.6 80.3 145.5 80.4C145.4 80.5 145.2 80.6 145.1 80.6Z" fill="black"/>
</g>
<mask id="mask17_53_2" style="mask-type:luminance" maskUnits="userSpaceOnUse" x="56" y="13" width="92" height="126">
<path d="M56.8 13H147.3V139H56.8V13Z" fill="white"/>
</mask>
<g mask="url(#mask17_53_2)">
<path fill-rule="evenodd" clip-rule="evenodd" d="M100.8 16C114.4 16 127.1 17.9 133.8 31C139.8 45.6 137.6 61.4 138.6 76.9C139.4 90.2 141.1 105.5 135 117.8C128.5 130.7 112.3 134 99 133.5C88.5 133.1 75.9 129.7 69.9 120.1C63 108.9 66.2 92.2 66.7 79.7C67.3 64.9 62.7 50 67.6 35.6C72.5 20.5 86.1 17.1 100.8 16Z" fill="#6AD7E5"/>
</g>
<mask id="mask18_53_2" style="mask-type:luminance" maskUnits="userSpaceOnUse" x="56" y="13" width="92" height="126">
<path d="M56.8 13H147.3V139H56.8V13Z" fill="white"/>
</mask>
<g mask="url(#mask18_53_2)">
<path d="M101.3 133.9H98.8C94.7 133.8 88.5 133.1 82.4 130.6C76.5 128.2 72.2 124.8 69.4 120.3C63.8 111.2 64.8 98.7 65.7 87.6C65.9 84.8 66.1 82.2 66.2 79.7C66.4 74.5 66 69.1 65.5 64C64.7 54.6 63.9 44.9 67 35.5C69.4 28.5 73.7 23.5 80.2 20.3C85.3 17.8 91.6 16.4 100.6 15.7C114 15.6 127.3 17.5 134 30.8C138.4 41.5 138.4 53 138.5 64.1C138.5 68.3 138.5 72.6 138.8 76.8C138.9 78.1 139 79.4 139 80.7C139.8 92.9 140.7 106.7 135.1 117.9C132.3 123.6 127.4 127.8 120.7 130.5C115.3 132.7 108.5 133.9 101.3 133.9ZM100.8 16.3C86.7 17.4 72.9 20.5 67.8 35.7C64.7 45 65.5 54.6 66.3 63.9C66.7 69.1 67.2 74.4 67 79.7C66.9 82.2 66.7 84.8 66.5 87.6C65.6 98.6 64.6 111 70.1 119.9C72.4 123.6 79.8 132.4 98.9 133.1H101.4C123.5 133.1 131.7 123.3 134.7 117.5C140.2 106.5 139.3 92.7 138.6 80.6C138.5 79.3 138.4 78 138.4 76.7C138.2 72.5 138.1 68.2 138.1 64C138 53 138 41.5 133.7 30.9C130.7 25 126.2 21 120 18.7C113.6 16.6 106.4 16.3 100.8 16.3Z" fill="black"/>
</g>
<mask id="mask19_53_2" style="mask-type:luminance" maskUnits="userSpaceOnUse" x="56" y="13" width="92" height="126">
<path d="M56.8 13H147.3V139H56.8V13Z" fill="white"/>
</mask>
<g mask="url(#mask19_53_2)">
<path fill-rule="evenodd" clip-rule="evenodd" d="M103.2 34.2C105.6 48.4 128.8 44.6 125.5 30.3C122.5 17.5 102.4 21.1 103.2 34.2Z" fill="white"/>
</g>
<mask id="mask20_53_2" style="mask-type:luminance" maskUnits="userSpaceOnUse" x="56" y="13" width="92" height="126">
<path d="M56.8 13H147.3V139H56.8V13Z" fill="white"/>
</mask>
<g mask="url(#mask20_53_2)">
<path d="M114.2 43.5C109.7 43.5 104 41.1 102.8 34.3C102.6 31.1 103.6 28.2 105.7 26C108 23.5 111.5 22.1 115.1 22.1C119.3 22.1 124.3 24.3 125.7 30.4C126.5 33.8 125.9 36.8 124 39.2C121.9 41.8 118.2 43.5 114.2 43.5ZM103.5 34.2C104 37 105.3 39.2 107.4 40.8C109.2 42.2 111.7 42.9 114.2 42.9C117.9 42.9 121.5 41.3 123.5 38.8C125.3 36.6 125.8 33.7 125.1 30.5C123.8 24.8 119.1 22.8 115.1 22.8C111.7 22.8 108.4 24.2 106.2 26.5C104.3 28.5 103.3 31.2 103.5 34.2Z" fill="black"/>
</g>
<mask id="mask21_53_2" style="mask-type:luminance" maskUnits="userSpaceOnUse" x="56" y="13" width="92" height="126">
<path d="M56.8 13H147.3V139H56.8V13Z" fill="white"/>
</mask>
<g mask="url(#mask21_53_2)">
<path fill-rule="evenodd" clip-rule="evenodd" d="M75.5 36.5C78.7 48.8 98.4 45.7 97.7 33.3C96.8 18.5 72.4 21.3 75.5 36.5Z" fill="white"/>
</g>
<mask id="mask22_53_2" style="mask-type:luminance" maskUnits="userSpaceOnUse" x="56" y="13" width="92" height="126">
<path d="M56.8 13H147.3V139H56.8V13Z" fill="white"/>
</mask>
<g mask="url(#mask22_53_2)">
<path d="M86 44.7C81.7 44.7 76.7 42.6 75.1 36.6C74.4 33.1 75.1 29.9 77.1 27.5C79.3 24.8 82.9 23.2 86.8 23.2C92 23.2 97.5 26.3 97.9 33.3C98.1 36.2 97.2 38.8 95.2 40.9C93.1 43.2 89.6 44.7 86 44.7ZM86.8 23.9C83.1 23.9 79.7 25.4 77.6 27.9C75.7 30.2 75.1 33.1 75.8 36.4C77.2 42 82 44 86 44C89.4 44 92.7 42.7 94.8 40.4C96.6 38.5 97.5 36 97.3 33.3C97.1 29 94.2 23.9 86.8 23.9Z" fill="black"/>
</g>
<mask id="mask23_53_2" style="mask-type:luminance" maskUnits="userSpaceOnUse" x="56" y="13" width="92" height="126">
<path d="M56.8 13H147.3V139H56.8V13Z" fill="white"/>
</mask>
<g mask="url(#mask23_53_2)">
<path fill-rule="evenodd" clip-rule="evenodd" d="M106 51.2C106 53 106.4 55.1 106.1 57.1C105.6 58 104.7 58.1 103.9 58.4C102.8 58.2 101.9 57.5 101.4 56.5C101.1 54.3 101.5 52.1 101.6 49.9L106 51.2Z" fill="white"/>
</g>
<mask id="mask24_53_2" style="mask-type:luminance" maskUnits="userSpaceOnUse" x="56" y="13" width="92" height="126">
<path d="M56.8 13H147.3V139H56.8V13Z" fill="white"/>
</mask>
<g mask="url(#mask24_53_2)">
<path d="M103.9 58.8C102.6 58.6 101.6 57.8 101.1 56.7C100.9 55.1 101 53.6 101.1 52.1C101.2 51.4 101.2 50.7 101.2 50V49.6L106.3 51.2V51.4C106.3 52 106.4 52.6 106.4 53.3C106.5 54.6 106.6 56 106.4 57.3V57.4C106 58.2 105.3 58.4 104.6 58.7C104.4 58.6 104.2 58.7 103.9 58.8ZM101.7 56.4C102.1 57.3 102.9 57.9 103.8 58.1C104 58 104.2 58 104.3 57.9C104.9 57.7 105.4 57.5 105.7 57C105.9 55.8 105.8 54.5 105.7 53.2C105.7 52.6 105.6 52 105.6 51.5L101.8 50.3C101.8 50.9 101.7 51.5 101.7 52C101.6 53.6 101.5 55 101.7 56.4Z" fill="black"/>
</g>
<mask id="mask25_53_2" style="mask-type:luminance" maskUnits="userSpaceOnUse" x="56" y="13" width="92" height="126">
<path d="M56.8 13H147.3V139H56.8V13Z" fill="white"/>
</mask>
<g mask="url(#mask25_53_2)">
<path fill-rule="evenodd" clip-rule="evenodd" d="M84.3 34.5C84.3 36.5 82.8 38.1 81 38.1C79.2 38.1 77.7 36.5 77.7 34.5C77.7 32.5 79.2 30.9 81 30.9C82.8 30.9 84.3 32.5 84.3 34.5Z" fill="black"/>
</g>
<mask id="mask26_53_2" style="mask-type:luminance" maskUnits="userSpaceOnUse" x="56" y="13" width="92" height="126">
<path d="M56.8 13H147.3V139H56.8V13Z" fill="white"/>
</mask>
<g mask="url(#mask26_53_2)">
<path fill-rule="evenodd" clip-rule="evenodd" d="M83.2 35.3C83.2 35.8 82.8 36.2 82.4 36.2C82 36.2 81.6 35.8 81.6 35.3C81.6 34.8 82 34.4 82.4 34.4C82.9 34.4 83.2 34.8 83.2 35.3Z" fill="white"/>
</g>
<mask id="mask27_53_2" style="mask-type:luminance" maskUnits="userSpaceOnUse" x="56" y="13" width="92" height="126">
<path d="M56.8 13H147.3V139H56.8V13Z" fill="white"/>
</mask>
<g mask="url(#mask27_53_2)">
<path fill-rule="evenodd" clip-rule="evenodd" d="M112.2 33.6C112.2 35.6 110.7 37.2 108.9 37.2C107.1 37.2 105.6 35.6 105.6 33.6C105.6 31.6 107.1 30 108.9 30C110.7 30 112.2 31.6 112.2 33.6Z" fill="black"/>
</g>
<mask id="mask28_53_2" style="mask-type:luminance" maskUnits="userSpaceOnUse" x="56" y="13" width="92" height="126">
<path d="M56.8 13H147.3V139H56.8V13Z" fill="white"/>
</mask>
<g mask="url(#mask28_53_2)">
<path fill-rule="evenodd" clip-rule="evenodd" d="M111.2 34.4C111.2 34.9 110.9 35.3 110.4 35.3C110 35.3 109.6 34.9 109.6 34.4C109.6 33.9 109.9 33.5 110.4 33.5C110.8 33.5 111.2 33.9 111.2 34.4ZM96.4 51C94.9 54.5 97.2 61.6 101.2 56.4C100.9 54.2 101.3 52 101.4 49.8L96.4 51Z" fill="white"/>
</g>
<mask id="mask29_53_2" style="mask-type:luminance" maskUnits="userSpaceOnUse" x="56" y="13" width="92" height="126">
<path d="M56.8 13H147.3V139H56.8V13Z" fill="white"/>
</mask>
<g mask="url(#mask29_53_2)">
<path d="M98.5 58.6C97.8 58.6 97.1 58.2 96.6 57.4C95.5 55.8 95.3 52.8 96.1 50.9L96.2 50.7L101.7 49.3V49.7L101.6 51.9C101.5 53.4 101.4 54.8 101.6 56.3V56.4L101.5 56.5C100.5 57.9 99.5 58.6 98.5 58.6ZM96.7 51.3C96.1 53 96.3 55.7 97.2 57C97.6 57.6 98 57.9 98.5 57.9C99.2 57.9 100 57.3 100.8 56.3C100.6 54.8 100.7 53.3 100.9 51.9L101 50.2L96.7 51.3Z" fill="black"/>
</g>
<mask id="mask30_53_2" style="mask-type:luminance" maskUnits="userSpaceOnUse" x="56" y="13" width="92" height="126">
<path d="M56.8 13H147.3V139H56.8V13Z" fill="white"/>
</mask>
<g mask="url(#mask30_53_2)">
<path fill-rule="evenodd" clip-rule="evenodd" d="M96.9 44.2C94.2 44.4 92 47.7 93.4 50.2C95.3 53.6 99.4 49.9 102 50.2C105 50.3 107.4 53.4 109.8 50.8C112.5 47.9 108.6 45.1 105.7 43.8L96.9 44.2Z" fill="#F6D2A2"/>
</g>
<mask id="mask31_53_2" style="mask-type:luminance" maskUnits="userSpaceOnUse" x="56" y="13" width="92" height="126">
<path d="M56.8 13H147.3V139H56.8V13Z" fill="white"/>
</mask>
<g mask="url(#mask31_53_2)">
<path d="M107.7 52.2C106.8 52.2 105.9 51.8 105 51.4C104.1 51 103.1 50.6 102 50.6H101.7C100.9 50.6 100 50.9 99 51.3C97.9 51.7 96.8 52 95.8 52C94.6 52 93.7 51.5 93.1 50.4C92.4 49.2 92.5 47.8 93.2 46.5C94 45 95.4 44.1 96.9 43.9L105.8 43.5H105.9C108.1 44.4 110.6 46.1 111.1 48.1C111.3 49.1 111 50.1 110.2 51C109.4 51.9 108.6 52.2 107.7 52.2ZM102.1 50C103.2 50 104.3 50.5 105.3 50.9C106.2 51.3 107 51.6 107.8 51.6C108.5 51.6 109.1 51.3 109.7 50.7C110.4 50 110.6 49.2 110.5 48.4C110.1 46.7 107.7 45.1 105.8 44.3L97.1 44.7C95.8 44.8 94.6 45.7 93.9 46.9C93.3 48 93.3 49.2 93.8 50.2C94.3 51.1 94.9 51.5 95.9 51.5C96.8 51.5 97.8 51.1 98.8 50.8C99.9 50.4 100.8 50.1 101.8 50.1C101.8 49.9 101.9 49.9 102.1 50Z" fill="#231F20"/>
</g>
<mask id="mask32_53_2" style="mask-type:luminance" maskUnits="userSpaceOnUse" x="56" y="13" width="92" height="126">
<path d="M56.8 13H147.3V139H56.8V13Z" fill="white"/>
</mask>
<g mask="url(#mask32_53_2)">
<path fill-rule="evenodd" clip-rule="evenodd" d="M96.6 44.1C96.4 39.4 105.4 38.8 106.4 42.7C107.5 46.7 97 47.6 96.6 44.1Z" fill="black"/>
</g>
<path d="M178.149 72.7427C178.149 64.3198 180.347 57.6304 184.741 52.6743C189.136 47.7183 195.361 45.2402 203.418 45.2402C208.276 45.2402 212.085 45.8628 214.844 47.1079C217.627 48.353 220.068 50.2817 222.168 52.894C223.438 54.481 223.401 55.7139 222.058 56.5928L217.883 59.3027C216.663 60.1084 215.356 59.7544 213.965 58.2407C212.817 56.9956 211.365 55.958 209.607 55.1279C207.849 54.2979 205.908 53.8828 203.784 53.8828C198.657 53.8828 195.007 55.5063 192.834 58.7534C190.662 61.9761 189.575 66.6392 189.575 72.7427C189.575 78.8462 190.662 83.5215 192.834 86.7686C195.007 89.9912 198.657 91.6025 203.784 91.6025C206.274 91.6025 208.423 91.3584 210.229 90.8701C212.036 90.3574 213.745 89.4419 215.356 88.1235V81.5684H207.41C205.579 81.5684 204.663 80.7749 204.663 79.188V74.8667C204.663 73.2798 205.579 72.4863 207.41 72.4863H223.303C225.134 72.4863 226.05 73.2798 226.05 74.8667V93.4702C222.632 95.9849 219.177 97.7427 215.686 98.7437C212.219 99.7446 208.13 100.245 203.418 100.245C195.483 100.245 189.282 97.7671 184.814 92.811C180.371 87.855 178.149 81.1655 178.149 72.7427ZM233.301 72.7427C233.301 64.3198 235.474 57.6304 239.819 52.6743C244.165 47.7183 250.366 45.2402 258.423 45.2402C266.479 45.2402 272.681 47.7183 277.026 52.6743C281.372 57.6304 283.545 64.3198 283.545 72.7427C283.545 81.1655 281.372 87.855 277.026 92.811C272.681 97.7671 266.479 100.245 258.423 100.245C250.366 100.245 244.165 97.7671 239.819 92.811C235.474 87.855 233.301 81.1655 233.301 72.7427ZM244.727 72.7427C244.727 78.8462 245.813 83.5215 247.986 86.7686C250.183 89.9912 253.662 91.6025 258.423 91.6025C263.184 91.6025 266.65 89.9912 268.823 86.7686C271.021 83.5215 272.119 78.8462 272.119 72.7427C272.119 66.6392 271.021 61.9761 268.823 58.7534C266.65 55.5063 263.184 53.8828 258.423 53.8828C253.662 53.8828 250.183 55.5063 247.986 58.7534C245.813 61.9761 244.727 66.6392 244.727 72.7427ZM295.117 99C293.408 99 292.554 98.0845 292.554 96.2534V49.2319C292.554 47.4009 293.408 46.4854 295.117 46.4854H301.05C302.515 46.4854 303.247 47.4009 303.247 49.2319V89.918H324.597C326.428 89.918 327.344 90.7114 327.344 92.2983V96.6196C327.344 98.2065 326.428 99 324.597 99H295.117ZM333.459 99C331.702 99 331.128 98.1943 331.738 96.583L349.683 49.4517C350.439 47.4741 351.587 46.4854 353.125 46.4854H358.252C359.79 46.4854 360.938 47.4741 361.694 49.4517L379.639 96.583C380.249 98.1943 379.675 99 377.917 99H372.095C370.483 99 369.36 98.1577 368.726 96.4731L364.99 86.6221H346.387L342.651 96.4731C342.017 98.1577 340.894 99 339.282 99H333.459ZM349.792 77.54H361.584L357.08 65.8945C356.543 64.5273 356.213 63.5386 356.091 62.9282C355.994 62.2935 355.884 61.3657 355.762 60.145H355.615C355.493 61.3657 355.371 62.2935 355.249 62.9282C355.151 63.5386 354.834 64.5273 354.297 65.8945L349.792 77.54ZM388.721 99C387.012 99 386.157 98.0845 386.157 96.2534V49.2319C386.157 47.4009 387.012 46.4854 388.721 46.4854H394.141C396.24 46.4854 397.827 47.3398 398.901 49.0488L417.578 79.0415H417.834C417.712 77.5767 417.651 76.1118 417.651 74.647V49.2319C417.651 47.4009 418.506 46.4854 420.215 46.4854H425.781C427.49 46.4854 428.345 47.4009 428.345 49.2319V96.2534C428.345 98.0845 427.49 99 425.781 99H420.728C418.628 99 417.041 98.1455 415.967 96.4365L396.924 65.8945H396.667C396.79 67.3594 396.851 68.8242 396.851 70.2891V96.2534C396.851 98.0845 395.996 99 394.287 99H388.721ZM437.354 72.7427C437.354 64.3198 439.551 57.6304 443.945 52.6743C448.34 47.7183 454.565 45.2402 462.622 45.2402C467.48 45.2402 471.289 45.8628 474.048 47.1079C476.831 48.353 479.272 50.2817 481.372 52.894C482.642 54.481 482.605 55.7139 481.262 56.5928L477.087 59.3027C475.867 60.1084 474.561 59.7544 473.169 58.2407C472.021 56.9956 470.569 55.958 468.811 55.1279C467.053 54.2979 465.112 53.8828 462.988 53.8828C457.861 53.8828 454.211 55.5063 452.039 58.7534C449.866 61.9761 448.779 66.6392 448.779 72.7427C448.779 78.8462 449.866 83.5215 452.039 86.7686C454.211 89.9912 457.861 91.6025 462.988 91.6025C465.479 91.6025 467.627 91.3584 469.434 90.8701C471.24 90.3574 472.949 89.4419 474.561 88.1235V81.5684H466.614C464.783 81.5684 463.867 80.7749 463.867 79.188V74.8667C463.867 73.2798 464.783 72.4863 466.614 72.4863H482.507C484.338 72.4863 485.254 73.2798 485.254 74.8667V93.4702C481.836 95.9849 478.381 97.7427 474.89 98.7437C471.423 99.7446 467.334 100.245 462.622 100.245C454.688 100.245 448.486 97.7671 444.019 92.811C439.575 87.855 437.354 81.1655 437.354 72.7427Z" fill="white"/>
</svg>
