<svg width="519" height="145" viewBox="0 0 519 145" fill="none" xmlns="http://www.w3.org/2000/svg">
<rect x="1.5" y="1.5" width="516" height="142" rx="36.5" fill="#2A2734" stroke="white" stroke-width="3"/>
<g clip-path="url(#clip0_53_2)">
<path d="M150.93 26.205C146.777 26.7735 142.903 28.6137 139.838 31.473C139.648 31.6524 139.495 31.8675 139.389 32.1061C139.283 32.3446 139.225 32.6019 139.218 32.863C139.221 33.3886 139.428 33.8925 139.796 34.268L142.321 36.881C142.65 37.2107 143.087 37.4106 143.552 37.4441C144.017 37.4775 144.478 37.3422 144.851 37.063C146.856 35.5494 149.302 34.7342 151.815 34.742C154.118 34.7334 156.372 35.4095 158.29 36.6845C160.208 37.9595 161.704 39.7758 162.588 41.9028C163.471 44.0298 163.703 46.3714 163.253 48.6303C162.803 50.8891 161.691 52.9632 160.06 54.589C143.95 70.701 122.444 25.565 73.637 48.786C72.8076 49.1743 72.0675 49.73 71.4633 50.4182C70.8591 51.1063 70.4039 51.9121 70.1262 52.7848C69.8486 53.6575 69.7545 54.5782 69.85 55.4889C69.9455 56.3997 70.2284 57.2809 70.681 58.077L79.046 72.553C79.9193 74.0588 81.3493 75.1611 83.0277 75.6226C84.7061 76.084 86.4986 75.8676 88.019 75.02L88.222 74.906L88.062 75.02L91.772 72.938C95.9065 70.3696 99.8128 67.4508 103.448 64.214C103.82 63.8947 104.295 63.7192 104.785 63.7192C105.276 63.7192 105.751 63.8947 106.123 64.214C106.348 64.3894 106.531 64.6134 106.657 64.8693C106.784 65.1253 106.851 65.4066 106.853 65.692C106.858 65.97 106.803 66.2457 106.692 66.5008C106.582 66.7559 106.418 66.9844 106.212 67.171C102.384 70.57 98.2645 73.6268 93.902 76.306H93.782L90.07 78.377C88.5017 79.263 86.7292 79.7242 84.928 79.715C83.0664 79.7156 81.2371 79.2293 79.6216 78.3043C78.0062 77.3793 76.6607 76.0478 75.719 74.442L67.807 60.768C52.613 71.5 43.393 92.18 48.345 118.416C48.4331 118.855 48.6695 119.25 49.0145 119.536C49.3596 119.821 49.7923 119.979 50.24 119.983H59.255C59.7234 119.982 60.1755 119.811 60.5263 119.5C60.8771 119.19 61.1025 118.762 61.16 118.297C61.5618 115.107 63.1141 112.174 65.5254 110.047C67.9367 107.92 71.0413 106.747 74.2565 106.747C77.4716 106.747 80.5762 107.92 82.9876 110.047C85.3989 112.174 86.9511 115.107 87.353 118.297C87.4136 118.763 87.6414 119.19 87.9938 119.5C88.3463 119.811 88.7995 119.982 89.269 119.983H98.055C98.5234 119.982 98.9755 119.811 99.3263 119.5C99.6771 119.19 99.9025 118.762 99.96 118.297C100.372 115.113 101.93 112.188 104.342 110.069C106.753 107.95 109.854 106.781 113.064 106.781C116.275 106.781 119.376 107.95 121.787 110.069C124.199 112.188 125.757 115.113 126.169 118.297C126.226 118.762 126.452 119.19 126.803 119.5C127.153 119.811 127.606 119.982 128.074 119.983H136.746C137.251 119.984 137.736 119.787 138.096 119.433C138.457 119.079 138.664 118.598 138.672 118.093C138.879 105.87 142.175 91.826 151.576 84.79C184.138 60.431 175.583 39.55 168.045 31.967C165.831 29.7506 163.133 28.077 160.164 27.0774C157.194 26.0777 154.034 25.7791 150.93 26.205ZM131.692 61.866C132.567 61.6726 133.482 61.7865 134.284 62.1885C135.085 62.5904 135.723 63.256 136.091 64.0733C136.46 64.8906 136.535 65.8097 136.306 66.6762C136.076 67.5426 135.555 68.3036 134.83 68.831V68.811L128.62 65.692C128.617 64.7991 128.92 63.9321 129.479 63.2358C130.038 62.5394 130.819 62.056 131.692 61.866Z" fill="white"/>
</g>
<path d="M188.149 73.7427C188.149 65.3198 190.347 58.6304 194.741 53.6743C199.136 48.7183 205.361 46.2402 213.418 46.2402C218.276 46.2402 222.085 46.8628 224.844 48.1079C227.627 49.353 230.068 51.2817 232.168 53.894C233.438 55.481 233.401 56.7139 232.058 57.5928L227.883 60.3027C226.663 61.1084 225.356 60.7544 223.965 59.2407C222.817 57.9956 221.365 56.958 219.607 56.1279C217.849 55.2979 215.908 54.8828 213.784 54.8828C208.657 54.8828 205.007 56.5063 202.834 59.7534C200.662 62.9761 199.575 67.6392 199.575 73.7427C199.575 79.8462 200.662 84.5215 202.834 87.7686C205.007 90.9912 208.657 92.6025 213.784 92.6025C216.274 92.6025 218.423 92.3584 220.229 91.8701C222.036 91.3574 223.745 90.4419 225.356 89.1235V82.5684H217.41C215.579 82.5684 214.663 81.7749 214.663 80.188V75.8667C214.663 74.2798 215.579 73.4863 217.41 73.4863H233.303C235.134 73.4863 236.05 74.2798 236.05 75.8667V94.4702C232.632 96.9849 229.177 98.7427 225.686 99.7437C222.219 100.745 218.13 101.245 213.418 101.245C205.483 101.245 199.282 98.7671 194.814 93.811C190.371 88.855 188.149 82.1655 188.149 73.7427ZM248.574 100C246.865 100 246.011 99.0845 246.011 97.2534V50.2319C246.011 48.4009 246.865 47.4854 248.574 47.4854H265.53C273.074 47.4854 278.579 48.6572 282.046 51.001C285.513 53.3203 287.246 57.1045 287.246 62.3535C287.246 66.2598 285.842 69.3726 283.035 71.6919C280.227 74.0112 276.663 75.5493 272.341 76.3062V76.3794C274.685 77.2583 276.455 78.479 277.651 80.0415C278.848 81.604 279.824 82.9712 280.581 84.1431L288.638 96.8506C289.98 98.9502 289.517 100 287.246 100H280.874C279.531 100 278.433 99.2798 277.578 97.8394L270.181 85.498C269.375 84.1797 267.898 82.7393 265.75 81.1768C263.625 79.5898 261.514 78.7964 259.414 78.7964H256.704V97.2534C256.704 99.0845 255.85 100 254.141 100H248.574ZM256.704 69.7144H263.259C268.142 69.7144 271.609 69.165 273.66 68.0664C275.735 66.9434 276.772 65.1733 276.772 62.7563C276.772 60.1196 275.771 58.4106 273.77 57.6294C271.792 56.8237 268.875 56.4209 265.017 56.4209H256.704V69.7144ZM296.658 100C294.9 100 294.326 99.1943 294.937 97.583L312.881 50.4517C313.638 48.4741 314.785 47.4854 316.323 47.4854H321.45C322.988 47.4854 324.136 48.4741 324.893 50.4517L342.837 97.583C343.447 99.1943 342.874 100 341.116 100H335.293C333.682 100 332.559 99.1577 331.924 97.4731L328.188 87.6221H309.585L305.85 97.4731C305.215 99.1577 304.092 100 302.48 100H296.658ZM312.991 78.54H324.783L320.278 66.8945C319.741 65.5273 319.412 64.5386 319.29 63.9282C319.192 63.2935 319.082 62.3657 318.96 61.145H318.813C318.691 62.3657 318.569 63.2935 318.447 63.9282C318.35 64.5386 318.032 65.5273 317.495 66.8945L312.991 78.54ZM351.919 100C350.21 100 349.355 99.0845 349.355 97.2534V50.2319C349.355 48.4009 350.21 47.4854 351.919 47.4854H364.7C375.93 47.4854 383.523 49.7559 387.478 54.2969C391.458 58.8379 393.447 65.2954 393.447 73.6694C393.447 82.0435 391.458 88.5254 387.478 93.1152C383.523 97.7051 375.93 100 364.7 100H351.919ZM360.049 90.918H364.004C371.572 90.918 376.467 89.5142 378.689 86.7065C380.911 83.8745 382.021 79.5288 382.021 73.6694C382.021 67.8101 380.911 63.4888 378.689 60.7056C376.467 57.8979 371.572 56.4941 364.004 56.4941H360.049V90.918ZM405.02 100C403.311 100 402.456 99.0845 402.456 97.2534V50.2319C402.456 48.4009 403.311 47.4854 405.02 47.4854H410.952C412.417 47.4854 413.149 48.4009 413.149 50.2319V90.918H434.5C436.331 90.918 437.246 91.7114 437.246 93.2983V97.6196C437.246 99.2065 436.331 100 434.5 100H405.02ZM447.573 100C445.864 100 445.01 99.0845 445.01 97.2534V50.2319C445.01 48.4009 445.864 47.4854 447.573 47.4854H478.994C480.825 47.4854 481.741 48.2788 481.741 49.8657V54.187C481.741 55.7739 480.825 56.5674 478.994 56.5674H455.703V68.2129H477.053C478.884 68.2129 479.8 69.0063 479.8 70.5933V74.9146C479.8 76.5015 478.884 77.2949 477.053 77.2949H455.703V90.918H480.166C481.997 90.918 482.913 91.7114 482.913 93.2983V97.6196C482.913 99.2065 481.997 100 480.166 100H447.573Z" fill="white"/>
<defs>
<clipPath id="clip0_53_2">
<rect width="128" height="128" fill="white" transform="translate(47 9)"/>
</clipPath>
</defs>
</svg>
