<svg width="459" height="145" viewBox="0 0 459 145" fill="none" xmlns="http://www.w3.org/2000/svg">
<rect x="1.5" y="1.5" width="456" height="142" rx="36.5" fill="#2A2734" stroke="white" stroke-width="3"/>
<path d="M60.037 122.876L50.032 10.661H159.968L149.952 122.859L104.933 135.339L60.037 122.876Z" fill="#E44D26"/>
<path d="M105 125.8L141.378 115.714L149.937 19.836H105V125.8Z" fill="#F16529"/>
<path d="M105 61.455H86.788L85.53 47.361H105V33.599H70.489L70.819 37.291L74.201 75.218H105V61.455ZM105 97.198L104.939 97.215L89.612 93.075L88.633 82.1H74.816L76.744 103.709L104.937 111.535L105 111.518V97.198Z" fill="#EBEBEB"/>
<path d="M104.952 61.455V75.218H121.899L120.302 93.067L104.952 97.21V111.529L133.167 103.709L133.374 101.384L136.608 65.151L136.943 61.455H133.235H104.952ZM104.952 33.599V47.361H138.196L138.472 44.269L139.1 37.291L139.429 33.599H104.952Z" fill="white"/>
<path d="M193.423 100C191.714 100 190.859 99.0845 190.859 97.2534V50.2319C190.859 48.4009 191.714 47.4854 193.423 47.4854H198.989C200.698 47.4854 201.553 48.4009 201.553 50.2319V68.1396H221.255V50.2319C221.255 48.4009 222.109 47.4854 223.818 47.4854H229.385C231.094 47.4854 231.948 48.4009 231.948 50.2319V97.2534C231.948 99.0845 231.094 100 229.385 100H223.818C222.109 100 221.255 99.0845 221.255 97.2534V77.2217H201.553V97.2534C201.553 99.0845 200.698 100 198.989 100H193.423ZM241.799 56.8604C239.968 56.8604 239.053 56.0669 239.053 54.48V49.8657C239.053 48.2788 239.968 47.4854 241.799 47.4854H279.446C281.277 47.4854 282.192 48.2788 282.192 49.8657V54.48C282.192 56.0669 281.277 56.8604 279.446 56.8604H265.969V97.9858C265.969 99.3286 265.359 100 264.138 100H257.107C255.886 100 255.276 99.3286 255.276 97.9858V56.8604H241.799ZM291.86 100C290.151 100 289.297 99.0845 289.297 97.2534V50.2319C289.297 48.4009 290.151 47.4854 291.86 47.4854H302.48C303.896 47.4854 304.91 48.4619 305.52 50.415L315.444 82.5317C315.884 83.9233 316.189 85.0708 316.36 85.9741C316.531 86.853 316.677 87.9028 316.799 89.1235H317.019C317.141 87.9028 317.288 86.853 317.458 85.9741C317.629 85.0708 317.935 83.9233 318.374 82.5317L328.298 50.415C328.909 48.4619 329.922 47.4854 331.338 47.4854H341.958C343.667 47.4854 344.521 48.4009 344.521 50.2319V97.2534C344.521 99.0845 343.667 100 341.958 100H336.392C334.683 100 333.828 99.0845 333.828 97.2534V67.0044C333.828 65.5396 333.889 64.0747 334.011 62.6099H333.755L323.171 97.0337C322.561 99.0112 321.511 100 320.022 100H313.796C312.307 100 311.257 99.0112 310.647 97.0337L300.063 62.6099H299.807C299.929 64.0747 299.99 65.5396 299.99 67.0044V97.2534C299.99 99.0845 299.136 100 297.427 100H291.86ZM358.804 100C357.095 100 356.24 99.0845 356.24 97.2534V50.2319C356.24 48.4009 357.095 47.4854 358.804 47.4854H364.736C366.201 47.4854 366.934 48.4009 366.934 50.2319V90.918H388.284C390.115 90.918 391.03 91.7114 391.03 93.2983V97.6196C391.03 99.2065 390.115 100 388.284 100H358.804ZM397.512 96.3013C396.707 95.2271 396.597 94.2993 397.183 93.5181L399.746 90.0024C400.771 88.5864 402.017 88.5498 403.481 89.8926C404.36 90.6982 405.715 91.4307 407.546 92.0898C409.377 92.7246 411.208 93.042 413.04 93.042C415.823 93.042 418.167 92.2607 420.071 90.6982C422 89.1357 422.964 86.853 422.964 83.8501C422.964 80.9937 422.354 78.6865 421.133 76.9287C419.912 75.1709 418.435 74.292 416.702 74.292C415.212 74.292 413.845 74.4141 412.6 74.6582C411.355 74.8779 410.061 75.5737 408.718 76.7456C407.791 77.5513 406.667 77.9541 405.349 77.9541H401.357C399.771 77.9541 398.977 77.1606 398.977 75.5737V50.3052C398.977 48.7183 399.771 47.9248 401.357 47.9248H427.725C429.312 47.9248 430.105 48.7183 430.105 50.3052V54.6265C430.105 56.2134 429.312 57.0068 427.725 57.0068H409.231V65.979C409.231 66.9556 409.182 67.9321 409.084 68.9087H409.304C410.598 67.7856 412.039 67.041 413.625 66.6748C415.212 66.2842 416.909 66.0889 418.716 66.0889C422.988 66.0889 426.589 67.5537 429.519 70.4834C432.473 73.3887 433.95 77.8931 433.95 83.9966C433.95 89.6118 432.07 93.8965 428.311 96.8506C424.575 99.7803 420.132 101.245 414.98 101.245C410.684 101.245 406.96 100.781 403.811 99.8535C400.686 98.9014 398.586 97.7173 397.512 96.3013Z" fill="white"/>
</svg>
