<svg width="395" height="145" viewBox="0 0 395 145" fill="none" xmlns="http://www.w3.org/2000/svg">
<rect x="1.5" y="1.5" width="392" height="142" rx="36.5" fill="#2A2734" stroke="white" stroke-width="3"/>
<path d="M88.6171 107.12C88.6171 107.12 83.8501 109.894 92.0141 110.83C101.906 111.96 106.961 111.798 117.859 109.738C117.859 109.738 120.73 111.533 124.732 113.089C100.293 123.559 69.4241 112.482 88.6171 107.12ZM85.6291 93.455C85.6291 93.455 80.2811 97.414 88.4521 98.26C99.0191 99.351 107.362 99.44 121.806 96.66C121.806 96.66 123.799 98.685 126.938 99.791C97.3961 108.431 64.4921 100.471 85.6291 93.455Z" fill="#0074BD"/>
<path d="M110.802 70.271C116.827 77.206 109.222 83.441 109.222 83.441C109.222 83.441 124.511 75.55 117.491 65.664C110.932 56.449 105.904 51.872 133.126 36.084C133.126 36.085 90.395 46.754 110.802 70.271Z" fill="#EA2D2E"/>
<path d="M143.123 117.229C143.123 117.229 146.652 120.139 139.235 122.388C125.133 126.66 80.529 127.948 68.141 122.559C63.69 120.621 72.04 117.934 74.667 117.367C77.406 116.774 78.97 116.882 78.97 116.882C74.017 113.395 46.957 123.732 65.227 126.697C115.048 134.773 156.044 123.06 143.123 117.229ZM90.912 79.294C90.912 79.294 68.226 84.683 82.879 86.642C89.067 87.47 101.397 87.28 112.89 86.316C122.28 85.527 131.703 83.842 131.703 83.842C131.703 83.842 128.395 85.261 125.999 86.895C102.957 92.956 58.455 90.133 71.268 83.937C82.1 78.698 90.912 79.294 90.912 79.294ZM131.609 102.041C155.03 89.874 144.2 78.181 136.641 79.756C134.793 80.141 133.964 80.476 133.964 80.476C133.964 80.476 134.652 79.397 135.964 78.933C150.917 73.678 162.415 94.436 131.141 102.658C131.141 102.656 131.5 102.331 131.609 102.041Z" fill="#0074BD"/>
<path d="M117.491 10.587C117.491 10.587 130.459 23.563 105.188 43.51C84.922 59.516 100.567 68.64 105.181 79.069C93.35 68.396 84.672 58.999 90.493 50.254C99.041 37.42 122.722 31.195 117.491 10.587Z" fill="#EA2D2E"/>
<path d="M93.214 135.021C115.69 136.458 150.214 134.221 151.031 123.585C151.031 123.585 149.46 127.617 132.454 130.816C113.268 134.428 89.6 134.007 75.567 131.69C75.567 131.691 78.442 134.071 93.214 135.021Z" fill="#0074BD"/>
<path d="M188.296 99.3042C187.002 98.5474 186.514 97.6318 186.831 96.5576L188.369 91.5405C188.809 90.1001 189.956 89.9536 191.812 91.1011C193.398 92.1021 195.168 92.6025 197.122 92.6025C199.807 92.6025 201.553 91.6748 202.358 89.8193C203.188 87.9639 203.604 84.8755 203.604 80.5542V50.2319C203.604 48.4009 204.458 47.4854 206.167 47.4854H211.733C213.442 47.4854 214.297 48.4009 214.297 50.2319V79.8218C214.297 88.8062 212.783 94.6289 209.756 97.29C206.753 99.9268 202.578 101.245 197.231 101.245C193.496 101.245 190.518 100.598 188.296 99.3042ZM223.928 100C222.17 100 221.597 99.1943 222.207 97.583L240.151 50.4517C240.908 48.4741 242.056 47.4854 243.594 47.4854H248.721C250.259 47.4854 251.406 48.4741 252.163 50.4517L270.107 97.583C270.718 99.1943 270.144 100 268.386 100H262.563C260.952 100 259.829 99.1577 259.194 97.4731L255.459 87.6221H236.855L233.12 97.4731C232.485 99.1577 231.362 100 229.751 100H223.928ZM240.261 78.54H252.053L247.549 66.8945C247.012 65.5273 246.682 64.5386 246.56 63.9282C246.462 63.2935 246.353 62.3657 246.23 61.145H246.084C245.962 62.3657 245.84 63.2935 245.718 63.9282C245.62 64.5386 245.303 65.5273 244.766 66.8945L240.261 78.54ZM265.2 49.9023C264.59 48.291 265.164 47.4854 266.921 47.4854H272.744C274.38 47.4854 275.503 48.3276 276.113 50.0122L287.319 80.5908C287.881 82.1533 288.21 83.2031 288.308 83.7402C288.406 84.2529 288.516 85.1196 288.638 86.3403H288.784C288.906 85.1196 289.016 84.2529 289.114 83.7402C289.211 83.2031 289.541 82.1533 290.103 80.5908L301.309 50.0122C301.919 48.3276 303.042 47.4854 304.678 47.4854H310.5C312.258 47.4854 312.832 48.291 312.222 49.9023L294.717 97.0337C293.984 99.0112 292.837 100 291.274 100H286.147C284.585 100 283.438 99.0112 282.705 97.0337L265.2 49.9023ZM309.036 100C307.278 100 306.704 99.1943 307.314 97.583L325.259 50.4517C326.016 48.4741 327.163 47.4854 328.701 47.4854H333.828C335.366 47.4854 336.514 48.4741 337.271 50.4517L355.215 97.583C355.825 99.1943 355.251 100 353.494 100H347.671C346.06 100 344.937 99.1577 344.302 97.4731L340.566 87.6221H321.963L318.228 97.4731C317.593 99.1577 316.47 100 314.858 100H309.036ZM325.369 78.54H337.161L332.656 66.8945C332.119 65.5273 331.79 64.5386 331.667 63.9282C331.57 63.2935 331.46 62.3657 331.338 61.145H331.191C331.069 62.3657 330.947 63.2935 330.825 63.9282C330.728 64.5386 330.41 65.5273 329.873 66.8945L325.369 78.54Z" fill="white"/>
</svg>
