<svg width="519" height="145" viewBox="0 0 519 145" fill="none" xmlns="http://www.w3.org/2000/svg">
<rect x="1.5" y="1.5" width="516" height="142" rx="36.5" fill="#2A2734" stroke="white" stroke-width="3"/>
<g clip-path="url(#clip0_53_2)">
<path d="M149.893 72.68C149.893 98.04 129.794 118.598 105.001 118.598C80.207 118.598 60.108 98.04 60.108 72.68C60.108 47.32 80.208 26.76 105.001 26.76C129.794 26.76 149.893 47.32 149.893 72.68Z" fill="#D33833"/>
<path d="M61.938 84.052C61.938 84.052 58.688 36.167 102.81 34.8L99.732 29.67L75.789 37.707L68.949 45.574L62.963 57.033L59.543 70.372L60.568 79.265" fill="#EF3D3A"/>
<path d="M74.253 41.355C66.377 49.415 61.503 60.541 61.503 72.851C61.503 85.158 66.377 96.287 74.253 104.345C82.133 112.402 92.993 117.375 105 117.375C117.007 117.375 127.867 112.402 135.747 104.345C143.623 96.287 148.498 85.158 148.498 72.851C148.498 60.541 143.623 49.414 135.747 41.355C127.867 33.3 117.007 28.327 105 28.326C92.994 28.327 82.133 33.299 74.253 41.356V41.355ZM72.26 106.294C63.89 97.733 58.714 85.902 58.714 72.851C58.714 59.798 63.89 47.968 72.26 39.407C80.63 30.844 92.214 25.537 105 25.538C117.788 25.536 129.374 30.844 137.741 39.407C146.113 47.968 151.289 59.799 151.288 72.851C151.288 85.901 146.113 97.733 137.741 106.294C129.374 114.856 117.788 120.164 105.001 120.164C92.214 120.164 80.628 114.856 72.26 106.294Z" fill="#231F20"/>
<path d="M123.898 72.934L117.057 73.96L107.822 74.986L101.836 75.157L96.021 74.987L91.575 73.618L87.641 69.343L84.563 60.621L83.879 58.74L79.774 57.372L77.38 53.438L75.67 47.794L77.551 42.834L81.997 41.296L85.589 43.006L87.299 46.768L89.352 46.426L90.035 45.571L89.352 41.638L89.18 36.678L90.206 29.838L90.166 25.93L93.285 20.945L98.757 17.011L108.335 12.907L118.938 14.446L128.173 21.116L132.449 27.956L135.185 32.916L135.869 45.229L133.816 55.833L130.054 65.238L126.463 70.198" fill="#F0D6B7"/>
<path d="M129.027 67.975L124.924 72.08V87.984L121.344 102.644L119.623 102.691L120.99 119.109L127.488 118.254L125.95 102.52L123.048 102.599L130.911 102.177C130.911 102.177 134.843 92.258 134.843 91.745C134.843 91.232 138.265 77.38 138.265 77.38L130.567 69.343L129.028 67.973L129.027 67.975ZM87.812 70.539L83.537 72.25L69.855 81.656L70.711 84.393L74.645 96.021L76.354 115.348L77.551 117.398L94.652 123.215L95.68 122.015L93.627 107.65V103.547L118.082 102.52L119.962 101.494L105.086 94.482L107.822 89.182L103.889 90.549L102.349 88.668L100.297 79.775L98.586 79.262L94.824 78.064L91.574 75.158L87.812 70.539Z" fill="#335061"/>
<path d="M77.551 42.835L81.997 41.295L85.589 43.006L87.299 46.768L89.352 46.426L89.865 44.374L88.839 40.441L89.865 31.034L89.009 25.904L92.088 22.312L98.758 17.011L96.876 14.446L87.47 19.063L83.537 22.142L81.313 26.93L77.893 31.547L76.867 37.02L77.551 42.835Z" fill="#6D6B6D"/>
<path d="M100.445 15.021C99.273 15.009 97.902 15.129 97.902 15.129L86.787 19.406L82.51 23.682L80.629 27.102L84.563 26.76C84.563 26.76 87.128 20.432 97.389 17.354C103.802 15.43 102.399 15.042 100.445 15.021ZM89.01 25.904L79.604 28.127L76.867 37.02L77.551 42.834L79.431 41.639C79.431 41.639 75.84 29.665 89.521 27.955L89.01 25.904Z" fill="#DCD9D8"/>
<path d="M110.986 11.475C109.669 11.4984 108.366 11.7515 107.136 12.223C96.876 16.156 89.351 23.338 89.521 27.955C89.813 35.819 89.693 35.825 89.693 35.825C89.693 35.825 92.601 20.774 107.31 17.866C119.418 15.473 125.778 18.378 128.173 21.114C128.173 21.114 119.923 11.294 110.987 11.474L110.986 11.475ZM129.314 22.825C128.769 22.822 124.401 22.933 124.24 27.102C124.24 27.102 124.24 27.785 124.582 28.469C124.582 28.469 128.516 24.022 130.91 26.416L129.371 22.826C129.371 22.826 129.351 22.825 129.314 22.825ZM104.129 24.835C103.289 24.855 102.253 25.206 100.98 26.075C97.218 28.64 97.56 32.232 98.244 32.916C98.928 33.6 98.743 34.976 99.264 34.031C99.784 33.086 99.613 30.009 101.494 29.154C103.375 28.299 106.46 27.342 107.654 28.932C107.654 28.932 107.132 24.766 104.129 24.836V24.835ZM130.566 35.311C130.566 35.311 127.748 35.905 127.488 38.389C127.228 40.872 130.567 38.901 131.08 38.73L130.566 35.31V35.311ZM109.873 35.482C109.873 35.482 106.111 35.995 106.111 38.389C106.111 40.783 110.387 40.612 111.584 39.586L109.873 35.482ZM79.432 41.64L75.5 45.742L76.184 50.873L78.234 56.173L80.459 56.859C77.209 52.926 78.748 50.188 79.432 46.426C80.115 42.663 86.615 46.598 86.615 46.598L86.443 44.031L83.879 41.981L79.432 41.64ZM118.041 49.487C116.915 49.437 116.485 53.122 116.393 54.073C116.703 53.153 119.564 51.303 119.564 51.303C119.564 51.303 119.564 49.907 118.168 49.509C118.127 49.4967 118.084 49.4893 118.041 49.487ZM116.393 54.073C116.365 54.1432 116.358 54.2199 116.373 54.294C116.373 54.294 116.379 54.213 116.393 54.073ZM87.145 55.374L84.905 57.544L85.418 65.069L90.891 73.62C90.891 73.62 97.034 75.006 96.363 74.476C89.01 68.661 88.497 57.886 88.326 56.688C88.156 55.492 87.145 55.374 87.145 55.374ZM106.389 57.923C105.714 57.933 105.267 58.151 105.141 58.319C104.714 58.889 105.598 61.991 105.598 61.991L106.453 62.163C106.283 58.742 108.334 58.399 108.334 58.399C107.576 58.035 106.914 57.915 106.389 57.923Z" fill="#F7E4CD"/>
<path d="M86.615 70.37L69.855 81.656L71.736 86.959L76.184 106.111L76.354 116.203L78.748 117.057C82.168 108.847 75.5 82.34 75.5 82.34L91.574 75.158L86.615 70.37ZM93.229 89.818L92.771 90.891C92.771 90.891 92.43 93.969 92.43 94.824C92.43 95.68 92.771 102.864 92.771 102.864H95.508V92.601L93.228 89.817L93.229 89.818ZM93.285 104.402L85.59 104.744L87.812 106.284L93.285 107.139V104.402ZM129.027 67.975L125.779 71.566L137.75 80.46L138.092 76.356L129.027 67.976V67.975ZM125.607 101.495L119.623 102.691L120.477 107.481C122.7 108.507 126.463 105.77 126.463 105.77L125.607 101.495Z" fill="#49728B"/>
<path d="M91.574 73.62V75.158L93.748 77.553L100.588 80.631L100.76 75.502L96.021 74.986L91.574 73.62ZM141.633 97.904L136.16 99.615L130.91 102.178L128.121 101.668L125.949 102.521L127.781 116.889L134.449 115.006L147.105 114.322L148.986 108.508L145.566 98.418L141.633 97.904ZM119.623 102.691L109.653 102.693L93.627 103.547L93.918 111.416L95.68 122.016L99.22 136.385L107.086 138.094L120.084 137.068L120.254 134.502L118.714 120.65L119.623 102.691ZM120.94 101.325L117.177 91.748L113.243 86.104C113.243 86.104 114.098 83.71 115.296 83.71H119.229L122.991 85.078L122.65 91.406L120.94 101.325Z" fill="white"/>
<path d="M93.115 76.014L92.602 76.699L95.51 78.75L100.297 79.775L100.127 77.725C98.417 78.238 93.115 76.014 93.115 76.014ZM116.885 83.367L112.953 83.879L119.623 99.613L120.99 99.785L121.674 98.075C121.674 98.075 116.884 88.839 116.884 87.471C116.884 87.471 117.74 85.419 118.937 85.931C120.135 86.445 122.701 87.813 122.701 87.813V84.564L116.885 83.367ZM133.133 101.324L130.91 102.178L132.791 111.584C132.107 111.413 127.661 113.467 127.661 113.467L128.171 116.203L130.055 115.518L136.039 114.664L137.75 116.887L142.88 117.057L145.959 116.373L148.695 112.27L148.523 109.19L146.643 103.717C147.156 107.821 145.103 111.756 145.103 111.756C144.248 111.756 134.672 111.242 134.672 111.242C134.672 110.216 133.133 101.324 133.133 101.324ZM119.963 101.494L117.398 102.521C117.398 102.521 116.544 120.308 119.109 132.963C119.109 132.963 113.979 136.212 106.453 137.066L120.818 136.553L122.529 135.527L120.477 107.48L119.963 101.494ZM124.433 119.791C123.697 119.795 122.603 120.317 121.83 120.266C121.717 122.967 122.096 127.299 122.223 130.133C124.019 130.135 124.788 129.741 126.129 129.289C126.28 125.954 125.072 122.867 124.725 119.822C124.63 119.799 124.531 119.788 124.433 119.791Z" fill="#DCD9D8"/>
<path d="M125.777 74.8179C123.585 74.9199 120.629 77.7149 119.252 78.2049C119.43 78.7169 119.722 79.1219 119.744 79.7749C120.709 79.5369 121.884 79.6999 122.721 80.1109C121.753 80.2189 120.683 80.2129 120.043 80.6739C119.808 81.3509 120.098 82.2739 119.941 83.2139C122.237 83.8619 124.86 84.2079 127.761 84.2929C128.327 83.5599 128.519 82.1599 128.451 80.7749C128.371 79.1049 127.932 75.6709 126.901 75.0699C126.561 74.8729 126.183 74.7999 125.777 74.8179ZM103.242 75.5659C100.918 75.6159 101.16 79.6739 101.273 82.1579C101.368 84.2559 102.461 86.4759 102.933 87.8709C103.157 88.5209 103.207 89.2129 103.763 89.3409C104.747 89.5709 107.993 88.2739 108.918 87.7699C110.873 86.7039 112.391 85.0099 114.051 83.8729L114.113 82.2149C113.115 81.7169 111.963 81.3629 110.496 81.2989C111.491 80.7989 112.953 80.8059 113.859 80.2109L113.885 79.5489C112.231 79.4219 111.6 78.6849 110.51 78.0879C108.726 77.1139 106.046 76.0509 103.742 75.6109C103.577 75.5785 103.41 75.5634 103.242 75.5659ZM116.672 79.0229C116.23 79.0269 115.703 79.1939 115.102 79.5959C114.988 80.8549 115.282 81.2659 115.535 82.7109C119.028 83.8039 119.06 79.0069 116.672 79.0229Z" fill="#D33833"/>
<path d="M125.557 73.621L119.059 77.383L118.715 79.263V83.025L121.109 83.881C121.109 83.881 119.912 82.171 120.768 81.658C121.623 81.145 122.479 81.658 122.992 80.803C123.505 79.947 122.992 79.434 123.162 78.408C123.333 77.382 124.188 77.212 125.043 77.041C125.898 76.871 128.293 76.528 128.635 77.383L127.609 74.305L125.557 73.621ZM104.021 74.651C103.174 74.633 102.402 74.773 101.836 75.158C97.815 77.893 101.056 84.214 103.026 87.932C102.859 85.7946 102.68 83.6582 102.488 81.523C102.126 77.543 103.445 78.238 106.896 78.238C107.424 78.238 110.141 78.866 110.336 79.264C111.269 81.169 108.776 80.745 111.41 82.182C113.634 83.394 117.562 81.445 116.664 78.75C116.161 78.15 114.044 78.563 113.285 78.17L109.277 76.092C108.109 75.485 105.885 74.69 104.021 74.651ZM103.025 87.931C103.067 88.463 103.111 88.994 103.152 89.525L103.764 89.342C103.56 88.937 103.305 88.459 103.026 87.932L103.025 87.931Z" fill="#EF3D3A"/>
<path d="M108.565 11.006C104.975 11.074 101.464 11.671 98.538 12.748C96.363 13.548 94.256 14.264 92.346 15.386C87.235 18.386 81.809 20.394 80.294 26.433C76.56 28.105 75.434 32.884 75.622 38.43C75.658 39.511 76.245 40.862 76.042 41.879C75.938 42.395 75.238 43.056 75.098 43.392C73.308 47.659 74.743 53.268 76.811 56.301C78.061 58.133 80.131 59.758 82.861 60.189C82.97 61.824 83.363 63.231 84.118 64.888C84.596 65.936 86.381 67.82 85.724 69.157C85.394 69.831 82.487 71.294 81.523 71.873C78.268 73.825 75.909 75.022 72.904 77.185C70.96 78.585 67.919 78.765 68.399 81.993C68.722 84.171 69.962 86.871 70.671 89.055C71.439 91.412 72.539 93.571 73.171 96.017C74.576 101.468 74.869 106.604 75.211 111.928C75.345 114.013 75.123 116.219 75.664 117.37C76.222 118.56 78.29 118.94 79.784 119.634C84.099 121.629 88.677 124.676 94.336 124.071C95.685 128.607 96.96 133.438 98.579 137.411C104.382 139.497 113.543 139.171 119.576 138.446C121.41 138.224 123.345 137.319 123.776 135.729C123.647 134.749 123.504 133.779 123.566 132.62C125.452 132.23 128.019 131.908 128.434 129.82C129.016 126.892 126.585 122.697 127.396 119.484C128.488 119.13 129.654 118.853 129.48 117.129C131.32 116.171 133.503 115.957 135.833 116.047C136.133 116.627 136.56 117.185 136.944 117.504C140.208 118.16 143.369 118.214 146.079 117.33C149.146 116.328 150.609 110.055 149.908 107.07C149.41 104.955 148.284 101.49 147.324 99.442C144.723 93.882 136.971 97.372 132.822 99.434C134.835 94.139 136.566 88.649 138.342 82.709C138.872 80.929 139.92 78.406 139.685 76.562C139.465 74.828 136.761 73.006 135.338 71.632C134.547 70.87 130.859 68.07 130.645 67.022C130.438 66.008 132.149 63.711 132.699 62.562C133.489 60.918 134.055 58.906 134.444 57.537C137.344 47.341 137.639 33.333 133.493 24.951C131.923 21.776 127.533 17.391 124.788 15.314C120.74 12.254 114.546 10.894 108.565 11.006ZM109.043 13.846C113.89 13.799 119.28 15.509 122.93 17.568C125.98 19.288 128.23 22.616 130.376 25.385C127.367 24.492 124.806 26.027 125.273 28.509C127.792 26.2 132.095 28.484 133.368 31.037C134.585 33.477 134.577 37.094 134.764 40.722C135.217 49.52 133.154 58.597 128.733 64.956C127.551 66.654 126.559 68.51 124.897 69.679C120.891 72.492 114.802 75.042 109.588 73.293C102.698 70.981 99.568 66.39 95.778 61.133C95.881 64.021 97.912 66.391 99.918 68.6C101.663 70.525 103.769 72.7 106.035 73.598C104.145 73.154 101.243 73.015 100.455 74.712C96.045 74.419 91.947 73.968 89.861 70.979C88.217 68.623 86.547 64.616 85.798 61.521C85.645 60.885 85.383 59.531 85.447 59.184C85.693 57.841 88.085 57.251 87.144 55.374C85.408 55.358 85.017 56.954 83.424 57.112C79.299 57.52 76.389 51.645 76.576 48.1C76.735 45.086 79.283 42.202 82.768 42.583C85.231 42.853 86.068 45.541 86.546 47.933C87.966 48.009 90.017 47.872 90.689 46.764C90.592 44.061 89.337 41.893 89.423 39.409C89.585 34.741 92.128 30.529 90.166 25.931C92.266 21.167 98.427 17.407 102.984 15.134C104.749 14.254 106.84 13.87 109.044 13.848L109.043 13.846ZM96.505 16.192C96.703 16.224 96.885 16.378 97.061 16.566C97.031 17.377 96.231 17.36 95.691 17.62C94.851 18.653 93.623 19.136 92.601 20.268C91.552 21.428 90.379 24.544 88.989 24.888C88.292 25.062 87.496 24.768 86.889 24.808C85.284 24.909 84.154 25.731 82.526 25.967C84.628 21.372 91.185 17.654 96.3 16.205C96.3665 16.1856 96.4366 16.1811 96.505 16.192ZM105.245 26.165C102.608 26.168 99.605 28.987 98.822 31.138C98.504 32.012 98.002 33.728 99.263 34.033C100.676 30.884 102.992 27.848 107.653 28.933C108.548 27.462 106.948 26.381 105.766 26.203C105.593 26.1772 105.42 26.1645 105.245 26.165ZM88.589 26.645C90.391 31.231 87.296 36.681 88.449 41.696C88.802 43.232 90.023 45.616 88.073 45.668C88.124 41.298 82.703 38.525 78.618 41.094C78.345 37.78 77.872 33.121 80.132 30.635C82.217 28.339 85.091 26.91 88.589 26.645ZM130.365 34.242C130.216 36.759 131.151 38.274 131.8 40.054C130.678 40.76 128.495 40.32 127.23 40.873C127.14 44.596 132.99 42.761 133.88 40.688C132.55 38.756 131.639 36.438 130.585 34.251L130.365 34.241V34.242ZM110.04 34.299C109.348 36.263 111.228 39.597 112.282 41.283C110.909 42.616 108.44 41.509 106.603 41.423C104.85 44.192 110.026 44.713 112.247 44.057C112.855 43.878 113.907 42.967 114.052 42.557C114.669 40.824 113.425 40.064 112.785 39.44C111.365 38.056 111.039 36.13 110.04 34.299ZM120.589 36.109C120.455 36.091 120.294 36.139 120.101 36.279C119.976 40.895 123.406 44.716 125.964 47.799C127.214 49.304 128.72 50.164 127.333 52.502C125.097 53.352 121.478 55.787 118.369 55.255C116.719 54.973 117.091 53.1 116.499 52.082C115.361 53.579 115.807 55.844 116.979 56.862C122.458 57.404 126.187 55.068 129.531 52.919C129.398 52.077 130.543 50.559 130.225 49.293C130.115 48.857 129.123 48.225 128.521 47.566C126.068 44.891 122.707 40.894 121.371 37.768C121.251 37.488 121.17 36.186 120.589 36.109ZM81.609 44.744C80.342 44.724 79.194 45.559 78.923 47.527C79.485 47.159 79.938 46.112 80.951 46.61C80.061 48.347 80.275 51.73 81.486 52.83C81.479 50.768 81.158 47.243 82.916 47.35C84.147 47.424 84.396 50.06 85.444 50.658C86.167 47.18 83.722 44.776 81.609 44.744ZM131.66 55.104C128.987 56.324 126.83 58.101 123.338 58.436C123.169 59.013 123.241 60.469 123.334 61.426C127.901 61.331 130.104 58.067 131.66 55.104ZM109.776 57.025C111.111 60.598 117.129 61.858 122.219 61.604C122.211 60.546 122.216 59.474 122.004 58.606C118.044 58.722 112.689 58.556 109.776 57.025ZM109.223 59.883C106.65 59.886 108.82 61.317 109.256 61.877C110.158 63.037 111.216 65.016 112.864 65.892C115.462 67.272 120.622 66.693 122.494 65.932C123.186 65.652 123.744 64.875 124.001 64.219C118.161 64.359 111.238 64.941 109.223 59.883ZM128.659 69.713C130.659 71.324 131.867 72.84 133.785 74.563C134.825 75.496 136.873 76.614 137.08 78.123C137.195 78.965 136.679 81.028 136.489 81.975C135.649 86.129 133.759 91.617 131.959 95.97C131.305 97.552 130.679 99.53 129.816 99.872C127.452 100.808 124.583 99.781 122.574 101.032C125.274 96.347 128.214 91.921 130.86 87.18C130.457 86.24 129.469 85.839 129.182 84.792C131.04 81.283 130.186 70.389 125.444 72.689C126.107 71.715 127.848 70.911 128.659 69.713ZM86.935 72.193C87.366 72.023 90.512 76.116 90.977 76.448C93.527 78.258 96.693 79.688 99.654 81.101C99.835 82.46 100.254 84.221 100.992 86.577C101.805 89.179 102.476 92.851 105.914 90.975C105.587 92.461 103.677 93.383 104.204 95.116C104.534 96.203 108.144 97.546 109.288 98.192C111.399 99.382 113.325 100.04 114.947 100.736C107.577 100.938 100.656 101.538 93.845 102.465C93.029 101.201 93.358 99.253 93.272 97.24C93.178 95.054 94.087 90.126 93.228 89.82C92.257 89.475 92.075 91.443 92.04 91.877C91.858 94.185 93.139 99.072 91.876 101.835C90.494 101.444 89.813 100.405 88.518 99.933C88.01 101.533 89.57 101.61 89.41 102.626C89.198 103.969 86.653 102.846 86.667 104.843C88.324 105.109 90.866 104.328 92.637 105.075C93.1 110.508 93.844 115.656 94.659 121.427C87.611 121.061 83.049 117.559 77.854 115.13C77.531 103.64 75.7 91.72 71.166 81.99C75.922 78.32 81.244 74.438 86.936 72.194L86.935 72.193ZM126.017 74.819C126.333 74.834 126.63 74.913 126.901 75.071C127.933 75.673 128.372 79.107 128.452 80.777C128.519 82.162 128.326 83.56 127.762 84.294C124.86 84.209 122.238 83.864 119.942 83.216C120.099 82.276 119.807 81.351 120.042 80.673C120.681 80.213 121.753 80.221 122.72 80.113C121.884 79.701 120.71 79.538 119.745 79.776C119.722 79.122 119.429 78.718 119.252 78.206C120.679 77.697 123.806 74.71 126.017 74.819ZM120.817 74.946C119.599 75.74 118.562 76.733 117.393 77.581C114.8 77.71 113.385 77.402 111.48 75.913C111.51 75.793 111.702 75.847 111.71 75.7C114.485 76.937 118.015 75.196 120.817 74.946ZM93.47 74.995C94.917 76 97.717 75.752 99.848 76.126C99.958 76.809 99.406 77.706 99.416 78.657C97.623 78.547 91.989 76.497 93.47 74.995ZM103.242 75.568C103.397 75.564 103.563 75.579 103.742 75.613C106.046 76.053 108.726 77.115 110.51 78.09C111.6 78.686 112.231 79.422 113.885 79.55C113.878 79.77 113.868 79.99 113.86 80.212C112.954 80.807 111.491 80.8 110.497 81.3C111.963 81.364 113.117 81.717 114.115 82.215L114.05 83.874C112.389 85.011 110.872 86.704 108.917 87.77C107.992 88.274 104.747 89.572 103.764 89.342C103.207 89.213 103.157 88.522 102.934 87.872C102.461 86.477 101.37 84.258 101.274 82.16C101.161 79.675 100.918 75.615 103.242 75.568ZM116.536 79.031C116.673 79.02 116.803 79.024 116.926 79.042C119.052 79.355 118.898 83.764 115.534 82.712C115.281 81.268 114.988 80.856 115.101 79.597C115.643 79.236 116.123 79.064 116.536 79.031ZM118.472 84.045C119.69 84.175 120.654 85.855 122.392 85.745C122.113 90.277 122.259 94.825 120.994 98.977C118.637 94.655 117.25 89.437 114.199 85.76C114.521 85.418 114.809 85.039 115.125 84.689C116.507 85.267 117.409 83.931 118.472 84.045ZM125.48 85.487C127.158 85.474 128.532 86.571 129.287 87.784C126.923 91.834 124.661 95.992 121.857 99.564C123.032 96.106 123.536 90.319 123.714 85.907C124.265 85.6406 124.868 85.4973 125.48 85.487ZM112.71 87.03C115.51 90.584 117.214 95.155 119.09 99.567C114.658 98.231 110.13 96.063 106.246 93.865C107.008 90.561 109.996 88.849 112.71 87.03ZM142.221 98.758C143.438 98.788 144.647 99.776 145.176 100.577C146.132 102.021 147.025 106.272 147.526 108.529C148.273 111.888 146.594 115.158 143.923 115.806C141.979 116.278 138.997 116.403 137.724 115.788C139.282 114.937 141.623 114.932 143.426 114.348C140.843 113.236 137.021 114.284 133.915 114.09C133.54 110.255 133.257 106.097 132.348 103.07C134.161 101.143 138.541 100.68 141.028 99.089C141.383 98.86 141.799 98.7445 142.221 98.758ZM142.01 102.336C138.827 102.43 136.34 103.273 134.92 105.274C137.503 105.439 139.363 102.866 142.01 102.336ZM129.47 103.121C129.695 103.131 129.917 103.156 130.13 103.204C131.822 106.114 132.186 110.953 132.13 114.465C131.075 114.669 130.39 115.273 129.11 115.233C128.783 111.232 127.854 107.025 127.472 103.213C128.082 103.201 128.793 103.093 129.47 103.121ZM109.867 103.164C113.207 103.11 116.447 103.306 119.252 103.89C119.937 108.343 119.682 112.735 120.182 117.1C120.844 122.908 120.348 129.534 121.482 134.976C115.309 136.889 106.892 136.704 99.908 134.584C96.761 124.941 95.045 115.788 93.861 104.899C98.448 104.041 104.298 103.254 109.867 103.164ZM124.691 103.548C125.794 107.535 125.728 112.608 126.27 117.115C124.602 117.481 123.382 117.66 121.587 117.93C121.23 113.248 120.957 108.635 121.021 103.959C122.293 103.533 123.415 103.559 124.691 103.548ZM139.177 105.844C137.917 105.86 136.783 106.134 136.297 106.876C138.487 107.056 141.019 106.706 143.177 106.478C142.193 106.138 140.605 105.825 139.177 105.844ZM138.816 109.084C137.688 109.098 136.693 109.312 136.182 109.861C138.486 110.054 141.5 110.102 143.925 110.05C142.942 109.592 140.696 109.06 138.816 109.084ZM124.098 119.82C124.334 119.783 124.548 119.775 124.725 119.822C125.073 122.867 126.28 125.953 126.129 129.288C124.789 129.74 124.019 130.136 122.222 130.133C122.096 127.299 121.716 122.967 121.83 120.265C122.492 120.309 123.391 119.931 124.098 119.82Z" fill="#231F20"/>
<path d="M125.48 85.486C124.868 85.4962 124.265 85.6395 123.713 85.906C123.535 90.318 123.033 96.105 121.857 99.562C124.662 95.991 126.923 91.832 129.287 87.783C128.531 86.57 127.158 85.473 125.48 85.486ZM112.71 87.03C109.996 88.85 107.01 90.562 106.247 93.866C110.131 96.064 114.659 98.231 119.091 99.567C117.215 95.157 115.511 90.585 112.71 87.03Z" fill="#81B0C4"/>
<path d="M120.817 74.9449C119.599 75.7399 118.562 76.7319 117.393 77.5809C114.8 77.7089 113.385 77.4009 111.48 75.9119C111.511 75.7919 111.703 75.8459 111.71 75.6989C114.485 76.9359 118.014 75.1949 120.817 74.9449Z" fill="#F0D6B7"/>
<path d="M120.135 87.728C120.135 87.9774 120.036 88.2166 119.86 88.393C119.683 88.5694 119.444 88.6685 119.195 88.6685C118.945 88.6685 118.706 88.5694 118.529 88.393C118.353 88.2166 118.254 87.9774 118.254 87.728C118.254 87.4785 118.353 87.2393 118.529 87.0629C118.706 86.8866 118.945 86.7875 119.195 86.7875C119.444 86.7875 119.683 86.8866 119.86 87.0629C120.036 87.2393 120.135 87.4785 120.135 87.728ZM121.076 92.089C121.076 92.3385 120.977 92.5779 120.8 92.7544C120.624 92.9308 120.385 93.03 120.135 93.03C119.885 93.03 119.646 92.9308 119.47 92.7544C119.293 92.5779 119.194 92.3385 119.194 92.089C119.194 91.8394 119.293 91.6001 119.47 91.4236C119.646 91.2471 119.885 91.148 120.135 91.148C120.385 91.148 120.624 91.2471 120.8 91.4236C120.977 91.6001 121.076 91.8394 121.076 92.089Z" fill="#1D1919"/>
</g>
<path d="M188.296 99.3042C187.002 98.5474 186.514 97.6318 186.831 96.5576L188.369 91.5405C188.809 90.1001 189.956 89.9536 191.812 91.1011C193.398 92.1021 195.168 92.6025 197.122 92.6025C199.807 92.6025 201.553 91.6748 202.358 89.8193C203.188 87.9639 203.604 84.8755 203.604 80.5542V50.2319C203.604 48.4009 204.458 47.4854 206.167 47.4854H211.733C213.442 47.4854 214.297 48.4009 214.297 50.2319V79.8218C214.297 88.8062 212.783 94.6289 209.756 97.29C206.753 99.9268 202.578 101.245 197.231 101.245C193.496 101.245 190.518 100.598 188.296 99.3042ZM228.14 100C226.431 100 225.576 99.0845 225.576 97.2534V50.2319C225.576 48.4009 226.431 47.4854 228.14 47.4854H259.561C261.392 47.4854 262.307 48.2788 262.307 49.8657V54.187C262.307 55.7739 261.392 56.5674 259.561 56.5674H236.27V68.2129H257.62C259.451 68.2129 260.366 69.0063 260.366 70.5933V74.9146C260.366 76.5015 259.451 77.2949 257.62 77.2949H236.27V90.918H260.732C262.563 90.918 263.479 91.7114 263.479 93.2983V97.6196C263.479 99.2065 262.563 100 260.732 100H228.14ZM275.015 100C273.306 100 272.451 99.0845 272.451 97.2534V50.2319C272.451 48.4009 273.306 47.4854 275.015 47.4854H280.435C282.534 47.4854 284.121 48.3398 285.195 50.0488L303.872 80.0415H304.128C304.006 78.5767 303.945 77.1118 303.945 75.647V50.2319C303.945 48.4009 304.8 47.4854 306.509 47.4854H312.075C313.784 47.4854 314.639 48.4009 314.639 50.2319V97.2534C314.639 99.0845 313.784 100 312.075 100H307.021C304.922 100 303.335 99.1455 302.261 97.4365L283.218 66.8945H282.961C283.083 68.3594 283.145 69.8242 283.145 71.2891V97.2534C283.145 99.0845 282.29 100 280.581 100H275.015ZM328.921 100C327.212 100 326.357 99.0845 326.357 97.2534V50.2319C326.357 48.4009 327.212 47.4854 328.921 47.4854H334.487C336.196 47.4854 337.051 48.4009 337.051 50.2319V64.8071C337.051 66.272 336.99 67.7368 336.868 69.2017H337.124L354.922 49.646C356.24 48.2056 357.363 47.4854 358.291 47.4854H365.652C368.508 47.4854 368.972 48.5352 367.043 50.6348L350.381 68.8721L368.215 96.8506C369.558 98.9502 369.094 100 366.824 100H359.976C358.706 100 357.607 99.2798 356.68 97.8394L343.203 76.709L337.051 83.6304V97.2534C337.051 99.0845 336.196 100 334.487 100H328.921ZM378.799 100C377.09 100 376.235 99.0845 376.235 97.2534V50.2319C376.235 48.4009 377.09 47.4854 378.799 47.4854H384.365C386.074 47.4854 386.929 48.4009 386.929 50.2319V97.2534C386.929 99.0845 386.074 100 384.365 100H378.799ZM401.211 100C399.502 100 398.647 99.0845 398.647 97.2534V50.2319C398.647 48.4009 399.502 47.4854 401.211 47.4854H406.631C408.73 47.4854 410.317 48.3398 411.392 50.0488L430.068 80.0415H430.325C430.203 78.5767 430.142 77.1118 430.142 75.647V50.2319C430.142 48.4009 430.996 47.4854 432.705 47.4854H438.271C439.98 47.4854 440.835 48.4009 440.835 50.2319V97.2534C440.835 99.0845 439.98 100 438.271 100H433.218C431.118 100 429.531 99.1455 428.457 97.4365L409.414 66.8945H409.158C409.28 68.3594 409.341 69.8242 409.341 71.2891V97.2534C409.341 99.0845 408.486 100 406.777 100H401.211ZM453.176 96.0815C451.663 94.9341 451.296 93.7744 452.078 92.6025L454.897 88.3545C455.825 86.9629 457.18 86.8896 458.962 88.1348C460.33 89.0869 462.112 90.0757 464.309 91.1011C466.531 92.1021 468.862 92.6025 471.304 92.6025C473.013 92.6025 474.661 92.4072 476.248 92.0166C477.834 91.626 479.043 90.8691 479.873 89.7461C480.703 88.623 481.118 87.2925 481.118 85.7544C481.118 84.6558 480.935 83.6914 480.569 82.8613C480.203 82.0312 479.604 81.3477 478.774 80.8105C477.944 80.2734 477.09 79.8218 476.211 79.4556C474.673 78.8208 472.732 78.1982 470.388 77.5879C468.069 76.9531 465.774 76.1963 463.503 75.3174C461.477 74.5361 459.622 73.4619 457.937 72.0947C456.252 70.7275 454.946 69.1895 454.019 67.4805C453.091 65.7715 452.627 63.4888 452.627 60.6323C452.627 57.2388 453.726 54.3335 455.923 51.9165C458.12 49.4995 460.647 47.9492 463.503 47.2656C466.36 46.582 469.241 46.2402 472.146 46.2402C475.027 46.2402 477.993 46.6797 481.045 47.5586C484.121 48.4375 486.44 49.5361 488.003 50.8545C489.541 52.1484 489.919 53.3203 489.138 54.3701L486.172 58.3618C485.171 59.729 483.828 59.8389 482.144 58.6914C481.069 57.959 479.592 57.1411 477.712 56.2378C475.857 55.3345 473.916 54.8828 471.89 54.8828C470.449 54.8828 469.119 55.0049 467.898 55.249C466.702 55.4932 465.64 56.0791 464.712 57.0068C463.784 57.9346 463.32 59.082 463.32 60.4492C463.32 61.7676 463.662 62.8418 464.346 63.6719C465.029 64.4775 465.786 65.0879 466.616 65.5029C467.446 65.8936 468.289 66.2231 469.143 66.4917C471.78 67.3462 474.136 68.103 476.211 68.7622C478.286 69.397 480.203 70.105 481.96 70.8862C484.402 71.9849 486.27 73.0835 487.563 74.1821C488.857 75.2808 489.919 76.7822 490.75 78.6865C491.604 80.5908 492.031 82.8613 492.031 85.498C492.031 89.4043 490.786 92.6392 488.296 95.2026C485.806 97.7417 483.035 99.3774 479.983 100.11C476.956 100.867 474.001 101.245 471.121 101.245C466.873 101.245 463.418 100.83 460.757 100C458.096 99.1943 455.569 97.8882 453.176 96.0815Z" fill="white"/>
<defs>
<clipPath id="clip0_53_2">
<rect width="128" height="128" fill="white" transform="translate(41 11)"/>
</clipPath>
</defs>
</svg>
