<svg width="673" height="145" viewBox="0 0 673 145" fill="none" xmlns="http://www.w3.org/2000/svg">
<rect x="1.5" y="1.5" width="670" height="142" rx="36.5" fill="#2A2734" stroke="white" stroke-width="3"/>
<path d="M52 10V135H177V10H52ZM118.119 116.513C116.274 120.262 112.752 122.725 108.671 123.914C102.4 125.354 96.402 124.533 91.94 121.855C88.954 120.023 86.622 117.203 85.039 113.954L94.559 108.124C94.642 108.159 94.892 108.611 95.226 109.195C96.44 111.229 97.487 112.669 99.545 113.68C101.567 114.37 106.006 114.811 107.72 111.253C108.767 109.443 108.434 103.625 108.434 97.188C108.433 87.073 108.48 77 108.48 67H120.189C120.189 78 120.249 88.418 120.189 99.152C120.214 105.732 120.785 111.598 118.119 116.513ZM166.693 113.205C162.623 127.127 139.931 127.579 130.863 118.381C128.947 116.216 127.746 115.085 126.603 112.586C131.422 109.814 131.422 109.814 136.111 107.101C138.658 111.016 141.013 113.169 145.25 114.05C150.998 114.752 156.781 112.777 155.484 106.672C154.151 101.686 143.714 100.473 136.611 95.141C129.4 90.298 127.71 78.53 133.636 71.806C135.611 69.319 138.979 67.463 142.513 66.571L146.201 66.094C153.282 65.951 157.708 67.821 160.957 71.449C161.861 72.365 162.599 73.353 163.979 75.494C160.207 77.898 160.219 77.875 154.816 81.373C153.662 78.887 151.747 77.327 149.723 76.649C146.581 75.697 142.619 76.732 141.797 80.052C141.512 81.075 141.571 82.027 142.024 83.717C143.297 86.62 147.569 87.882 151.401 89.643C162.432 94.117 166.157 98.914 167.073 104.624C167.955 109.54 166.86 112.729 166.693 113.205Z" fill="#F0DB4F"/>
<path d="M205.296 98.3042C204.002 97.5474 203.514 96.6318 203.831 95.5576L205.369 90.5405C205.809 89.1001 206.956 88.9536 208.812 90.1011C210.398 91.1021 212.168 91.6025 214.122 91.6025C216.807 91.6025 218.553 90.6748 219.358 88.8193C220.188 86.9639 220.604 83.8755 220.604 79.5542V49.2319C220.604 47.4009 221.458 46.4854 223.167 46.4854H228.733C230.442 46.4854 231.297 47.4009 231.297 49.2319V78.8218C231.297 87.8062 229.783 93.6289 226.756 96.29C223.753 98.9268 219.578 100.245 214.231 100.245C210.496 100.245 207.518 99.5981 205.296 98.3042ZM240.928 99C239.17 99 238.597 98.1943 239.207 96.583L257.151 49.4517C257.908 47.4741 259.056 46.4854 260.594 46.4854H265.721C267.259 46.4854 268.406 47.4741 269.163 49.4517L287.107 96.583C287.718 98.1943 287.144 99 285.386 99H279.563C277.952 99 276.829 98.1577 276.194 96.4731L272.459 86.6221H253.855L250.12 96.4731C249.485 98.1577 248.362 99 246.751 99H240.928ZM257.261 77.54H269.053L264.549 65.8945C264.012 64.5273 263.682 63.5386 263.56 62.9282C263.462 62.2935 263.353 61.3657 263.23 60.145H263.084C262.962 61.3657 262.84 62.2935 262.718 62.9282C262.62 63.5386 262.303 64.5273 261.766 65.8945L257.261 77.54ZM282.2 48.9023C281.59 47.291 282.164 46.4854 283.921 46.4854H289.744C291.38 46.4854 292.503 47.3276 293.113 49.0122L304.319 79.5908C304.881 81.1533 305.21 82.2031 305.308 82.7402C305.406 83.2529 305.516 84.1196 305.638 85.3403H305.784C305.906 84.1196 306.016 83.2529 306.114 82.7402C306.211 82.2031 306.541 81.1533 307.103 79.5908L318.309 49.0122C318.919 47.3276 320.042 46.4854 321.678 46.4854H327.5C329.258 46.4854 329.832 47.291 329.222 48.9023L311.717 96.0337C310.984 98.0112 309.837 99 308.274 99H303.147C301.585 99 300.438 98.0112 299.705 96.0337L282.2 48.9023ZM326.036 99C324.278 99 323.704 98.1943 324.314 96.583L342.259 49.4517C343.016 47.4741 344.163 46.4854 345.701 46.4854H350.828C352.366 46.4854 353.514 47.4741 354.271 49.4517L372.215 96.583C372.825 98.1943 372.251 99 370.494 99H364.671C363.06 99 361.937 98.1577 361.302 96.4731L357.566 86.6221H338.963L335.228 96.4731C334.593 98.1577 333.47 99 331.858 99H326.036ZM342.369 77.54H354.161L349.656 65.8945C349.119 64.5273 348.79 63.5386 348.667 62.9282C348.57 62.2935 348.46 61.3657 348.338 60.145H348.191C348.069 61.3657 347.947 62.2935 347.825 62.9282C347.728 63.5386 347.41 64.5273 346.873 65.8945L342.369 77.54ZM379.356 95.0815C377.842 93.9341 377.476 92.7744 378.257 91.6025L381.077 87.3545C382.005 85.9629 383.36 85.8896 385.142 87.1348C386.509 88.0869 388.292 89.0757 390.489 90.1011C392.71 91.1021 395.042 91.6025 397.483 91.6025C399.192 91.6025 400.84 91.4072 402.427 91.0166C404.014 90.626 405.223 89.8691 406.053 88.7461C406.883 87.623 407.298 86.2925 407.298 84.7544C407.298 83.6558 407.115 82.6914 406.749 81.8613C406.382 81.0312 405.784 80.3477 404.954 79.8105C404.124 79.2734 403.27 78.8218 402.391 78.4556C400.853 77.8208 398.912 77.1982 396.568 76.5879C394.249 75.9531 391.954 75.1963 389.683 74.3174C387.657 73.5361 385.801 72.4619 384.117 71.0947C382.432 69.7275 381.126 68.1895 380.198 66.4805C379.271 64.7715 378.807 62.4888 378.807 59.6323C378.807 56.2388 379.905 53.3335 382.103 50.9165C384.3 48.4995 386.827 46.9492 389.683 46.2656C392.54 45.582 395.42 45.2402 398.326 45.2402C401.207 45.2402 404.173 45.6797 407.225 46.5586C410.301 47.4375 412.62 48.5361 414.183 49.8545C415.721 51.1484 416.099 52.3203 415.318 53.3701L412.352 57.3618C411.351 58.729 410.008 58.8389 408.323 57.6914C407.249 56.959 405.772 56.1411 403.892 55.2378C402.037 54.3345 400.096 53.8828 398.069 53.8828C396.629 53.8828 395.298 54.0049 394.078 54.249C392.881 54.4932 391.819 55.0791 390.892 56.0068C389.964 56.9346 389.5 58.082 389.5 59.4492C389.5 60.7676 389.842 61.8418 390.525 62.6719C391.209 63.4775 391.966 64.0879 392.796 64.5029C393.626 64.8936 394.468 65.2231 395.323 65.4917C397.959 66.3462 400.315 67.103 402.391 67.7622C404.466 68.397 406.382 69.105 408.14 69.8862C410.582 70.9849 412.449 72.0835 413.743 73.1821C415.037 74.2808 416.099 75.7822 416.929 77.6865C417.784 79.5908 418.211 81.8613 418.211 84.498C418.211 88.4043 416.966 91.6392 414.476 94.2026C411.985 96.7417 409.214 98.3774 406.163 99.1099C403.135 99.8667 400.181 100.245 397.3 100.245C393.052 100.245 389.598 99.8301 386.937 99C384.275 98.1943 381.749 96.8882 379.356 95.0815ZM423.924 72.7427C423.924 64.3198 426.06 57.6304 430.333 52.6743C434.605 47.7183 440.77 45.2402 448.826 45.2402C453.465 45.2402 457.396 45.9604 460.618 47.4009C463.841 48.8413 466.111 50.9287 467.43 53.6631C468.309 55.4697 468.162 56.6904 466.99 57.3252L462.596 59.6689C461.058 60.499 459.788 60.0352 458.787 58.2773C458.152 57.1543 456.968 56.1411 455.235 55.2378C453.526 54.3345 451.512 53.8828 449.192 53.8828C444.065 53.8828 440.477 55.5063 438.426 58.7534C436.375 61.9761 435.35 66.6392 435.35 72.7427C435.35 78.8462 436.375 83.5215 438.426 86.7686C440.477 89.9912 444.065 91.6025 449.192 91.6025C451.951 91.6025 454.271 90.98 456.15 89.7349C458.055 88.4897 459.373 87.3057 460.105 86.1826C461.302 84.3516 462.571 83.8877 463.914 84.791L468.309 87.7207C469.505 88.5264 469.627 89.7471 468.675 91.3828C467.259 93.8242 464.83 95.9116 461.387 97.645C457.945 99.3784 453.758 100.245 448.826 100.245C440.892 100.245 434.751 97.7671 430.406 92.811C426.084 87.855 423.924 81.1655 423.924 72.7427ZM481.126 99C479.417 99 478.562 98.0845 478.562 96.2534V49.2319C478.562 47.4009 479.417 46.4854 481.126 46.4854H498.082C505.625 46.4854 511.131 47.6572 514.598 50.001C518.064 52.3203 519.798 56.1045 519.798 61.3535C519.798 65.2598 518.394 68.3726 515.586 70.6919C512.779 73.0112 509.214 74.5493 504.893 75.3062V75.3794C507.237 76.2583 509.007 77.479 510.203 79.0415C511.399 80.604 512.376 81.9712 513.133 83.1431L521.189 95.8506C522.532 97.9502 522.068 99 519.798 99H513.426C512.083 99 510.984 98.2798 510.13 96.8394L502.732 84.498C501.927 83.1797 500.45 81.7393 498.301 80.1768C496.177 78.5898 494.065 77.7964 491.966 77.7964H489.256V96.2534C489.256 98.0845 488.401 99 486.692 99H481.126ZM489.256 68.7144H495.811C500.694 68.7144 504.161 68.165 506.211 67.0664C508.287 65.9434 509.324 64.1733 509.324 61.7563C509.324 59.1196 508.323 57.4106 506.321 56.6294C504.344 55.8237 501.426 55.4209 497.569 55.4209H489.256V68.7144ZM533.421 99C531.712 99 530.857 98.0845 530.857 96.2534V49.2319C530.857 47.4009 531.712 46.4854 533.421 46.4854H538.987C540.696 46.4854 541.551 47.4009 541.551 49.2319V96.2534C541.551 98.0845 540.696 99 538.987 99H533.421ZM555.833 99C554.124 99 553.27 98.0845 553.27 96.2534V49.2319C553.27 47.4009 554.124 46.4854 555.833 46.4854H569.529C578.318 46.4854 584.41 47.9136 587.803 50.77C591.221 53.6265 592.93 57.6792 592.93 62.9282C592.93 68.1772 591.221 72.23 587.803 75.0864C584.41 77.9429 578.318 79.3711 569.529 79.3711H563.963V96.2534C563.963 98.0845 563.108 99 561.399 99H555.833ZM563.963 70.4355H569.493C574.375 70.4355 577.696 69.8618 579.454 68.7144C581.211 67.5425 582.09 65.6138 582.09 62.9282C582.09 60.2427 581.211 58.3262 579.454 57.1787C577.696 56.0068 574.375 55.4209 569.493 55.4209H563.963V70.4355ZM600.035 55.8604C598.204 55.8604 597.288 55.0669 597.288 53.48V48.8657C597.288 47.2788 598.204 46.4854 600.035 46.4854H637.681C639.512 46.4854 640.428 47.2788 640.428 48.8657V53.48C640.428 55.0669 639.512 55.8604 637.681 55.8604H624.205V96.9858C624.205 98.3286 623.594 99 622.374 99H615.342C614.122 99 613.511 98.3286 613.511 96.9858V55.8604H600.035Z" fill="white"/>
</svg>
