<svg width="484" height="145" viewBox="0 0 484 145" fill="none" xmlns="http://www.w3.org/2000/svg">
<rect x="1.5" y="1.5" width="481" height="142" rx="36.5" fill="#2A2734" stroke="white" stroke-width="3"/>
<path d="M153.484 123.484H56.516V26.516H153.484L105 75L153.484 123.484Z" fill="url(#paint0_linear_53_2)"/>
<path d="M193.423 100C191.714 100 190.859 99.0845 190.859 97.2534V50.2319C190.859 48.4009 191.714 47.4854 193.423 47.4854H198.989C200.698 47.4854 201.553 48.4009 201.553 50.2319V64.8071C201.553 66.272 201.492 67.7368 201.37 69.2017H201.626L219.424 49.646C220.742 48.2056 221.865 47.4854 222.793 47.4854H230.154C233.01 47.4854 233.474 48.5352 231.545 50.6348L214.883 68.8721L232.717 96.8506C234.06 98.9502 233.596 100 231.326 100H224.478C223.208 100 222.109 99.2798 221.182 97.8394L207.705 76.709L201.553 83.6304V97.2534C201.553 99.0845 200.698 100 198.989 100H193.423ZM238.027 73.7427C238.027 65.3198 240.2 58.6304 244.546 53.6743C248.892 48.7183 255.093 46.2402 263.149 46.2402C271.206 46.2402 277.407 48.7183 281.753 53.6743C286.099 58.6304 288.271 65.3198 288.271 73.7427C288.271 82.1655 286.099 88.855 281.753 93.811C277.407 98.7671 271.206 101.245 263.149 101.245C255.093 101.245 248.892 98.7671 244.546 93.811C240.2 88.855 238.027 82.1655 238.027 73.7427ZM249.453 73.7427C249.453 79.8462 250.54 84.5215 252.712 87.7686C254.91 90.9912 258.389 92.6025 263.149 92.6025C267.91 92.6025 271.377 90.9912 273.55 87.7686C275.747 84.5215 276.846 79.8462 276.846 73.7427C276.846 67.6392 275.747 62.9761 273.55 59.7534C271.377 56.5063 267.91 54.8828 263.149 54.8828C258.389 54.8828 254.91 56.5063 252.712 59.7534C250.54 62.9761 249.453 67.6392 249.453 73.7427ZM295.413 56.8604C293.582 56.8604 292.666 56.0669 292.666 54.48V49.8657C292.666 48.2788 293.582 47.4854 295.413 47.4854H333.059C334.89 47.4854 335.806 48.2788 335.806 49.8657V54.48C335.806 56.0669 334.89 56.8604 333.059 56.8604H319.583V97.9858C319.583 99.3286 318.972 100 317.751 100H310.72C309.5 100 308.889 99.3286 308.889 97.9858V56.8604H295.413ZM345.474 100C343.765 100 342.91 99.0845 342.91 97.2534V50.2319C342.91 48.4009 343.765 47.4854 345.474 47.4854H351.406C352.871 47.4854 353.604 48.4009 353.604 50.2319V90.918H374.954C376.785 90.918 377.7 91.7114 377.7 93.2983V97.6196C377.7 99.2065 376.785 100 374.954 100H345.474ZM388.027 100C386.318 100 385.464 99.0845 385.464 97.2534V50.2319C385.464 48.4009 386.318 47.4854 388.027 47.4854H393.594C395.303 47.4854 396.157 48.4009 396.157 50.2319V97.2534C396.157 99.0845 395.303 100 393.594 100H388.027ZM410.439 100C408.73 100 407.876 99.0845 407.876 97.2534V50.2319C407.876 48.4009 408.73 47.4854 410.439 47.4854H415.859C417.959 47.4854 419.546 48.3398 420.62 50.0488L439.297 80.0415H439.553C439.431 78.5767 439.37 77.1118 439.37 75.647V50.2319C439.37 48.4009 440.225 47.4854 441.934 47.4854H447.5C449.209 47.4854 450.063 48.4009 450.063 50.2319V97.2534C450.063 99.0845 449.209 100 447.5 100H442.446C440.347 100 438.76 99.1455 437.686 97.4365L418.643 66.8945H418.386C418.508 68.3594 418.569 69.8242 418.569 71.2891V97.2534C418.569 99.0845 417.715 100 416.006 100H410.439Z" fill="white"/>
<defs>
<linearGradient id="paint0_linear_53_2" x1="153.485" y1="26.5146" x2="56.5152" y2="123.484" gradientUnits="userSpaceOnUse">
<stop offset="0.003" stop-color="#E44857"/>
<stop offset="0.469" stop-color="#C711E1"/>
<stop offset="1" stop-color="#7F52FF"/>
</linearGradient>
</defs>
</svg>
