<svg width="699" height="145" viewBox="0 0 699 145" fill="none" xmlns="http://www.w3.org/2000/svg">
<rect x="1.5" y="1.5" width="696" height="142" rx="36.5" fill="#2A2734" stroke="white" stroke-width="3"/>
<g clip-path="url(#clip0_53_2)">
<path d="M104.556 12.912C103.425 12.9694 102.316 13.2502 101.296 13.738L56.795 35C55.6433 35.55 54.6314 36.3504 53.8343 37.3415C53.0373 38.3326 52.4756 39.4891 52.191 40.725L41.214 88.485C40.9605 89.5852 40.9322 90.7247 41.1306 91.836C41.329 92.9473 41.7501 94.0079 42.369 94.955C42.5191 95.1867 42.6807 95.4109 42.853 95.627L73.653 133.923C74.4502 134.914 75.4623 135.714 76.6141 136.264C77.7659 136.814 79.0277 137.099 80.306 137.099L129.7 137.087C130.978 137.088 132.239 136.803 133.391 136.255C134.543 135.706 135.555 134.907 136.353 133.917L167.142 95.616C167.94 94.6246 168.502 93.4677 168.787 92.2312C169.071 90.9947 169.071 89.7105 168.787 88.474L157.791 40.714C157.507 39.4779 156.945 38.3212 156.148 37.3299C155.351 36.3386 154.339 35.5381 153.187 34.988L108.682 13.738C107.398 13.1243 105.979 12.8403 104.556 12.912Z" fill="#326CE5"/>
<path d="M104.975 29.1429V29.1529C103.503 29.1669 102.311 30.4889 102.311 32.1249C102.311 32.1529 102.316 32.1769 102.316 32.1989C102.314 32.4209 102.304 32.6889 102.311 32.8829C102.346 33.8289 102.551 34.5509 102.676 35.4179C102.846 36.8379 102.891 37.9649 102.9 39.1049L102.936 38.9409C102.92 38.142 102.881 37.3436 102.818 36.5469C102.957 37.7749 103.058 38.9109 103.004 39.9389C102.989 39.6139 102.943 39.2619 102.938 38.9569L102.902 39.1209C102.905 39.4679 102.998 39.9109 102.971 40.2439C102.91 40.5339 102.68 40.7389 102.504 40.9859L102.479 41.1069C102.652 40.8799 102.833 40.6629 102.939 40.4079C102.805 40.8309 102.519 41.2039 102.232 41.5019C102.312 41.3779 102.378 41.2399 102.472 41.1169L102.498 40.9969C102.353 41.1999 102.271 41.4539 102.113 41.6069L102.107 41.6129L102.043 42.7329C100.429 42.866 98.8257 43.112 97.2459 43.4689C90.5866 44.9742 84.5284 48.4336 79.8479 53.4039C79.5519 53.2019 79.0479 52.8439 78.8979 52.7319L78.8929 52.7269L78.8829 52.7289C78.4049 52.7929 77.9329 52.9359 77.3129 52.5759C76.1259 51.7759 75.0419 50.6689 73.7289 49.3359C73.1279 48.6989 72.6919 48.0899 71.9749 47.4749C71.8119 47.3339 71.5649 47.1449 71.3829 47.0019C70.851 46.5729 70.1956 46.3258 69.5129 46.2969C68.6879 46.2689 67.8929 46.5909 67.3729 47.2439C66.4479 48.4039 66.7449 50.1769 68.0309 51.2039L68.0709 51.2299C68.2449 51.3729 68.4609 51.5559 68.6229 51.6759C69.3849 52.2369 70.0799 52.5249 70.8329 52.9689C72.4269 53.9529 73.7429 54.7669 74.7889 55.7479C75.1909 56.1749 75.2629 56.9379 75.3189 57.2729V57.2809L76.1659 58.0349C71.6049 64.9089 69.4909 73.3949 70.7339 82.0409L69.6309 82.3649L69.6269 82.3709C69.3319 82.7519 68.9149 83.3429 68.4919 83.5179C67.1259 83.9479 65.5839 84.1059 63.7219 84.3009C62.8499 84.374 62.0959 84.332 61.1659 84.5079C60.9609 84.548 60.6759 84.6199 60.4529 84.6719L60.4299 84.6779L60.3899 84.6889C58.8099 85.0719 57.7899 86.5259 58.1199 87.9609C58.4469 89.3959 59.9929 90.2669 61.5839 89.924L61.6229 89.9179H61.6249C61.6449 89.9129 61.6629 89.9029 61.6749 89.8999C61.8949 89.8519 62.1709 89.799 62.3649 89.7459C63.2779 89.5009 63.9389 89.1429 64.7579 88.8299C66.5179 88.1979 67.9759 87.6699 69.3949 87.4649C69.9769 87.4189 70.5989 87.8269 70.9119 88.0019L70.9199 88.0059L72.0719 87.8089C74.7459 96.0829 80.3379 102.769 87.4179 106.971L86.9379 108.123L86.9409 108.133C87.1149 108.583 87.3049 109.19 87.1779 109.625C86.6619 110.961 85.7779 112.374 84.7699 113.951C84.2819 114.679 83.7799 115.246 83.3399 116.082C83.2329 116.283 83.0999 116.589 82.9979 116.799C82.3079 118.274 82.8139 119.976 84.1409 120.615C85.4759 121.258 87.1309 120.579 87.8479 119.102L87.8549 119.094V119.084C87.9549 118.877 88.0969 118.606 88.1839 118.41C88.5619 117.544 88.6889 116.803 88.9539 115.969H88.9509C89.6569 114.196 90.0449 112.342 91.0099 111.191C91.2699 110.881 91.6979 110.759 92.1459 110.639L92.1559 110.635L92.7559 109.551C100.655 112.589 109.397 112.611 117.312 109.613C117.484 109.916 117.79 110.478 117.875 110.623L117.879 110.629L117.887 110.633C118.345 110.782 118.835 110.856 119.237 111.449C119.959 112.686 120.455 114.152 121.059 115.924C121.324 116.756 121.456 117.499 121.834 118.365C121.921 118.565 122.064 118.84 122.164 119.049C122.879 120.531 124.539 121.212 125.877 120.569C127.203 119.929 127.709 118.229 127.02 116.754C126.918 116.544 126.777 116.236 126.672 116.035C126.231 115.199 125.729 114.638 125.242 113.91C124.232 112.333 123.399 111.025 122.882 109.688C122.669 109.003 122.918 108.584 123.088 108.133L123.094 108.119L123.084 108.109C123.048 108.057 123.017 108 122.994 107.941C122.951 107.845 122.911 107.749 122.874 107.651C122.794 107.441 122.714 107.209 122.65 107.055C130.008 102.705 135.436 95.77 137.99 87.7599C138.337 87.8139 138.92 87.915 139.11 87.9529L139.12 87.9549L139.129 87.9509C139.531 87.6859 139.889 87.3449 140.604 87.4019C142.023 87.6069 143.48 88.1359 145.242 88.7679C146.059 89.0799 146.721 89.445 147.635 89.6889C147.829 89.7409 148.105 89.7899 148.325 89.8379C148.337 89.8409 148.354 89.8499 148.375 89.8549H148.377L148.417 89.8589C150.007 90.1999 151.554 89.331 151.881 87.896C152.208 86.4609 151.19 85.0079 149.609 84.6269C149.382 84.5749 149.058 84.4859 148.834 84.4429C147.904 84.2669 147.151 84.3109 146.277 84.2379C144.417 84.0429 142.875 83.8849 141.507 83.4549C140.96 83.2419 140.565 82.5829 140.369 82.3069L140.363 82.3009L139.297 81.9909C139.866 77.8496 139.677 73.6392 138.737 69.5659C137.795 65.4518 136.106 61.5454 133.754 58.0409C134.032 57.7889 134.539 57.3399 134.686 57.2049L134.693 57.1989V57.1889C134.737 56.7089 134.699 56.2189 135.188 55.6949C136.233 54.7149 137.552 53.8979 139.145 52.9159C139.899 52.4719 140.599 52.1849 141.359 51.6229C141.533 51.4949 141.767 51.2949 141.947 51.1499C143.233 50.1239 143.531 48.3519 142.605 47.1909C141.68 46.0309 139.887 45.9239 138.602 46.9489C138.42 47.0939 138.172 47.2809 138.008 47.4219C137.291 48.0399 136.848 48.6479 136.248 49.2849C134.935 50.6199 133.85 51.7309 132.662 52.5309C132.155 52.8249 131.404 52.7239 131.059 52.7029H131.051L130.047 53.4219C124.272 47.3739 116.417 43.5059 107.957 42.7499C107.932 42.3588 107.911 41.9675 107.893 41.5759V41.5679L107.887 41.5619C107.537 41.2289 107.127 40.9519 107.023 40.2439V40.2419C106.908 38.8139 107.1 37.2749 107.323 35.4179C107.448 34.5509 107.655 33.8279 107.689 32.8829C107.698 32.6669 107.684 32.3559 107.684 32.1249C107.684 30.4799 106.481 29.1429 104.996 29.1429H104.975ZM69.7999 46.3769C69.9419 46.3969 70.0799 46.4249 70.2179 46.4629C70.0806 46.4249 69.941 46.3962 69.7999 46.3769ZM101.638 49.8519L100.851 63.7819L100.794 63.8109L100.792 63.8239C100.79 63.8739 100.778 63.9189 100.772 63.9669C100.74 64.2668 100.651 64.5578 100.509 64.8239C100.471 64.8939 100.433 64.9649 100.388 65.0309C100.206 65.2966 99.9709 65.5219 99.6979 65.6929C99.6279 65.7379 99.5509 65.7729 99.4759 65.8109C99.2022 65.942 98.9058 66.0187 98.6029 66.0369C98.5579 66.0399 98.5149 66.0509 98.4699 66.0509C98.4199 66.0509 98.3759 66.0289 98.3269 66.0249C97.9944 65.9923 97.6728 65.8886 97.3839 65.7209C97.3389 65.6949 97.2899 65.6799 97.2469 65.6519L97.2409 65.6739L97.2449 65.6519C97.2009 65.6249 97.1429 65.6359 97.1009 65.6049L97.0889 65.5949L97.0669 65.6089L85.6459 57.5119C85.7389 57.4209 85.8379 57.3379 85.9329 57.2479C86.9412 56.289 88.021 55.4081 89.1629 54.6129C89.3999 54.4479 89.6359 54.2809 89.8779 54.1229C91.093 53.3305 92.369 52.6356 93.6939 52.0449C93.9339 51.9379 94.1809 51.8409 94.4239 51.7399C95.7359 51.1987 97.088 50.76 98.4679 50.4279C98.5879 50.3979 98.7059 50.3609 98.8279 50.3339C99.4039 50.2039 99.9899 50.1279 100.573 50.0349L100.579 50.0099C100.58 50.0099 100.582 50.0099 100.583 50.0099L100.577 50.0349C100.932 49.9789 101.282 49.8949 101.638 49.8519ZM108.364 49.8539C108.561 49.8779 108.754 49.9219 108.95 49.9509C110.015 50.1079 111.07 50.327 112.11 50.6069C112.522 50.7179 112.93 50.8369 113.335 50.9669C114.368 51.2965 115.381 51.6865 116.368 52.1349C116.743 52.3049 117.113 52.4829 117.48 52.6699C118.455 53.1675 119.4 53.7224 120.31 54.3319C120.654 54.5619 120.99 54.8019 121.325 55.0489C122.197 55.6908 123.03 56.3834 123.821 57.1229C123.965 57.2569 124.118 57.3799 124.259 57.5179L112.913 65.5619L112.873 65.5469L112.863 65.5549C112.818 65.5869 112.769 65.5999 112.723 65.6289C112.454 65.7987 112.154 65.9124 111.841 65.9629C111.764 65.9749 111.688 65.9929 111.611 65.9959C111.272 66.0094 110.934 65.9494 110.621 65.8199C110.53 65.7832 110.441 65.7408 110.356 65.6929C110.064 65.5317 109.81 65.3101 109.61 65.0429C109.56 64.9739 109.522 64.8969 109.48 64.8229C109.326 64.5495 109.228 64.2479 109.192 63.9359C109.186 63.8809 109.166 63.8329 109.162 63.7769V63.7659L109.151 63.7599L108.364 49.8539ZM81.4599 62.7679L91.8899 72.0959L91.8779 72.1519L91.8879 72.1599C92.8279 72.9769 92.9579 74.3899 92.1809 75.3629C92.1529 75.3979 92.1129 75.4199 92.0829 75.4529C91.815 75.7501 91.4756 75.9738 91.0969 76.1029C91.0539 76.1179 91.0189 76.1459 90.9759 76.1579L90.9619 76.16L90.9499 76.2069L77.5829 80.0669C77.5629 79.8819 77.5629 79.6969 77.5459 79.5119C77.4472 78.4002 77.4165 77.2834 77.4539 76.1679C77.4669 75.7809 77.4869 75.3949 77.5169 75.0099C77.6019 73.8994 77.7546 72.795 77.9739 71.7029C78.0539 71.2959 78.1469 70.8909 78.2469 70.4879C78.5129 69.415 78.8435 68.359 79.2369 67.3259C79.3769 66.9559 79.5269 66.5919 79.6849 66.2289C80.127 65.2035 80.6312 64.2059 81.1949 63.2419C81.2849 63.0859 81.3649 62.9219 81.4599 62.7679ZM128.462 62.7749C128.559 62.9329 128.638 63.0989 128.732 63.2579C129.302 64.2293 129.813 65.2345 130.262 66.2679C130.412 66.6139 130.56 66.9619 130.696 67.3139C131.11 68.3873 131.458 69.4855 131.736 70.6019C131.781 70.7769 131.84 70.9479 131.88 71.1249C132.57 74.1269 132.74 77.124 132.458 80.021L119.024 76.1509L119.013 76.0939L118.999 76.0899C118.954 76.0779 118.915 76.0559 118.872 76.0409C118.581 75.9423 118.313 75.7877 118.082 75.5859C118.024 75.5339 117.966 75.4829 117.912 75.4259C117.693 75.188 117.526 74.9074 117.421 74.6019C117.394 74.5239 117.377 74.4439 117.358 74.3629C117.291 74.0703 117.281 73.7675 117.328 73.4709C117.337 73.4219 117.338 73.3749 117.348 73.3259C117.358 73.2809 117.386 73.2419 117.398 73.1969C117.51 72.8197 117.716 72.477 117.997 72.2009C118.031 72.1679 118.051 72.1249 118.087 72.0939L118.097 72.0839L118.091 72.0539L128.462 62.7749ZM137.69 66.0799C138.022 67.0449 138.309 68.0249 138.554 69.0179C138.31 68.0263 138.021 67.046 137.69 66.0799ZM102.866 72.8319H107.128L109.778 76.146L108.828 80.2789L104.998 82.1189L101.161 80.271L100.208 76.1389L102.866 72.8319ZM116.593 84.2269C116.773 84.2169 116.95 84.2349 117.126 84.2669L117.14 84.2699L117.163 84.2399L130.991 86.5779C130.927 86.7579 130.844 86.9289 130.776 87.1079C130.383 88.138 129.929 89.1435 129.416 90.1189C129.226 90.4819 129.03 90.8399 128.823 91.1929C128.262 92.1523 127.643 93.0766 126.97 93.9609C126.727 94.2809 126.478 94.5939 126.222 94.9019C125.509 95.7583 124.744 96.5705 123.932 97.3339C123.642 97.6079 123.344 97.8739 123.04 98.1339C122.201 98.8572 121.32 99.5291 120.4 100.146C120.24 100.253 120.09 100.371 119.929 100.475L114.564 87.5079L114.579 87.4859L114.575 87.4749C114.555 87.4299 114.549 87.3829 114.532 87.3379C114.43 87.0531 114.384 86.7512 114.397 86.4489C114.401 86.3679 114.403 86.2869 114.415 86.2069C114.464 85.8906 114.578 85.5878 114.749 85.3169C114.794 85.2449 114.847 85.1799 114.899 85.1129C115.087 84.8786 115.317 84.6824 115.579 84.535C115.622 84.511 115.658 84.4799 115.702 84.4589C115.991 84.3199 116.293 84.2409 116.593 84.2269ZM93.2829 84.2829L93.2959 84.285C93.3259 84.285 93.3559 84.2929 93.3879 84.2949C93.8304 84.3246 94.2554 84.4789 94.6139 84.7399C94.6839 84.7899 94.7469 84.841 94.8099 84.8979C95.1393 85.1943 95.3781 85.5777 95.4989 86.0039C95.5069 86.0339 95.5209 86.063 95.5289 86.0939C95.6389 86.5729 95.5939 87.0739 95.3989 87.5249L95.3939 87.5369L95.4339 87.5869L90.1239 100.424C89.9689 100.324 89.8239 100.212 89.6729 100.109C88.7533 99.4922 87.8717 98.8207 87.0329 98.0979C86.7301 97.8368 86.433 97.5691 86.1419 97.2949C85.337 96.5385 84.5783 95.7344 83.8699 94.8869C83.6099 94.575 83.3569 94.2579 83.1099 93.9359C82.4504 93.0713 81.8427 92.1684 81.2899 91.2319C81.0721 90.8626 80.863 90.4882 80.6629 90.1089C80.1569 89.1538 79.7074 88.1698 79.3169 87.1619C79.2469 86.9809 79.1629 86.8059 79.0969 86.6229L92.8039 84.2969L92.8269 84.327L92.8409 84.3219C92.9879 84.2949 93.1339 84.2819 93.2829 84.2829ZM95.5789 86.9799C95.5575 87.116 95.524 87.2498 95.4789 87.3799C95.5249 87.2499 95.5559 87.116 95.5789 86.9799ZM104.913 89.924C104.971 89.922 105.027 89.937 105.085 89.9389C105.343 89.9498 105.597 90.0035 105.837 90.0979C105.891 90.1189 105.949 90.1279 106.001 90.1539V90.1559C106.445 90.3666 106.81 90.7134 107.044 91.146L107.05 91.1579H107.103L113.86 103.371C113.584 103.463 113.303 103.544 113.024 103.627C112.694 103.725 112.362 103.818 112.028 103.904C111.745 103.978 111.464 104.054 111.178 104.119C111.054 104.148 110.928 104.165 110.802 104.191C109.425 104.485 108.028 104.672 106.622 104.752C106.342 104.768 106.064 104.787 105.784 104.795C104.34 104.834 102.896 104.759 101.464 104.572C101.184 104.536 100.904 104.487 100.626 104.442C99.2515 104.22 97.896 103.894 96.5709 103.467C96.4439 103.426 96.3139 103.395 96.1869 103.352L102.929 91.1639H102.939L102.946 91.1519C102.972 91.1039 103.011 91.0669 103.04 91.0219C103.199 90.7698 103.405 90.5502 103.646 90.3749C103.729 90.3149 103.814 90.2599 103.906 90.2109C104.17 90.0703 104.458 89.9814 104.756 89.9489C104.81 89.9439 104.859 89.9259 104.913 89.924Z" fill="white"/>
</g>
<path d="M193.423 100C191.714 100 190.859 99.0845 190.859 97.2534V50.2319C190.859 48.4009 191.714 47.4854 193.423 47.4854H198.989C200.698 47.4854 201.553 48.4009 201.553 50.2319V64.8071C201.553 66.272 201.492 67.7368 201.37 69.2017H201.626L219.424 49.646C220.742 48.2056 221.865 47.4854 222.793 47.4854H230.154C233.01 47.4854 233.474 48.5352 231.545 50.6348L214.883 68.8721L232.717 96.8506C234.06 98.9502 233.596 100 231.326 100H224.478C223.208 100 222.109 99.2798 221.182 97.8394L207.705 76.709L201.553 83.6304V97.2534C201.553 99.0845 200.698 100 198.989 100H193.423ZM240.737 78.1372V49.4995C240.737 48.1567 241.592 47.4854 243.301 47.4854H248.867C250.576 47.4854 251.431 48.1567 251.431 49.4995V77.771C251.431 84.3628 252.395 88.4888 254.324 90.1489C256.277 91.7847 258.474 92.6025 260.916 92.6025C263.357 92.6025 265.542 91.7847 267.471 90.1489C269.424 88.4888 270.4 84.3628 270.4 77.771V49.4995C270.4 48.1567 271.255 47.4854 272.964 47.4854H278.53C280.239 47.4854 281.094 48.1567 281.094 49.4995V78.1372C281.094 86.6821 279.287 92.6758 275.674 96.1182C272.061 99.5361 267.141 101.245 260.916 101.245C254.69 101.245 249.771 99.5361 246.157 96.1182C242.544 92.6758 240.737 86.6821 240.737 78.1372ZM295.742 100C293.789 100 292.812 99.0845 292.812 97.2534V50.2319C292.812 48.4009 293.789 47.4854 295.742 47.4854H308.193C317.568 47.4854 323.892 48.645 327.163 50.9644C330.459 53.2593 332.107 56.7993 332.107 61.5845C332.107 64.9292 330.874 67.5171 328.408 69.3481C325.967 71.1792 323.599 72.2412 321.304 72.5342V72.644C323.525 72.7905 326.138 73.9136 329.141 76.0132C332.144 78.1128 333.645 81.0791 333.645 84.9121C333.645 89.4043 331.814 93.042 328.152 95.8252C324.49 98.6084 318.447 100 310.024 100H295.742ZM303.506 91.0645H308.853C314.028 91.0645 317.544 90.6128 319.399 89.7095C321.279 88.8062 322.219 86.9751 322.219 84.2163C322.219 81.6284 321.133 79.8462 318.96 78.8696C316.812 77.8687 313.442 77.3682 308.853 77.3682H303.506V91.0645ZM303.506 68.7256H308.303C311.453 68.7256 314.395 68.1763 317.129 67.0776C319.888 65.979 321.267 64.27 321.267 61.9507C321.267 60.144 320.498 58.7769 318.96 57.8491C317.446 56.897 313.894 56.4209 308.303 56.4209H303.506V68.7256ZM345.913 100C344.204 100 343.35 99.0845 343.35 97.2534V50.2319C343.35 48.4009 344.204 47.4854 345.913 47.4854H377.334C379.165 47.4854 380.081 48.2788 380.081 49.8657V54.187C380.081 55.7739 379.165 56.5674 377.334 56.5674H354.043V68.2129H375.393C377.224 68.2129 378.14 69.0063 378.14 70.5933V74.9146C378.14 76.5015 377.224 77.2949 375.393 77.2949H354.043V90.918H378.506C380.337 90.918 381.252 91.7114 381.252 93.2983V97.6196C381.252 99.2065 380.337 100 378.506 100H345.913ZM392.788 100C391.079 100 390.225 99.0845 390.225 97.2534V50.2319C390.225 48.4009 391.079 47.4854 392.788 47.4854H409.744C417.288 47.4854 422.793 48.6572 426.26 51.001C429.727 53.3203 431.46 57.1045 431.46 62.3535C431.46 66.2598 430.056 69.3726 427.249 71.6919C424.441 74.0112 420.876 75.5493 416.555 76.3062V76.3794C418.899 77.2583 420.669 78.479 421.865 80.0415C423.062 81.604 424.038 82.9712 424.795 84.1431L432.852 96.8506C434.194 98.9502 433.73 100 431.46 100H425.088C423.745 100 422.646 99.2798 421.792 97.8394L414.395 85.498C413.589 84.1797 412.112 82.7393 409.963 81.1768C407.839 79.5898 405.728 78.7964 403.628 78.7964H400.918V97.2534C400.918 99.0845 400.063 100 398.354 100H392.788ZM400.918 69.7144H407.473C412.356 69.7144 415.823 69.165 417.874 68.0664C419.949 66.9434 420.986 65.1733 420.986 62.7563C420.986 60.1196 419.985 58.4106 417.983 57.6294C416.006 56.8237 413.088 56.4209 409.231 56.4209H400.918V69.7144ZM445.083 100C443.374 100 442.52 99.0845 442.52 97.2534V50.2319C442.52 48.4009 443.374 47.4854 445.083 47.4854H450.503C452.603 47.4854 454.189 48.3398 455.264 50.0488L473.94 80.0415H474.197C474.075 78.5767 474.014 77.1118 474.014 75.647V50.2319C474.014 48.4009 474.868 47.4854 476.577 47.4854H482.144C483.853 47.4854 484.707 48.4009 484.707 50.2319V97.2534C484.707 99.0845 483.853 100 482.144 100H477.09C474.99 100 473.403 99.1455 472.329 97.4365L453.286 66.8945H453.03C453.152 68.3594 453.213 69.8242 453.213 71.2891V97.2534C453.213 99.0845 452.358 100 450.649 100H445.083ZM498.989 100C497.28 100 496.426 99.0845 496.426 97.2534V50.2319C496.426 48.4009 497.28 47.4854 498.989 47.4854H530.41C532.241 47.4854 533.157 48.2788 533.157 49.8657V54.187C533.157 55.7739 532.241 56.5674 530.41 56.5674H507.119V68.2129H528.469C530.3 68.2129 531.216 69.0063 531.216 70.5933V74.9146C531.216 76.5015 530.3 77.2949 528.469 77.2949H507.119V90.918H531.582C533.413 90.918 534.329 91.7114 534.329 93.2983V97.6196C534.329 99.2065 533.413 100 531.582 100H498.989ZM541.433 56.8604C539.602 56.8604 538.687 56.0669 538.687 54.48V49.8657C538.687 48.2788 539.602 47.4854 541.433 47.4854H579.08C580.911 47.4854 581.826 48.2788 581.826 49.8657V54.48C581.826 56.0669 580.911 56.8604 579.08 56.8604H565.603V97.9858C565.603 99.3286 564.993 100 563.772 100H556.741C555.52 100 554.91 99.3286 554.91 97.9858V56.8604H541.433ZM591.494 100C589.785 100 588.931 99.0845 588.931 97.2534V50.2319C588.931 48.4009 589.785 47.4854 591.494 47.4854H622.915C624.746 47.4854 625.662 48.2788 625.662 49.8657V54.187C625.662 55.7739 624.746 56.5674 622.915 56.5674H599.624V68.2129H620.974C622.805 68.2129 623.721 69.0063 623.721 70.5933V74.9146C623.721 76.5015 622.805 77.2949 620.974 77.2949H599.624V90.918H624.087C625.918 90.918 626.833 91.7114 626.833 93.2983V97.6196C626.833 99.2065 625.918 100 624.087 100H591.494ZM636.428 96.0815C634.915 94.9341 634.548 93.7744 635.33 92.6025L638.149 88.3545C639.077 86.9629 640.432 86.8896 642.214 88.1348C643.582 89.0869 645.364 90.0757 647.561 91.1011C649.783 92.1021 652.114 92.6025 654.556 92.6025C656.265 92.6025 657.913 92.4072 659.5 92.0166C661.086 91.626 662.295 90.8691 663.125 89.7461C663.955 88.623 664.37 87.2925 664.37 85.7544C664.37 84.6558 664.187 83.6914 663.821 82.8613C663.455 82.0312 662.856 81.3477 662.026 80.8105C661.196 80.2734 660.342 79.8218 659.463 79.4556C657.925 78.8208 655.984 78.1982 653.64 77.5879C651.321 76.9531 649.026 76.1963 646.755 75.3174C644.729 74.5361 642.874 73.4619 641.189 72.0947C639.504 70.7275 638.198 69.1895 637.271 67.4805C636.343 65.7715 635.879 63.4888 635.879 60.6323C635.879 57.2388 636.978 54.3335 639.175 51.9165C641.372 49.4995 643.899 47.9492 646.755 47.2656C649.612 46.582 652.493 46.2402 655.398 46.2402C658.279 46.2402 661.245 46.6797 664.297 47.5586C667.373 48.4375 669.692 49.5361 671.255 50.8545C672.793 52.1484 673.171 53.3203 672.39 54.3701L669.424 58.3618C668.423 59.729 667.08 59.8389 665.396 58.6914C664.321 57.959 662.844 57.1411 660.964 56.2378C659.109 55.3345 657.168 54.8828 655.142 54.8828C653.701 54.8828 652.371 55.0049 651.15 55.249C649.954 55.4932 648.892 56.0791 647.964 57.0068C647.036 57.9346 646.572 59.082 646.572 60.4492C646.572 61.7676 646.914 62.8418 647.598 63.6719C648.281 64.4775 649.038 65.0879 649.868 65.5029C650.698 65.8936 651.541 66.2231 652.395 66.4917C655.032 67.3462 657.388 68.103 659.463 68.7622C661.538 69.397 663.455 70.105 665.212 70.8862C667.654 71.9849 669.521 73.0835 670.815 74.1821C672.109 75.2808 673.171 76.7822 674.001 78.6865C674.856 80.5908 675.283 82.8613 675.283 85.498C675.283 89.4043 674.038 92.6392 671.548 95.2026C669.058 97.7417 666.287 99.3774 663.235 100.11C660.208 100.867 657.253 101.245 654.373 101.245C650.125 101.245 646.67 100.83 644.009 100C641.348 99.1943 638.821 97.8882 636.428 96.0815Z" fill="white"/>
<defs>
<clipPath id="clip0_53_2">
<rect width="128" height="128" fill="white" transform="translate(41 11)"/>
</clipPath>
</defs>
</svg>
