<svg width="448" height="145" viewBox="0 0 448 145" fill="none" xmlns="http://www.w3.org/2000/svg">
<rect x="1.5" y="1.5" width="445" height="142" rx="36.5" fill="#2A2734" stroke="white" stroke-width="3"/>
<path d="M70.2 74H69C68.5 79.1 67.8 85.3 59 85.3H55C52.7 85.3 52.6 85 52.6 83.3V56.8C52.6 55.1 52.6 54.4 57.3 54.4H58.9V52.9C57 53 52.6 53 50.5 53C48.6 53 44.7 53 43 52.9V54.4H44.1C47.9 54.4 48 54.9 48 56.7V82.8C48 84.6 47.9 85.1 44.1 85.1H43V86.6H68.8L70.2 74Z" fill="#198F3A"/>
<path d="M69.3 52.8C69.1 52.2 69 52 68.4 52C67.8 52 67.6 52.2 67.4 52.8L59.4 73.1C59.1 73.9 58.5 75.5 55.4 75.5V76.7H63.1V75.5C61.6 75.5 60.6 74.8 60.6 73.8C60.6 73.6 60.6 73.5 60.7 73.1L62.4 68.8H72.3L74.3 73.9C74.4 74.1 74.5 74.3 74.5 74.5C74.5 75.5 72.6 75.5 71.7 75.5V76.7H81.5V75.5H80.8C78.5 75.5 78.2 75.2 77.9 74.2L69.3 52.8ZM67.4 56.4L71.8 67.7H62.9L67.4 56.4Z" fill="#198F3A"/>
<path d="M109.2 53.2H78.9L78 64.2999H79.2C79.9 56.2999 80.6 54.5999 88.2 54.5999C89.1 54.5999 90.4 54.6 90.9 54.7C91.9 54.9 91.9 55.3999 91.9 56.5999V82.6999C91.9 84.3999 91.9 85.0999 86.7 85.0999H84.7V86.5999C86.7 86.5 91.8 86.5 94.1 86.5C96.4 86.5 101.5 86.5 103.6 86.5999V85.0999H101.6C96.4 85.0999 96.4 84.3999 96.4 82.6999V56.7C96.4 55.7 96.4 54.9999 97.3 54.7999C97.8 54.6999 99.2 54.7 100.1 54.7C107.6 54.7 108.3 56.3 109 64.4H110.2L109.2 53.2Z" fill="#198F3A"/>
<path d="M135.9 85.1999H134.7C133.5 92.7999 132.3 96.5 123.8 96.5H117.2C114.9 96.5 114.8 96.2 114.8 94.5V81.1999H119.2C124 81.1999 124.6 82.7999 124.6 87H125.8V73.9H124.6C124.6 78.1 124.1 79.6999 119.2 79.6999H114.8V67.7C114.8 66.1 114.9 65.7 117.2 65.7H123.6C131.2 65.7 132.5 68.4 133.3 75.4H134.5L133.1 64.2H105.2V65.7H106.3C110.1 65.7 110.2 66.2 110.2 68V94C110.2 95.7999 110.1 96.3 106.3 96.3H105.2V98H133.8L135.9 85.1999Z" fill="#198F3A"/>
<path d="M150.9 67.6L157.7 57.6C158.7 56 160.4 54.4 164.9 54.4V52.9H153V54.4C155 54.4 156.1 55.5 156.1 56.7C156.1 57.2 156 57.3 155.7 57.8L150 66.2L143.6 56.6C143.5 56.5 143.3 56.1 143.3 55.9C143.3 55.3 144.4 54.5 146.5 54.4V52.9C144.8 53 141.2 53 139.3 53C137.8 53 134.7 53 132.8 52.9V54.4H133.7C136.4 54.4 137.4 54.7 138.3 56.1L147.4 69.9L139.3 81.9C138.6 82.9 137.1 85.2 132.1 85.2V86.7H144V85.2C141.7 85.2 140.9 83.8 140.9 82.9C140.9 82.5 141 82.3 141.4 81.7L148.4 71.3L156.3 83.2C156.4 83.4 156.5 83.6 156.5 83.7C156.5 84.3 155.4 85.1 153.3 85.2V86.7C155 86.6 158.7 86.6 160.5 86.6C162.6 86.6 164.9 86.6 167 86.7V85.2H166.1C163.5 85.2 162.5 85 161.4 83.4L150.9 67.6Z" fill="#198F3A"/>
<path d="M193.423 100C191.714 100 190.859 99.0845 190.859 97.2534V50.2319C190.859 48.4009 191.714 47.4854 193.423 47.4854H199.355C200.82 47.4854 201.553 48.4009 201.553 50.2319V90.918H222.903C224.734 90.918 225.649 91.7114 225.649 93.2983V97.6196C225.649 99.2065 224.734 100 222.903 100H193.423ZM231.765 100C230.007 100 229.434 99.1943 230.044 97.583L247.988 50.4517C248.745 48.4741 249.893 47.4854 251.431 47.4854H256.558C258.096 47.4854 259.243 48.4741 260 50.4517L277.944 97.583C278.555 99.1943 277.981 100 276.223 100H270.4C268.789 100 267.666 99.1577 267.031 97.4731L263.296 87.6221H244.692L240.957 97.4731C240.322 99.1577 239.199 100 237.588 100H231.765ZM248.098 78.54H259.89L255.386 66.8945C254.849 65.5273 254.519 64.5386 254.397 63.9282C254.299 63.2935 254.189 62.3657 254.067 61.145H253.921C253.799 62.3657 253.677 63.2935 253.555 63.9282C253.457 64.5386 253.14 65.5273 252.603 66.8945L248.098 78.54ZM276.223 56.8604C274.392 56.8604 273.477 56.0669 273.477 54.48V49.8657C273.477 48.2788 274.392 47.4854 276.223 47.4854H313.87C315.701 47.4854 316.616 48.2788 316.616 49.8657V54.48C316.616 56.0669 315.701 56.8604 313.87 56.8604H300.393V97.9858C300.393 99.3286 299.783 100 298.562 100H291.531C290.31 100 289.7 99.3286 289.7 97.9858V56.8604H276.223ZM326.284 100C324.575 100 323.721 99.0845 323.721 97.2534V50.2319C323.721 48.4009 324.575 47.4854 326.284 47.4854H357.705C359.536 47.4854 360.452 48.2788 360.452 49.8657V54.187C360.452 55.7739 359.536 56.5674 357.705 56.5674H334.414V68.2129H355.764C357.595 68.2129 358.511 69.0063 358.511 70.5933V74.9146C358.511 76.5015 357.595 77.2949 355.764 77.2949H334.414V90.918H358.877C360.708 90.918 361.624 91.7114 361.624 93.2983V97.6196C361.624 99.2065 360.708 100 358.877 100H326.284ZM370.815 100C368.472 100 368.008 98.9502 369.424 96.8506L385.647 72.9004L370.742 50.6348C369.326 48.5352 369.79 47.4854 372.134 47.4854H379.531C380.825 47.4854 381.924 48.2056 382.827 49.646L392.825 65.4663L402.822 49.646C403.726 48.2056 404.824 47.4854 406.118 47.4854H413.516C415.859 47.4854 416.323 48.5352 414.907 50.6348L399.966 72.9004L416.226 96.8506C417.642 98.9502 417.178 100 414.834 100H407.327C406.057 100 404.958 99.2798 404.031 97.8394L392.825 80.3345L381.619 97.8394C380.691 99.2798 379.592 100 378.323 100H370.815Z" fill="white"/>
</svg>
