<svg width="672" height="145" viewBox="0 0 672 145" fill="none" xmlns="http://www.w3.org/2000/svg">
<rect x="1.5" y="1.5" width="669" height="142" rx="36.5" fill="#2A2734" stroke="white" stroke-width="3"/>
<path d="M52.95 37.348C47.114 37.348 42.332 42.215 42.332 48.029V105.971C42.332 111.785 47.114 116.652 52.949 116.652H157.051C162.886 116.652 167.668 111.785 167.668 105.971V48.03C167.668 42.216 162.885 37.349 157.051 37.349H55.898L55.896 37.347L52.95 37.348ZM52.943 46.891H157.051C157.676 46.891 158.127 47.314 158.127 48.031V105.971C158.127 106.688 157.674 107.111 157.051 107.111H52.949C52.326 107.111 51.873 106.688 51.873 105.971V48.029C51.873 47.314 52.324 46.894 52.943 46.891Z" fill="white"/>
<path d="M61.721 97.1V56.9H73.42L85.117 71.68L96.81 56.9H108.506V97.1H96.81V74.044L85.116 88.824L73.418 74.044V97.1H61.721ZM134.825 97.1L117.28 77.591H128.977V56.9H140.675V77.59H152.373L134.825 97.1Z" fill="white"/>
<path d="M193.423 100C191.714 100 190.859 99.0845 190.859 97.2534V50.2319C190.859 48.4009 191.714 47.4854 193.423 47.4854H204.043C205.459 47.4854 206.472 48.4619 207.083 50.415L217.007 82.5317C217.446 83.9233 217.751 85.0708 217.922 85.9741C218.093 86.853 218.24 87.9028 218.362 89.1235H218.582C218.704 87.9028 218.85 86.853 219.021 85.9741C219.192 85.0708 219.497 83.9233 219.937 82.5317L229.861 50.415C230.471 48.4619 231.484 47.4854 232.9 47.4854H243.521C245.229 47.4854 246.084 48.4009 246.084 50.2319V97.2534C246.084 99.0845 245.229 100 243.521 100H237.954C236.245 100 235.391 99.0845 235.391 97.2534V67.0044C235.391 65.5396 235.452 64.0747 235.574 62.6099H235.317L224.734 97.0337C224.124 99.0112 223.074 100 221.584 100H215.359C213.87 100 212.82 99.0112 212.209 97.0337L201.626 62.6099H201.37C201.492 64.0747 201.553 65.5396 201.553 67.0044V97.2534C201.553 99.0845 200.698 100 198.989 100H193.423ZM256.155 100C254.397 100 253.823 99.1943 254.434 97.583L272.378 50.4517C273.135 48.4741 274.282 47.4854 275.82 47.4854H280.947C282.485 47.4854 283.633 48.4741 284.39 50.4517L302.334 97.583C302.944 99.1943 302.371 100 300.613 100H294.79C293.179 100 292.056 99.1577 291.421 97.4731L287.686 87.6221H269.082L265.347 97.4731C264.712 99.1577 263.589 100 261.978 100H256.155ZM272.488 78.54H284.28L279.775 66.8945C279.238 65.5273 278.909 64.5386 278.787 63.9282C278.689 63.2935 278.579 62.3657 278.457 61.145H278.311C278.188 62.3657 278.066 63.2935 277.944 63.9282C277.847 64.5386 277.529 65.5273 276.992 66.8945L272.488 78.54ZM311.416 100C309.707 100 308.853 99.0845 308.853 97.2534V50.2319C308.853 48.4009 309.707 47.4854 311.416 47.4854H328.372C335.916 47.4854 341.421 48.6572 344.888 51.001C348.354 53.3203 350.088 57.1045 350.088 62.3535C350.088 66.2598 348.684 69.3726 345.876 71.6919C343.069 74.0112 339.504 75.5493 335.183 76.3062V76.3794C337.527 77.2583 339.297 78.479 340.493 80.0415C341.689 81.604 342.666 82.9712 343.423 84.1431L351.479 96.8506C352.822 98.9502 352.358 100 350.088 100H343.716C342.373 100 341.274 99.2798 340.42 97.8394L333.022 85.498C332.217 84.1797 330.74 82.7393 328.591 81.1768C326.467 79.5898 324.355 78.7964 322.256 78.7964H319.546V97.2534C319.546 99.0845 318.691 100 316.982 100H311.416ZM319.546 69.7144H326.101C330.984 69.7144 334.451 69.165 336.501 68.0664C338.577 66.9434 339.614 65.1733 339.614 62.7563C339.614 60.1196 338.613 58.4106 336.611 57.6294C334.634 56.8237 331.716 56.4209 327.859 56.4209H319.546V69.7144ZM363.711 100C362.002 100 361.147 99.0845 361.147 97.2534V50.2319C361.147 48.4009 362.002 47.4854 363.711 47.4854H369.277C370.986 47.4854 371.841 48.4009 371.841 50.2319V64.8071C371.841 66.272 371.78 67.7368 371.658 69.2017H371.914L389.712 49.646C391.03 48.2056 392.153 47.4854 393.081 47.4854H400.442C403.298 47.4854 403.762 48.5352 401.833 50.6348L385.171 68.8721L403.005 96.8506C404.348 98.9502 403.884 100 401.614 100H394.766C393.496 100 392.397 99.2798 391.47 97.8394L377.993 76.709L371.841 83.6304V97.2534C371.841 99.0845 370.986 100 369.277 100H363.711ZM413.589 100C411.88 100 411.025 99.0845 411.025 97.2534V50.2319C411.025 48.4009 411.88 47.4854 413.589 47.4854H426.37C437.6 47.4854 445.193 49.7559 449.148 54.2969C453.127 58.8379 455.117 65.2954 455.117 73.6694C455.117 82.0435 453.127 88.5254 449.148 93.1152C445.193 97.7051 437.6 100 426.37 100H413.589ZM421.719 90.918H425.674C433.242 90.918 438.137 89.5142 440.359 86.7065C442.581 83.8745 443.691 79.5288 443.691 73.6694C443.691 67.8101 442.581 63.4888 440.359 60.7056C438.137 57.8979 433.242 56.4941 425.674 56.4941H421.719V90.918ZM461.416 73.7427C461.416 65.3198 463.589 58.6304 467.935 53.6743C472.28 48.7183 478.481 46.2402 486.538 46.2402C494.595 46.2402 500.796 48.7183 505.142 53.6743C509.487 58.6304 511.66 65.3198 511.66 73.7427C511.66 82.1655 509.487 88.855 505.142 93.811C500.796 98.7671 494.595 101.245 486.538 101.245C478.481 101.245 472.28 98.7671 467.935 93.811C463.589 88.855 461.416 82.1655 461.416 73.7427ZM472.842 73.7427C472.842 79.8462 473.928 84.5215 476.101 87.7686C478.298 90.9912 481.777 92.6025 486.538 92.6025C491.299 92.6025 494.766 90.9912 496.938 87.7686C499.136 84.5215 500.234 79.8462 500.234 73.7427C500.234 67.6392 499.136 62.9761 496.938 59.7534C494.766 56.5063 491.299 54.8828 486.538 54.8828C481.777 54.8828 478.298 56.5063 476.101 59.7534C473.928 62.9761 472.842 67.6392 472.842 73.7427ZM517.263 50.415C516.726 48.4619 517.288 47.4854 518.948 47.4854H525.723C526.87 47.4854 527.639 48.291 528.03 49.9023L534.988 78.6865C535.5 80.7861 535.83 82.2266 535.977 83.0078C536.147 83.7646 536.294 84.9976 536.416 86.7065H536.599C536.721 84.9976 536.843 83.7036 536.965 82.8247C537.087 81.9458 537.441 80.4932 538.027 78.4668L546.194 50.1953C546.707 48.3887 547.732 47.4854 549.27 47.4854H556.008C557.546 47.4854 558.572 48.3887 559.084 50.1953L567.251 78.4668C567.837 80.4932 568.191 81.9458 568.313 82.8247C568.435 83.7036 568.557 84.9976 568.679 86.7065H568.862C568.984 84.9976 569.119 83.7646 569.265 83.0078C569.436 82.2266 569.778 80.7861 570.291 78.6865L577.249 49.9023C577.639 48.291 578.408 47.4854 579.556 47.4854H586.331C587.991 47.4854 588.552 48.4619 588.015 50.415L575.564 96.4478C574.929 98.8159 573.782 100 572.122 100H565.713C564.297 100 563.259 98.8281 562.6 96.4844L553.811 65.7959C553.323 64.1357 553.042 63.0615 552.969 62.5732C552.896 62.0605 552.798 61.1206 552.676 59.7534H552.603C552.48 61.1206 552.383 62.0605 552.31 62.5732C552.236 63.0615 551.956 64.1357 551.467 65.7959L542.678 96.4844C542.019 98.8281 540.981 100 539.565 100H533.157C531.497 100 530.349 98.8159 529.714 96.4478L517.263 50.415ZM597.28 100C595.571 100 594.717 99.0845 594.717 97.2534V50.2319C594.717 48.4009 595.571 47.4854 597.28 47.4854H602.7C604.8 47.4854 606.387 48.3398 607.461 50.0488L626.138 80.0415H626.394C626.272 78.5767 626.211 77.1118 626.211 75.647V50.2319C626.211 48.4009 627.065 47.4854 628.774 47.4854H634.341C636.05 47.4854 636.904 48.4009 636.904 50.2319V97.2534C636.904 99.0845 636.05 100 634.341 100H629.287C627.188 100 625.601 99.1455 624.526 97.4365L605.483 66.8945H605.227C605.349 68.3594 605.41 69.8242 605.41 71.2891V97.2534C605.41 99.0845 604.556 100 602.847 100H597.28Z" fill="white"/>
</svg>
