<svg width="456" height="145" viewBox="0 0 456 145" fill="none" xmlns="http://www.w3.org/2000/svg">
<rect x="1.5" y="1.5" width="453" height="142" rx="36.5" fill="#2A2734" stroke="white" stroke-width="3"/>
<g clip-path="url(#clip0_53_2)">
<path d="M58.9019 20.133C57.87 23.5797 57.3324 27.1553 57.3049 30.753L63.0119 33.516C62.9061 30.1229 63.0391 26.7265 63.4099 23.352C63.4339 23.122 63.4569 22.984 63.4569 22.984C63.4569 23.109 63.4219 23.227 63.4099 23.352C63.1442 26.6889 63.1402 30.0415 63.3979 33.379C66.3555 30.8628 69.1784 28.1924 71.8549 25.379C71.2922 23.8819 70.44 22.5104 69.347 21.3427C68.254 20.1751 66.9417 19.2343 65.4849 18.574C65.4849 18.574 60.4299 16.535 58.9019 20.133Z" fill="url(#paint0_linear_53_2)"/>
<path d="M78.695 63.98C78.43 64.273 78.152 64.547 77.871 64.824C78.016 64.691 78.164 64.535 78.301 64.391C78.441 64.261 78.571 64.124 78.695 63.98Z" fill="#BE202E"/>
<mask id="mask0_53_2" style="mask-type:luminance" maskUnits="userSpaceOnUse" x="35" y="10" width="128" height="128">
<path d="M35 10H163V138H35V10Z" fill="black" fill-opacity="0.34902"/>
</mask>
<g mask="url(#mask0_53_2)">
<mask id="mask1_53_2" style="mask-type:luminance" maskUnits="userSpaceOnUse" x="35" y="10" width="128" height="128">
<path d="M35 10H163V138H35V10Z" fill="white"/>
</mask>
<g mask="url(#mask1_53_2)">
<path d="M78.695 63.98C78.43 64.273 78.152 64.547 77.871 64.824C78.016 64.691 78.164 64.535 78.301 64.391C78.441 64.261 78.571 64.124 78.695 63.98Z" fill="#BE202E"/>
</g>
</g>
<path d="M76.602 59.426C76.648 59.386 76.684 59.34 76.727 59.305C76.907 59.125 77.09 58.945 77.238 58.762C77.039 58.98 76.813 59.192 76.598 59.426H76.602Z" fill="#BE202E"/>
<mask id="mask2_53_2" style="mask-type:luminance" maskUnits="userSpaceOnUse" x="35" y="10" width="128" height="128">
<path d="M35 10H163V138H35V10Z" fill="black" fill-opacity="0.34902"/>
</mask>
<g mask="url(#mask2_53_2)">
<mask id="mask3_53_2" style="mask-type:luminance" maskUnits="userSpaceOnUse" x="35" y="10" width="128" height="128">
<path d="M35 10H163V138H35V10Z" fill="white"/>
</mask>
<g mask="url(#mask3_53_2)">
<path d="M76.602 59.426C76.648 59.386 76.684 59.34 76.727 59.305C76.907 59.125 77.09 58.945 77.238 58.762C77.039 58.98 76.813 59.192 76.598 59.426H76.602Z" fill="#BE202E"/>
</g>
</g>
<path d="M64.52 50.367C64.2573 48.5043 64.0173 46.6385 63.8 44.77C63.5783 42.897 63.4039 41.0188 63.277 39.137C63.277 39.023 63.257 38.91 63.277 38.812C63.1323 37.0485 63.0399 35.281 63 33.512L57.3 30.766C57.3 31.109 57.262 31.465 57.246 31.84C57.191 33.203 57.148 34.64 57.136 36.18C57.136 37.898 57.136 39.691 57.168 41.566C57.207 43.296 57.281 45.098 57.371 46.93C57.465 48.496 57.566 50.078 57.695 51.695V51.879L65.32 55.739C65.066 53.938 64.79 52.145 64.52 50.367Z" fill="url(#paint1_linear_53_2)"/>
<path d="M75.8 95.45C76.2 96.871 76.648 98.34 77.113 99.828V99.887C77.176 100.105 77.227 100.309 77.309 100.516C77.613 101.52 77.902 102.41 78.535 104.453C80.065 104.358 81.5885 104.723 82.91 105.5C81.8738 104.227 80.3779 103.413 78.746 103.234C80.9429 102.115 82.788 100.412 84.0778 98.3107C85.3675 96.2097 86.0518 93.7933 86.055 91.328C86.0104 90.8906 85.9477 90.4552 85.867 90.023C85.8213 90.9965 85.5124 91.9394 84.9732 92.7513C84.434 93.5631 83.6846 94.2134 82.805 94.633C84.653 91.8293 85.5108 88.4882 85.242 85.141C85.1775 84.3116 85.0784 83.4852 84.945 82.664C84.7222 84.7805 83.9509 86.8022 82.7075 88.5294C81.4641 90.2565 79.7914 91.6293 77.855 92.512L75.543 94.641C75.629 94.906 75.699 95.171 75.801 95.449L75.8 95.45Z" fill="url(#paint2_linear_53_2)"/>
<path d="M72.8129 88.941C72.3279 87.133 71.8429 85.297 71.3519 83.445C70.8875 81.6535 70.4368 79.8585 69.9999 78.06C69.5549 76.243 69.1289 74.415 68.7029 72.59C68.2809 70.763 67.8629 68.853 67.4729 66.99C67.0779 65.126 66.7109 63.267 66.3429 61.415C66.2109 60.743 66.0929 60.091 65.9729 59.415C65.7619 58.275 65.5699 57.122 65.3629 55.965C65.3597 55.901 65.3466 55.838 65.3239 55.778L57.7419 51.908C57.7619 52.028 57.7699 52.149 57.7729 52.274C57.9259 53.989 58.0699 55.731 58.2769 57.474C58.4799 59.212 58.6989 61.032 58.9649 62.837C59.1879 64.357 59.4299 65.864 59.6799 67.387C59.7299 67.688 59.7929 68.005 59.8439 68.302C60.5119 71.9522 61.3647 75.5662 62.3989 79.13C62.7269 80.231 63.0509 81.298 63.3829 82.306C63.6719 83.153 63.9839 84.005 64.2849 84.845C65.003 86.796 65.8034 88.7158 66.6839 90.599L74.3439 94.478C73.9449 93.068 73.5429 91.638 73.1439 90.185C73.0309 89.767 72.9299 89.359 72.8129 88.941Z" fill="url(#paint3_linear_53_2)"/>
<path d="M66.79 90.832C67.8279 93.0725 69.0045 95.246 70.313 97.34C70.355 97.402 70.398 97.492 70.445 97.555C68.5446 97.0353 66.5626 96.8826 64.605 97.105C68.1614 98.0931 71.4026 99.9823 74.015 102.59C72.7469 103.701 71.2152 104.469 69.566 104.82C71.2041 105.09 72.8839 104.941 74.449 104.387C72.9457 106.007 71.9184 108.01 71.48 110.176C72.5584 108.043 74.2329 106.269 76.3 105.07C78.602 112.695 81.367 120.96 84.438 129.633C84.914 129.016 85.047 128.203 84.797 127.469C84.23 125.91 80.578 115.598 76.414 101.598C76.297 101.195 76.191 100.797 76.059 100.395C76.023 100.281 75.996 100.18 75.961 100.059C75.5212 98.5511 75.0862 97.0417 74.656 95.531C74.559 95.171 74.457 94.836 74.359 94.473L66.699 90.593C66.723 90.676 66.75 90.753 66.789 90.832H66.79Z" fill="url(#paint4_linear_53_2)"/>
<path d="M66.223 55.902C66.27 56.16 66.316 56.387 66.359 56.648C66.508 57.406 66.641 58.176 66.797 58.949C66.957 59.793 67.133 60.652 67.301 61.535C67.383 61.98 67.469 62.425 67.562 62.879C67.84 64.239 68.141 65.633 68.449 67.066C68.848 68.832 69.246 70.645 69.691 72.531C70.094 74.316 70.562 76.176 71.035 78.066C71.496 79.871 71.961 81.719 72.473 83.633C72.922 85.324 73.403 87.063 73.891 88.832C73.891 88.914 73.949 89.008 73.965 89.094C74.4713 90.8996 74.9857 92.703 75.508 94.504C75.5117 94.545 75.5236 94.5848 75.543 94.621L77.855 92.492C77.797 92.492 77.754 92.543 77.675 92.574C80.8171 89.1196 82.7887 84.7616 83.309 80.121C83.5557 77.8094 83.5305 75.4768 83.234 73.171C82.9916 71.168 82.6212 69.1826 82.125 67.227C81.6337 65.2641 81.0666 63.321 80.425 61.402C79.9534 62.3274 79.3598 63.1854 78.66 63.953L78.262 64.391C78.129 64.539 77.98 64.668 77.832 64.824C79.6718 61.8261 80.2688 58.2285 79.496 54.797C78.9795 56.2464 78.2039 57.5899 77.207 58.762C77.055 58.945 76.875 59.125 76.695 59.305C76.648 59.34 76.613 59.387 76.551 59.438C77.1837 58.4203 77.6824 57.3253 78.035 56.18C78.105 55.957 78.165 55.73 78.207 55.5C78.289 55.152 78.344 54.8 78.395 54.45C78.415 54.215 78.453 54 78.473 53.766C78.5199 53.216 78.5199 52.663 78.473 52.113C78.473 51.93 78.473 51.766 78.43 51.593C78.383 51.336 78.352 51.098 78.305 50.863C78.1383 49.923 77.9389 48.9891 77.707 48.063C77.605 47.664 77.507 47.297 77.402 46.965C77.355 46.832 77.332 46.703 77.285 46.562C77.16 46.199 77.059 45.863 76.949 45.586C76.8252 45.2559 76.6843 44.9325 76.527 44.617C76.4886 44.7752 76.4322 44.9286 76.359 45.074C75.6884 46.4451 74.8127 47.7059 73.762 48.813L75.891 46.863L73.746 48.801C73.7282 48.8124 73.7156 48.8304 73.711 48.851C73.6007 48.9615 73.4962 49.0776 73.398 49.199C73.398 49.172 73.438 49.149 73.441 49.125L66.161 55.785C66.219 55.835 66.227 55.875 66.223 55.902Z" fill="url(#paint5_linear_53_2)"/>
<path d="M63.3979 33.379C63.4879 34.98 63.6279 36.773 63.8009 38.758C63.8049 38.859 63.8159 38.965 63.8359 39.066C63.9999 40.801 64.2109 42.668 64.4839 44.703C64.7139 46.461 64.9729 48.305 65.2849 50.305C65.5429 52.035 65.8629 53.848 66.1909 55.773L73.4729 49.105C74.71 47.1328 75.3452 44.8427 75.3009 42.515C75.3009 41.945 75.2579 41.344 75.2109 40.727C75.0976 38.8085 74.8864 36.897 74.5779 35C74.3094 33.266 73.9482 31.5475 73.4959 29.852C73.2598 28.9676 72.9809 28.0953 72.6599 27.238C72.4118 26.626 72.145 26.0217 71.8599 25.426C69.1745 28.2173 66.3502 30.8716 63.3979 33.379Z" fill="url(#paint6_linear_53_2)"/>
<path d="M78.309 64.398C78.176 64.547 78.027 64.676 77.879 64.832C78.0145 64.6797 78.158 64.5349 78.309 64.398Z" fill="#BE202E"/>
<mask id="mask4_53_2" style="mask-type:luminance" maskUnits="userSpaceOnUse" x="35" y="10" width="128" height="128">
<path d="M35 10H163V138H35V10Z" fill="black" fill-opacity="0.34902"/>
</mask>
<g mask="url(#mask4_53_2)">
<mask id="mask5_53_2" style="mask-type:luminance" maskUnits="userSpaceOnUse" x="35" y="10" width="128" height="128">
<path d="M35 10H163V138H35V10Z" fill="white"/>
</mask>
<g mask="url(#mask5_53_2)">
<path d="M78.309 64.398C78.176 64.547 78.027 64.676 77.879 64.832C78.0145 64.6797 78.158 64.5349 78.309 64.398Z" fill="#BE202E"/>
</g>
</g>
<path d="M78.309 64.398C78.176 64.547 78.027 64.676 77.879 64.832C78.0145 64.6797 78.158 64.5349 78.309 64.398Z" fill="url(#paint7_linear_53_2)"/>
<path d="M76.6021 59.438C76.6481 59.398 76.6841 59.352 76.7421 59.305C76.6951 59.34 76.6601 59.387 76.6021 59.438Z" fill="#BE202E"/>
<mask id="mask6_53_2" style="mask-type:luminance" maskUnits="userSpaceOnUse" x="35" y="10" width="128" height="128">
<path d="M35 10H163V138H35V10Z" fill="black" fill-opacity="0.34902"/>
</mask>
<g mask="url(#mask6_53_2)">
<mask id="mask7_53_2" style="mask-type:luminance" maskUnits="userSpaceOnUse" x="35" y="10" width="128" height="128">
<path d="M35 10H163V138H35V10Z" fill="white"/>
</mask>
<g mask="url(#mask7_53_2)">
<path d="M76.6021 59.438C76.6481 59.398 76.6841 59.352 76.7421 59.305C76.6951 59.34 76.6601 59.387 76.6021 59.438Z" fill="#BE202E"/>
</g>
</g>
<path d="M76.6021 59.438C76.6481 59.398 76.6841 59.352 76.7421 59.305C76.6951 59.34 76.6601 59.387 76.6021 59.438Z" fill="url(#paint8_linear_53_2)"/>
<path d="M133.508 21.563C129.945 23.5232 126.677 25.9771 123.801 28.852L126.199 35.613C128.809 32.7955 131.617 30.1687 134.602 27.753C134.805 27.586 134.93 27.488 134.93 27.488C134.824 27.586 134.703 27.655 134.602 27.753C131.727 30.2209 129.052 32.9136 126.602 35.804C130.977 36.129 135.367 36.227 139.754 36.094C140.493 34.4389 140.898 32.6544 140.946 30.8425C140.995 29.0306 140.685 27.227 140.035 25.535C140.035 25.535 137.59 19.88 133.508 21.563Z" fill="url(#paint9_linear_53_2)"/>
<path d="M114.602 72.586C114.152 72.609 113.707 72.609 113.266 72.609H113.953C114.168 72.613 114.383 72.605 114.602 72.586Z" fill="#BE202E"/>
<mask id="mask8_53_2" style="mask-type:luminance" maskUnits="userSpaceOnUse" x="35" y="10" width="128" height="128">
<path d="M35 10H163V138H35V10Z" fill="black" fill-opacity="0.34902"/>
</mask>
<g mask="url(#mask8_53_2)">
<mask id="mask9_53_2" style="mask-type:luminance" maskUnits="userSpaceOnUse" x="35" y="10" width="128" height="128">
<path d="M35 10H163V138H35V10Z" fill="white"/>
</mask>
<g mask="url(#mask9_53_2)">
<path d="M114.602 72.586C114.152 72.609 113.707 72.609 113.266 72.609H113.953C114.168 72.613 114.383 72.605 114.602 72.586Z" fill="#BE202E"/>
</g>
</g>
<path d="M116.535 67.258H116.735C117.023 67.258 117.313 67.258 117.585 67.223C117.246 67.223 116.895 67.223 116.539 67.246L116.535 67.258Z" fill="#BE202E"/>
<mask id="mask10_53_2" style="mask-type:luminance" maskUnits="userSpaceOnUse" x="35" y="10" width="128" height="128">
<path d="M35 10H163V138H35V10Z" fill="black" fill-opacity="0.34902"/>
</mask>
<g mask="url(#mask10_53_2)">
<mask id="mask11_53_2" style="mask-type:luminance" maskUnits="userSpaceOnUse" x="35" y="10" width="128" height="128">
<path d="M35 10H163V138H35V10Z" fill="white"/>
</mask>
<g mask="url(#mask11_53_2)">
<path d="M116.535 67.258H116.735C117.023 67.258 117.313 67.258 117.585 67.223C117.246 67.223 116.895 67.223 116.539 67.246L116.535 67.258Z" fill="#BE202E"/>
</g>
</g>
<path d="M114.004 50.363C115.277 48.6548 116.568 46.9593 117.875 45.277C119.188 43.5964 120.54 41.9462 121.93 40.328C122.008 40.227 122.094 40.133 122.168 40.051C123.468 38.5333 124.802 37.0446 126.168 35.586L123.77 28.844C123.484 29.114 123.18 29.379 122.871 29.664C121.672 30.7768 120.494 31.911 119.336 33.066C117.897 34.5024 116.477 35.9586 115.078 37.434C113.694 38.9059 112.331 40.3967 110.988 41.906C109.798 43.2598 108.622 44.6258 107.461 46.004L107.324 46.16L110.391 55.324C111.613 53.672 112.809 51.999 114.004 50.363Z" fill="url(#paint10_linear_53_2)"/>
<path d="M87.254 95.602C86.454 97.078 85.652 98.602 84.832 100.168C84.832 100.188 84.805 100.207 84.801 100.227C84.68 100.457 84.559 100.66 84.461 100.887C83.906 101.937 83.438 102.887 82.324 105.031C83.631 106.171 84.5682 107.675 85.016 109.351C85.1906 107.504 84.6337 105.663 83.465 104.223C89.695 105.426 95.355 104.625 98.809 100.445C99.109 100.066 99.406 99.668 99.691 99.242C98.8805 99.9894 97.8822 100.503 96.8028 100.727C95.7233 100.951 94.6032 100.878 93.562 100.516C97.2785 99.7238 100.624 97.7122 103.066 94.801C103.671 94.0791 104.247 93.3335 104.793 92.566C102.933 94.0943 100.706 95.1103 98.3328 95.5132C95.9595 95.9161 93.522 95.6919 91.262 94.863L87.707 94.738C87.555 95.043 87.398 95.313 87.254 95.602Z" fill="url(#paint11_linear_53_2)"/>
<path d="M90.0311 88C91.0781 86.156 92.1481 84.297 93.2311 82.398C94.2796 80.5848 95.3473 78.7826 96.4341 76.992C97.5311 75.184 98.6291 73.367 99.7341 71.555C100.87 69.7084 102.026 67.875 103.204 66.055C104.379 64.23 105.551 62.457 106.719 60.672C107.144 60.0283 107.577 59.3902 108.019 58.758C108.758 57.668 109.516 56.578 110.273 55.496C110.305 55.437 110.355 55.375 110.387 55.312L107.359 46.176C107.278 46.2873 107.19 46.3929 107.094 46.492C105.852 47.996 104.59 49.516 103.355 51.09C102.125 52.66 100.867 54.29 99.6481 55.957C98.6212 57.357 97.6082 58.7671 96.6091 60.187C96.4101 60.469 96.2071 60.773 96.0161 61.055C94.8161 62.852 93.6521 64.613 92.6291 66.305C91.5259 68.1086 90.4735 69.9426 89.4731 71.805C88.8792 72.9102 88.3008 74.0236 87.7381 75.145C87.2971 76.055 86.8711 76.988 86.4491 77.902C85.4781 80.043 84.596 82.2232 83.8051 84.437L86.8871 93.637C87.6871 92.176 88.5121 90.723 89.3321 89.234C89.5511 88.84 89.8011 88.434 90.0321 88H90.0311Z" fill="url(#paint12_linear_53_2)"/>
<path d="M83.68 84.742C82.7372 87.3722 81.9583 90.0584 81.348 92.785C81.348 92.871 81.297 92.977 81.285 93.063C80.168 91.1342 78.6937 89.4359 76.941 88.059C79.0164 91.682 80.1252 95.7778 80.161 99.953C78.2561 99.8395 76.4121 99.2397 74.805 98.211C75.9065 99.7304 77.3757 100.945 79.075 101.742C76.5795 101.853 74.1629 102.649 72.09 104.043C74.6518 103.184 77.4081 103.09 80.023 103.77C75.801 111.727 71.48 120.578 67.059 130C67.4872 129.943 67.8943 129.779 68.2436 129.525C68.5928 129.27 68.873 128.933 69.059 128.543C69.859 126.84 75.102 115.641 82.871 101.055C83.09 100.656 83.324 100.235 83.543 99.801L83.727 99.453C84.551 97.933 85.398 96.371 86.277 94.773C86.484 94.403 86.676 94.051 86.879 93.683V93.664L83.797 84.464C83.75 84.554 83.711 84.648 83.68 84.742Z" fill="url(#paint13_linear_53_2)"/>
<path d="M110.977 56.176C110.809 56.414 110.664 56.641 110.497 56.879C110.012 57.609 109.507 58.332 109.02 59.079C108.475 59.9106 107.924 60.7383 107.367 61.562C107.086 61.988 106.801 62.41 106.512 62.855C105.652 64.172 104.789 65.531 103.895 66.93C102.765 68.7142 101.652 70.5086 100.555 72.313C99.4376 74.1469 98.3319 75.988 97.238 77.836C96.176 79.652 95.086 81.512 93.977 83.438C92.992 85.156 92 86.938 90.977 88.762C90.922 88.84 90.883 88.945 90.828 89.027C89.7974 90.8882 88.7781 92.7556 87.77 94.629C87.7379 94.6647 87.715 94.7076 87.703 94.754L91.258 94.875C91.195 94.844 91.128 94.835 91.043 94.801C96.3179 94.5116 101.367 92.5664 105.473 89.242C107.51 87.5809 109.346 85.6881 110.945 83.602C112.336 81.7933 113.613 79.9003 114.77 77.934C115.935 75.9634 117.021 73.9475 118.027 71.891C116.914 72.261 115.757 72.481 114.586 72.539L113.91 72.574H113.223C117.085 71.6208 120.422 69.1992 122.527 65.824C120.96 66.5814 119.269 67.0473 117.535 67.199C117.265 67.227 116.977 67.227 116.688 67.23H116.468C117.783 66.9137 119.053 66.4308 120.246 65.793C120.48 65.672 120.711 65.539 120.93 65.391C121.273 65.176 121.594 64.938 121.914 64.695C122.121 64.527 122.316 64.375 122.52 64.207C122.992 63.797 123.426 63.352 123.824 62.867C123.961 62.711 124.09 62.574 124.199 62.41C124.367 62.172 124.531 61.953 124.676 61.727C125.298 60.839 125.885 59.9267 126.434 58.992C126.668 58.594 126.879 58.215 127.063 57.863C127.129 57.719 127.211 57.598 127.281 57.465C127.473 57.062 127.656 56.719 127.789 56.406C127.949 56.046 128.094 55.676 128.215 55.296C128.058 55.3939 127.89 55.4727 127.715 55.531C126.087 56.1025 124.381 56.4215 122.656 56.477C122.633 56.465 122.609 56.465 122.59 56.477C122.418 56.4692 122.246 56.4692 122.074 56.477C122.102 56.477 122.144 56.477 122.168 56.445L111.008 56.043C111.028 56.117 111 56.156 110.977 56.176Z" fill="url(#paint14_linear_53_2)"/>
<path d="M126.602 35.809C125.257 37.336 123.942 38.8883 122.656 40.465C122.574 40.551 122.5 40.645 122.437 40.742C121.088 42.4032 119.769 44.0884 118.48 45.797C117.281 47.395 116 49.094 114.664 50.957C113.496 52.555 112.316 54.273 111.062 56.078L122.222 56.48C124.786 55.877 127.118 54.5402 128.934 52.633C129.395 52.1405 129.846 51.6377 130.285 51.125C131.711 49.4839 133.055 47.7735 134.313 46C135.467 44.3895 136.535 42.7192 137.512 40.996C138.027 40.0991 138.495 39.1759 138.914 38.23C139.223 37.5 139.48 36.809 139.714 36.133C135.34 36.246 130.964 36.137 126.602 35.809Z" fill="url(#paint15_linear_53_2)"/>
<path d="M113.953 72.621H113.266C113.495 72.609 113.724 72.609 113.953 72.621Z" fill="#BE202E"/>
<mask id="mask12_53_2" style="mask-type:luminance" maskUnits="userSpaceOnUse" x="35" y="10" width="128" height="128">
<path d="M35 10H163V138H35V10Z" fill="black" fill-opacity="0.34902"/>
</mask>
<g mask="url(#mask12_53_2)">
<mask id="mask13_53_2" style="mask-type:luminance" maskUnits="userSpaceOnUse" x="35" y="10" width="128" height="128">
<path d="M35 10H163V138H35V10Z" fill="white"/>
</mask>
<g mask="url(#mask13_53_2)">
<path d="M113.953 72.621H113.266C113.495 72.609 113.724 72.609 113.953 72.621Z" fill="#BE202E"/>
</g>
</g>
<path d="M113.953 72.621H113.266C113.495 72.609 113.724 72.609 113.953 72.621Z" fill="url(#paint16_linear_53_2)"/>
</g>
<path d="M183.423 99C181.714 99 180.859 98.0845 180.859 96.2534V49.2319C180.859 47.4009 181.714 46.4854 183.423 46.4854H194.043C195.459 46.4854 196.472 47.4619 197.083 49.415L207.007 81.5317C207.446 82.9233 207.751 84.0708 207.922 84.9741C208.093 85.853 208.24 86.9028 208.362 88.1235H208.582C208.704 86.9028 208.85 85.853 209.021 84.9741C209.192 84.0708 209.497 82.9233 209.937 81.5317L219.861 49.415C220.471 47.4619 221.484 46.4854 222.9 46.4854H233.521C235.229 46.4854 236.084 47.4009 236.084 49.2319V96.2534C236.084 98.0845 235.229 99 233.521 99H227.954C226.245 99 225.391 98.0845 225.391 96.2534V66.0044C225.391 64.5396 225.452 63.0747 225.574 61.6099H225.317L214.734 96.0337C214.124 98.0112 213.074 99 211.584 99H205.359C203.87 99 202.82 98.0112 202.209 96.0337L191.626 61.6099H191.37C191.492 63.0747 191.553 64.5396 191.553 66.0044V96.2534C191.553 98.0845 190.698 99 188.989 99H183.423ZM246.155 99C244.397 99 243.823 98.1943 244.434 96.583L262.378 49.4517C263.135 47.4741 264.282 46.4854 265.82 46.4854H270.947C272.485 46.4854 273.633 47.4741 274.39 49.4517L292.334 96.583C292.944 98.1943 292.371 99 290.613 99H284.79C283.179 99 282.056 98.1577 281.421 96.4731L277.686 86.6221H259.082L255.347 96.4731C254.712 98.1577 253.589 99 251.978 99H246.155ZM262.488 77.54H274.28L269.775 65.8945C269.238 64.5273 268.909 63.5386 268.787 62.9282C268.689 62.2935 268.579 61.3657 268.457 60.145H268.311C268.188 61.3657 268.066 62.2935 267.944 62.9282C267.847 63.5386 267.529 64.5273 266.992 65.8945L262.488 77.54ZM287.427 48.9023C286.816 47.291 287.39 46.4854 289.148 46.4854H294.971C296.606 46.4854 297.729 47.3276 298.34 49.0122L309.546 79.5908C310.107 81.1533 310.437 82.2031 310.535 82.7402C310.632 83.2529 310.742 84.1196 310.864 85.3403H311.011C311.133 84.1196 311.243 83.2529 311.34 82.7402C311.438 82.2031 311.768 81.1533 312.329 79.5908L323.535 49.0122C324.146 47.3276 325.269 46.4854 326.904 46.4854H332.727C334.485 46.4854 335.059 47.291 334.448 48.9023L316.943 96.0337C316.211 98.0112 315.063 99 313.501 99H308.374C306.812 99 305.664 98.0112 304.932 96.0337L287.427 48.9023ZM343.53 99C341.821 99 340.967 98.0845 340.967 96.2534V49.2319C340.967 47.4009 341.821 46.4854 343.53 46.4854H374.951C376.782 46.4854 377.698 47.2788 377.698 48.8657V53.187C377.698 54.7739 376.782 55.5674 374.951 55.5674H351.66V67.2129H373.01C374.841 67.2129 375.757 68.0063 375.757 69.5933V73.9146C375.757 75.5015 374.841 76.2949 373.01 76.2949H351.66V89.918H376.123C377.954 89.918 378.87 90.7114 378.87 92.2983V96.6196C378.87 98.2065 377.954 99 376.123 99H343.53ZM390.405 99C388.696 99 387.842 98.0845 387.842 96.2534V49.2319C387.842 47.4009 388.696 46.4854 390.405 46.4854H395.825C397.925 46.4854 399.512 47.3398 400.586 49.0488L419.263 79.0415H419.519C419.397 77.5767 419.336 76.1118 419.336 74.647V49.2319C419.336 47.4009 420.19 46.4854 421.899 46.4854H427.466C429.175 46.4854 430.029 47.4009 430.029 49.2319V96.2534C430.029 98.0845 429.175 99 427.466 99H422.412C420.312 99 418.726 98.1455 417.651 96.4365L398.608 65.8945H398.352C398.474 67.3594 398.535 68.8242 398.535 70.2891V96.2534C398.535 98.0845 397.681 99 395.972 99H390.405Z" fill="white"/>
<defs>
<linearGradient id="paint0_linear_53_2" x1="56.7183" y1="19.1619" x2="70.653" y2="1.48419" gradientUnits="userSpaceOnUse">
<stop stop-color="#F69923"/>
<stop offset="0.312" stop-color="#F79A23"/>
<stop offset="0.838" stop-color="#E97826"/>
</linearGradient>
<linearGradient id="paint1_linear_53_2" x1="75.8793" y1="125.742" x2="55.5792" y2="23.3594" gradientUnits="userSpaceOnUse">
<stop offset="0.323" stop-color="#9E2064"/>
<stop offset="0.63" stop-color="#C92037"/>
<stop offset="0.751" stop-color="#CD2335"/>
<stop offset="1" stop-color="#E97826"/>
</linearGradient>
<linearGradient id="paint2_linear_53_2" x1="83.718" y1="111.343" x2="71.6212" y2="50.3333" gradientUnits="userSpaceOnUse">
<stop stop-color="#282662"/>
<stop offset="0.095" stop-color="#662E8D"/>
<stop offset="0.788" stop-color="#9F2064"/>
<stop offset="0.949" stop-color="#CD2032"/>
</linearGradient>
<linearGradient id="paint3_linear_53_2" x1="73.7935" y1="120.18" x2="53.4934" y2="17.7966" gradientUnits="userSpaceOnUse">
<stop offset="0.323" stop-color="#9E2064"/>
<stop offset="0.63" stop-color="#C92037"/>
<stop offset="0.751" stop-color="#CD2335"/>
<stop offset="1" stop-color="#E97826"/>
</linearGradient>
<linearGradient id="paint4_linear_53_2" x1="73.7156" y1="112.434" x2="63.0474" y2="58.6294" gradientUnits="userSpaceOnUse">
<stop stop-color="#282662"/>
<stop offset="0.095" stop-color="#662E8D"/>
<stop offset="0.788" stop-color="#9F2064"/>
<stop offset="0.949" stop-color="#CD2032"/>
</linearGradient>
<linearGradient id="paint5_linear_53_2" x1="84.3885" y1="118.079" x2="64.0884" y2="15.6959" gradientUnits="userSpaceOnUse">
<stop offset="0.323" stop-color="#9E2064"/>
<stop offset="0.63" stop-color="#C92037"/>
<stop offset="0.751" stop-color="#CD2335"/>
<stop offset="1" stop-color="#E97826"/>
</linearGradient>
<linearGradient id="paint6_linear_53_2" x1="85.1346" y1="124.532" x2="64.8345" y2="22.1489" gradientUnits="userSpaceOnUse">
<stop offset="0.323" stop-color="#9E2064"/>
<stop offset="0.63" stop-color="#C92037"/>
<stop offset="0.751" stop-color="#CD2335"/>
<stop offset="1" stop-color="#E97826"/>
</linearGradient>
<linearGradient id="paint7_linear_53_2" x1="87.5622" y1="117.45" x2="67.2618" y2="15.0665" gradientUnits="userSpaceOnUse">
<stop offset="0.323" stop-color="#9E2064"/>
<stop offset="0.63" stop-color="#C92037"/>
<stop offset="0.751" stop-color="#CD2335"/>
<stop offset="1" stop-color="#E97826"/>
</linearGradient>
<linearGradient id="paint8_linear_53_2" x1="87.1897" y1="117.523" x2="66.8897" y2="15.1406" gradientUnits="userSpaceOnUse">
<stop offset="0.323" stop-color="#9E2064"/>
<stop offset="0.63" stop-color="#C92037"/>
<stop offset="0.751" stop-color="#CD2335"/>
<stop offset="1" stop-color="#E97826"/>
</linearGradient>
<linearGradient id="paint9_linear_53_2" x1="118.349" y1="25.9367" x2="143.706" y2="22.7856" gradientUnits="userSpaceOnUse">
<stop stop-color="#F69923"/>
<stop offset="0.312" stop-color="#F79A23"/>
<stop offset="0.838" stop-color="#E97826"/>
</linearGradient>
<linearGradient id="paint10_linear_53_2" x1="48.7667" y1="127.269" x2="114.08" y2="28.4164" gradientUnits="userSpaceOnUse">
<stop offset="0.323" stop-color="#9E2064"/>
<stop offset="0.63" stop-color="#C92037"/>
<stop offset="0.751" stop-color="#CD2335"/>
<stop offset="1" stop-color="#E97826"/>
</linearGradient>
<linearGradient id="paint11_linear_53_2" x1="66.5854" y1="121.9" x2="105.506" y2="62.9932" gradientUnits="userSpaceOnUse">
<stop stop-color="#282662"/>
<stop offset="0.095" stop-color="#662E8D"/>
<stop offset="0.788" stop-color="#9F2064"/>
<stop offset="0.949" stop-color="#CD2032"/>
</linearGradient>
<linearGradient id="paint12_linear_53_2" x1="51.5221" y1="121.114" x2="116.835" y2="22.2612" gradientUnits="userSpaceOnUse">
<stop offset="0.323" stop-color="#9E2064"/>
<stop offset="0.63" stop-color="#C92037"/>
<stop offset="0.751" stop-color="#CD2335"/>
<stop offset="1" stop-color="#E97826"/>
</linearGradient>
<linearGradient id="paint13_linear_53_2" x1="57.6399" y1="114.799" x2="91.9637" y2="62.8492" gradientUnits="userSpaceOnUse">
<stop stop-color="#282662"/>
<stop offset="0.095" stop-color="#662E8D"/>
<stop offset="0.788" stop-color="#9F2064"/>
<stop offset="0.949" stop-color="#CD2032"/>
</linearGradient>
<linearGradient id="paint14_linear_53_2" x1="61.7517" y1="127.873" x2="127.065" y2="29.02" gradientUnits="userSpaceOnUse">
<stop offset="0.323" stop-color="#9E2064"/>
<stop offset="0.63" stop-color="#C92037"/>
<stop offset="0.751" stop-color="#CD2335"/>
<stop offset="1" stop-color="#E97826"/>
</linearGradient>
<linearGradient id="paint15_linear_53_2" x1="57.2041" y1="133.677" x2="122.517" y2="34.8246" gradientUnits="userSpaceOnUse">
<stop offset="0.323" stop-color="#9E2064"/>
<stop offset="0.63" stop-color="#C92037"/>
<stop offset="0.751" stop-color="#CD2335"/>
<stop offset="1" stop-color="#E97826"/>
</linearGradient>
<linearGradient id="paint16_linear_53_2" x1="64.8157" y1="129.897" x2="130.129" y2="31.0443" gradientUnits="userSpaceOnUse">
<stop offset="0.323" stop-color="#9E2064"/>
<stop offset="0.63" stop-color="#C92037"/>
<stop offset="0.751" stop-color="#CD2335"/>
<stop offset="1" stop-color="#E97826"/>
</linearGradient>
<clipPath id="clip0_53_2">
<rect width="128" height="128" fill="white" transform="translate(35 10)"/>
</clipPath>
</defs>
</svg>
