<svg width="628" height="145" viewBox="0 0 628 145" fill="none" xmlns="http://www.w3.org/2000/svg">
<rect x="1.5" y="1.5" width="625" height="142" rx="36.5" fill="#2A2734" stroke="white" stroke-width="3"/>
<path fill-rule="evenodd" clip-rule="evenodd" d="M129.038 55.812C130.643 60.455 131.799 65.195 132.179 70.108C132.651 76.203 132.435 82.255 131.15 88.25C131.115 88.415 131.041 88.57 130.986 88.73C130.583 88.731 130.172 88.681 129.778 88.742C126.449 89.265 123.123 89.807 119.797 90.346C116.359 90.903 112.916 91.438 109.484 92.033C108.268 92.243 106.763 91.992 106.272 93.674C106.258 93.72 106.118 93.728 106.037 93.754L106.203 83.703L106.034 59.451L107.636 59.176C110.256 58.747 112.876 58.312 115.498 57.895C118.627 57.398 121.759 56.915 124.89 56.43C126.271 56.215 127.654 56.018 129.038 55.812Z" fill="#439934"/>
<path fill-rule="evenodd" clip-rule="evenodd" d="M102.729 123.054C101.039 121.601 99.29 120.212 97.67 118.684C88.953 110.462 82.577 100.785 79.437 89.118C78.572 85.907 77.995 82.644 77.81 79.326C77.68 77.004 77.492 74.661 77.656 72.351C78.093 66.207 78.981 60.122 80.783 54.204L80.882 54.066C81.057 54.299 81.309 54.505 81.398 54.768C83.157 59.948 84.903 65.132 86.64 70.319C92.098 86.619 97.549 102.923 103.016 119.219C103.123 119.537 103.4 119.798 103.599 120.085L102.729 123.054Z" fill="#45A538"/>
<path fill-rule="evenodd" clip-rule="evenodd" d="M129.038 55.812C127.654 56.018 126.27 56.215 124.889 56.428C121.758 56.913 118.626 57.396 115.497 57.893C112.875 58.31 110.255 58.745 107.635 59.174L106.033 59.449L106.021 58.404C105.968 57.545 105.877 56.687 105.867 55.828C105.798 50.35 105.755 44.872 105.687 39.394C105.645 35.965 105.582 32.537 105.512 29.109C105.469 26.979 105.423 24.848 105.327 22.721C105.275 21.578 105.091 20.441 105.016 19.298C104.974 18.641 105.032 17.979 105.045 17.319C105.862 18.902 106.661 20.497 107.501 22.068C108.828 24.552 110.942 26.382 112.845 28.379C120.368 36.271 125.709 45.447 129.038 55.812Z" fill="#46A037"/>
<path fill-rule="evenodd" clip-rule="evenodd" d="M106.036 93.753C106.117 93.727 106.258 93.719 106.271 93.673C106.762 91.991 108.267 92.242 109.483 92.032C112.915 91.438 116.358 90.902 119.796 90.345C123.122 89.806 126.448 89.264 129.777 88.741C130.171 88.679 130.582 88.73 130.985 88.729C130.363 90.949 129.873 93.217 129.084 95.376C128.188 97.825 127.104 100.215 125.953 102.558C124.23 106.053 122.097 109.33 119.6 112.321C117.681 114.629 115.542 116.762 113.398 118.869C112.213 120.034 110.816 120.983 109.516 122.03L109.179 121.8L107.965 120.762L106.709 118.009C105.851 114.798 105.383 111.494 105.315 108.171L105.338 107.61L105.509 105.184C105.566 104.356 105.642 103.529 105.677 102.699C105.806 99.717 105.918 96.735 106.036 93.753Z" fill="#409433"/>
<path fill-rule="evenodd" clip-rule="evenodd" d="M106.036 93.753C105.918 96.735 105.806 99.717 105.679 102.7C105.644 103.53 105.568 104.357 105.511 105.185L104.746 105.474C103.047 100.472 101.347 95.523 99.6841 90.561C96.9341 82.352 94.2171 74.13 91.4711 65.919C89.2532 59.2915 87.0198 52.6691 84.7711 46.052C84.6661 45.742 84.3641 45.5 84.1541 45.226L89.0501 36.224C89.2181 36.516 89.4401 36.789 89.5461 37.103C91.8136 43.8051 94.0696 50.5111 96.3141 57.221C99.2301 65.951 102.128 74.688 105.042 83.419C105.158 83.768 105.35 84.09 105.533 84.481L106.203 83.701L106.036 93.753Z" fill="#4FAA41"/>
<path fill-rule="evenodd" clip-rule="evenodd" d="M84.1551 45.2271C84.3651 45.5011 84.6661 45.7431 84.7721 46.0531C87.0208 52.6702 89.2542 59.2925 91.4721 65.92C94.2181 74.131 96.9351 82.353 99.6851 90.562C101.347 95.523 103.047 100.473 104.747 105.475L105.512 105.186L105.341 107.612L105.186 108.171C104.92 110.827 104.696 113.489 104.372 116.139C104.209 117.467 103.863 118.771 103.6 120.086C103.402 119.799 103.124 119.538 103.017 119.22C97.5501 102.923 92.0991 86.62 86.6411 70.32C84.9047 65.1327 83.1573 59.949 81.3991 54.7691C81.3101 54.5061 81.0591 54.3001 80.8831 54.0671L84.1551 45.2271Z" fill="#4AA73C"/>
<path fill-rule="evenodd" clip-rule="evenodd" d="M106.202 83.702L105.532 84.482C105.349 84.091 105.157 83.768 105.041 83.42C102.128 74.689 99.229 65.952 96.313 57.222C94.0685 50.5121 91.8125 43.8061 89.5449 37.104C89.4399 36.79 89.218 36.516 89.049 36.225L95.104 28.26C95.295 28.515 95.567 28.742 95.666 29.029C97.347 33.95 99.0129 38.877 100.669 43.807C102.216 48.411 103.74 53.022 105.305 57.62C105.41 57.928 105.775 58.146 106.019 58.406L106.031 59.451C106.089 67.533 106.146 75.618 106.202 83.702Z" fill="#57AE47"/>
<path fill-rule="evenodd" clip-rule="evenodd" d="M106.021 58.404C105.777 58.144 105.412 57.926 105.307 57.618C103.742 53.02 102.218 48.409 100.671 43.805C99.015 38.875 97.349 33.949 95.668 29.027C95.569 28.74 95.297 28.513 95.106 28.258C97.075 26.33 98.983 24.333 101.031 22.494C102.852 20.86 104.316 19.108 104.383 16.526C104.386 16.419 104.442 16.312 104.528 16.012L105.047 17.318C105.034 17.979 104.975 18.64 105.018 19.297C105.093 20.44 105.277 21.577 105.329 22.72C105.425 24.847 105.471 26.978 105.514 29.108C105.583 32.536 105.646 35.964 105.689 39.393C105.756 44.871 105.8 50.349 105.869 55.827C105.877 56.688 105.967 57.545 106.021 58.404Z" fill="#60B24F"/>
<path fill-rule="evenodd" clip-rule="evenodd" d="M103.598 120.085C103.861 118.77 104.207 117.465 104.37 116.138C104.695 113.489 104.918 110.826 105.184 108.17L105.25 108.16L105.316 108.171C105.384 111.494 105.852 114.798 106.71 118.009C106.534 118.241 106.285 118.448 106.192 118.71C105.465 120.76 104.78 122.826 104.049 124.876C103.949 125.156 103.671 125.374 103.475 125.62L102.728 123.054L103.598 120.085Z" fill="#A9AA88"/>
<path fill-rule="evenodd" clip-rule="evenodd" d="M103.476 125.621C103.672 125.375 103.951 125.157 104.05 124.877C104.781 122.827 105.467 120.762 106.193 118.711C106.286 118.449 106.534 118.242 106.711 118.01L107.966 120.764C107.718 121.116 107.376 121.433 107.238 121.825L104.834 128.884C104.735 129.167 104.397 129.367 104.171 129.606L103.476 125.621Z" fill="#B6B598"/>
<path fill-rule="evenodd" clip-rule="evenodd" d="M104.171 129.605C104.398 129.367 104.735 129.166 104.834 128.883L107.238 121.824C107.375 121.433 107.718 121.115 107.966 120.763L109.181 121.8C108.594 122.38 108.268 123.05 108.464 123.897L108.095 125.105C107.927 125.312 107.684 125.492 107.601 125.729C106.762 128.132 105.961 130.548 105.116 132.951C105.009 133.256 104.712 133.495 104.502 133.763C104.393 132.376 104.282 130.992 104.171 129.605Z" fill="#C2C1A7"/>
<path fill-rule="evenodd" clip-rule="evenodd" d="M104.503 133.763C104.712 133.494 105.009 133.255 105.117 132.951C105.962 130.549 106.763 128.133 107.602 125.729C107.685 125.493 107.927 125.312 108.096 125.105L107.587 130.65C107.451 130.807 107.254 130.944 107.189 131.127C106.614 132.741 106.072 134.367 105.495 135.981C105.376 136.314 105.148 136.608 104.97 136.919C104.812 136.712 104.529 136.512 104.516 136.296C104.465 135.455 104.5 134.608 104.503 133.763Z" fill="#CECDB7"/>
<path fill-rule="evenodd" clip-rule="evenodd" d="M104.969 136.919C105.147 136.607 105.375 136.313 105.494 135.981C106.072 134.368 106.613 132.742 107.188 131.127C107.253 130.944 107.451 130.808 107.586 130.65L107.598 134.29L106.38 137.414L104.969 136.919Z" fill="#DBDAC7"/>
<path fill-rule="evenodd" clip-rule="evenodd" d="M106.38 137.415L107.598 134.291L107.849 137.987L106.38 137.415Z" fill="#EBE9DC"/>
<path fill-rule="evenodd" clip-rule="evenodd" d="M108.464 123.898C108.268 123.051 108.593 122.38 109.181 121.801L109.518 122.031L108.464 123.898Z" fill="#CECDB7"/>
<path fill-rule="evenodd" clip-rule="evenodd" d="M105.316 108.172L105.25 108.161L105.184 108.171L105.339 107.612L105.316 108.172Z" fill="#4FAA41"/>
<path d="M193.423 100C191.714 100 190.859 99.0845 190.859 97.2534V50.2319C190.859 48.4009 191.714 47.4854 193.423 47.4854H204.043C205.459 47.4854 206.472 48.4619 207.083 50.415L217.007 82.5317C217.446 83.9233 217.751 85.0708 217.922 85.9741C218.093 86.853 218.24 87.9028 218.362 89.1235H218.582C218.704 87.9028 218.85 86.853 219.021 85.9741C219.192 85.0708 219.497 83.9233 219.937 82.5317L229.861 50.415C230.471 48.4619 231.484 47.4854 232.9 47.4854H243.521C245.229 47.4854 246.084 48.4009 246.084 50.2319V97.2534C246.084 99.0845 245.229 100 243.521 100H237.954C236.245 100 235.391 99.0845 235.391 97.2534V67.0044C235.391 65.5396 235.452 64.0747 235.574 62.6099H235.317L224.734 97.0337C224.124 99.0112 223.074 100 221.584 100H215.359C213.87 100 212.82 99.0112 212.209 97.0337L201.626 62.6099H201.37C201.492 64.0747 201.553 65.5396 201.553 67.0044V97.2534C201.553 99.0845 200.698 100 198.989 100H193.423ZM255.093 73.7427C255.093 65.3198 257.266 58.6304 261.611 53.6743C265.957 48.7183 272.158 46.2402 280.215 46.2402C288.271 46.2402 294.473 48.7183 298.818 53.6743C303.164 58.6304 305.337 65.3198 305.337 73.7427C305.337 82.1655 303.164 88.855 298.818 93.811C294.473 98.7671 288.271 101.245 280.215 101.245C272.158 101.245 265.957 98.7671 261.611 93.811C257.266 88.855 255.093 82.1655 255.093 73.7427ZM266.519 73.7427C266.519 79.8462 267.605 84.5215 269.778 87.7686C271.975 90.9912 275.454 92.6025 280.215 92.6025C284.976 92.6025 288.442 90.9912 290.615 87.7686C292.812 84.5215 293.911 79.8462 293.911 73.7427C293.911 67.6392 292.812 62.9761 290.615 59.7534C288.442 56.5063 284.976 54.8828 280.215 54.8828C275.454 54.8828 271.975 56.5063 269.778 59.7534C267.605 62.9761 266.519 67.6392 266.519 73.7427ZM316.909 100C315.2 100 314.346 99.0845 314.346 97.2534V50.2319C314.346 48.4009 315.2 47.4854 316.909 47.4854H322.329C324.429 47.4854 326.016 48.3398 327.09 50.0488L345.767 80.0415H346.023C345.901 78.5767 345.84 77.1118 345.84 75.647V50.2319C345.84 48.4009 346.694 47.4854 348.403 47.4854H353.97C355.679 47.4854 356.533 48.4009 356.533 50.2319V97.2534C356.533 99.0845 355.679 100 353.97 100H348.916C346.816 100 345.229 99.1455 344.155 97.4365L325.112 66.8945H324.856C324.978 68.3594 325.039 69.8242 325.039 71.2891V97.2534C325.039 99.0845 324.185 100 322.476 100H316.909ZM365.542 73.7427C365.542 65.3198 367.739 58.6304 372.134 53.6743C376.528 48.7183 382.754 46.2402 390.811 46.2402C395.669 46.2402 399.478 46.8628 402.236 48.1079C405.02 49.353 407.461 51.2817 409.561 53.894C410.83 55.481 410.793 56.7139 409.451 57.5928L405.276 60.3027C404.055 61.1084 402.749 60.7544 401.357 59.2407C400.21 57.9956 398.757 56.958 397 56.1279C395.242 55.2979 393.301 54.8828 391.177 54.8828C386.05 54.8828 382.4 56.5063 380.227 59.7534C378.054 62.9761 376.968 67.6392 376.968 73.7427C376.968 79.8462 378.054 84.5215 380.227 87.7686C382.4 90.9912 386.05 92.6025 391.177 92.6025C393.667 92.6025 395.815 92.3584 397.622 91.8701C399.429 91.3574 401.138 90.4419 402.749 89.1235V82.5684H394.802C392.971 82.5684 392.056 81.7749 392.056 80.188V75.8667C392.056 74.2798 392.971 73.4863 394.802 73.4863H410.696C412.527 73.4863 413.442 74.2798 413.442 75.8667V94.4702C410.024 96.9849 406.57 98.7427 403.079 99.7437C399.612 100.745 395.522 101.245 390.811 101.245C382.876 101.245 376.675 98.7671 372.207 93.811C367.764 88.855 365.542 82.1655 365.542 73.7427ZM420.693 73.7427C420.693 65.3198 422.866 58.6304 427.212 53.6743C431.558 48.7183 437.759 46.2402 445.815 46.2402C453.872 46.2402 460.073 48.7183 464.419 53.6743C468.765 58.6304 470.938 65.3198 470.938 73.7427C470.938 82.1655 468.765 88.855 464.419 93.811C460.073 98.7671 453.872 101.245 445.815 101.245C437.759 101.245 431.558 98.7671 427.212 93.811C422.866 88.855 420.693 82.1655 420.693 73.7427ZM432.119 73.7427C432.119 79.8462 433.206 84.5215 435.378 87.7686C437.576 90.9912 441.055 92.6025 445.815 92.6025C450.576 92.6025 454.043 90.9912 456.216 87.7686C458.413 84.5215 459.512 79.8462 459.512 73.7427C459.512 67.6392 458.413 62.9761 456.216 59.7534C454.043 56.5063 450.576 54.8828 445.815 54.8828C441.055 54.8828 437.576 56.5063 435.378 59.7534C433.206 62.9761 432.119 67.6392 432.119 73.7427ZM508.145 100C506.436 100 505.581 99.0845 505.581 97.2534V50.2319C505.581 48.4009 506.436 47.4854 508.145 47.4854H520.925C532.156 47.4854 539.749 49.7559 543.704 54.2969C547.683 58.8379 549.673 65.2954 549.673 73.6694C549.673 82.0435 547.683 88.5254 543.704 93.1152C539.749 97.7051 532.156 100 520.925 100H508.145ZM516.274 90.918H520.229C527.798 90.918 532.693 89.5142 534.915 86.7065C537.136 83.8745 538.247 79.5288 538.247 73.6694C538.247 67.8101 537.136 63.4888 534.915 60.7056C532.693 57.8979 527.798 56.4941 520.229 56.4941H516.274V90.918ZM561.611 100C559.658 100 558.682 99.0845 558.682 97.2534V50.2319C558.682 48.4009 559.658 47.4854 561.611 47.4854H574.062C583.438 47.4854 589.761 48.645 593.032 50.9644C596.328 53.2593 597.976 56.7993 597.976 61.5845C597.976 64.9292 596.743 67.5171 594.277 69.3481C591.836 71.1792 589.468 72.2412 587.173 72.5342V72.644C589.395 72.7905 592.007 73.9136 595.01 76.0132C598.013 78.1128 599.514 81.0791 599.514 84.9121C599.514 89.4043 597.683 93.042 594.021 95.8252C590.359 98.6084 584.316 100 575.894 100H561.611ZM569.375 91.0645H574.722C579.897 91.0645 583.413 90.6128 585.269 89.7095C587.148 88.8062 588.088 86.9751 588.088 84.2163C588.088 81.6284 587.002 79.8462 584.829 78.8696C582.681 77.8687 579.312 77.3682 574.722 77.3682H569.375V91.0645ZM569.375 68.7256H574.172C577.322 68.7256 580.264 68.1763 582.998 67.0776C585.757 65.979 587.136 64.27 587.136 61.9507C587.136 60.144 586.367 58.7769 584.829 57.8491C583.315 56.897 579.763 56.4209 574.172 56.4209H569.375V68.7256Z" fill="white"/>
</svg>
