<svg width="493" height="145" viewBox="0 0 493 145" fill="none" xmlns="http://www.w3.org/2000/svg">
<rect x="1.5" y="1.5" width="490" height="142" rx="36.5" fill="#2A2734" stroke="white" stroke-width="3"/>
<g clip-path="url(#clip0_53_2)">
<path d="M160.688 109.242C153.715 109.051 148.391 109.703 143.836 111.621C142.543 112.168 140.481 112.18 140.27 113.801C140.981 114.547 141.09 115.66 141.657 116.578C142.743 118.332 144.579 120.691 146.216 121.93C148.005 123.278 149.849 124.723 151.767 125.891C155.181 127.973 158.99 129.161 162.271 131.243C164.209 132.473 166.13 134.02 168.021 135.407C168.955 136.091 169.584 137.157 170.794 137.587V137.392C170.157 136.58 169.993 135.462 169.407 134.615L166.829 132.037C164.309 128.693 161.11 125.756 157.712 123.318C155.001 121.369 148.931 118.74 147.802 115.588L147.603 115.389C149.525 115.17 151.775 114.475 153.552 113.998C156.532 113.201 159.197 113.408 162.271 112.611L166.435 111.424V110.631C164.88 109.037 163.771 106.924 162.076 105.479C157.635 101.698 152.791 97.924 147.803 94.776C145.037 93.03 141.619 91.893 138.686 90.413C137.698 89.917 135.967 89.655 135.315 88.827C133.776 86.866 132.936 84.378 131.749 82.089C129.261 77.296 126.819 72.066 124.612 67.023C123.108 63.586 122.128 60.195 120.253 57.113C111.253 42.316 101.566 33.383 86.5581 24.605C83.3631 22.738 79.5191 22 75.4561 21.035L68.9131 20.64C67.5811 20.085 66.1981 18.456 64.9481 17.663C59.9771 14.52 47.2231 7.68796 43.5391 16.672C41.2151 22.34 47.0161 27.871 49.0901 30.746C50.5471 32.758 52.4101 35.019 53.4491 37.285C54.1371 38.777 54.2541 40.269 54.8401 41.844C56.2781 45.727 57.5351 49.953 59.3991 53.539C60.3401 55.355 61.3791 57.266 62.5711 58.891C63.2981 59.887 64.5511 60.329 64.7511 61.864C63.5241 63.579 63.4541 66.239 62.7671 68.407C59.6691 78.177 60.8411 90.317 65.3451 97.544C66.7281 99.767 69.9861 104.524 74.4621 102.7C78.3801 101.102 77.5051 96.161 78.6261 91.798C78.8801 90.81 78.7241 90.083 79.2201 89.419V89.618L82.7901 96.751C85.4311 101.005 90.1141 105.45 94.0871 108.45C96.1461 110.005 97.7671 112.692 100.431 113.602V113.403H100.232C99.7161 112.598 98.9081 112.266 98.2521 111.622C96.7011 110.099 94.9751 108.208 93.6931 106.466C90.0801 101.564 86.8881 96.196 83.9821 90.611C82.5911 87.943 81.3841 85.002 80.2121 82.287C79.7591 81.24 79.7671 79.654 78.8251 79.115C77.5441 81.103 75.6531 82.713 74.6611 85.06C73.0791 88.814 72.8721 93.396 72.2861 98.142C71.9381 98.267 72.0911 98.181 71.8881 98.341C69.1261 97.673 68.1581 94.833 67.1301 92.392C64.5361 86.228 64.0521 76.302 66.3371 69.201C66.9271 67.365 69.5991 61.584 68.5171 59.885C68.0011 58.194 66.2981 57.213 65.3451 55.92C64.1651 54.322 62.9901 52.217 62.1731 50.369C60.0481 45.564 59.0601 40.166 56.8211 35.307C55.7511 32.983 53.9461 30.631 52.4621 28.569C50.8171 26.28 48.9781 24.592 47.7041 21.827C47.2511 20.843 46.6381 19.268 47.3061 18.261C47.5211 17.577 47.8221 17.292 48.4971 17.07C49.6451 16.183 52.8491 17.367 54.0441 17.863C57.2241 19.183 59.8761 20.441 62.5711 22.226C63.8601 23.081 65.1691 24.738 66.7311 25.199H68.5161C71.3051 25.84 74.4301 25.394 77.0391 26.187C81.6481 27.589 85.7771 29.769 89.5271 32.136C100.949 39.351 110.293 49.616 116.683 61.87C117.71 63.843 118.156 65.722 119.062 67.815C120.886 72.034 123.187 76.374 125.003 80.503C126.819 84.616 128.585 88.773 131.151 92.198C132.499 93.999 137.702 94.964 140.069 95.964C141.729 96.663 144.448 97.394 146.018 98.343C149.018 100.152 151.924 102.308 154.741 104.288C156.143 105.28 160.471 107.456 160.686 109.245L160.688 109.242ZM72.0831 33.722C70.6301 33.695 69.6031 33.878 68.5171 34.117V34.316H68.7121C69.4071 35.738 70.6301 36.656 71.4891 37.882L73.4691 42.046L73.6681 41.851C74.8951 40.984 75.4571 39.601 75.4491 37.488C74.9571 36.968 74.8871 36.324 74.4571 35.703C73.8951 34.879 72.7971 34.414 72.0821 33.723L72.0831 33.722Z" fill="#00618A"/>
</g>
<path d="M193.423 100C191.714 100 190.859 99.0845 190.859 97.2534V50.2319C190.859 48.4009 191.714 47.4854 193.423 47.4854H204.043C205.459 47.4854 206.472 48.4619 207.083 50.415L217.007 82.5317C217.446 83.9233 217.751 85.0708 217.922 85.9741C218.093 86.853 218.24 87.9028 218.362 89.1235H218.582C218.704 87.9028 218.85 86.853 219.021 85.9741C219.192 85.0708 219.497 83.9233 219.937 82.5317L229.861 50.415C230.471 48.4619 231.484 47.4854 232.9 47.4854H243.521C245.229 47.4854 246.084 48.4009 246.084 50.2319V97.2534C246.084 99.0845 245.229 100 243.521 100H237.954C236.245 100 235.391 99.0845 235.391 97.2534V67.0044C235.391 65.5396 235.452 64.0747 235.574 62.6099H235.317L224.734 97.0337C224.124 99.0112 223.074 100 221.584 100H215.359C213.87 100 212.82 99.0112 212.209 97.0337L201.626 62.6099H201.37C201.492 64.0747 201.553 65.5396 201.553 67.0044V97.2534C201.553 99.0845 200.698 100 198.989 100H193.423ZM255.679 50.6348C254.434 48.5352 255.007 47.4854 257.4 47.4854H263.809C265.078 47.4854 266.201 48.3276 267.178 50.0122L274.978 63.5986C275.198 63.9648 275.845 65.1123 276.919 67.041C277.993 68.9453 278.616 70.8008 278.787 72.6074H278.933C279.104 70.8008 279.727 68.9453 280.801 67.041C281.875 65.1123 282.522 63.9648 282.742 63.5986L290.542 50.0122C291.519 48.3276 292.642 47.4854 293.911 47.4854H300.32C302.712 47.4854 303.286 48.5352 302.041 50.6348L284.207 80.7739V97.9858C284.207 99.3286 283.352 100 281.643 100H276.077C274.368 100 273.513 99.3286 273.513 97.9858V80.7739L255.679 50.6348ZM308.523 96.0815C307.009 94.9341 306.643 93.7744 307.424 92.6025L310.244 88.3545C311.172 86.9629 312.527 86.8896 314.309 88.1348C315.676 89.0869 317.458 90.0757 319.656 91.1011C321.877 92.1021 324.209 92.6025 326.65 92.6025C328.359 92.6025 330.007 92.4072 331.594 92.0166C333.181 91.626 334.39 90.8691 335.22 89.7461C336.05 88.623 336.465 87.2925 336.465 85.7544C336.465 84.6558 336.282 83.6914 335.916 82.8613C335.549 82.0312 334.951 81.3477 334.121 80.8105C333.291 80.2734 332.437 79.8218 331.558 79.4556C330.02 78.8208 328.079 78.1982 325.735 77.5879C323.416 76.9531 321.121 76.1963 318.85 75.3174C316.824 74.5361 314.968 73.4619 313.284 72.0947C311.599 70.7275 310.293 69.1895 309.365 67.4805C308.438 65.7715 307.974 63.4888 307.974 60.6323C307.974 57.2388 309.072 54.3335 311.27 51.9165C313.467 49.4995 315.994 47.9492 318.85 47.2656C321.707 46.582 324.587 46.2402 327.493 46.2402C330.374 46.2402 333.34 46.6797 336.392 47.5586C339.468 48.4375 341.787 49.5361 343.35 50.8545C344.888 52.1484 345.266 53.3203 344.485 54.3701L341.519 58.3618C340.518 59.729 339.175 59.8389 337.49 58.6914C336.416 57.959 334.939 57.1411 333.059 56.2378C331.204 55.3345 329.263 54.8828 327.236 54.8828C325.796 54.8828 324.465 55.0049 323.245 55.249C322.048 55.4932 320.986 56.0791 320.059 57.0068C319.131 57.9346 318.667 59.082 318.667 60.4492C318.667 61.7676 319.009 62.8418 319.692 63.6719C320.376 64.4775 321.133 65.0879 321.963 65.5029C322.793 65.8936 323.635 66.2231 324.49 66.4917C327.126 67.3462 329.482 68.103 331.558 68.7622C333.633 69.397 335.549 70.105 337.307 70.8862C339.749 71.9849 341.616 73.0835 342.91 74.1821C344.204 75.2808 345.266 76.7822 346.096 78.6865C346.951 80.5908 347.378 82.8613 347.378 85.498C347.378 89.4043 346.133 92.6392 343.643 95.2026C341.152 97.7417 338.381 99.3774 335.33 100.11C332.302 100.867 329.348 101.245 326.467 101.245C322.219 101.245 318.765 100.83 316.104 100C313.442 99.1943 310.916 97.8882 308.523 96.0815ZM353.091 73.7427C353.091 65.3198 355.264 58.6304 359.609 53.6743C363.955 48.7183 370.156 46.2402 378.213 46.2402C386.27 46.2402 392.471 48.7183 396.816 53.6743C401.162 58.6304 403.335 65.3198 403.335 73.7427C403.335 82.1655 401.162 88.855 396.816 93.811C393.496 97.5952 389.089 99.939 383.596 100.842C383.816 103.04 384.39 104.675 385.317 105.75C386.27 106.848 388.101 107.397 390.811 107.397C392.056 107.397 393.35 107.227 394.692 106.885C395.913 106.567 396.621 106.836 396.816 107.69L397.842 111.938C398.062 112.891 397.622 113.501 396.523 113.77C393.643 114.526 391.348 114.905 389.639 114.905C383.096 114.905 378.726 113.525 376.528 110.767C374.355 108.008 373.135 104.7 372.866 100.842C367.349 99.9634 362.93 97.6196 359.609 93.811C355.264 88.855 353.091 82.1655 353.091 73.7427ZM364.517 73.7427C364.517 79.8462 365.603 84.5215 367.776 87.7686C369.973 90.9912 373.452 92.6025 378.213 92.6025C382.974 92.6025 386.44 90.9912 388.613 87.7686C390.811 84.5215 391.909 79.8462 391.909 73.7427C391.909 67.6392 390.811 62.9761 388.613 59.7534C386.44 56.5063 382.974 54.8828 378.213 54.8828C373.452 54.8828 369.973 56.5063 367.776 59.7534C365.603 62.9761 364.517 67.6392 364.517 73.7427ZM414.907 100C413.198 100 412.344 99.0845 412.344 97.2534V50.2319C412.344 48.4009 413.198 47.4854 414.907 47.4854H420.84C422.305 47.4854 423.037 48.4009 423.037 50.2319V90.918H444.387C446.218 90.918 447.134 91.7114 447.134 93.2983V97.6196C447.134 99.2065 446.218 100 444.387 100H414.907Z" fill="white"/>
<defs>
<clipPath id="clip0_53_2">
<rect width="128" height="128" fill="white" transform="translate(43 11)"/>
</clipPath>
</defs>
</svg>
