<svg width="540" height="145" viewBox="0 0 540 145" fill="none" xmlns="http://www.w3.org/2000/svg">
<rect x="1.5" y="1.5" width="537" height="142" rx="36.5" fill="#2A2734" stroke="white" stroke-width="3"/>
<g clip-path="url(#clip0_53_2)">
<path d="M107 138C142.346 138 171 109.346 171 74C171 38.6538 142.346 10 107 10C71.6538 10 43 38.6538 43 74C43 109.346 71.6538 138 107 138Z" fill="black"/>
<path d="M149.317 122.014L92.167 48.4H81.4V99.579H90.014V59.339L142.554 127.223C144.921 125.639 147.181 123.898 149.317 122.014Z" fill="url(#paint0_linear_53_2)"/>
<path d="M124.778 48.4H133.311V99.6H124.778V48.4Z" fill="url(#paint1_linear_53_2)"/>
</g>
<path d="M193.423 100C191.714 100 190.859 99.0845 190.859 97.2534V50.2319C190.859 48.4009 191.714 47.4854 193.423 47.4854H198.843C200.942 47.4854 202.529 48.3398 203.604 50.0488L222.28 80.0415H222.537C222.415 78.5767 222.354 77.1118 222.354 75.647V50.2319C222.354 48.4009 223.208 47.4854 224.917 47.4854H230.483C232.192 47.4854 233.047 48.4009 233.047 50.2319V97.2534C233.047 99.0845 232.192 100 230.483 100H225.43C223.33 100 221.743 99.1455 220.669 97.4365L201.626 66.8945H201.37C201.492 68.3594 201.553 69.8242 201.553 71.2891V97.2534C201.553 99.0845 200.698 100 198.989 100H193.423ZM247.329 100C245.62 100 244.766 99.0845 244.766 97.2534V50.2319C244.766 48.4009 245.62 47.4854 247.329 47.4854H278.75C280.581 47.4854 281.497 48.2788 281.497 49.8657V54.187C281.497 55.7739 280.581 56.5674 278.75 56.5674H255.459V68.2129H276.809C278.64 68.2129 279.556 69.0063 279.556 70.5933V74.9146C279.556 76.5015 278.64 77.2949 276.809 77.2949H255.459V90.918H279.922C281.753 90.918 282.668 91.7114 282.668 93.2983V97.6196C282.668 99.2065 281.753 100 279.922 100H247.329ZM291.86 100C289.517 100 289.053 98.9502 290.469 96.8506L306.692 72.9004L291.787 50.6348C290.371 48.5352 290.835 47.4854 293.179 47.4854H300.576C301.87 47.4854 302.969 48.2056 303.872 49.646L313.87 65.4663L323.867 49.646C324.771 48.2056 325.869 47.4854 327.163 47.4854H334.561C336.904 47.4854 337.368 48.5352 335.952 50.6348L321.011 72.9004L337.271 96.8506C338.687 98.9502 338.223 100 335.879 100H328.372C327.102 100 326.003 99.2798 325.076 97.8394L313.87 80.3345L302.664 97.8394C301.736 99.2798 300.637 100 299.368 100H291.86ZM341.702 56.8604C339.871 56.8604 338.955 56.0669 338.955 54.48V49.8657C338.955 48.2788 339.871 47.4854 341.702 47.4854H379.348C381.179 47.4854 382.095 48.2788 382.095 49.8657V54.48C382.095 56.0669 381.179 56.8604 379.348 56.8604H365.872V97.9858C365.872 99.3286 365.261 100 364.041 100H357.009C355.789 100 355.178 99.3286 355.178 97.9858V56.8604H341.702ZM412.271 99.3042C410.977 98.5474 410.488 97.6318 410.806 96.5576L412.344 91.5405C412.783 90.1001 413.931 89.9536 415.786 91.1011C417.373 92.1021 419.143 92.6025 421.096 92.6025C423.782 92.6025 425.527 91.6748 426.333 89.8193C427.163 87.9639 427.578 84.8755 427.578 80.5542V50.2319C427.578 48.4009 428.433 47.4854 430.142 47.4854H435.708C437.417 47.4854 438.271 48.4009 438.271 50.2319V79.8218C438.271 88.8062 436.758 94.6289 433.73 97.29C430.728 99.9268 426.553 101.245 421.206 101.245C417.471 101.245 414.492 100.598 412.271 99.3042ZM450.173 96.0815C448.66 94.9341 448.293 93.7744 449.075 92.6025L451.895 88.3545C452.822 86.9629 454.177 86.8896 455.959 88.1348C457.327 89.0869 459.109 90.0757 461.306 91.1011C463.528 92.1021 465.859 92.6025 468.301 92.6025C470.01 92.6025 471.658 92.4072 473.245 92.0166C474.832 91.626 476.04 90.8691 476.87 89.7461C477.7 88.623 478.115 87.2925 478.115 85.7544C478.115 84.6558 477.932 83.6914 477.566 82.8613C477.2 82.0312 476.602 81.3477 475.771 80.8105C474.941 80.2734 474.087 79.8218 473.208 79.4556C471.67 78.8208 469.729 78.1982 467.385 77.5879C465.066 76.9531 462.771 76.1963 460.5 75.3174C458.474 74.5361 456.619 73.4619 454.934 72.0947C453.25 70.7275 451.943 69.1895 451.016 67.4805C450.088 65.7715 449.624 63.4888 449.624 60.6323C449.624 57.2388 450.723 54.3335 452.92 51.9165C455.117 49.4995 457.644 47.9492 460.5 47.2656C463.357 46.582 466.238 46.2402 469.143 46.2402C472.024 46.2402 474.99 46.6797 478.042 47.5586C481.118 48.4375 483.438 49.5361 485 50.8545C486.538 52.1484 486.917 53.3203 486.135 54.3701L483.169 58.3618C482.168 59.729 480.825 59.8389 479.141 58.6914C478.066 57.959 476.589 57.1411 474.709 56.2378C472.854 55.3345 470.913 54.8828 468.887 54.8828C467.446 54.8828 466.116 55.0049 464.895 55.249C463.699 55.4932 462.637 56.0791 461.709 57.0068C460.781 57.9346 460.317 59.082 460.317 60.4492C460.317 61.7676 460.659 62.8418 461.343 63.6719C462.026 64.4775 462.783 65.0879 463.613 65.5029C464.443 65.8936 465.286 66.2231 466.14 66.4917C468.777 67.3462 471.133 68.103 473.208 68.7622C475.283 69.397 477.2 70.105 478.958 70.8862C481.399 71.9849 483.267 73.0835 484.561 74.1821C485.854 75.2808 486.917 76.7822 487.747 78.6865C488.601 80.5908 489.028 82.8613 489.028 85.498C489.028 89.4043 487.783 92.6392 485.293 95.2026C482.803 97.7417 480.032 99.3774 476.98 100.11C473.953 100.867 470.999 101.245 468.118 101.245C463.87 101.245 460.415 100.83 457.754 100C455.093 99.1943 452.566 97.8882 450.173 96.0815Z" fill="white"/>
<defs>
<linearGradient id="paint0_linear_53_2" x1="120.511" y1="92.8443" x2="145.755" y2="124.133" gradientUnits="userSpaceOnUse">
<stop stop-color="white"/>
<stop offset="1" stop-color="white" stop-opacity="0"/>
</linearGradient>
<linearGradient id="paint1_linear_53_2" x1="129.044" y1="48.4" x2="128.901" y2="85.9999" gradientUnits="userSpaceOnUse">
<stop stop-color="white"/>
<stop offset="1" stop-color="white" stop-opacity="0"/>
</linearGradient>
<clipPath id="clip0_53_2">
<rect width="128" height="128" fill="white" transform="translate(43 10)"/>
</clipPath>
</defs>
</svg>
