<svg width="540" height="145" viewBox="0 0 540 145" fill="none" xmlns="http://www.w3.org/2000/svg">
<rect x="1.5" y="1.5" width="537" height="142" rx="36.5" fill="#2A2734" stroke="white" stroke-width="3"/>
<g clip-path="url(#clip0_53_2)">
<path d="M109.958 10.825C109.039 10.2987 107.999 10.0219 106.941 10.0219C105.882 10.0219 104.842 10.2987 103.923 10.825L54.103 39.76C52.208 40.832 51.143 42.855 51.143 45V102.988C51.143 105.131 52.326 107.155 54.101 108.228L103.921 137.162C104.84 137.688 105.88 137.965 106.939 137.965C107.998 137.965 109.038 137.688 109.957 137.162L159.777 108.227C161.671 107.155 162.735 105.131 162.735 102.987V45C162.735 42.856 161.552 40.833 159.777 39.76L109.958 10.825Z" fill="url(#paint0_linear_53_2)"/>
<path d="M159.897 39.76L109.841 10.825C109.349 10.5752 108.834 10.3758 108.302 10.23L52.21 106.798C52.674 107.368 53.2349 107.852 53.867 108.228L103.924 137.162C105.344 137.995 107 138.234 108.539 137.757L161.199 40.832C160.853 40.3792 160.408 40.0124 159.897 39.76Z" fill="url(#paint1_linear_53_2)"/>
<path d="M159.898 108.225C161.318 107.392 162.383 105.963 162.856 104.415L108.066 10.108C106.646 9.87001 105.107 9.98901 103.806 10.823L54.104 39.639L107.71 137.994C108.42 137.874 109.25 137.636 109.96 137.279L159.898 108.225Z" fill="url(#paint2_linear_53_2)"/>
</g>
<path d="M193.423 100C191.714 100 190.859 99.0845 190.859 97.2534V50.2319C190.859 48.4009 191.714 47.4854 193.423 47.4854H198.843C200.942 47.4854 202.529 48.3398 203.604 50.0488L222.28 80.0415H222.537C222.415 78.5767 222.354 77.1118 222.354 75.647V50.2319C222.354 48.4009 223.208 47.4854 224.917 47.4854H230.483C232.192 47.4854 233.047 48.4009 233.047 50.2319V97.2534C233.047 99.0845 232.192 100 230.483 100H225.43C223.33 100 221.743 99.1455 220.669 97.4365L201.626 66.8945H201.37C201.492 68.3594 201.553 69.8242 201.553 71.2891V97.2534C201.553 99.0845 200.698 100 198.989 100H193.423ZM242.056 73.7427C242.056 65.3198 244.229 58.6304 248.574 53.6743C252.92 48.7183 259.121 46.2402 267.178 46.2402C275.234 46.2402 281.436 48.7183 285.781 53.6743C290.127 58.6304 292.3 65.3198 292.3 73.7427C292.3 82.1655 290.127 88.855 285.781 93.811C281.436 98.7671 275.234 101.245 267.178 101.245C259.121 101.245 252.92 98.7671 248.574 93.811C244.229 88.855 242.056 82.1655 242.056 73.7427ZM253.481 73.7427C253.481 79.8462 254.568 84.5215 256.741 87.7686C258.938 90.9912 262.417 92.6025 267.178 92.6025C271.938 92.6025 275.405 90.9912 277.578 87.7686C279.775 84.5215 280.874 79.8462 280.874 73.7427C280.874 67.6392 279.775 62.9761 277.578 59.7534C275.405 56.5063 271.938 54.8828 267.178 54.8828C262.417 54.8828 258.938 56.5063 256.741 59.7534C254.568 62.9761 253.481 67.6392 253.481 73.7427ZM303.872 100C302.163 100 301.309 99.0845 301.309 97.2534V50.2319C301.309 48.4009 302.163 47.4854 303.872 47.4854H316.653C327.883 47.4854 335.476 49.7559 339.431 54.2969C343.411 58.8379 345.4 65.2954 345.4 73.6694C345.4 82.0435 343.411 88.5254 339.431 93.1152C335.476 97.7051 327.883 100 316.653 100H303.872ZM312.002 90.918H315.957C323.525 90.918 328.42 89.5142 330.642 86.7065C332.864 83.8745 333.975 79.5288 333.975 73.6694C333.975 67.8101 332.864 63.4888 330.642 60.7056C328.42 57.8979 323.525 56.4941 315.957 56.4941H312.002V90.918ZM356.973 100C355.264 100 354.409 99.0845 354.409 97.2534V50.2319C354.409 48.4009 355.264 47.4854 356.973 47.4854H388.394C390.225 47.4854 391.14 48.2788 391.14 49.8657V54.187C391.14 55.7739 390.225 56.5674 388.394 56.5674H365.103V68.2129H386.453C388.284 68.2129 389.199 69.0063 389.199 70.5933V74.9146C389.199 76.5015 388.284 77.2949 386.453 77.2949H365.103V90.918H389.565C391.396 90.918 392.312 91.7114 392.312 93.2983V97.6196C392.312 99.2065 391.396 100 389.565 100H356.973ZM424.355 99.3042C423.062 98.5474 422.573 97.6318 422.891 96.5576L424.429 91.5405C424.868 90.1001 426.016 89.9536 427.871 91.1011C429.458 92.1021 431.228 92.6025 433.181 92.6025C435.867 92.6025 437.612 91.6748 438.418 89.8193C439.248 87.9639 439.663 84.8755 439.663 80.5542V50.2319C439.663 48.4009 440.518 47.4854 442.227 47.4854H447.793C449.502 47.4854 450.356 48.4009 450.356 50.2319V79.8218C450.356 88.8062 448.843 94.6289 445.815 97.29C442.812 99.9268 438.638 101.245 433.291 101.245C429.556 101.245 426.577 100.598 424.355 99.3042ZM462.258 96.0815C460.745 94.9341 460.378 93.7744 461.16 92.6025L463.979 88.3545C464.907 86.9629 466.262 86.8896 468.044 88.1348C469.412 89.0869 471.194 90.0757 473.391 91.1011C475.613 92.1021 477.944 92.6025 480.386 92.6025C482.095 92.6025 483.743 92.4072 485.33 92.0166C486.917 91.626 488.125 90.8691 488.955 89.7461C489.785 88.623 490.2 87.2925 490.2 85.7544C490.2 84.6558 490.017 83.6914 489.651 82.8613C489.285 82.0312 488.687 81.3477 487.856 80.8105C487.026 80.2734 486.172 79.8218 485.293 79.4556C483.755 78.8208 481.814 78.1982 479.47 77.5879C477.151 76.9531 474.856 76.1963 472.585 75.3174C470.559 74.5361 468.704 73.4619 467.019 72.0947C465.334 70.7275 464.028 69.1895 463.101 67.4805C462.173 65.7715 461.709 63.4888 461.709 60.6323C461.709 57.2388 462.808 54.3335 465.005 51.9165C467.202 49.4995 469.729 47.9492 472.585 47.2656C475.442 46.582 478.323 46.2402 481.228 46.2402C484.109 46.2402 487.075 46.6797 490.127 47.5586C493.203 48.4375 495.522 49.5361 497.085 50.8545C498.623 52.1484 499.001 53.3203 498.22 54.3701L495.254 58.3618C494.253 59.729 492.91 59.8389 491.226 58.6914C490.151 57.959 488.674 57.1411 486.794 56.2378C484.939 55.3345 482.998 54.8828 480.972 54.8828C479.531 54.8828 478.201 55.0049 476.98 55.249C475.784 55.4932 474.722 56.0791 473.794 57.0068C472.866 57.9346 472.402 59.082 472.402 60.4492C472.402 61.7676 472.744 62.8418 473.428 63.6719C474.111 64.4775 474.868 65.0879 475.698 65.5029C476.528 65.8936 477.371 66.2231 478.225 66.4917C480.862 67.3462 483.218 68.103 485.293 68.7622C487.368 69.397 489.285 70.105 491.042 70.8862C493.484 71.9849 495.352 73.0835 496.646 74.1821C497.939 75.2808 499.001 76.7822 499.832 78.6865C500.686 80.5908 501.113 82.8613 501.113 85.498C501.113 89.4043 499.868 92.6392 497.378 95.2026C494.888 97.7417 492.117 99.3774 489.065 100.11C486.038 100.867 483.083 101.245 480.203 101.245C475.955 101.245 472.5 100.83 469.839 100C467.178 99.1943 464.651 97.8882 462.258 96.0815Z" fill="white"/>
<defs>
<linearGradient id="paint0_linear_53_2" x1="127.229" y1="32.3726" x2="81.7303" y2="124.613" gradientUnits="userSpaceOnUse">
<stop stop-color="#3F873F"/>
<stop offset="0.33" stop-color="#3F8B3D"/>
<stop offset="0.637" stop-color="#3E9638"/>
<stop offset="0.934" stop-color="#3DA92E"/>
<stop offset="1" stop-color="#3DAE2B"/>
</linearGradient>
<linearGradient id="paint1_linear_53_2" x1="99.3706" y1="80.7658" x2="226.316" y2="-12.4518" gradientUnits="userSpaceOnUse">
<stop offset="0.138" stop-color="#3F873F"/>
<stop offset="0.402" stop-color="#52A044"/>
<stop offset="0.713" stop-color="#64B749"/>
<stop offset="0.908" stop-color="#6ABF4B"/>
</linearGradient>
<linearGradient id="paint2_linear_53_2" x1="49.3197" y1="73.9744" x2="164.6" y2="73.9744" gradientUnits="userSpaceOnUse">
<stop offset="0.092" stop-color="#6ABF4B"/>
<stop offset="0.287" stop-color="#64B749"/>
<stop offset="0.598" stop-color="#52A044"/>
<stop offset="0.862" stop-color="#3F873F"/>
</linearGradient>
<clipPath id="clip0_53_2">
<rect width="128" height="128" fill="white" transform="translate(43 10)"/>
</clipPath>
</defs>
</svg>
