<svg width="398" height="145" viewBox="0 0 398 145" fill="none" xmlns="http://www.w3.org/2000/svg">
<rect x="1.5" y="1.5" width="395" height="142" rx="36.5" fill="#2A2734" stroke="white" stroke-width="3"/>
<path d="M46 48.5H170V92.21H108V99.5H80.44V92.21H46V48.5ZM52.89 84.93H66.67V63.07H73.56V84.93H80.45V55.79H52.89V84.93ZM87.33 55.79V92.21H101.11V84.93H114.89V55.79H87.33ZM101.11 63.08H108V77.64H101.11V63.08ZM121.78 55.79V84.93H135.56V63.07H142.45V84.93H149.34V63.07H156.23V84.93H163.12V55.79H121.78Z" fill="#CB3837"/>
<path d="M193.423 100C191.714 100 190.859 99.0845 190.859 97.2534V50.2319C190.859 48.4009 191.714 47.4854 193.423 47.4854H198.843C200.942 47.4854 202.529 48.3398 203.604 50.0488L222.28 80.0415H222.537C222.415 78.5767 222.354 77.1118 222.354 75.647V50.2319C222.354 48.4009 223.208 47.4854 224.917 47.4854H230.483C232.192 47.4854 233.047 48.4009 233.047 50.2319V97.2534C233.047 99.0845 232.192 100 230.483 100H225.43C223.33 100 221.743 99.1455 220.669 97.4365L201.626 66.8945H201.37C201.492 68.3594 201.553 69.8242 201.553 71.2891V97.2534C201.553 99.0845 200.698 100 198.989 100H193.423ZM247.329 100C245.62 100 244.766 99.0845 244.766 97.2534V50.2319C244.766 48.4009 245.62 47.4854 247.329 47.4854H261.025C269.814 47.4854 275.906 48.9136 279.299 51.77C282.717 54.6265 284.426 58.6792 284.426 63.9282C284.426 69.1772 282.717 73.23 279.299 76.0864C275.906 78.9429 269.814 80.3711 261.025 80.3711H255.459V97.2534C255.459 99.0845 254.604 100 252.896 100H247.329ZM255.459 71.4355H260.989C265.872 71.4355 269.192 70.8618 270.95 69.7144C272.708 68.5425 273.586 66.6138 273.586 63.9282C273.586 61.2427 272.708 59.3262 270.95 58.1787C269.192 57.0068 265.872 56.4209 260.989 56.4209H255.459V71.4355ZM295.962 100C294.253 100 293.398 99.0845 293.398 97.2534V50.2319C293.398 48.4009 294.253 47.4854 295.962 47.4854H306.582C307.998 47.4854 309.011 48.4619 309.622 50.415L319.546 82.5317C319.985 83.9233 320.291 85.0708 320.461 85.9741C320.632 86.853 320.779 87.9028 320.901 89.1235H321.121C321.243 87.9028 321.389 86.853 321.56 85.9741C321.731 85.0708 322.036 83.9233 322.476 82.5317L332.4 50.415C333.01 48.4619 334.023 47.4854 335.439 47.4854H346.06C347.769 47.4854 348.623 48.4009 348.623 50.2319V97.2534C348.623 99.0845 347.769 100 346.06 100H340.493C338.784 100 337.93 99.0845 337.93 97.2534V67.0044C337.93 65.5396 337.991 64.0747 338.113 62.6099H337.856L327.273 97.0337C326.663 99.0112 325.613 100 324.124 100H317.898C316.409 100 315.359 99.0112 314.749 97.0337L304.165 62.6099H303.909C304.031 64.0747 304.092 65.5396 304.092 67.0044V97.2534C304.092 99.0845 303.237 100 301.528 100H295.962Z" fill="white"/>
</svg>
