<svg width="548" height="145" viewBox="0 0 548 145" fill="none" xmlns="http://www.w3.org/2000/svg">
<rect x="1.5" y="1.5" width="545" height="142" rx="36.5" fill="#2A2734" stroke="white" stroke-width="3"/>
<path d="M71.3629 86.605C65.285 86.605 62.2689 82.96 61.0859 79.152C62.4059 85.347 69.5349 91.382 92.0309 94.062C113.289 96.613 127.121 90.214 131.801 87.238C131.801 87.238 134.957 85.871 133.067 87.98C133.067 87.98 119.669 100.109 93.4579 100.265C67.1959 100.394 46.3679 87.402 46.4739 74.222C46.3489 61.097 67.1969 48.077 93.4579 48.183C119.72 48.308 133.067 60.464 133.067 60.464C134.962 62.569 131.801 61.214 131.801 61.214C127.133 58.245 113.344 52.394 92.0309 54.39C71.0969 56.37 64.2609 63.367 61.9449 68.038C61.0739 69.851 60.6749 71.561 60.5779 73.28C61.1439 68.784 63.9919 63.514 71.3439 63.514C79.6839 63.514 82.2149 70.338 82.2149 75.01C82.2149 79.737 79.6679 86.561 71.3439 86.561L71.3629 86.605ZM155.859 82.066H166.945V86.027H151.175V64.137H155.835V82.039L155.859 82.066ZM138.746 74.238H148.055V86.054H144.95L144.485 83.308C143.305 84.652 141.594 86.632 137.544 86.632C132.173 86.632 127.317 82.855 127.317 75.187C127.317 69.203 130.704 63.582 138.243 63.582C145.075 63.582 147.766 67.941 148.036 70.934H143.376C143.376 70.082 141.794 67.336 138.501 67.336C135.181 67.336 132.095 69.594 132.095 75.211C132.095 81.199 135.415 82.723 138.607 82.723C139.63 82.723 143.048 82.328 143.99 77.907H138.803V74.22L138.746 74.238ZM71.4729 66.207C66.6289 66.207 63.7229 69.953 63.7229 75.133C63.7229 80.285 66.6409 84.059 71.4729 84.059C76.3169 84.059 79.2229 80.309 79.2229 75.133C79.2229 69.981 76.3049 66.207 71.4729 66.207ZM84.0119 72.039H86.2739V74.016H86.3289C86.8989 73.211 87.9889 71.629 90.5789 71.629C94.3679 71.629 97.0909 74.781 97.0909 78.719C97.0909 82.067 95.1259 86.438 90.2549 86.438C88.3449 86.438 87.0909 85.555 86.4699 84.563H86.4149V91.598H84.0129L84.0119 72.039ZM90.0939 84.426C92.7109 84.426 94.4849 82.199 94.4849 79.125C94.4849 77.328 93.7469 73.77 90.0399 73.77C86.5789 73.77 86.1959 77.434 86.1959 79.704C86.1959 83.419 88.5709 84.415 90.0939 84.415V84.426ZM111.621 81.672C111.539 82.336 110.883 84.324 109.086 85.496C108.43 85.926 107.504 86.465 105.215 86.465C101.207 86.465 98.8129 83.492 98.8129 79.43C98.8129 75.09 100.938 71.657 105.649 71.657C109.766 71.657 111.782 74.872 111.782 79.848H101.34C101.34 82.77 102.731 84.453 105.485 84.453C107.747 84.453 109.087 82.742 109.169 81.695H111.567L111.621 81.672ZM109.082 77.953C108.945 75.785 108.016 73.777 105.098 73.777C102.891 73.777 101.149 75.785 101.149 77.953H109.082ZM125.066 86.039H122.664V77.426C122.664 74.996 121.953 73.762 119.613 73.762C118.25 73.762 115.851 74.621 115.851 78.418V86.031H113.449V72.016H115.715V73.993H115.77C116.29 73.243 117.622 71.61 120.075 71.61C122.282 71.61 125.067 72.493 125.067 76.485V86.04" fill="#B3B3B3"/>
<path d="M70.289 85.031C64.152 85.031 61.086 81.386 59.902 77.578C61.238 83.769 68.457 89.808 91.172 92.488C112.645 95.031 126.637 88.64 131.371 85.66C131.371 85.66 134.562 84.297 132.648 86.406C132.648 86.406 119.14 98.535 92.554 98.691C66.02 98.816 44.926 85.828 45.086 72.648C44.957 59.523 66.02 46.504 92.555 46.609C119.086 46.734 132.649 58.89 132.649 58.89C134.563 60.995 131.372 59.64 131.372 59.64C126.653 56.671 112.696 50.82 91.173 52.812C69.966 54.796 63.079 61.792 60.763 66.464C59.9507 68.0993 59.4801 69.8829 59.38 71.706C59.95 67.21 62.829 61.936 70.251 61.936C78.649 61.936 81.231 68.764 81.231 73.487C81.231 78.21 78.657 84.987 70.251 84.987L70.289 85.031ZM155.859 80.488H167.054V84.453H151.124V62.555H155.831V80.465L155.859 80.488ZM138.582 72.664H148V84.477H144.863L144.394 81.739C143.199 83.079 141.468 85.063 137.343 85.063C131.906 85.063 126.956 81.286 126.956 73.618C126.956 67.634 130.378 62.013 137.987 62.013C144.878 62.013 147.62 66.372 147.889 69.365H143.182C143.182 68.513 141.577 65.767 138.252 65.767C134.893 65.767 131.791 68.025 131.791 73.642C131.791 79.63 135.15 81.154 138.357 81.154C139.392 81.154 142.845 80.759 143.795 76.338H138.553V72.651L138.582 72.664ZM70.234 64.633C65.336 64.633 62.379 68.379 62.379 73.559C62.379 78.707 65.328 82.485 70.234 82.485C75.132 82.485 78.093 78.735 78.093 73.559C78.093 68.407 75.144 64.633 70.234 64.633ZM82.937 70.461H85.222V72.441H85.277C85.859 71.636 86.957 70.054 89.578 70.054C93.41 70.054 96.144 73.206 96.144 77.144C96.144 80.488 94.156 84.863 89.253 84.863C87.323 84.863 86.058 83.98 85.421 82.988H85.366V90.023H82.94V70.488L82.937 70.461ZM89.07 82.856C91.718 82.856 93.511 80.626 93.511 77.551C93.511 75.75 92.761 72.192 89.015 72.192C85.519 72.192 85.132 75.86 85.132 78.13C85.132 81.845 87.53 82.841 89.07 82.841V82.856ZM110.812 80.094C110.73 80.766 110.07 82.746 108.25 83.922C107.59 84.352 106.652 84.891 104.34 84.891C100.285 84.891 97.883 81.918 97.883 77.852C97.883 73.516 100.035 70.082 104.824 70.082C108.984 70.082 111.012 73.297 111.012 78.273H100.465C100.465 81.195 101.867 82.875 104.656 82.875C106.945 82.875 108.293 81.168 108.375 80.121H110.805L110.812 80.094ZM108.242 76.379C108.101 74.207 107.164 72.203 104.215 72.203C101.981 72.203 100.215 74.207 100.215 76.379H108.242ZM124.387 84.461H121.961V75.852C121.961 73.418 121.242 72.188 118.871 72.188C117.492 72.188 115.066 73.043 115.066 76.844V84.457H112.636V70.441H114.925V72.418H114.98C115.503 71.668 116.851 70.035 119.335 70.035C121.565 70.035 124.378 70.918 124.378 74.91V84.414" fill="#5586A4"/>
<path d="M171.754 84.242C171.753 84.6007 171.657 84.9527 171.475 85.2617C171.293 85.5707 171.032 85.8256 170.719 86C170.398 86.183 170.055 86.27 169.684 86.27C169.313 86.27 168.973 86.18 168.653 86C168.34 85.8231 168.079 85.5673 167.895 85.2581C167.712 84.9508 167.616 84.5996 167.618 84.242C167.618 83.8859 167.713 83.5363 167.895 83.2301C168.079 82.9202 168.341 82.6638 168.655 82.4863C168.969 82.3088 169.323 82.2163 169.684 82.218C170.045 82.216 170.4 82.3084 170.715 82.4858C171.029 82.6633 171.292 82.9199 171.477 83.2301C171.659 83.5363 171.754 83.8859 171.754 84.242ZM171.356 84.242C171.356 83.793 171.192 83.406 170.864 83.09C170.711 82.9342 170.528 82.811 170.325 82.7278C170.123 82.6447 169.906 82.6032 169.688 82.6061C169.469 82.6027 169.251 82.6438 169.048 82.727C168.845 82.8102 168.662 82.9337 168.508 83.09C168.351 83.2372 168.226 83.4158 168.142 83.6143C168.058 83.8127 168.016 84.0266 168.02 84.242C168.016 84.4581 168.058 84.6726 168.142 84.8716C168.226 85.0707 168.351 85.25 168.508 85.398C168.836 85.718 169.227 85.878 169.688 85.878C169.906 85.882 170.123 85.8414 170.325 85.7589C170.527 85.6764 170.711 85.5536 170.864 85.398C171.192 85.078 171.356 84.695 171.356 84.242ZM168.751 83.1601H169.739C170.016 83.1601 170.223 83.2151 170.348 83.3281C170.473 83.4411 170.536 83.586 170.536 83.769C170.539 83.9094 170.487 84.0454 170.391 84.148C170.297 84.253 170.145 84.332 169.938 84.378C170.006 84.3992 170.07 84.4324 170.126 84.476C170.197 84.5415 170.256 84.6182 170.302 84.7031C170.306 84.7071 170.427 84.918 170.661 85.324H170.009L169.583 84.586C169.513 84.504 169.438 84.465 169.368 84.465C169.348 84.465 169.329 84.465 169.298 84.473V85.325H168.747L168.751 83.1601ZM169.302 84.0781H169.54C169.696 84.0781 169.81 84.055 169.876 84.004C169.942 83.953 169.974 83.891 169.974 83.809C169.974 83.727 169.943 83.661 169.88 83.614C169.817 83.567 169.712 83.5361 169.56 83.5361H169.302V84.0781Z" fill="#999999"/>
<path d="M171.754 83.7191C171.756 84.0754 171.66 84.4254 171.477 84.7311C171.297 85.043 171.035 85.2996 170.719 85.4731C170.404 85.6532 170.047 85.7474 169.684 85.7461C169.317 85.7461 168.973 85.6521 168.653 85.4731C168.333 85.2941 168.083 85.0471 167.895 84.7311C167.712 84.4254 167.616 84.0754 167.618 83.7191C167.618 83.3601 167.712 83.0201 167.895 82.7031C168.078 82.3941 168.339 82.1394 168.653 81.9651C168.973 81.7851 169.317 81.6951 169.684 81.6951C170.051 81.6951 170.403 81.7851 170.719 81.9651C171.035 82.1451 171.293 82.3911 171.477 82.7031C171.661 83.0151 171.754 83.3591 171.754 83.7191ZM171.356 83.7191C171.36 83.5032 171.318 83.289 171.233 83.0904C171.148 82.8919 171.023 82.7135 170.864 82.5671C170.54 82.2431 170.145 82.0831 169.688 82.0831C169.231 82.0831 168.833 82.2431 168.508 82.5671C168.351 82.7143 168.226 82.8928 168.142 83.0913C168.058 83.2897 168.016 83.5036 168.02 83.7191C168.016 83.9351 168.058 84.1496 168.142 84.3487C168.226 84.5477 168.351 84.727 168.508 84.8751C168.662 85.0301 168.846 85.1523 169.049 85.2343C169.252 85.3163 169.469 85.3563 169.688 85.3521C170.149 85.3521 170.54 85.1961 170.864 84.8751C171.188 84.5541 171.356 84.1721 171.356 83.7191ZM168.751 82.6331H169.739C170.016 82.6331 170.223 82.6921 170.348 82.8011C170.473 82.9101 170.536 83.0631 170.536 83.2461C170.536 83.3911 170.489 83.5161 170.391 83.6251C170.297 83.7271 170.145 83.8051 169.938 83.8551C170.006 83.8763 170.07 83.9095 170.126 83.9531C170.196 84.0178 170.255 84.0931 170.302 84.1761C170.306 84.1801 170.427 84.3911 170.661 84.8011H170.009L169.583 84.0631C169.513 83.9811 169.438 83.9381 169.368 83.9381C169.348 83.9381 169.329 83.9421 169.298 83.9461V84.8011H168.747L168.751 82.6331ZM169.302 83.5551H169.54C169.696 83.5551 169.81 83.5281 169.876 83.4771C169.907 83.4546 169.931 83.4252 169.948 83.3913C169.965 83.3575 169.974 83.32 169.974 83.2821C169.975 83.245 169.967 83.2083 169.95 83.175C169.934 83.1418 169.91 83.113 169.88 83.0911C169.818 83.0401 169.712 83.0131 169.56 83.0131H169.302V83.5551Z" fill="#5586A4"/>
<path d="M188.149 73.7427C188.149 65.3198 190.322 58.6304 194.668 53.6743C199.014 48.7183 205.215 46.2402 213.271 46.2402C221.328 46.2402 227.529 48.7183 231.875 53.6743C236.221 58.6304 238.394 65.3198 238.394 73.7427C238.394 82.1655 236.221 88.855 231.875 93.811C227.529 98.7671 221.328 101.245 213.271 101.245C205.215 101.245 199.014 98.7671 194.668 93.811C190.322 88.855 188.149 82.1655 188.149 73.7427ZM199.575 73.7427C199.575 79.8462 200.662 84.5215 202.834 87.7686C205.032 90.9912 208.511 92.6025 213.271 92.6025C218.032 92.6025 221.499 90.9912 223.672 87.7686C225.869 84.5215 226.968 79.8462 226.968 73.7427C226.968 67.6392 225.869 62.9761 223.672 59.7534C221.499 56.5063 218.032 54.8828 213.271 54.8828C208.511 54.8828 205.032 56.5063 202.834 59.7534C200.662 62.9761 199.575 67.6392 199.575 73.7427ZM249.966 100C248.257 100 247.402 99.0845 247.402 97.2534V50.2319C247.402 48.4009 248.257 47.4854 249.966 47.4854H263.662C272.451 47.4854 278.542 48.9136 281.936 51.77C285.354 54.6265 287.063 58.6792 287.063 63.9282C287.063 69.1772 285.354 73.23 281.936 76.0864C278.542 78.9429 272.451 80.3711 263.662 80.3711H258.096V97.2534C258.096 99.0845 257.241 100 255.532 100H249.966ZM258.096 71.4355H263.625C268.508 71.4355 271.829 70.8618 273.586 69.7144C275.344 68.5425 276.223 66.6138 276.223 63.9282C276.223 61.2427 275.344 59.3262 273.586 58.1787C271.829 57.0068 268.508 56.4209 263.625 56.4209H258.096V71.4355ZM298.599 100C296.89 100 296.035 99.0845 296.035 97.2534V50.2319C296.035 48.4009 296.89 47.4854 298.599 47.4854H330.02C331.851 47.4854 332.766 48.2788 332.766 49.8657V54.187C332.766 55.7739 331.851 56.5674 330.02 56.5674H306.729V68.2129H328.079C329.91 68.2129 330.825 69.0063 330.825 70.5933V74.9146C330.825 76.5015 329.91 77.2949 328.079 77.2949H306.729V90.918H331.191C333.022 90.918 333.938 91.7114 333.938 93.2983V97.6196C333.938 99.2065 333.022 100 331.191 100H298.599ZM345.474 100C343.765 100 342.91 99.0845 342.91 97.2534V50.2319C342.91 48.4009 343.765 47.4854 345.474 47.4854H350.894C352.993 47.4854 354.58 48.3398 355.654 50.0488L374.331 80.0415H374.587C374.465 78.5767 374.404 77.1118 374.404 75.647V50.2319C374.404 48.4009 375.259 47.4854 376.968 47.4854H382.534C384.243 47.4854 385.098 48.4009 385.098 50.2319V97.2534C385.098 99.0845 384.243 100 382.534 100H377.48C375.381 100 373.794 99.1455 372.72 97.4365L353.677 66.8945H353.42C353.542 68.3594 353.604 69.8242 353.604 71.2891V97.2534C353.604 99.0845 352.749 100 351.04 100H345.474ZM419.741 73.7427C419.741 65.3198 421.938 58.6304 426.333 53.6743C430.728 48.7183 436.953 46.2402 445.01 46.2402C449.868 46.2402 453.677 46.8628 456.436 48.1079C459.219 49.353 461.66 51.2817 463.76 53.894C465.029 55.481 464.993 56.7139 463.65 57.5928L459.475 60.3027C458.254 61.1084 456.948 60.7544 455.557 59.2407C454.409 57.9956 452.957 56.958 451.199 56.1279C449.441 55.2979 447.5 54.8828 445.376 54.8828C440.249 54.8828 436.599 56.5063 434.426 59.7534C432.253 62.9761 431.167 67.6392 431.167 73.7427C431.167 79.8462 432.253 84.5215 434.426 87.7686C436.599 90.9912 440.249 92.6025 445.376 92.6025C447.866 92.6025 450.015 92.3584 451.821 91.8701C453.628 91.3574 455.337 90.4419 456.948 89.1235V82.5684H449.001C447.17 82.5684 446.255 81.7749 446.255 80.188V75.8667C446.255 74.2798 447.17 73.4863 449.001 73.4863H464.895C466.726 73.4863 467.642 74.2798 467.642 75.8667V94.4702C464.224 96.9849 460.769 98.7427 457.278 99.7437C453.811 100.745 449.722 101.245 445.01 101.245C437.075 101.245 430.874 98.7671 426.406 93.811C421.963 88.855 419.741 82.1655 419.741 73.7427ZM480.166 100C478.457 100 477.603 99.0845 477.603 97.2534V50.2319C477.603 48.4009 478.457 47.4854 480.166 47.4854H486.099C487.563 47.4854 488.296 48.4009 488.296 50.2319V90.918H509.646C511.477 90.918 512.393 91.7114 512.393 93.2983V97.6196C512.393 99.2065 511.477 100 509.646 100H480.166Z" fill="white"/>
</svg>
