<svg width="367" height="145" viewBox="0 0 367 145" fill="none" xmlns="http://www.w3.org/2000/svg">
<rect x="1.5" y="1.5" width="364" height="142" rx="36.5" fill="#2A2734" stroke="white" stroke-width="3"/>
<path d="M44 74C44 92.593 72.654 107.667 108 107.667C143.346 107.667 172 92.593 172 74C172 55.407 143.345 40.333 108 40.333C72.654 40.333 44 55.407 44 74Z" fill="url(#paint0_radial_53_2)"/>
<path d="M108 105.167C141.965 105.167 169.5 91.212 169.5 74C169.5 56.786 141.965 42.833 108 42.833C74.035 42.833 46.5 56.786 46.5 74C46.5 91.212 74.035 105.167 108 105.167Z" fill="#777BB3"/>
<path d="M78.772 77.8639C81.565 77.8639 83.649 77.3489 84.968 76.3339C86.274 75.3279 87.175 73.5869 87.648 71.1589C88.088 68.8889 87.92 67.3049 87.148 66.4489C86.36 65.5749 84.655 65.1319 82.081 65.1319H77.617L75.144 77.8639H78.772ZM64.173 93.5469C64.0706 93.5468 63.9695 93.524 63.8769 93.4801C63.7843 93.4363 63.7026 93.3725 63.6376 93.2934C63.5726 93.2142 63.5259 93.1217 63.5009 93.0224C63.4759 92.923 63.4732 92.8194 63.493 92.7189L70.05 58.9809C70.081 58.8232 70.1657 58.6811 70.2897 58.5788C70.4137 58.4765 70.5693 58.4204 70.73 58.4199H84.864C89.306 58.4199 92.612 59.6259 94.691 62.0049C96.779 64.3949 97.425 67.7389 96.608 71.9399C96.275 73.6509 95.703 75.2399 94.908 76.6639C94.0804 78.1286 93.0245 79.4519 91.78 80.5839C90.249 82.0159 88.516 83.0559 86.633 83.6669C84.781 84.2709 82.401 84.5769 79.563 84.5769H73.839L72.205 92.9849C72.1741 93.1432 72.0892 93.2858 71.9648 93.3883C71.8404 93.4908 71.6842 93.5469 71.523 93.5469H64.173Z" fill="black"/>
<path d="M78.19 65.8261H82.081C85.188 65.8261 86.267 66.5081 86.634 66.9151C87.241 67.5891 87.357 69.0121 86.965 71.0271C86.526 73.2841 85.712 74.8851 84.545 75.7831C83.351 76.7031 81.407 77.1691 78.772 77.1691H75.986L78.191 65.8271L78.19 65.8261ZM84.864 57.7261H70.731C70.4087 57.7261 70.0964 57.8381 69.8476 58.043C69.5988 58.2479 69.4289 58.5328 69.367 58.8491L62.81 92.5881C62.7713 92.7891 62.7774 92.9961 62.828 93.1944C62.8785 93.3928 62.9723 93.5775 63.1025 93.7354C63.2327 93.8933 63.3961 94.0205 63.5812 94.1079C63.7663 94.1953 63.9683 94.2408 64.173 94.2411H71.523C71.8453 94.2408 72.1574 94.1285 72.406 93.9235C72.6547 93.7185 72.8243 93.4334 72.886 93.1171L74.411 85.2711H79.562C82.474 85.2711 84.926 84.9531 86.849 84.3271C88.826 83.6851 90.645 82.5961 92.255 81.0901C93.5513 79.9093 94.6514 78.5297 95.514 77.0031C96.345 75.5161 96.943 73.8561 97.289 72.0721C98.149 67.6491 97.45 64.1081 95.213 61.5481C92.997 59.0111 89.515 57.7251 84.864 57.7251V57.7261ZM74.301 78.5571H78.772C81.735 78.5571 83.942 78.0001 85.392 76.8821C86.843 75.7661 87.82 73.9021 88.33 71.2911C88.815 68.7831 88.594 67.0141 87.665 65.9831C86.734 64.9531 84.874 64.4371 82.081 64.4371H77.045L74.301 78.5571ZM84.865 59.1121C89.117 59.1121 92.218 60.2291 94.168 62.4601C96.118 64.6921 96.704 67.8071 95.928 71.8061C95.606 73.4541 95.065 74.9601 94.303 76.3241C93.539 77.6901 92.543 78.9381 91.312 80.0711C89.844 81.4441 88.215 82.4231 86.42 83.0061C84.626 83.5901 82.34 83.8811 79.563 83.8811H73.267L71.524 92.8511H64.174L70.732 59.1121H84.865Z" fill="white"/>
<path d="M113.459 84.577C113.357 84.5771 113.255 84.5545 113.163 84.5109C113.07 84.4672 112.988 84.4036 112.923 84.3245C112.858 84.2454 112.811 84.1529 112.785 84.0536C112.76 83.9542 112.757 83.8505 112.777 83.75L115.677 68.8219C115.954 67.4019 115.886 66.3839 115.487 65.952C115.242 65.6889 114.508 65.248 112.337 65.248H107.081L103.435 84.0159C103.404 84.174 103.318 84.3162 103.194 84.4184C103.069 84.5205 102.913 84.5762 102.752 84.5759H95.462C95.3596 84.576 95.2584 84.5535 95.1658 84.5099C95.0731 84.4663 94.9912 84.4028 94.9259 84.3238C94.8607 84.2449 94.8137 84.1525 94.7883 84.0533C94.7629 83.9541 94.7597 83.8505 94.779 83.75L101.337 50.011C101.368 49.8529 101.453 49.7105 101.577 49.6082C101.702 49.5059 101.858 49.4499 102.019 49.45H109.309C109.411 49.4499 109.513 49.4724 109.605 49.516C109.698 49.5596 109.78 49.6231 109.845 49.7021C109.91 49.781 109.957 49.8734 109.983 49.9726C110.008 50.0718 110.011 50.1754 109.992 50.276L108.41 58.4199H114.063C118.37 58.4199 121.29 59.178 122.991 60.741C124.724 62.334 125.266 64.8809 124.599 68.3139L121.548 84.0159C121.517 84.1738 121.432 84.316 121.307 84.4181C121.183 84.5202 121.027 84.576 120.866 84.5759H113.459V84.577Z" fill="black"/>
<path d="M109.31 48.7549H102.019C101.697 48.755 101.384 48.8671 101.135 49.0722C100.887 49.2772 100.717 49.5624 100.655 49.8789L94.098 83.6169C94.0591 83.8179 94.0651 84.0251 94.1156 84.2235C94.1661 84.422 94.2598 84.6068 94.39 84.7649C94.5202 84.9229 94.6837 85.0502 94.8689 85.1377C95.054 85.2251 95.2562 85.2706 95.461 85.2709H102.752C103.074 85.2708 103.387 85.1586 103.636 84.9536C103.884 84.7485 104.054 84.4634 104.116 84.1469L107.653 65.9419H112.335C114.503 65.9419 114.959 66.4049 114.976 66.4259C115.108 66.5659 115.281 67.2209 114.995 68.6899L112.095 83.6169C112.056 83.818 112.062 84.0252 112.113 84.2238C112.163 84.4223 112.257 84.6072 112.387 84.7652C112.518 84.9233 112.681 85.0506 112.867 85.138C113.052 85.2254 113.254 85.2708 113.459 85.2709H120.867C121.189 85.2706 121.501 85.1583 121.75 84.9533C121.999 84.7482 122.168 84.4632 122.23 84.1469L125.281 68.4469C125.996 64.7609 125.384 61.9969 123.461 60.2299C121.625 58.5439 118.551 57.7249 114.063 57.7249H109.253L110.674 50.4099C110.713 50.2087 110.707 50.0013 110.657 49.8027C110.606 49.604 110.512 49.419 110.382 49.2608C110.252 49.1027 110.088 48.9753 109.903 48.8878C109.717 48.8004 109.515 48.755 109.31 48.7549ZM109.31 50.1449L107.567 59.1129H114.063C118.15 59.1129 120.97 59.8269 122.52 61.2529C124.073 62.6789 124.537 64.9879 123.918 68.1829L120.866 83.8819H113.459L116.36 68.9539C116.69 67.2559 116.568 66.0979 115.995 65.4799C115.422 64.8629 114.202 64.5539 112.337 64.5539H106.508L102.752 83.8809H95.46L102.018 50.1419H109.31V50.1449Z" fill="white"/>
<path d="M136.136 77.8639C138.929 77.8639 141.014 77.3489 142.334 76.3339C143.638 75.3279 144.54 73.5869 145.013 71.1589C145.453 68.8889 145.286 67.3049 144.513 66.4489C143.725 65.5749 142.02 65.1319 139.446 65.1319H134.983L132.508 77.8639H136.136ZM121.54 93.5469C121.437 93.5471 121.336 93.5245 121.243 93.4808C121.15 93.4371 121.068 93.3733 121.003 93.2942C120.938 93.215 120.891 93.1223 120.866 93.0228C120.841 92.9234 120.838 92.8196 120.858 92.7189L127.415 58.9809C127.446 58.8229 127.531 58.6805 127.655 58.5782C127.78 58.4759 127.936 58.4199 128.097 58.4199H142.23C146.672 58.4199 149.978 59.6259 152.056 62.0049C154.145 64.3949 154.79 67.7389 153.973 71.9399C153.661 73.5947 153.087 75.1893 152.274 76.6639C151.446 78.1284 150.39 79.4517 149.146 80.5839C147.616 82.0159 145.881 83.0559 143.999 83.6669C142.147 84.2709 139.767 84.5769 136.928 84.5769H131.205L129.572 92.9849C129.541 93.1433 129.456 93.286 129.331 93.3886C129.207 93.4911 129.05 93.5471 128.889 93.5469H121.54Z" fill="black"/>
<path d="M135.555 65.8261H139.446C142.553 65.8261 143.632 66.5081 143.998 66.9151C144.608 67.5891 144.722 69.0121 144.331 71.0271C143.891 73.2841 143.077 74.8851 141.91 75.7831C140.715 76.7031 138.771 77.1691 136.137 77.1691H133.351L135.555 65.8261ZM142.229 57.7261H128.096C127.774 57.7264 127.462 57.8385 127.213 58.0433C126.965 58.2482 126.795 58.533 126.733 58.8491L120.175 92.5881C120.136 92.7892 120.142 92.9963 120.193 93.1947C120.244 93.3931 120.337 93.5779 120.468 93.7358C120.598 93.8937 120.762 94.0209 120.947 94.1082C121.132 94.1956 121.334 94.241 121.539 94.2411H128.889C129.211 94.2408 129.523 94.1285 129.772 93.9235C130.021 93.7185 130.19 93.4334 130.252 93.1171L131.777 85.2711H136.927C139.838 85.2711 142.291 84.9531 144.213 84.3271C146.191 83.6851 148.01 82.5961 149.621 81.0891C150.917 79.9086 152.017 78.5293 152.879 77.0031C153.711 75.5161 154.307 73.8561 154.654 72.0721C155.514 67.6491 154.816 64.1081 152.578 61.5481C150.362 59.0111 146.881 57.7251 142.228 57.7251L142.229 57.7261ZM131.666 78.5571H136.136C139.1 78.5571 141.306 78.0001 142.758 76.8821C144.208 75.7661 145.186 73.9021 145.694 71.2911C146.181 68.7831 145.96 67.0141 145.029 65.9831C144.099 64.9531 142.238 64.4371 139.446 64.4371H134.411L131.666 78.5571ZM142.229 59.1121C146.48 59.1121 149.583 60.2291 151.532 62.4601C153.482 64.6921 154.069 67.8071 153.291 71.8061C152.971 73.4541 152.429 74.9601 151.667 76.3241C150.904 77.6901 149.907 78.9381 148.675 80.0711C147.208 81.4441 145.578 82.4231 143.783 83.0061C141.99 83.5901 139.705 83.8811 136.927 83.8811H130.632L128.887 92.8511H121.537L128.095 59.1121H142.229Z" fill="white"/>
<path d="M193.423 100C191.714 100 190.859 99.0845 190.859 97.2534V50.2319C190.859 48.4009 191.714 47.4854 193.423 47.4854H207.119C215.908 47.4854 222 48.9136 225.393 51.77C228.811 54.6265 230.52 58.6792 230.52 63.9282C230.52 69.1772 228.811 73.23 225.393 76.0864C222 78.9429 215.908 80.3711 207.119 80.3711H201.553V97.2534C201.553 99.0845 200.698 100 198.989 100H193.423ZM201.553 71.4355H207.083C211.965 71.4355 215.286 70.8618 217.043 69.7144C218.801 68.5425 219.68 66.6138 219.68 63.9282C219.68 61.2427 218.801 59.3262 217.043 58.1787C215.286 57.0068 211.965 56.4209 207.083 56.4209H201.553V71.4355ZM242.056 100C240.347 100 239.492 99.0845 239.492 97.2534V50.2319C239.492 48.4009 240.347 47.4854 242.056 47.4854H247.622C249.331 47.4854 250.186 48.4009 250.186 50.2319V68.1396H269.888V50.2319C269.888 48.4009 270.742 47.4854 272.451 47.4854H278.018C279.727 47.4854 280.581 48.4009 280.581 50.2319V97.2534C280.581 99.0845 279.727 100 278.018 100H272.451C270.742 100 269.888 99.0845 269.888 97.2534V77.2217H250.186V97.2534C250.186 99.0845 249.331 100 247.622 100H242.056ZM294.863 100C293.154 100 292.3 99.0845 292.3 97.2534V50.2319C292.3 48.4009 293.154 47.4854 294.863 47.4854H308.56C317.349 47.4854 323.44 48.9136 326.833 51.77C330.251 54.6265 331.96 58.6792 331.96 63.9282C331.96 69.1772 330.251 73.23 326.833 76.0864C323.44 78.9429 317.349 80.3711 308.56 80.3711H302.993V97.2534C302.993 99.0845 302.139 100 300.43 100H294.863ZM302.993 71.4355H308.523C313.406 71.4355 316.726 70.8618 318.484 69.7144C320.242 68.5425 321.121 66.6138 321.121 63.9282C321.121 61.2427 320.242 59.3262 318.484 58.1787C316.726 57.0068 313.406 56.4209 308.523 56.4209H302.993V71.4355Z" fill="white"/>
<defs>
<radialGradient id="paint0_radial_53_2" cx="0" cy="0" r="1" gradientUnits="userSpaceOnUse" gradientTransform="translate(82.426 52.169) scale(84.0414)">
<stop stop-color="#AEB2D5"/>
<stop offset="0.3" stop-color="#AEB2D5"/>
<stop offset="0.75" stop-color="#484C89"/>
<stop offset="1" stop-color="#484C89"/>
</radialGradient>
</defs>
</svg>
