<svg width="727" height="145" viewBox="0 0 727 145" fill="none" xmlns="http://www.w3.org/2000/svg">
<rect x="1.5" y="1.5" width="724" height="142" rx="36.5" fill="#2A2734" stroke="white" stroke-width="3"/>
<path d="M137.809 102.112C138.594 95.579 138.359 94.62 143.225 95.679L144.46 95.787C148.202 95.957 153.097 95.185 155.973 93.849C162.164 90.976 165.834 86.181 159.731 87.44C145.807 90.313 144.85 85.598 144.85 85.598C159.553 63.783 165.699 36.09 160.393 29.311C145.923 10.822 120.876 19.565 120.457 19.791L120.323 19.816C117.572 19.245 114.493 18.904 111.034 18.848C104.733 18.744 99.952 20.5 96.325 23.25C96.325 23.25 51.642 4.84097 53.721 46.401C54.163 55.242 66.393 113.299 80.981 95.763C86.313 89.351 91.465 83.929 91.465 83.929C94.023 85.628 97.087 86.496 100.299 86.184L100.548 85.972C100.47 86.768 100.504 87.547 100.647 88.469C96.89 92.668 97.994 93.405 90.481 94.951C82.879 96.517 87.345 99.306 90.26 100.035C93.795 100.919 101.972 102.171 107.498 94.437L107.278 95.319C108.752 96.499 108.653 103.796 108.861 109.009C109.07 114.223 109.419 119.088 110.482 121.957C111.545 124.825 112.799 132.213 122.673 130.097C130.925 128.333 137.234 125.788 137.809 102.112Z" fill="black"/>
<path d="M119.458 135.256C115.091 135.256 112.247 133.567 110.52 131.936C107.913 129.476 106.879 126.307 106.261 124.414L105.994 123.624C104.75 120.266 104.328 115.431 104.078 109.205C104.04 108.27 104.014 107.307 103.985 106.286C103.964 105.539 103.938 104.602 103.9 103.622C102.327 104.372 100.657 104.9 98.938 105.19C95.859 105.716 92.549 105.546 89.098 104.683C86.663 104.074 84.133 102.812 82.691 100.863C78.488 104.544 74.479 104.045 72.295 103.316C68.442 102.031 64.994 98.4201 61.753 92.2791C59.444 87.9041 57.211 82.2041 55.115 75.3361C51.465 63.3761 49.146 50.7791 48.94 46.6431C48.292 33.6981 51.777 24.4401 59.296 19.1291C71.157 10.7511 89.128 15.6781 95.68 17.9151C100.082 15.2621 105.261 13.9711 111.113 14.0641C114.256 14.1151 117.249 14.3911 120.029 14.8871C122.929 13.9751 128.657 12.6661 135.214 12.7481C147.295 12.8921 157.306 17.6001 164.163 26.3631C169.057 32.6151 166.637 45.7441 164.76 53.0141C162.118 63.2401 157.489 74.1161 151.803 83.5841C153.347 83.5951 155.584 83.4101 158.764 82.7531C165.038 81.4581 166.873 84.8221 167.371 86.3281C169.366 92.3701 160.694 96.9361 157.989 98.1921C154.523 99.8011 148.872 100.781 144.244 100.569L144.042 100.556L142.826 100.449L142.706 101.463L142.59 102.454C142.279 114.453 140.565 122.052 137.038 127.073C133.341 132.337 128.203 133.812 123.677 134.782C122.133 135.112 120.73 135.256 119.458 135.256ZM110.268 91.5851C113.087 93.8411 113.334 98.0861 113.555 106.019C113.583 107.009 113.609 107.946 113.644 108.821C113.75 111.471 113.999 117.676 114.971 120.298C115.108 120.669 115.231 121.045 115.361 121.444C116.444 124.76 116.987 126.423 121.67 125.422C125.601 124.579 127.622 123.823 129.204 121.571C131.503 118.297 132.789 111.711 133.025 101.996L137.808 102.112L133.058 101.542L133.198 100.356C133.653 96.4461 133.981 93.6221 136.594 91.7541C138.691 90.2561 141.08 90.4011 142.983 90.7441C140.892 89.1641 140.314 87.3111 140.16 86.5511L139.761 84.5861L140.882 82.9231C147.339 73.3431 152.663 61.5691 155.491 50.6191C158.397 39.3681 157.511 33.3931 156.625 32.2631C144.896 17.2761 124.557 23.4641 122.433 24.1661L122.074 24.3601L120.274 24.6951L119.352 24.5041C116.81 23.9761 113.986 23.6841 110.959 23.6351C106.203 23.5551 102.366 24.6791 99.22 27.0661L97.037 28.7211L94.504 27.6781C89.092 25.4651 73.196 21.0161 64.808 26.9571C60.152 30.2551 58.031 36.7171 58.503 46.1641C58.659 49.2831 60.778 61.0901 64.274 72.5411C69.105 88.3661 73.495 93.6231 75.328 94.2341C75.648 94.3421 76.478 93.6971 77.304 92.7051C80.748 88.5764 84.3143 84.5513 87.998 80.6351L90.768 77.7201L94.117 79.9451C95.467 80.8421 96.956 81.3511 98.485 81.4471L106.472 74.6351L105.315 86.4431C105.289 86.7081 105.276 87.0691 105.38 87.7391L105.728 89.9771L104.218 91.6651L104.044 91.8611L108.432 93.8861L110.268 91.5851Z" fill="black"/>
<path d="M159.731 87.4399C145.806 90.3129 144.849 85.5979 144.849 85.5979C159.552 63.7819 165.698 36.0879 160.394 29.3109C145.924 10.8229 120.875 19.5659 120.457 19.7929L120.322 19.8169C117.571 19.2459 114.492 18.9059 111.031 18.8499C104.73 18.7469 99.951 20.5019 96.324 23.2519C96.324 23.2519 51.64 4.84394 53.718 46.4029C54.16 55.2449 66.39 113.302 80.978 95.7659C86.31 89.3539 91.461 83.9319 91.461 83.9319C94.02 85.6309 97.083 86.4989 100.294 86.1869L100.544 85.9749C100.466 86.7709 100.502 87.5499 100.644 88.4719C96.886 92.6709 97.99 93.4079 90.477 94.9539C82.875 96.5199 87.341 99.3089 90.257 100.038C93.791 100.922 101.969 102.174 107.494 94.4399L107.273 95.3219C108.746 96.5019 109.78 102.994 109.607 108.879C109.433 114.764 109.317 118.805 110.478 121.961C111.638 125.117 112.794 132.217 122.67 130.101C130.922 128.333 135.198 123.75 135.794 116.106C136.216 110.671 137.171 111.475 137.232 106.616L137.999 104.316C138.883 96.9489 138.139 94.5729 143.224 95.6779L144.459 95.7859C148.201 95.9559 153.098 95.1839 155.973 93.8479C162.163 90.9769 165.834 86.1809 159.731 87.4399Z" fill="#336791"/>
<path d="M119.957 132.307C111.725 132.307 109.117 125.788 108.05 123.122C106.488 119.215 106.151 104.053 106.499 91.6191C106.504 91.4094 106.551 91.2028 106.636 91.0112C106.722 90.8196 106.844 90.6468 106.996 90.5027C107.149 90.3587 107.328 90.2462 107.524 90.1718C107.72 90.0973 107.929 90.0624 108.139 90.0691C108.348 90.0748 108.555 90.1217 108.746 90.2072C108.937 90.2927 109.11 90.415 109.254 90.5673C109.398 90.7195 109.51 90.8986 109.585 91.0944C109.66 91.2901 109.695 91.4987 109.689 91.7081C109.288 106.049 109.857 119.045 111.013 121.937C112.817 126.446 115.553 130.39 123.288 128.733C130.631 127.158 133.381 124.374 134.606 117.273C135.546 111.824 137.405 96.3221 137.634 93.2631C137.649 93.0541 137.706 92.8501 137.8 92.6629C137.894 92.4757 138.025 92.3089 138.184 92.1722C138.342 92.0354 138.527 91.9314 138.726 91.866C138.925 91.8006 139.135 91.7751 139.344 91.7911C139.766 91.8231 140.158 92.0211 140.434 92.3417C140.71 92.6623 140.847 93.0792 140.816 93.5011C140.577 96.6861 138.727 112.158 137.751 117.816C136.305 126.203 132.566 130.007 123.957 131.853C122.494 132.166 121.165 132.306 119.957 132.307ZM75.321 100.466C74.6015 100.464 73.887 100.345 73.205 100.116C67.858 98.3321 62.765 89.6241 58.067 74.2311C54.491 62.5141 52.225 50.2841 52.026 46.3091C51.437 34.5251 54.471 26.1881 61.046 21.5311C74.053 12.3151 95.934 21.0911 96.859 21.4691C97.2509 21.6292 97.5631 21.9383 97.727 22.3286C97.8909 22.7188 97.8931 23.1582 97.733 23.5501C97.573 23.942 97.2638 24.2542 96.8735 24.4181C96.4833 24.582 96.0439 24.5842 95.652 24.4241C95.441 24.3381 74.459 15.9321 62.884 24.1391C57.262 28.1251 54.681 35.5311 55.212 46.1501C55.379 49.4991 57.496 61.4351 61.118 73.2991C65.312 87.0411 70.085 95.7121 74.214 97.0891C74.862 97.3051 76.834 97.9621 79.653 94.5721C82.9405 90.6239 86.3512 86.78 89.88 83.0461C90.1753 82.7516 90.5741 82.5843 90.9912 82.5802C91.4082 82.576 91.8103 82.7352 92.1114 83.0238C92.4125 83.3124 92.5887 83.7073 92.6023 84.1241C92.6158 84.541 92.4657 84.9466 92.184 85.2541C92.136 85.3041 87.337 90.3211 82.107 96.6131C79.63 99.5921 77.256 100.466 75.321 100.466ZM144.75 87.0211C144.461 87.0207 144.177 86.9417 143.929 86.7925C143.681 86.6434 143.479 86.4296 143.343 86.1742C143.207 85.9188 143.143 85.6313 143.158 85.3424C143.173 85.0535 143.267 84.7741 143.428 84.5341C158.291 62.4791 163.508 35.8301 159.04 30.1201C153.416 22.9341 145.475 19.1811 135.436 18.9641C128.003 18.8041 122.095 20.7021 121.129 21.0331L120.886 21.1321C119.915 21.4371 119.17 20.9051 118.889 20.2831C118.729 19.9267 118.705 19.5241 118.821 19.151C118.937 18.778 119.186 18.4604 119.52 18.2581C119.566 18.2311 119.712 18.1691 119.949 18.0821C121.59 17.4811 127.588 15.6811 135.017 15.7661C146.125 15.8841 155.301 20.1671 161.551 28.1541C164.508 31.9331 164.515 40.6391 161.57 52.0411C158.568 63.6661 152.919 76.1591 146.073 86.3181C145.767 86.7751 145.263 87.0211 144.75 87.0211ZM145.51 97.2311C142.972 97.2311 140.697 96.8731 139.335 96.0571C137.935 95.2181 137.668 94.0781 137.633 93.4731C137.251 86.7631 140.953 85.5951 142.841 85.0621C142.578 84.6641 142.204 84.1961 141.817 83.7131C140.716 82.3371 139.208 80.4531 138.046 77.6351C137.864 77.1951 137.294 76.1721 136.634 74.9871C133.055 68.5691 125.608 55.2141 130.392 48.3751C132.606 45.2101 137.015 43.9641 143.511 44.6591C141.6 38.8371 132.5 20.6251 110.907 20.2711C104.413 20.1631 99.087 22.1601 95.085 26.2011C86.125 35.2501 86.449 51.6231 86.454 51.7871C86.4595 51.9966 86.4237 52.205 86.3487 52.4007C86.2736 52.5963 86.1608 52.7752 86.0166 52.9272C85.8723 53.0792 85.6996 53.2014 85.5082 53.2866C85.3168 53.3719 85.1105 53.4186 84.901 53.4241C84.6916 53.4296 84.4831 53.3938 84.2874 53.3188C84.0918 53.2437 83.9129 53.1308 83.7609 52.9866C83.6089 52.8424 83.4868 52.6697 83.4015 52.4783C83.3163 52.2869 83.2695 52.0806 83.264 51.8711C83.244 51.1441 82.91 33.9621 92.818 23.9551C97.455 19.2721 103.559 16.9601 110.96 17.0811C124.774 17.3081 133.666 24.3311 138.692 30.1821C144.171 36.5591 146.857 43.5931 147.078 45.9411C147.243 47.6871 145.99 48.0361 145.737 48.0881L145.161 48.1011C138.786 47.0801 134.696 47.7891 133.005 50.2051C129.366 55.4061 136.411 68.0391 139.419 73.4341C140.187 74.8101 140.741 75.8051 140.995 76.4191C141.983 78.8151 143.272 80.4251 144.307 81.7191C145.218 82.8571 146.007 83.8441 146.289 85.0021C146.42 85.2321 148.279 87.9821 159.31 85.7051C162.075 85.1351 163.733 85.6221 164.24 87.1551C165.237 90.1701 159.643 93.6871 156.546 95.1251C153.771 96.4151 149.342 97.2311 145.51 97.2311ZM140.814 93.2101C141.164 93.5631 142.915 94.1721 146.541 94.0161C149.765 93.8781 153.165 93.1771 155.205 92.2301C157.814 91.0181 159.556 89.6631 160.458 88.7381L159.958 88.8301C152.905 90.2861 147.916 90.0921 145.13 88.2531C144.943 88.1294 144.763 87.9955 144.59 87.8521C144.288 87.9711 144.009 88.0491 143.81 88.1051C142.23 88.5481 140.596 89.0071 140.814 93.2101ZM95.252 102.125C93.5 102.125 91.656 101.886 89.773 101.415C87.822 100.927 84.533 99.4581 84.583 97.0451C84.64 94.3381 88.577 93.5261 90.059 93.2211C95.413 92.1181 95.762 91.6761 97.435 89.5511C97.923 88.9321 98.53 88.1611 99.358 87.2371C100.587 85.8611 101.93 85.1641 103.35 85.1641C104.339 85.1641 105.15 85.4991 105.686 85.7221C107.394 86.4301 108.819 88.1421 109.405 90.1891C109.934 92.0361 109.681 93.8141 108.695 95.1951C105.458 99.7281 100.809 102.125 95.252 102.125ZM88.03 97.1821C88.511 97.5541 89.475 98.0511 90.548 98.3191C92.179 98.7271 93.761 98.9341 95.253 98.9341C99.799 98.9341 103.449 97.0521 106.1 93.3401C106.653 92.5661 106.487 91.5831 106.339 91.0661C106.029 89.9831 105.259 88.9981 104.466 88.6691C104.036 88.4911 103.679 88.3551 103.351 88.3551C103.175 88.3551 102.639 88.3551 101.737 89.3641C101.115 90.0641 100.516 90.7852 99.943 91.5261C97.859 94.1721 96.904 95.0701 90.704 96.3471C89.191 96.6571 88.415 96.9731 88.03 97.1821ZM100.299 89.8221C99.9181 89.8215 99.55 89.6847 99.2611 89.4364C98.9723 89.188 98.7818 88.8446 98.724 88.4681C98.6844 88.2032 98.6577 87.9366 98.644 87.6691C94.58 87.5931 90.659 85.8491 87.682 82.7431C83.918 78.8161 82.205 73.3751 82.983 67.8161C83.828 61.7791 83.512 56.4501 83.342 53.5871C83.295 52.7911 83.261 52.2161 83.263 51.8181C83.266 51.3131 83.276 49.9741 87.752 47.7051C89.344 46.8981 92.536 45.4901 96.023 45.1291C101.8 44.5321 105.608 47.1051 106.748 52.3751C109.825 66.6031 106.992 72.8961 104.923 77.4921C104.538 78.3481 104.174 79.1561 103.883 79.9391L103.626 80.6291C102.533 83.5601 101.588 86.0921 101.878 87.9831C101.91 88.1902 101.901 88.4016 101.851 88.6051C101.801 88.8086 101.711 89.0003 101.587 89.1692C101.463 89.3381 101.307 89.481 101.128 89.5896C100.949 89.6982 100.75 89.7704 100.543 89.8021L100.299 89.8221ZM86.464 52.2601L86.526 53.3991C86.702 56.3731 87.03 61.9071 86.142 68.2591C85.501 72.8441 86.901 77.3191 89.985 80.5351C92.422 83.0771 95.629 84.4801 98.925 84.4801H98.993C99.362 82.9251 99.975 81.2831 100.635 79.5141L100.89 78.8281C101.219 77.9441 101.604 77.0881 102.012 76.1821C104.003 71.7581 106.482 66.2511 103.627 53.0501C103.062 50.4351 101.691 48.9221 99.438 48.4231C94.81 47.4011 87.913 50.8821 86.464 52.2601ZM96.094 51.5831C96.014 52.1471 97.127 53.6531 98.579 53.8541C100.028 54.0571 101.268 52.8791 101.347 52.3151C101.426 51.7511 100.314 51.1291 98.862 50.9271C97.411 50.7251 96.171 51.0191 96.094 51.5831ZM98.912 54.4091L98.505 54.3811C97.605 54.2561 96.695 53.6891 96.072 52.8631C95.853 52.5731 95.496 52.0111 95.567 51.5091C95.668 50.7731 96.566 50.3321 97.967 50.3321C98.28 50.3321 98.606 50.3551 98.934 50.4011C99.7 50.5071 100.411 50.7281 100.936 51.0211C101.846 51.5291 101.913 52.0961 101.872 52.3891C101.76 53.2021 100.467 54.4091 98.912 54.4091ZM96.623 51.6771C96.668 52.0251 97.53 53.1731 98.652 53.3281L98.913 53.3461C99.949 53.3461 100.723 52.5311 100.814 52.2641C100.718 52.0821 100.052 51.6301 98.789 51.4541C98.5171 51.4151 98.2427 51.3954 97.968 51.3951C97.156 51.3951 96.725 51.5781 96.623 51.6771ZM140.228 50.4321C140.307 50.9961 139.195 52.5021 137.744 52.7041C136.294 52.9061 135.053 51.7291 134.973 51.1651C134.897 50.6011 136.009 49.9781 137.459 49.7771C138.909 49.5741 140.148 49.8691 140.228 50.4321ZM137.409 52.9921C136.013 52.9921 134.808 51.9061 134.709 51.2011C134.594 50.3551 135.987 49.7121 137.421 49.5131C137.737 49.4691 138.05 49.4471 138.351 49.4471C139.589 49.4471 140.409 49.8101 140.491 50.3961C140.544 50.7751 140.253 51.3601 139.752 51.8881C139.421 52.2351 138.726 52.8361 137.779 52.9671L137.409 52.9921ZM138.352 49.9791C138.076 49.9791 137.788 50.0001 137.496 50.0401C136.055 50.2411 135.195 50.8191 135.237 51.1291C135.285 51.4701 136.205 52.4611 137.41 52.4611L137.707 52.4401C138.494 52.3311 139.085 51.8171 139.367 51.5211C139.81 51.0561 139.986 50.6181 139.965 50.4691C139.937 50.2711 139.405 49.9791 138.352 49.9791ZM142.317 82.8221C142.028 82.8223 141.744 82.7438 141.496 82.5951C141.248 82.4465 141.046 82.2332 140.91 81.9781C140.774 81.723 140.709 81.4357 140.724 81.147C140.739 80.8583 140.832 80.579 140.993 80.3391C144.391 75.2641 143.769 70.0891 143.168 65.0841C142.911 62.9521 142.647 60.7471 142.715 58.6311C142.785 56.4541 143.062 54.6581 143.329 52.9211C143.646 50.8631 143.946 48.9191 143.822 46.6111C143.811 46.4019 143.841 46.1925 143.91 45.9949C143.98 45.7973 144.088 45.6154 144.228 45.4595C144.368 45.3036 144.537 45.1768 144.726 45.0863C144.915 44.9958 145.12 44.9434 145.329 44.9321C145.538 44.9208 145.748 44.9508 145.945 45.0204C146.143 45.0901 146.325 45.1979 146.481 45.3379C146.637 45.4778 146.763 45.6471 146.854 45.836C146.944 46.025 146.997 46.2299 147.008 46.4391C147.15 49.0771 146.811 51.2771 146.483 53.4061C146.23 55.0491 145.968 56.7481 145.905 58.7331C145.844 60.6071 146.083 62.5971 146.336 64.7031C146.976 70.0251 147.701 76.0571 143.645 82.1141C143.499 82.3322 143.301 82.511 143.07 82.6345C142.838 82.7579 142.58 82.8224 142.317 82.8221Z" fill="white"/>
<path d="M193.423 100C191.714 100 190.859 99.0845 190.859 97.2534V50.2319C190.859 48.4009 191.714 47.4854 193.423 47.4854H207.119C215.908 47.4854 222 48.9136 225.393 51.77C228.811 54.6265 230.52 58.6792 230.52 63.9282C230.52 69.1772 228.811 73.23 225.393 76.0864C222 78.9429 215.908 80.3711 207.119 80.3711H201.553V97.2534C201.553 99.0845 200.698 100 198.989 100H193.423ZM201.553 71.4355H207.083C211.965 71.4355 215.286 70.8618 217.043 69.7144C218.801 68.5425 219.68 66.6138 219.68 63.9282C219.68 61.2427 218.801 59.3262 217.043 58.1787C215.286 57.0068 211.965 56.4209 207.083 56.4209H201.553V71.4355ZM236.782 73.7427C236.782 65.3198 238.955 58.6304 243.301 53.6743C247.646 48.7183 253.848 46.2402 261.904 46.2402C269.961 46.2402 276.162 48.7183 280.508 53.6743C284.854 58.6304 287.026 65.3198 287.026 73.7427C287.026 82.1655 284.854 88.855 280.508 93.811C276.162 98.7671 269.961 101.245 261.904 101.245C253.848 101.245 247.646 98.7671 243.301 93.811C238.955 88.855 236.782 82.1655 236.782 73.7427ZM248.208 73.7427C248.208 79.8462 249.294 84.5215 251.467 87.7686C253.665 90.9912 257.144 92.6025 261.904 92.6025C266.665 92.6025 270.132 90.9912 272.305 87.7686C274.502 84.5215 275.601 79.8462 275.601 73.7427C275.601 67.6392 274.502 62.9761 272.305 59.7534C270.132 56.5063 266.665 54.8828 261.904 54.8828C257.144 54.8828 253.665 56.5063 251.467 59.7534C249.294 62.9761 248.208 67.6392 248.208 73.7427ZM296.658 96.0815C295.144 94.9341 294.778 93.7744 295.559 92.6025L298.379 88.3545C299.307 86.9629 300.662 86.8896 302.444 88.1348C303.811 89.0869 305.593 90.0757 307.791 91.1011C310.012 92.1021 312.344 92.6025 314.785 92.6025C316.494 92.6025 318.142 92.4072 319.729 92.0166C321.316 91.626 322.524 90.8691 323.354 89.7461C324.185 88.623 324.6 87.2925 324.6 85.7544C324.6 84.6558 324.417 83.6914 324.05 82.8613C323.684 82.0312 323.086 81.3477 322.256 80.8105C321.426 80.2734 320.571 79.8218 319.692 79.4556C318.154 78.8208 316.213 78.1982 313.87 77.5879C311.55 76.9531 309.255 76.1963 306.985 75.3174C304.958 74.5361 303.103 73.4619 301.418 72.0947C299.734 70.7275 298.428 69.1895 297.5 67.4805C296.572 65.7715 296.108 63.4888 296.108 60.6323C296.108 57.2388 297.207 54.3335 299.404 51.9165C301.602 49.4995 304.128 47.9492 306.985 47.2656C309.841 46.582 312.722 46.2402 315.627 46.2402C318.508 46.2402 321.475 46.6797 324.526 47.5586C327.603 48.4375 329.922 49.5361 331.484 50.8545C333.022 52.1484 333.401 53.3203 332.62 54.3701L329.653 58.3618C328.652 59.729 327.31 59.8389 325.625 58.6914C324.551 57.959 323.074 57.1411 321.194 56.2378C319.338 55.3345 317.397 54.8828 315.371 54.8828C313.931 54.8828 312.6 55.0049 311.379 55.249C310.183 55.4932 309.121 56.0791 308.193 57.0068C307.266 57.9346 306.802 59.082 306.802 60.4492C306.802 61.7676 307.144 62.8418 307.827 63.6719C308.511 64.4775 309.268 65.0879 310.098 65.5029C310.928 65.8936 311.77 66.2231 312.625 66.4917C315.261 67.3462 317.617 68.103 319.692 68.7622C321.768 69.397 323.684 70.105 325.442 70.8862C327.883 71.9849 329.751 73.0835 331.045 74.1821C332.339 75.2808 333.401 76.7822 334.231 78.6865C335.085 80.5908 335.513 82.8613 335.513 85.498C335.513 89.4043 334.268 92.6392 331.777 95.2026C329.287 97.7417 326.516 99.3774 323.464 100.11C320.437 100.867 317.483 101.245 314.602 101.245C310.354 101.245 306.899 100.83 304.238 100C301.577 99.1943 299.05 97.8882 296.658 96.0815ZM342.068 56.8604C340.237 56.8604 339.321 56.0669 339.321 54.48V49.8657C339.321 48.2788 340.237 47.4854 342.068 47.4854H379.714C381.545 47.4854 382.461 48.2788 382.461 49.8657V54.48C382.461 56.0669 381.545 56.8604 379.714 56.8604H366.238V97.9858C366.238 99.3286 365.627 100 364.407 100H357.375C356.155 100 355.544 99.3286 355.544 97.9858V56.8604H342.068ZM386.855 73.7427C386.855 65.3198 389.053 58.6304 393.447 53.6743C397.842 48.7183 404.067 46.2402 412.124 46.2402C416.982 46.2402 420.791 46.8628 423.55 48.1079C426.333 49.353 428.774 51.2817 430.874 53.894C432.144 55.481 432.107 56.7139 430.764 57.5928L426.589 60.3027C425.369 61.1084 424.062 60.7544 422.671 59.2407C421.523 57.9956 420.071 56.958 418.313 56.1279C416.555 55.2979 414.614 54.8828 412.49 54.8828C407.363 54.8828 403.713 56.5063 401.541 59.7534C399.368 62.9761 398.281 67.6392 398.281 73.7427C398.281 79.8462 399.368 84.5215 401.541 87.7686C403.713 90.9912 407.363 92.6025 412.49 92.6025C414.98 92.6025 417.129 92.3584 418.936 91.8701C420.742 91.3574 422.451 90.4419 424.062 89.1235V82.5684H416.116C414.285 82.5684 413.369 81.7749 413.369 80.188V75.8667C413.369 74.2798 414.285 73.4863 416.116 73.4863H432.009C433.84 73.4863 434.756 74.2798 434.756 75.8667V94.4702C431.338 96.9849 427.883 98.7427 424.392 99.7437C420.925 100.745 416.836 101.245 412.124 101.245C404.189 101.245 397.988 98.7671 393.521 93.811C389.077 88.855 386.855 82.1655 386.855 73.7427ZM447.28 100C445.571 100 444.717 99.0845 444.717 97.2534V50.2319C444.717 48.4009 445.571 47.4854 447.28 47.4854H464.236C471.78 47.4854 477.285 48.6572 480.752 51.001C484.219 53.3203 485.952 57.1045 485.952 62.3535C485.952 66.2598 484.548 69.3726 481.741 71.6919C478.933 74.0112 475.369 75.5493 471.047 76.3062V76.3794C473.391 77.2583 475.161 78.479 476.357 80.0415C477.554 81.604 478.53 82.9712 479.287 84.1431L487.344 96.8506C488.687 98.9502 488.223 100 485.952 100H479.58C478.237 100 477.139 99.2798 476.284 97.8394L468.887 85.498C468.081 84.1797 466.604 82.7393 464.456 81.1768C462.332 79.5898 460.22 78.7964 458.12 78.7964H455.41V97.2534C455.41 99.0845 454.556 100 452.847 100H447.28ZM455.41 69.7144H461.965C466.848 69.7144 470.315 69.165 472.366 68.0664C474.441 66.9434 475.479 65.1733 475.479 62.7563C475.479 60.1196 474.478 58.4106 472.476 57.6294C470.498 56.8237 467.581 56.4209 463.723 56.4209H455.41V69.7144ZM499.575 100C497.866 100 497.012 99.0845 497.012 97.2534V50.2319C497.012 48.4009 497.866 47.4854 499.575 47.4854H530.996C532.827 47.4854 533.743 48.2788 533.743 49.8657V54.187C533.743 55.7739 532.827 56.5674 530.996 56.5674H507.705V68.2129H529.055C530.886 68.2129 531.802 69.0063 531.802 70.5933V74.9146C531.802 76.5015 530.886 77.2949 529.055 77.2949H507.705V90.918H532.168C533.999 90.918 534.915 91.7114 534.915 93.2983V97.6196C534.915 99.2065 533.999 100 532.168 100H499.575ZM544.509 96.0815C542.996 94.9341 542.629 93.7744 543.411 92.6025L546.23 88.3545C547.158 86.9629 548.513 86.8896 550.295 88.1348C551.663 89.0869 553.445 90.0757 555.642 91.1011C557.864 92.1021 560.195 92.6025 562.637 92.6025C564.346 92.6025 565.994 92.4072 567.581 92.0166C569.167 91.626 570.376 90.8691 571.206 89.7461C572.036 88.623 572.451 87.2925 572.451 85.7544C572.451 84.6558 572.268 83.6914 571.902 82.8613C571.536 82.0312 570.938 81.3477 570.107 80.8105C569.277 80.2734 568.423 79.8218 567.544 79.4556C566.006 78.8208 564.065 78.1982 561.721 77.5879C559.402 76.9531 557.107 76.1963 554.836 75.3174C552.81 74.5361 550.955 73.4619 549.27 72.0947C547.585 70.7275 546.279 69.1895 545.352 67.4805C544.424 65.7715 543.96 63.4888 543.96 60.6323C543.96 57.2388 545.059 54.3335 547.256 51.9165C549.453 49.4995 551.98 47.9492 554.836 47.2656C557.693 46.582 560.574 46.2402 563.479 46.2402C566.36 46.2402 569.326 46.6797 572.378 47.5586C575.454 48.4375 577.773 49.5361 579.336 50.8545C580.874 52.1484 581.252 53.3203 580.471 54.3701L577.505 58.3618C576.504 59.729 575.161 59.8389 573.477 58.6914C572.402 57.959 570.925 57.1411 569.045 56.2378C567.19 55.3345 565.249 54.8828 563.223 54.8828C561.782 54.8828 560.452 55.0049 559.231 55.249C558.035 55.4932 556.973 56.0791 556.045 57.0068C555.117 57.9346 554.653 59.082 554.653 60.4492C554.653 61.7676 554.995 62.8418 555.679 63.6719C556.362 64.4775 557.119 65.0879 557.949 65.5029C558.779 65.8936 559.622 66.2231 560.476 66.4917C563.113 67.3462 565.469 68.103 567.544 68.7622C569.619 69.397 571.536 70.105 573.293 70.8862C575.735 71.9849 577.603 73.0835 578.896 74.1821C580.19 75.2808 581.252 76.7822 582.083 78.6865C582.937 80.5908 583.364 82.8613 583.364 85.498C583.364 89.4043 582.119 92.6392 579.629 95.2026C577.139 97.7417 574.368 99.3774 571.316 100.11C568.289 100.867 565.334 101.245 562.454 101.245C558.206 101.245 554.751 100.83 552.09 100C549.429 99.1943 546.902 97.8882 544.509 96.0815ZM589.077 73.7427C589.077 65.3198 591.25 58.6304 595.596 53.6743C599.941 48.7183 606.143 46.2402 614.199 46.2402C622.256 46.2402 628.457 48.7183 632.803 53.6743C637.148 58.6304 639.321 65.3198 639.321 73.7427C639.321 82.1655 637.148 88.855 632.803 93.811C629.482 97.5952 625.076 99.939 619.583 100.842C619.802 103.04 620.376 104.675 621.304 105.75C622.256 106.848 624.087 107.397 626.797 107.397C628.042 107.397 629.336 107.227 630.679 106.885C631.899 106.567 632.607 106.836 632.803 107.69L633.828 111.938C634.048 112.891 633.608 113.501 632.51 113.77C629.629 114.526 627.334 114.905 625.625 114.905C619.082 114.905 614.712 113.525 612.515 110.767C610.342 108.008 609.121 104.7 608.853 100.842C603.335 99.9634 598.916 97.6196 595.596 93.811C591.25 88.855 589.077 82.1655 589.077 73.7427ZM600.503 73.7427C600.503 79.8462 601.589 84.5215 603.762 87.7686C605.959 90.9912 609.438 92.6025 614.199 92.6025C618.96 92.6025 622.427 90.9912 624.6 87.7686C626.797 84.5215 627.896 79.8462 627.896 73.7427C627.896 67.6392 626.797 62.9761 624.6 59.7534C622.427 56.5063 618.96 54.8828 614.199 54.8828C609.438 54.8828 605.959 56.5063 603.762 59.7534C601.589 62.9761 600.503 67.6392 600.503 73.7427ZM650.894 100C649.185 100 648.33 99.0845 648.33 97.2534V50.2319C648.33 48.4009 649.185 47.4854 650.894 47.4854H656.826C658.291 47.4854 659.023 48.4009 659.023 50.2319V90.918H680.374C682.205 90.918 683.12 91.7114 683.12 93.2983V97.6196C683.12 99.2065 682.205 100 680.374 100H650.894Z" fill="white"/>
</svg>
