<svg width="587" height="145" viewBox="0 0 587 145" fill="none" xmlns="http://www.w3.org/2000/svg">
<rect x="1.5" y="1.5" width="584" height="142" rx="36.5" fill="#2A2734" stroke="white" stroke-width="3"/>
<path d="M157.117 36.0661C136.168 8.93806 97.1911 3.93006 70.0621 24.8831C42.9371 45.8361 37.9341 84.8131 58.8871 111.938C79.8441 139.062 118.824 144.062 145.945 123.105C173.059 102.152 178.063 63.1871 157.117 36.0661Z" fill="#F37036"/>
<path d="M135.078 34.1641C132.941 34.3348 130.916 35.185 129.297 36.5901C127.402 38.235 126.193 40.5303 125.908 43.0231C125.623 45.5158 126.283 48.0249 127.757 50.0551C129.229 52.0862 131.409 53.4917 133.867 53.9943C136.325 54.4969 138.882 54.0601 141.033 52.7701H141.035L141.191 52.9261C141.9 52.5199 142.559 52.0333 143.156 51.4761C144.998 49.5279 146.011 46.9407 145.982 44.2601C145.952 41.5794 144.883 39.0148 143 37.1071V37.1051L134.156 45.8941L134 45.7391L142.844 36.9461C141.82 35.9591 140.599 35.2008 139.26 34.7216C137.921 34.2423 136.496 34.053 135.078 34.1661V34.1641ZM123.434 48.5511C119.194 48.5441 112.271 53.3501 95.367 70.2541L95.451 70.3401C95.359 70.3081 95.266 70.3051 95.266 70.3051L88.902 76.6131C88.7386 76.7685 88.6304 76.9731 88.5939 77.1957C88.5575 77.4183 88.5947 77.6467 88.7 77.8462C88.8053 78.0456 88.9728 78.2052 89.1772 78.3007C89.3815 78.3962 89.6115 78.4223 89.832 78.3751L100.746 76.0471C100.794 76.0018 100.826 75.9422 100.838 75.8771L101.08 76.1271L97.36 79.8171H97.18L75.094 102.077L82.18 108.901C82.3782 109.08 82.6282 109.19 82.8936 109.217C83.1591 109.244 83.4261 109.186 83.656 109.05C83.8879 108.916 84.0736 108.714 84.1888 108.472C84.3039 108.23 84.343 107.959 84.301 107.694L83.266 103.194C83.2015 103.104 83.1668 102.995 83.1668 102.884C83.1668 102.773 83.2015 102.665 83.266 102.574C92.9402 97.9622 101.937 92.0462 110.004 84.9911L105.469 80.4541L105.555 80.4401L102.865 77.7511L103.037 77.5771L103.219 77.7631L103.125 77.8541L110.262 85.1471V85.1441C123.942 72.1901 133.652 61.7771 131.127 54.7691C131.012 53.931 130.623 53.1547 130.02 52.5611V52.5651C129.867 52.451 129.706 52.3488 129.537 52.2591C129.454 52.1711 129.381 52.0811 129.293 51.9951L129.227 52.0611C129.042 51.9479 128.847 51.8509 128.645 51.7711L128.934 51.4791C127.138 49.8791 125.654 48.5551 123.434 48.5491V48.5511ZM74.94 102.21L69.769 107.382V107.386C69.5835 107.501 69.4392 107.672 69.3571 107.874C69.275 108.076 69.2592 108.299 69.312 108.511C69.363 108.723 69.4795 108.913 69.6448 109.055C69.8102 109.196 70.016 109.282 70.233 109.3L82.905 110.175L74.94 102.21Z" fill="white"/>
<path d="M135.95 33.3101C133.048 33.3065 130.26 34.4452 128.191 36.4801C126.718 37.9871 125.71 39.8856 125.286 41.9496C124.863 44.0135 125.041 46.1558 125.801 48.1211C121.06 46.0911 114.646 49.6311 94.695 69.5781C94.681 69.6087 94.6686 69.6401 94.658 69.6721C94.6172 69.6906 94.5775 69.7113 94.539 69.7341L88.23 76.0981C87.9276 76.3949 87.729 76.7813 87.6636 77.1999C87.5982 77.6186 87.6695 78.0472 87.867 78.4221C88.0433 78.7187 88.2928 78.965 88.5918 79.1373C88.8907 79.3096 89.229 79.4022 89.574 79.4061L89.887 79.2031L98.311 77.4061L94.281 81.4731C94.2575 81.5265 94.2394 81.5821 94.227 81.6391L74.477 101.438C74.3982 101.504 74.333 101.585 74.285 101.676L69.199 106.766C68.9455 107.034 68.7723 107.367 68.6991 107.728C68.6259 108.089 68.6557 108.464 68.785 108.809C68.9176 109.152 69.1424 109.452 69.4347 109.675C69.7269 109.898 70.0752 110.036 70.441 110.074L83.059 110.954C83.2742 110.878 83.4575 110.732 83.579 110.539C83.6875 110.388 83.7458 110.207 83.7458 110.022C83.7458 109.836 83.6875 109.655 83.579 109.504L83.553 109.479C83.8253 109.336 84.0652 109.139 84.258 108.899C84.4606 108.636 84.6022 108.331 84.6724 108.007C84.7426 107.682 84.7398 107.346 84.664 107.023L83.68 102.836C93.1204 98.3244 101.966 92.661 110.014 85.9751C110.092 86.0195 110.175 86.0541 110.262 86.0781C110.516 86.0591 110.754 85.9501 110.934 85.7701C124.484 72.9401 132.449 64.1481 132.449 57.1681C132.478 56.1998 132.332 55.2343 132.018 54.3181C133.239 54.8244 134.542 55.1056 135.863 55.1481L135.848 55.1521C137.668 55.0964 139.447 54.5988 141.031 53.7021C141.032 53.7024 141.034 53.7027 141.035 53.7031C141.24 53.7645 141.461 53.7448 141.652 53.6481C142.416 53.1979 143.113 52.6417 143.722 51.9961C144.753 50.9842 145.572 49.777 146.132 48.445C146.691 47.113 146.98 45.6828 146.98 44.2381C146.98 42.7934 146.692 41.3633 146.132 40.0313C145.573 38.6992 144.754 37.492 143.723 36.4801C143.686 36.4466 143.647 36.4162 143.605 36.3891C141.546 34.4125 138.803 33.3095 135.949 33.3111L135.95 33.3101ZM135.863 35.0821C137.884 35.0941 139.845 35.7662 141.449 36.9961L133.381 45.1131C133.353 45.1438 133.328 45.1766 133.305 45.2111C133.16 45.3582 133.074 45.5544 133.066 45.7611C133.066 45.886 133.094 46.0092 133.148 46.1218C133.203 46.2343 133.281 46.3332 133.379 46.4111H133.381L139.481 52.5111C137.811 53.2392 135.961 53.4461 134.171 53.1048C132.382 52.7634 130.737 51.8897 129.453 50.5981C126.867 47.9981 126.117 44.0941 127.5 40.7071C128.883 37.3171 132.18 35.1021 135.863 35.0821ZM142.983 38.5141C144.302 40.1101 145.021 42.1174 145.016 44.1881C145.012 46.6139 144.045 48.9389 142.328 50.6521C141.984 50.976 141.617 51.2751 141.23 51.5471L136.307 46.7001L135.344 45.7371L135.609 45.4721L142.982 38.5121L142.983 38.5141ZM142.617 42.7071C142.436 42.6499 142.24 42.6609 142.067 42.7381C141.895 42.8269 141.766 42.9801 141.707 43.1641C141.678 43.2559 141.668 43.3526 141.676 43.4486C141.685 43.5445 141.712 43.6378 141.757 43.7231C141.935 44.0967 142.005 44.5124 141.959 44.9236C141.914 45.3348 141.755 45.7252 141.5 46.0511C141.435 46.114 141.384 46.19 141.35 46.2741C141.316 46.3583 141.301 46.4486 141.305 46.5391C141.309 46.7231 141.375 46.8991 141.5 47.0311C141.633 47.082 141.781 47.082 141.914 47.0311C142.034 47.0611 142.16 47.0577 142.279 47.0212C142.397 46.9847 142.503 46.9165 142.586 46.8241C143.011 46.3023 143.281 45.6709 143.363 45.0026C143.445 44.3344 143.337 43.6565 143.051 43.0471V43.0511C142.953 42.887 142.799 42.7645 142.617 42.7071ZM123.34 49.4301C124.547 49.4701 125.708 49.9003 126.65 50.6561C125.635 50.8021 124.695 51.2721 123.969 51.9961L101.162 74.7011L96.686 70.2251C108.514 58.4531 115.746 52.3041 120.242 50.2891C121.168 49.7049 122.245 49.4068 123.34 49.4301ZM127.305 52.3901C128.071 52.3901 128.805 52.6936 129.348 53.2341C129.637 53.5049 129.865 53.8341 130.016 54.1998C130.168 54.5655 130.24 54.9594 130.227 55.3551C130.214 55.7493 130.12 56.1366 129.95 56.4927C129.781 56.8489 129.54 57.1663 129.242 57.4251L104.992 78.5311L102.375 75.9141L125.262 53.2341C125.805 52.694 126.539 52.3898 127.305 52.3901ZM130.299 59.0881C128.609 65.7901 119.652 74.8711 110.312 83.6951L106.535 79.9221L130.299 59.0881ZM95.367 71.5471L95.641 71.8171L99.154 75.3301L89.524 77.3901L95.367 71.5471ZM101.16 77.3871L101.164 77.3911L102.332 78.5861C102.337 78.6143 102.343 78.6423 102.35 78.6701L102.428 78.6821L102.676 78.9361L103.496 79.7761L98.111 80.4361L101.161 77.3861L101.16 77.3871ZM105.027 81.4631L108.605 85.0391C100.693 91.618 92.0113 97.211 82.75 101.695C82.4493 101.838 82.2075 102.081 82.0659 102.383C81.9242 102.684 81.8914 103.025 81.973 103.348L83.008 107.848C83.0461 107.901 83.0667 107.964 83.0667 108.03C83.0667 108.095 83.0461 108.158 83.008 108.211C82.9511 108.262 82.8774 108.29 82.801 108.29C82.7246 108.29 82.6509 108.262 82.594 108.211L76.492 102.059L95.3 82.9751L105.027 81.4631ZM75.094 103.403L75.963 104.217L80.455 108.709L70.439 108.061L75.094 103.403Z" fill="#F37036"/>
<path d="M193.423 100C191.714 100 190.859 99.0845 190.859 97.2534V50.2319C190.859 48.4009 191.714 47.4854 193.423 47.4854H207.119C215.908 47.4854 222 48.9136 225.393 51.77C228.811 54.6265 230.52 58.6792 230.52 63.9282C230.52 69.1772 228.811 73.23 225.393 76.0864C222 78.9429 215.908 80.3711 207.119 80.3711H201.553V97.2534C201.553 99.0845 200.698 100 198.989 100H193.423ZM201.553 71.4355H207.083C211.965 71.4355 215.286 70.8618 217.043 69.7144C218.801 68.5425 219.68 66.6138 219.68 63.9282C219.68 61.2427 218.801 59.3262 217.043 58.1787C215.286 57.0068 211.965 56.4209 207.083 56.4209H201.553V71.4355ZM236.782 73.7427C236.782 65.3198 238.955 58.6304 243.301 53.6743C247.646 48.7183 253.848 46.2402 261.904 46.2402C269.961 46.2402 276.162 48.7183 280.508 53.6743C284.854 58.6304 287.026 65.3198 287.026 73.7427C287.026 82.1655 284.854 88.855 280.508 93.811C276.162 98.7671 269.961 101.245 261.904 101.245C253.848 101.245 247.646 98.7671 243.301 93.811C238.955 88.855 236.782 82.1655 236.782 73.7427ZM248.208 73.7427C248.208 79.8462 249.294 84.5215 251.467 87.7686C253.665 90.9912 257.144 92.6025 261.904 92.6025C266.665 92.6025 270.132 90.9912 272.305 87.7686C274.502 84.5215 275.601 79.8462 275.601 73.7427C275.601 67.6392 274.502 62.9761 272.305 59.7534C270.132 56.5063 266.665 54.8828 261.904 54.8828C257.144 54.8828 253.665 56.5063 251.467 59.7534C249.294 62.9761 248.208 67.6392 248.208 73.7427ZM296.658 96.0815C295.144 94.9341 294.778 93.7744 295.559 92.6025L298.379 88.3545C299.307 86.9629 300.662 86.8896 302.444 88.1348C303.811 89.0869 305.593 90.0757 307.791 91.1011C310.012 92.1021 312.344 92.6025 314.785 92.6025C316.494 92.6025 318.142 92.4072 319.729 92.0166C321.316 91.626 322.524 90.8691 323.354 89.7461C324.185 88.623 324.6 87.2925 324.6 85.7544C324.6 84.6558 324.417 83.6914 324.05 82.8613C323.684 82.0312 323.086 81.3477 322.256 80.8105C321.426 80.2734 320.571 79.8218 319.692 79.4556C318.154 78.8208 316.213 78.1982 313.87 77.5879C311.55 76.9531 309.255 76.1963 306.985 75.3174C304.958 74.5361 303.103 73.4619 301.418 72.0947C299.734 70.7275 298.428 69.1895 297.5 67.4805C296.572 65.7715 296.108 63.4888 296.108 60.6323C296.108 57.2388 297.207 54.3335 299.404 51.9165C301.602 49.4995 304.128 47.9492 306.985 47.2656C309.841 46.582 312.722 46.2402 315.627 46.2402C318.508 46.2402 321.475 46.6797 324.526 47.5586C327.603 48.4375 329.922 49.5361 331.484 50.8545C333.022 52.1484 333.401 53.3203 332.62 54.3701L329.653 58.3618C328.652 59.729 327.31 59.8389 325.625 58.6914C324.551 57.959 323.074 57.1411 321.194 56.2378C319.338 55.3345 317.397 54.8828 315.371 54.8828C313.931 54.8828 312.6 55.0049 311.379 55.249C310.183 55.4932 309.121 56.0791 308.193 57.0068C307.266 57.9346 306.802 59.082 306.802 60.4492C306.802 61.7676 307.144 62.8418 307.827 63.6719C308.511 64.4775 309.268 65.0879 310.098 65.5029C310.928 65.8936 311.77 66.2231 312.625 66.4917C315.261 67.3462 317.617 68.103 319.692 68.7622C321.768 69.397 323.684 70.105 325.442 70.8862C327.883 71.9849 329.751 73.0835 331.045 74.1821C332.339 75.2808 333.401 76.7822 334.231 78.6865C335.085 80.5908 335.513 82.8613 335.513 85.498C335.513 89.4043 334.268 92.6392 331.777 95.2026C329.287 97.7417 326.516 99.3774 323.464 100.11C320.437 100.867 317.483 101.245 314.602 101.245C310.354 101.245 306.899 100.83 304.238 100C301.577 99.1943 299.05 97.8882 296.658 96.0815ZM342.068 56.8604C340.237 56.8604 339.321 56.0669 339.321 54.48V49.8657C339.321 48.2788 340.237 47.4854 342.068 47.4854H379.714C381.545 47.4854 382.461 48.2788 382.461 49.8657V54.48C382.461 56.0669 381.545 56.8604 379.714 56.8604H366.238V97.9858C366.238 99.3286 365.627 100 364.407 100H357.375C356.155 100 355.544 99.3286 355.544 97.9858V56.8604H342.068ZM392.129 100C390.42 100 389.565 99.0845 389.565 97.2534V50.2319C389.565 48.4009 390.42 47.4854 392.129 47.4854H402.749C404.165 47.4854 405.178 48.4619 405.789 50.415L415.713 82.5317C416.152 83.9233 416.458 85.0708 416.628 85.9741C416.799 86.853 416.946 87.9028 417.068 89.1235H417.288C417.41 87.9028 417.556 86.853 417.727 85.9741C417.898 85.0708 418.203 83.9233 418.643 82.5317L428.567 50.415C429.177 48.4619 430.19 47.4854 431.606 47.4854H442.227C443.936 47.4854 444.79 48.4009 444.79 50.2319V97.2534C444.79 99.0845 443.936 100 442.227 100H436.66C434.951 100 434.097 99.0845 434.097 97.2534V67.0044C434.097 65.5396 434.158 64.0747 434.28 62.6099H434.023L423.44 97.0337C422.83 99.0112 421.78 100 420.291 100H414.065C412.576 100 411.526 99.0112 410.916 97.0337L400.332 62.6099H400.076C400.198 64.0747 400.259 65.5396 400.259 67.0044V97.2534C400.259 99.0845 399.404 100 397.695 100H392.129ZM454.861 100C453.103 100 452.529 99.1943 453.14 97.583L471.084 50.4517C471.841 48.4741 472.988 47.4854 474.526 47.4854H479.653C481.191 47.4854 482.339 48.4741 483.096 50.4517L501.04 97.583C501.65 99.1943 501.077 100 499.319 100H493.496C491.885 100 490.762 99.1577 490.127 97.4731L486.392 87.6221H467.788L464.053 97.4731C463.418 99.1577 462.295 100 460.684 100H454.861ZM471.194 78.54H482.986L478.481 66.8945C477.944 65.5273 477.615 64.5386 477.493 63.9282C477.395 63.2935 477.285 62.3657 477.163 61.145H477.017C476.895 62.3657 476.772 63.2935 476.65 63.9282C476.553 64.5386 476.235 65.5273 475.698 66.8945L471.194 78.54ZM510.122 100C508.413 100 507.559 99.0845 507.559 97.2534V50.2319C507.559 48.4009 508.413 47.4854 510.122 47.4854H515.542C517.642 47.4854 519.229 48.3398 520.303 50.0488L538.979 80.0415H539.236C539.114 78.5767 539.053 77.1118 539.053 75.647V50.2319C539.053 48.4009 539.907 47.4854 541.616 47.4854H547.183C548.892 47.4854 549.746 48.4009 549.746 50.2319V97.2534C549.746 99.0845 548.892 100 547.183 100H542.129C540.029 100 538.442 99.1455 537.368 97.4365L518.325 66.8945H518.069C518.191 68.3594 518.252 69.8242 518.252 71.2891V97.2534C518.252 99.0845 517.397 100 515.688 100H510.122Z" fill="white"/>
</svg>
