<svg width="704" height="145" viewBox="0 0 704 145" fill="none" xmlns="http://www.w3.org/2000/svg">
<rect x="1.5" y="1.5" width="701" height="142" rx="36.5" fill="#2A2734" stroke="white" stroke-width="3"/>
<g clip-path="url(#clip0_53_2)">
<path d="M108 138C143.346 138 172 109.346 172 74C172 38.6538 143.346 10 108 10C72.6538 10 44 38.6538 44 74C44 109.346 72.6538 138 108 138Z" fill="black"/>
<path d="M99.017 21.1499L122.059 32.5719L99.017 21.1499Z" fill="#6E8375"/>
<path d="M99.017 21.1499L122.059 32.5719" stroke="#123859"/>
<path d="M111.823 27.6299L120.953 32.2149L111.823 27.6299Z" fill="#6E8375"/>
<path d="M111.823 27.6299L120.953 32.2149" stroke="white" stroke-width="0.5"/>
<path d="M51.21 61.26L82.894 82.162" stroke="#152E44" stroke-width="0.65"/>
<path d="M48.1 52.8701C50.105 55.6561 56.438 63.5131 58.74 65.8551" stroke="#E5B828" stroke-width="0.5"/>
<path d="M170.79 63.99L151.107 69.128L170.79 63.99Z" fill="#0F212E"/>
<path d="M170.79 63.99L151.107 69.128" stroke="#1B344C" stroke-width="0.3"/>
<path d="M168.68 53.5399L148.042 82.1149L135.607 52.4819" stroke="#326A9C"/>
<path d="M133.88 49.5701L146.401 80.2011" stroke="#E5B828" stroke-width="0.514"/>
<path d="M117.966 115.73L147.3 82.4331L117.966 115.73Z" fill="#1B344B"/>
<path d="M117.966 115.73L147.3 82.4331" stroke="#326A9C" stroke-width="0.6"/>
<path d="M127.873 90.96L143.087 116.492L127.873 90.96Z" fill="#326A9C"/>
<path d="M127.873 90.96L143.087 116.492" stroke="#326A9C" stroke-width="0.8"/>
<path d="M129.53 134.66L118.147 116.005" stroke="#19344E" stroke-width="0.6"/>
<path d="M143.086 116.49L118.414 126.875L143.086 116.49Z" fill="#0A2035"/>
<path d="M143.086 116.49L118.414 126.875" stroke="#0A2035" stroke-width="0.8"/>
<path d="M106.045 132.24L118.414 126.882L106.045 132.24Z" fill="#0A2035"/>
<path d="M106.045 132.24L118.414 126.882" stroke="#0A2035" stroke-width="0.4"/>
<path d="M150.89 121.52L142.952 117.154L150.89 121.52Z" fill="#0A2035"/>
<path d="M150.89 121.52L142.952 117.154" stroke="#0A2035" stroke-width="0.8"/>
<path d="M143.219 116.63L165.576 65.4331L143.219 116.63Z" fill="#0A2035"/>
<path d="M143.219 116.63L165.576 65.4331" stroke="#10273C" stroke-width="0.8"/>
<path d="M82.633 83.29L62.848 111.143" stroke="#152E44" stroke-width="0.64"/>
<path d="M62.785 77.27L82.43 82.033" stroke="#152E44" stroke-width="0.8"/>
<path d="M65.7991 76.5701L78.9341 113.964" stroke="#6E8475" stroke-width="0.5"/>
<path d="M55.462 110.19L65.817 75.9231" stroke="#D0D0D0" stroke-width="0.5"/>
<path d="M79.438 114.13L75.693 77.1831" stroke="#33526D" stroke-width="0.5"/>
<path d="M62.1899 55.77L83.1579 82.03" stroke="#152E44" stroke-width="0.65"/>
<path d="M50.548 65.3601L63.116 76.6051" stroke="#0C2135" stroke-width="0.61"/>
<path d="M44.356 71.58L69.691 62.885" stroke="#E5B828" stroke-width="0.5"/>
<path d="M44.277 71.1801L73.342 61.1421" stroke="#D0D0D0" stroke-width="0.5"/>
<path d="M66.4139 75.23L73.0219 61.72" stroke="#E5B828" stroke-width="0.6"/>
<path d="M47.8569 53.0701L65.7999 75.4501" stroke="#D0D0D0" stroke-width="0.5"/>
<path d="M73.292 61.23L79.326 111.563" stroke="#D9D9D9" stroke-width="0.5"/>
<path d="M79.885 114.97V115.417L66.973 78.47" fill="#6E8375"/>
<path d="M79.885 114.97V115.417L66.973 78.47" stroke="#3C5B75" stroke-width="0.5"/>
<path d="M82.894 82.5L86.334 97.581" stroke="#152E44" stroke-width="0.65"/>
<path d="M86.598 97.8401L88.847 107.299L94.411 136.351M83.291 82.8901L115.967 74.8201" stroke="#152E44" stroke-width="0.55"/>
<path d="M87.9031 77.0801L117.901 115.519" stroke="#19344E" stroke-width="0.748"/>
<path d="M85.894 113.75V108.405C88.884 107.995 91.645 107.311 94.914 107.235V65.975C91.234 65.913 87.77 65.105 86.028 64.505V59.375L104.5 59.22V107.294C107.059 107.109 110.513 107.999 113.642 108.499V113.767L85.894 113.75Z" fill="white"/>
<path d="M105.78 24.95L113.718 58.684" stroke="#081A26" stroke-width="0.714"/>
<path d="M158.95 45.66L130.443 36.353L158.95 45.66Z" fill="#6E8375"/>
<path d="M158.95 45.66L130.443 36.353" stroke="#0F2C48" stroke-width="0.5"/>
<path d="M105.752 46.5799L106.152 34.7029C111.779 31.4759 131.624 29.1689 133.741 42.6619C134.454 47.2079 134.939 54.7589 123.781 60.4949C132.421 62.8289 135.309 68.3879 135.409 73.8579C135.645 86.7019 123.176 94.5559 111.953 93.3019L112.037 86.8199C121.974 87.9599 126.8 81.4839 127.015 75.3999C127.235 69.1639 121.774 64.8629 112.037 65.0539L111.887 58.9579C124.076 58.0539 127.51 49.6139 125.992 44.9269C123.914 38.5079 117.282 37.3229 111.419 39.5809L110.416 46.7309L105.752 46.5799Z" fill="white"/>
<path d="M137.511 130.92L119.936 117.02" stroke="#19344E" stroke-width="0.95"/>
<path d="M105.453 74.8301L114.277 74.6411" stroke="#0B1620" stroke-width="0.5"/>
<path d="M105.946 70.52L114.181 73.232" stroke="#0B1620" stroke-width="0.748"/>
<path d="M115.206 65.74L116.384 71.838" stroke="#0B1620" stroke-width="0.713"/>
<path d="M121.314 68.1799L118.414 72.0149" stroke="#0B1620" stroke-width="0.348"/>
<path d="M118.04 73.84L122.062 68.929" stroke="#0B1620" stroke-width="0.248"/>
<path d="M119.911 73.4201L125.571 72.2041" stroke="#0B1620" stroke-width="0.348"/>
<path d="M53.027 93.8698L62.787 77.3298" stroke="#0C2135" stroke-width="0.825"/>
<path d="M62.661 78.78L59.735 95.53" stroke="#0C2135" stroke-width="0.41"/>
<path d="M43.99 77.0098L65.688 75.5698" stroke="#E5B828" stroke-width="0.4"/>
<path d="M44.299 77.3999L63.479 76.1689" stroke="#78A657" stroke-width="0.5"/>
<path d="M48.53 51.0601L58.95 54.1811" stroke="#0C2135" stroke-width="0.31"/>
<path d="M61.132 56.0999L62.455 67.7419" stroke="#081725" stroke-width="0.31"/>
<path d="M128.961 59.0798L148.86 32.8088" stroke="#0F2C48" stroke-width="0.714"/>
<path d="M128.205 34.41L135.809 22.77" stroke="#123859" stroke-width="0.814"/>
<path d="M109.484 22.96L139.051 24.812" stroke="#123859" stroke-width="0.814" stroke-dasharray="6.51 0.81"/>
<path d="M106.437 23.2L111.153 23.468" stroke="#123859" stroke-width="0.348" stroke-dasharray="2.09 2.09"/>
<path d="M105.383 22.7L71.384 46.645" stroke="#123859" stroke-width="0.714"/>
<path d="M97.715 20.3999L111.801 27.6099" stroke="#E5B828" stroke-width="0.714"/>
<path d="M97.38 20.1699L75.134 57.8989" stroke="#E5B828" stroke-width="0.314"/>
<path d="M73.2889 61.5701L92.3189 29.644" stroke="#D0D0D0" stroke-width="0.514"/>
<path d="M99.959 16.48L106.177 22.565" stroke="#081A26" stroke-width="0.714"/>
<path d="M112.6 15.9399L105.908 23.1409" stroke="#173149" stroke-width="0.714"/>
<path d="M159.06 45.0499L130.581 35.9109L159.06 45.0499Z" fill="#6E8375"/>
<path d="M159.06 45.0499L130.581 35.9109" stroke="white" stroke-width="0.7"/>
<path d="M71.153 119.09L80.363 115.651L71.153 119.09Z" fill="#6E8375"/>
<path d="M71.153 119.09L80.363 115.651" stroke="#11385E" stroke-width="0.6"/>
<path d="M80.332 115.98L87.892 77.3298M80.113 116.19L116.664 115.861" stroke="#D9D9D9" stroke-width="0.714"/>
<path d="M90.754 12.6399L97.841 20.2469" stroke="#E5B828" stroke-width="0.714"/>
<path d="M96.455 22.45L92.207 29.828" stroke="#123859" stroke-width="0.514"/>
<path d="M98.386 20.56L128.243 13.894L98.386 20.56Z" fill="#06111B"/>
<path d="M98.386 20.56L128.243 13.894" stroke="#E5B828" stroke-width="0.514"/>
<path d="M50.627 46L70.007 59.084" stroke="#E5B828" stroke-width="0.4"/>
<path d="M50.6499 45.6101L73.2479 60.8271" stroke="#D0D0D0" stroke-width="0.4"/>
<path d="M55.8569 110.27L64.7099 80.8252" stroke="#79A6CC" stroke-width="0.5"/>
<path d="M65.778 75.6501L87.635 76.9151" stroke="white" stroke-width="0.5"/>
<path d="M65.975 76.0901L86.271 77.3451" stroke="#32556E" stroke-width="0.5"/>
<path d="M59.162 66.4202L65.743 75.0092" stroke="#E5B828" stroke-width="0.5"/>
<path d="M58.7 66.6201L65.91 75.5631" stroke="white" stroke-width="0.5"/>
<path d="M73.609 61.46L87.639 76.216L73.609 61.46Z" fill="#6E8375"/>
<path d="M73.609 61.46L87.639 76.216" stroke="#405C74" stroke-width="0.5"/>
<path d="M87.518 76.97L73.344 61.957L87.518 76.97Z" fill="#6E8375"/>
<path d="M87.518 76.97L73.344 61.957" stroke="white" stroke-width="0.6"/>
<path d="M65.274 121.9L78.583 116.947L65.274 121.9Z" fill="#6E8375"/>
<path d="M65.274 121.9L78.583 116.947" stroke="#C4C32D" stroke-width="0.6"/>
<path d="M122.811 82.49L118.701 75.929L122.811 82.49Z" fill="#0F212E"/>
<path d="M122.811 82.49L118.701 75.929" stroke="#11385E" stroke-width="0.3"/>
<path d="M108 135.336C141.875 135.336 169.336 107.875 169.336 74.0001C169.336 40.1251 141.875 12.6641 108 12.6641C74.125 12.6641 46.6639 40.1251 46.6639 74.0001C46.6639 107.875 74.125 135.336 108 135.336Z" stroke="url(#paint0_linear_53_2)" stroke-width="5.328"/>
</g>
<path d="M193.423 100C191.714 100 190.859 99.0845 190.859 97.2534V50.2319C190.859 48.4009 191.714 47.4854 193.423 47.4854H207.119C215.908 47.4854 222 48.9136 225.393 51.77C228.811 54.6265 230.52 58.6792 230.52 63.9282C230.52 69.1772 228.811 73.23 225.393 76.0864C222 78.9429 215.908 80.3711 207.119 80.3711H201.553V97.2534C201.553 99.0845 200.698 100 198.989 100H193.423ZM201.553 71.4355H207.083C211.965 71.4355 215.286 70.8618 217.043 69.7144C218.801 68.5425 219.68 66.6138 219.68 63.9282C219.68 61.2427 218.801 59.3262 217.043 58.1787C215.286 57.0068 211.965 56.4209 207.083 56.4209H201.553V71.4355ZM242.056 100C240.347 100 239.492 99.0845 239.492 97.2534V50.2319C239.492 48.4009 240.347 47.4854 242.056 47.4854H259.011C266.555 47.4854 272.061 48.6572 275.527 51.001C278.994 53.3203 280.728 57.1045 280.728 62.3535C280.728 66.2598 279.324 69.3726 276.516 71.6919C273.708 74.0112 270.144 75.5493 265.823 76.3062V76.3794C268.167 77.2583 269.937 78.479 271.133 80.0415C272.329 81.604 273.306 82.9712 274.062 84.1431L282.119 96.8506C283.462 98.9502 282.998 100 280.728 100H274.355C273.013 100 271.914 99.2798 271.06 97.8394L263.662 85.498C262.856 84.1797 261.379 82.7393 259.231 81.1768C257.107 79.5898 254.995 78.7964 252.896 78.7964H250.186V97.2534C250.186 99.0845 249.331 100 247.622 100H242.056ZM250.186 69.7144H256.741C261.624 69.7144 265.09 69.165 267.141 68.0664C269.216 66.9434 270.254 65.1733 270.254 62.7563C270.254 60.1196 269.253 58.4106 267.251 57.6294C265.273 56.8237 262.356 56.4209 258.499 56.4209H250.186V69.7144ZM289.077 73.7427C289.077 65.3198 291.25 58.6304 295.596 53.6743C299.941 48.7183 306.143 46.2402 314.199 46.2402C322.256 46.2402 328.457 48.7183 332.803 53.6743C337.148 58.6304 339.321 65.3198 339.321 73.7427C339.321 82.1655 337.148 88.855 332.803 93.811C328.457 98.7671 322.256 101.245 314.199 101.245C306.143 101.245 299.941 98.7671 295.596 93.811C291.25 88.855 289.077 82.1655 289.077 73.7427ZM300.503 73.7427C300.503 79.8462 301.589 84.5215 303.762 87.7686C305.959 90.9912 309.438 92.6025 314.199 92.6025C318.96 92.6025 322.427 90.9912 324.6 87.7686C326.797 84.5215 327.896 79.8462 327.896 73.7427C327.896 67.6392 326.797 62.9761 324.6 59.7534C322.427 56.5063 318.96 54.8828 314.199 54.8828C309.438 54.8828 305.959 56.5063 303.762 59.7534C301.589 62.9761 300.503 67.6392 300.503 73.7427ZM345.62 73.7427C345.62 65.3198 347.756 58.6304 352.029 53.6743C356.301 48.7183 362.466 46.2402 370.522 46.2402C375.161 46.2402 379.092 46.9604 382.314 48.4009C385.537 49.8413 387.808 51.9287 389.126 54.6631C390.005 56.4697 389.858 57.6904 388.687 58.3252L384.292 60.6689C382.754 61.499 381.484 61.0352 380.483 59.2773C379.849 58.1543 378.665 57.1411 376.931 56.2378C375.222 55.3345 373.208 54.8828 370.889 54.8828C365.762 54.8828 362.173 56.5063 360.122 59.7534C358.071 62.9761 357.046 67.6392 357.046 73.7427C357.046 79.8462 358.071 84.5215 360.122 87.7686C362.173 90.9912 365.762 92.6025 370.889 92.6025C373.647 92.6025 375.967 91.98 377.847 90.7349C379.751 89.4897 381.069 88.3057 381.802 87.1826C382.998 85.3516 384.268 84.8877 385.61 85.791L390.005 88.7207C391.201 89.5264 391.323 90.7471 390.371 92.3828C388.955 94.8242 386.526 96.9116 383.083 98.645C379.641 100.378 375.454 101.245 370.522 101.245C362.588 101.245 356.448 98.7671 352.102 93.811C347.781 88.855 345.62 82.1655 345.62 73.7427ZM402.822 100C401.113 100 400.259 99.0845 400.259 97.2534V50.2319C400.259 48.4009 401.113 47.4854 402.822 47.4854H434.243C436.074 47.4854 436.99 48.2788 436.99 49.8657V54.187C436.99 55.7739 436.074 56.5674 434.243 56.5674H410.952V68.2129H432.302C434.133 68.2129 435.049 69.0063 435.049 70.5933V74.9146C435.049 76.5015 434.133 77.2949 432.302 77.2949H410.952V90.918H435.415C437.246 90.918 438.162 91.7114 438.162 93.2983V97.6196C438.162 99.2065 437.246 100 435.415 100H402.822ZM447.756 96.0815C446.243 94.9341 445.876 93.7744 446.658 92.6025L449.478 88.3545C450.405 86.9629 451.76 86.8896 453.542 88.1348C454.91 89.0869 456.692 90.0757 458.889 91.1011C461.111 92.1021 463.442 92.6025 465.884 92.6025C467.593 92.6025 469.241 92.4072 470.828 92.0166C472.415 91.626 473.623 90.8691 474.453 89.7461C475.283 88.623 475.698 87.2925 475.698 85.7544C475.698 84.6558 475.515 83.6914 475.149 82.8613C474.783 82.0312 474.185 81.3477 473.354 80.8105C472.524 80.2734 471.67 79.8218 470.791 79.4556C469.253 78.8208 467.312 78.1982 464.968 77.5879C462.649 76.9531 460.354 76.1963 458.083 75.3174C456.057 74.5361 454.202 73.4619 452.517 72.0947C450.833 70.7275 449.526 69.1895 448.599 67.4805C447.671 65.7715 447.207 63.4888 447.207 60.6323C447.207 57.2388 448.306 54.3335 450.503 51.9165C452.7 49.4995 455.227 47.9492 458.083 47.2656C460.94 46.582 463.821 46.2402 466.726 46.2402C469.607 46.2402 472.573 46.6797 475.625 47.5586C478.701 48.4375 481.021 49.5361 482.583 50.8545C484.121 52.1484 484.5 53.3203 483.718 54.3701L480.752 58.3618C479.751 59.729 478.408 59.8389 476.724 58.6914C475.649 57.959 474.172 57.1411 472.292 56.2378C470.437 55.3345 468.496 54.8828 466.47 54.8828C465.029 54.8828 463.699 55.0049 462.478 55.249C461.282 55.4932 460.22 56.0791 459.292 57.0068C458.364 57.9346 457.9 59.082 457.9 60.4492C457.9 61.7676 458.242 62.8418 458.926 63.6719C459.609 64.4775 460.366 65.0879 461.196 65.5029C462.026 65.8936 462.869 66.2231 463.723 66.4917C466.36 67.3462 468.716 68.103 470.791 68.7622C472.866 69.397 474.783 70.105 476.541 70.8862C478.982 71.9849 480.85 73.0835 482.144 74.1821C483.438 75.2808 484.5 76.7822 485.33 78.6865C486.184 80.5908 486.611 82.8613 486.611 85.498C486.611 89.4043 485.366 92.6392 482.876 95.2026C480.386 97.7417 477.615 99.3774 474.563 100.11C471.536 100.867 468.582 101.245 465.701 101.245C461.453 101.245 457.998 100.83 455.337 100C452.676 99.1943 450.149 97.8882 447.756 96.0815ZM495.657 96.0815C494.143 94.9341 493.777 93.7744 494.558 92.6025L497.378 88.3545C498.306 86.9629 499.661 86.8896 501.443 88.1348C502.81 89.0869 504.592 90.0757 506.79 91.1011C509.011 92.1021 511.343 92.6025 513.784 92.6025C515.493 92.6025 517.141 92.4072 518.728 92.0166C520.315 91.626 521.523 90.8691 522.354 89.7461C523.184 88.623 523.599 87.2925 523.599 85.7544C523.599 84.6558 523.416 83.6914 523.049 82.8613C522.683 82.0312 522.085 81.3477 521.255 80.8105C520.425 80.2734 519.57 79.8218 518.691 79.4556C517.153 78.8208 515.212 78.1982 512.869 77.5879C510.549 76.9531 508.254 76.1963 505.984 75.3174C503.958 74.5361 502.102 73.4619 500.417 72.0947C498.733 70.7275 497.427 69.1895 496.499 67.4805C495.571 65.7715 495.107 63.4888 495.107 60.6323C495.107 57.2388 496.206 54.3335 498.403 51.9165C500.601 49.4995 503.127 47.9492 505.984 47.2656C508.84 46.582 511.721 46.2402 514.626 46.2402C517.507 46.2402 520.474 46.6797 523.525 47.5586C526.602 48.4375 528.921 49.5361 530.483 50.8545C532.021 52.1484 532.4 53.3203 531.619 54.3701L528.652 58.3618C527.651 59.729 526.309 59.8389 524.624 58.6914C523.55 57.959 522.073 57.1411 520.193 56.2378C518.337 55.3345 516.396 54.8828 514.37 54.8828C512.93 54.8828 511.599 55.0049 510.378 55.249C509.182 55.4932 508.12 56.0791 507.192 57.0068C506.265 57.9346 505.801 59.082 505.801 60.4492C505.801 61.7676 506.143 62.8418 506.826 63.6719C507.51 64.4775 508.267 65.0879 509.097 65.5029C509.927 65.8936 510.769 66.2231 511.624 66.4917C514.26 67.3462 516.616 68.103 518.691 68.7622C520.767 69.397 522.683 70.105 524.441 70.8862C526.882 71.9849 528.75 73.0835 530.044 74.1821C531.338 75.2808 532.4 76.7822 533.23 78.6865C534.084 80.5908 534.512 82.8613 534.512 85.498C534.512 89.4043 533.267 92.6392 530.776 95.2026C528.286 97.7417 525.515 99.3774 522.463 100.11C519.436 100.867 516.482 101.245 513.601 101.245C509.353 101.245 505.898 100.83 503.237 100C500.576 99.1943 498.049 97.8882 495.657 96.0815ZM545.498 100C543.789 100 542.935 99.0845 542.935 97.2534V50.2319C542.935 48.4009 543.789 47.4854 545.498 47.4854H551.064C552.773 47.4854 553.628 48.4009 553.628 50.2319V97.2534C553.628 99.0845 552.773 100 551.064 100H545.498ZM567.91 100C566.201 100 565.347 99.0845 565.347 97.2534V50.2319C565.347 48.4009 566.201 47.4854 567.91 47.4854H573.33C575.43 47.4854 577.017 48.3398 578.091 50.0488L596.768 80.0415H597.024C596.902 78.5767 596.841 77.1118 596.841 75.647V50.2319C596.841 48.4009 597.695 47.4854 599.404 47.4854H604.971C606.68 47.4854 607.534 48.4009 607.534 50.2319V97.2534C607.534 99.0845 606.68 100 604.971 100H599.917C597.817 100 596.23 99.1455 595.156 97.4365L576.113 66.8945H575.857C575.979 68.3594 576.04 69.8242 576.04 71.2891V97.2534C576.04 99.0845 575.186 100 573.477 100H567.91ZM616.543 73.7427C616.543 65.3198 618.74 58.6304 623.135 53.6743C627.529 48.7183 633.755 46.2402 641.812 46.2402C646.67 46.2402 650.479 46.8628 653.237 48.1079C656.021 49.353 658.462 51.2817 660.562 53.894C661.831 55.481 661.794 56.7139 660.452 57.5928L656.277 60.3027C655.056 61.1084 653.75 60.7544 652.358 59.2407C651.211 57.9956 649.758 56.958 648 56.1279C646.243 55.2979 644.302 54.8828 642.178 54.8828C637.051 54.8828 633.401 56.5063 631.228 59.7534C629.055 62.9761 627.969 67.6392 627.969 73.7427C627.969 79.8462 629.055 84.5215 631.228 87.7686C633.401 90.9912 637.051 92.6025 642.178 92.6025C644.668 92.6025 646.816 92.3584 648.623 91.8701C650.43 91.3574 652.139 90.4419 653.75 89.1235V82.5684H645.803C643.972 82.5684 643.057 81.7749 643.057 80.188V75.8667C643.057 74.2798 643.972 73.4863 645.803 73.4863H661.697C663.528 73.4863 664.443 74.2798 664.443 75.8667V94.4702C661.025 96.9849 657.571 98.7427 654.08 99.7437C650.613 100.745 646.523 101.245 641.812 101.245C633.877 101.245 627.676 98.7671 623.208 93.811C618.765 88.855 616.543 82.1655 616.543 73.7427Z" fill="white"/>
<defs>
<linearGradient id="paint0_linear_53_2" x1="108.002" y1="9.45036" x2="108.002" y2="138.564" gradientUnits="userSpaceOnUse">
<stop stop-color="white" stop-opacity="0.918"/>
<stop offset="1" stop-color="white" stop-opacity="0.559"/>
</linearGradient>
<clipPath id="clip0_53_2">
<rect width="128" height="128" fill="white" transform="translate(44 10)"/>
</clipPath>
</defs>
</svg>
