<svg width="698" height="145" viewBox="0 0 698 145" fill="none" xmlns="http://www.w3.org/2000/svg">
<rect x="1.5" y="1.5" width="695" height="142" rx="36.5" fill="#2A2734" stroke="white" stroke-width="3"/>
<path d="M70.667 9.6001H153.333C165.867 9.6001 176 19.7331 176 32.2671V111.733C176 124.267 165.867 134.4 153.333 134.4H70.667C58.133 134.4 48 124.267 48 111.733V32.2671C48 19.7331 58.133 9.6001 70.667 9.6001Z" fill="#001E36"/>
<path d="M93.867 41.333C92.267 41.333 90.667 41.333 89.014 41.387C87.36 41.44 85.813 41.44 84.373 41.494C82.933 41.547 81.6 41.547 80.32 41.6C79.093 41.653 78.24 41.653 77.333 41.653C76.96 41.653 76.8 41.866 76.8 42.24V97.12C76.8 97.6 77.013 97.814 77.44 97.814H87.787C88.16 97.76 88.427 97.44 88.373 97.067V79.947C89.386 79.947 90.133 79.947 90.667 80C91.2 80.053 92.053 80.053 93.333 80.053C97.707 80.053 101.707 79.573 105.333 78.24C108.8 76.96 111.787 74.72 113.92 71.733C116.053 68.747 117.12 64.96 117.12 60.373C117.12 57.973 116.694 55.68 115.894 53.44C115.047 51.1576 113.719 49.0841 112 47.36C109.972 45.3896 107.53 43.8955 104.853 42.986C101.866 41.866 98.24 41.333 93.867 41.333ZM95.057 51.838C96.957 51.874 98.807 52.206 100.533 52.906C102.08 53.493 103.36 54.56 104.267 55.946C105.119 57.38 105.544 59.0269 105.494 60.694C105.494 63.04 104.96 64.854 103.84 66.187C102.666 67.52 101.173 68.534 99.467 69.014C97.493 69.654 95.413 69.973 93.333 69.973H90.506C89.866 69.973 89.174 69.92 88.427 69.867V51.947C88.8 51.893 89.547 51.84 90.614 51.894C91.627 51.84 92.853 51.84 94.24 51.84C94.513 51.833 94.786 51.832 95.057 51.838ZM139.787 54.561C136 54.561 132.853 55.147 130.347 56.427C128.054 57.494 126.08 59.2 124.747 61.333C123.574 63.307 122.933 65.493 122.933 67.787C122.887 69.6738 123.309 71.5425 124.16 73.227C125.158 75.0205 126.543 76.569 128.214 77.76C130.56 79.3644 133.106 80.6553 135.787 81.6C138.4 82.613 140.16 83.413 141.014 84.106C141.867 84.8 142.294 85.493 142.294 86.24C142.294 87.2 141.707 88.107 140.854 88.48C139.894 88.96 138.454 89.227 136.427 89.227C134.294 89.227 132.16 88.96 130.133 88.427C127.806 87.9067 125.574 87.025 123.52 85.814C123.36 85.707 123.2 85.654 123.04 85.761C122.88 85.867 122.827 86.08 122.827 86.24V95.52C122.774 95.947 123.04 96.32 123.414 96.533C125.143 97.3411 126.973 97.9151 128.854 98.24C131.254 98.72 133.653 98.933 136.106 98.933C139.946 98.933 143.147 98.347 145.76 97.227C148.16 96.267 150.24 94.614 151.733 92.48C153.131 90.3818 153.856 87.9077 153.813 85.387C153.865 83.4828 153.444 81.5954 152.587 79.894C151.573 78.08 150.133 76.587 148.373 75.467C145.798 73.8503 143.041 72.5432 140.16 71.573C138.873 71.0407 137.61 70.4535 136.373 69.813C135.68 69.44 135.04 68.96 134.56 68.373C134.24 67.946 134.027 67.467 134.027 66.987C134.027 66.507 134.187 65.974 134.453 65.547C134.827 65.014 135.413 64.64 136.106 64.48C137.12 64.214 138.24 64.053 139.306 64.106C141.333 64.106 143.306 64.373 145.28 64.8C147.094 65.173 148.8 65.76 150.4 66.614C150.613 66.72 150.88 66.72 151.36 66.614C151.444 66.5525 151.511 66.472 151.558 66.3791C151.604 66.2863 151.628 66.1838 151.627 66.08V57.387C151.627 57.173 151.573 56.96 151.52 56.747C151.413 56.534 151.2 56.32 150.987 56.267C149.516 55.6654 147.975 55.2531 146.4 55.04C144.21 54.7211 142 54.5617 139.787 54.561Z" fill="#31A8FF"/>
<path d="M193.423 100C191.714 100 190.859 99.0845 190.859 97.2534V50.2319C190.859 48.4009 191.714 47.4854 193.423 47.4854H207.119C215.908 47.4854 222 48.9136 225.393 51.77C228.811 54.6265 230.52 58.6792 230.52 63.9282C230.52 69.1772 228.811 73.23 225.393 76.0864C222 78.9429 215.908 80.3711 207.119 80.3711H201.553V97.2534C201.553 99.0845 200.698 100 198.989 100H193.423ZM201.553 71.4355H207.083C211.965 71.4355 215.286 70.8618 217.043 69.7144C218.801 68.5425 219.68 66.6138 219.68 63.9282C219.68 61.2427 218.801 59.3262 217.043 58.1787C215.286 57.0068 211.965 56.4209 207.083 56.4209H201.553V71.4355ZM242.056 100C240.347 100 239.492 99.0845 239.492 97.2534V50.2319C239.492 48.4009 240.347 47.4854 242.056 47.4854H247.622C249.331 47.4854 250.186 48.4009 250.186 50.2319V68.1396H269.888V50.2319C269.888 48.4009 270.742 47.4854 272.451 47.4854H278.018C279.727 47.4854 280.581 48.4009 280.581 50.2319V97.2534C280.581 99.0845 279.727 100 278.018 100H272.451C270.742 100 269.888 99.0845 269.888 97.2534V77.2217H250.186V97.2534C250.186 99.0845 249.331 100 247.622 100H242.056ZM289.59 73.7427C289.59 65.3198 291.763 58.6304 296.108 53.6743C300.454 48.7183 306.655 46.2402 314.712 46.2402C322.769 46.2402 328.97 48.7183 333.315 53.6743C337.661 58.6304 339.834 65.3198 339.834 73.7427C339.834 82.1655 337.661 88.855 333.315 93.811C328.97 98.7671 322.769 101.245 314.712 101.245C306.655 101.245 300.454 98.7671 296.108 93.811C291.763 88.855 289.59 82.1655 289.59 73.7427ZM301.016 73.7427C301.016 79.8462 302.102 84.5215 304.275 87.7686C306.472 90.9912 309.951 92.6025 314.712 92.6025C319.473 92.6025 322.939 90.9912 325.112 87.7686C327.31 84.5215 328.408 79.8462 328.408 73.7427C328.408 67.6392 327.31 62.9761 325.112 59.7534C322.939 56.5063 319.473 54.8828 314.712 54.8828C309.951 54.8828 306.472 56.5063 304.275 59.7534C302.102 62.9761 301.016 67.6392 301.016 73.7427ZM346.975 56.8604C345.144 56.8604 344.229 56.0669 344.229 54.48V49.8657C344.229 48.2788 345.144 47.4854 346.975 47.4854H384.622C386.453 47.4854 387.368 48.2788 387.368 49.8657V54.48C387.368 56.0669 386.453 56.8604 384.622 56.8604H371.145V97.9858C371.145 99.3286 370.535 100 369.314 100H362.283C361.062 100 360.452 99.3286 360.452 97.9858V56.8604H346.975ZM391.763 73.7427C391.763 65.3198 393.936 58.6304 398.281 53.6743C402.627 48.7183 408.828 46.2402 416.885 46.2402C424.941 46.2402 431.143 48.7183 435.488 53.6743C439.834 58.6304 442.007 65.3198 442.007 73.7427C442.007 82.1655 439.834 88.855 435.488 93.811C431.143 98.7671 424.941 101.245 416.885 101.245C408.828 101.245 402.627 98.7671 398.281 93.811C393.936 88.855 391.763 82.1655 391.763 73.7427ZM403.188 73.7427C403.188 79.8462 404.275 84.5215 406.448 87.7686C408.645 90.9912 412.124 92.6025 416.885 92.6025C421.646 92.6025 425.112 90.9912 427.285 87.7686C429.482 84.5215 430.581 79.8462 430.581 73.7427C430.581 67.6392 429.482 62.9761 427.285 59.7534C425.112 56.5063 421.646 54.8828 416.885 54.8828C412.124 54.8828 408.645 56.5063 406.448 59.7534C404.275 62.9761 403.188 67.6392 403.188 73.7427ZM451.638 96.0815C450.125 94.9341 449.758 93.7744 450.54 92.6025L453.359 88.3545C454.287 86.9629 455.642 86.8896 457.424 88.1348C458.792 89.0869 460.574 90.0757 462.771 91.1011C464.993 92.1021 467.324 92.6025 469.766 92.6025C471.475 92.6025 473.123 92.4072 474.709 92.0166C476.296 91.626 477.505 90.8691 478.335 89.7461C479.165 88.623 479.58 87.2925 479.58 85.7544C479.58 84.6558 479.397 83.6914 479.031 82.8613C478.665 82.0312 478.066 81.3477 477.236 80.8105C476.406 80.2734 475.552 79.8218 474.673 79.4556C473.135 78.8208 471.194 78.1982 468.85 77.5879C466.531 76.9531 464.236 76.1963 461.965 75.3174C459.939 74.5361 458.083 73.4619 456.399 72.0947C454.714 70.7275 453.408 69.1895 452.48 67.4805C451.553 65.7715 451.089 63.4888 451.089 60.6323C451.089 57.2388 452.188 54.3335 454.385 51.9165C456.582 49.4995 459.109 47.9492 461.965 47.2656C464.822 46.582 467.703 46.2402 470.608 46.2402C473.489 46.2402 476.455 46.6797 479.507 47.5586C482.583 48.4375 484.902 49.5361 486.465 50.8545C488.003 52.1484 488.381 53.3203 487.6 54.3701L484.634 58.3618C483.633 59.729 482.29 59.8389 480.605 58.6914C479.531 57.959 478.054 57.1411 476.174 56.2378C474.319 55.3345 472.378 54.8828 470.352 54.8828C468.911 54.8828 467.581 55.0049 466.36 55.249C465.164 55.4932 464.102 56.0791 463.174 57.0068C462.246 57.9346 461.782 59.082 461.782 60.4492C461.782 61.7676 462.124 62.8418 462.808 63.6719C463.491 64.4775 464.248 65.0879 465.078 65.5029C465.908 65.8936 466.75 66.2231 467.605 66.4917C470.242 67.3462 472.598 68.103 474.673 68.7622C476.748 69.397 478.665 70.105 480.422 70.8862C482.864 71.9849 484.731 73.0835 486.025 74.1821C487.319 75.2808 488.381 76.7822 489.211 78.6865C490.066 80.5908 490.493 82.8613 490.493 85.498C490.493 89.4043 489.248 92.6392 486.758 95.2026C484.268 97.7417 481.497 99.3774 478.445 100.11C475.417 100.867 472.463 101.245 469.583 101.245C465.334 101.245 461.88 100.83 459.219 100C456.558 99.1943 454.031 97.8882 451.638 96.0815ZM501.479 100C499.771 100 498.916 99.0845 498.916 97.2534V50.2319C498.916 48.4009 499.771 47.4854 501.479 47.4854H507.046C508.755 47.4854 509.609 48.4009 509.609 50.2319V68.1396H529.312V50.2319C529.312 48.4009 530.166 47.4854 531.875 47.4854H537.441C539.15 47.4854 540.005 48.4009 540.005 50.2319V97.2534C540.005 99.0845 539.15 100 537.441 100H531.875C530.166 100 529.312 99.0845 529.312 97.2534V77.2217H509.609V97.2534C509.609 99.0845 508.755 100 507.046 100H501.479ZM549.014 73.7427C549.014 65.3198 551.187 58.6304 555.532 53.6743C559.878 48.7183 566.079 46.2402 574.136 46.2402C582.192 46.2402 588.394 48.7183 592.739 53.6743C597.085 58.6304 599.258 65.3198 599.258 73.7427C599.258 82.1655 597.085 88.855 592.739 93.811C588.394 98.7671 582.192 101.245 574.136 101.245C566.079 101.245 559.878 98.7671 555.532 93.811C551.187 88.855 549.014 82.1655 549.014 73.7427ZM560.439 73.7427C560.439 79.8462 561.526 84.5215 563.699 87.7686C565.896 90.9912 569.375 92.6025 574.136 92.6025C578.896 92.6025 582.363 90.9912 584.536 87.7686C586.733 84.5215 587.832 79.8462 587.832 73.7427C587.832 67.6392 586.733 62.9761 584.536 59.7534C582.363 56.5063 578.896 54.8828 574.136 54.8828C569.375 54.8828 565.896 56.5063 563.699 59.7534C561.526 62.9761 560.439 67.6392 560.439 73.7427ZM610.83 100C609.121 100 608.267 99.0845 608.267 97.2534V50.2319C608.267 48.4009 609.121 47.4854 610.83 47.4854H624.526C633.315 47.4854 639.407 48.9136 642.8 51.77C646.218 54.6265 647.927 58.6792 647.927 63.9282C647.927 69.1772 646.218 73.23 642.8 76.0864C639.407 78.9429 633.315 80.3711 624.526 80.3711H618.96V97.2534C618.96 99.0845 618.105 100 616.396 100H610.83ZM618.96 71.4355H624.49C629.373 71.4355 632.693 70.8618 634.451 69.7144C636.208 68.5425 637.087 66.6138 637.087 63.9282C637.087 61.2427 636.208 59.3262 634.451 58.1787C632.693 57.0068 629.373 56.4209 624.49 56.4209H618.96V71.4355Z" fill="white"/>
</svg>
