<svg width="528" height="145" viewBox="0 0 528 145" fill="none" xmlns="http://www.w3.org/2000/svg">
<rect x="1.5" y="1.5" width="525" height="142" rx="36.5" fill="#2A2734" stroke="white" stroke-width="3"/>
<path d="M107.391 20.2481C103.169 20.2681 99.139 20.6271 95.591 21.2551C85.141 23.1011 83.245 26.9651 83.245 34.0921V43.5031H107.938V46.6401H73.977C66.801 46.6401 60.517 50.9531 58.551 59.1611C56.283 68.5661 56.183 74.4361 58.551 84.2571C60.306 91.5681 64.498 96.7761 71.675 96.7761H80.166V85.4941C80.166 77.3431 87.217 70.1541 95.592 70.1541H120.257C127.123 70.1541 132.603 64.5001 132.603 57.6061V34.0931C132.603 27.4001 126.957 22.3731 120.257 21.2561C116.013 20.5501 111.612 20.2291 107.391 20.2481ZM94.037 27.8171C96.587 27.8171 98.671 29.9341 98.671 32.5381C98.671 35.1311 96.588 37.2281 94.037 37.2281C91.477 37.2281 89.404 35.1311 89.404 32.5381C89.403 29.9341 91.477 27.8171 94.037 27.8171Z" fill="url(#paint0_linear_53_2)"/>
<path d="M135.682 46.6399V57.6059C135.682 66.1059 128.474 73.2609 120.256 73.2609H95.591C88.835 73.2609 83.245 79.0439 83.245 85.8099V109.325C83.245 116.016 89.063 119.953 95.591 121.872C103.407 124.169 110.903 124.585 120.256 121.872C126.472 120.071 132.602 116.449 132.602 109.325V99.9129H107.938V96.7749H144.95C152.126 96.7749 154.802 91.7699 157.298 84.2559C159.876 76.5209 159.765 69.0819 157.298 59.1599C155.524 52.0149 152.137 46.6389 144.95 46.6389L135.682 46.6399ZM121.809 106.187C124.37 106.187 126.443 108.284 126.443 110.879C126.443 113.481 124.369 115.598 121.809 115.598C119.259 115.598 117.176 113.481 117.176 110.879C117.176 108.284 119.259 106.187 121.809 106.187Z" fill="url(#paint1_linear_53_2)"/>
<path opacity="0.444" d="M141.309 127.597C141.309 131.14 126.493 134.013 108.218 134.013C89.942 134.013 75.126 131.14 75.126 127.597C75.126 124.053 89.941 121.18 108.218 121.18C126.493 121.18 141.309 124.052 141.309 127.597Z" fill="url(#paint2_radial_53_2)"/>
<path d="M193.423 100C191.714 100 190.859 99.0845 190.859 97.2534V50.2319C190.859 48.4009 191.714 47.4854 193.423 47.4854H207.119C215.908 47.4854 222 48.9136 225.393 51.77C228.811 54.6265 230.52 58.6792 230.52 63.9282C230.52 69.1772 228.811 73.23 225.393 76.0864C222 78.9429 215.908 80.3711 207.119 80.3711H201.553V97.2534C201.553 99.0845 200.698 100 198.989 100H193.423ZM201.553 71.4355H207.083C211.965 71.4355 215.286 70.8618 217.043 69.7144C218.801 68.5425 219.68 66.6138 219.68 63.9282C219.68 61.2427 218.801 59.3262 217.043 58.1787C215.286 57.0068 211.965 56.4209 207.083 56.4209H201.553V71.4355ZM237.368 50.6348C236.123 48.5352 236.697 47.4854 239.089 47.4854H245.498C246.768 47.4854 247.891 48.3276 248.867 50.0122L256.667 63.5986C256.887 63.9648 257.534 65.1123 258.608 67.041C259.683 68.9453 260.305 70.8008 260.476 72.6074H260.623C260.793 70.8008 261.416 68.9453 262.49 67.041C263.564 65.1123 264.211 63.9648 264.431 63.5986L272.231 50.0122C273.208 48.3276 274.331 47.4854 275.601 47.4854H282.009C284.402 47.4854 284.976 48.5352 283.73 50.6348L265.896 80.7739V97.9858C265.896 99.3286 265.042 100 263.333 100H257.766C256.057 100 255.203 99.3286 255.203 97.9858V80.7739L237.368 50.6348ZM287.722 56.8604C285.891 56.8604 284.976 56.0669 284.976 54.48V49.8657C284.976 48.2788 285.891 47.4854 287.722 47.4854H325.369C327.2 47.4854 328.115 48.2788 328.115 49.8657V54.48C328.115 56.0669 327.2 56.8604 325.369 56.8604H311.892V97.9858C311.892 99.3286 311.282 100 310.061 100H303.03C301.809 100 301.199 99.3286 301.199 97.9858V56.8604H287.722ZM337.783 100C336.074 100 335.22 99.0845 335.22 97.2534V50.2319C335.22 48.4009 336.074 47.4854 337.783 47.4854H343.35C345.059 47.4854 345.913 48.4009 345.913 50.2319V68.1396H365.615V50.2319C365.615 48.4009 366.47 47.4854 368.179 47.4854H373.745C375.454 47.4854 376.309 48.4009 376.309 50.2319V97.2534C376.309 99.0845 375.454 100 373.745 100H368.179C366.47 100 365.615 99.0845 365.615 97.2534V77.2217H345.913V97.2534C345.913 99.0845 345.059 100 343.35 100H337.783ZM385.317 73.7427C385.317 65.3198 387.49 58.6304 391.836 53.6743C396.182 48.7183 402.383 46.2402 410.439 46.2402C418.496 46.2402 424.697 48.7183 429.043 53.6743C433.389 58.6304 435.562 65.3198 435.562 73.7427C435.562 82.1655 433.389 88.855 429.043 93.811C424.697 98.7671 418.496 101.245 410.439 101.245C402.383 101.245 396.182 98.7671 391.836 93.811C387.49 88.855 385.317 82.1655 385.317 73.7427ZM396.743 73.7427C396.743 79.8462 397.83 84.5215 400.002 87.7686C402.2 90.9912 405.679 92.6025 410.439 92.6025C415.2 92.6025 418.667 90.9912 420.84 87.7686C423.037 84.5215 424.136 79.8462 424.136 73.7427C424.136 67.6392 423.037 62.9761 420.84 59.7534C418.667 56.5063 415.2 54.8828 410.439 54.8828C405.679 54.8828 402.2 56.5063 400.002 59.7534C397.83 62.9761 396.743 67.6392 396.743 73.7427ZM447.134 100C445.425 100 444.57 99.0845 444.57 97.2534V50.2319C444.57 48.4009 445.425 47.4854 447.134 47.4854H452.554C454.653 47.4854 456.24 48.3398 457.314 50.0488L475.991 80.0415H476.248C476.125 78.5767 476.064 77.1118 476.064 75.647V50.2319C476.064 48.4009 476.919 47.4854 478.628 47.4854H484.194C485.903 47.4854 486.758 48.4009 486.758 50.2319V97.2534C486.758 99.0845 485.903 100 484.194 100H479.141C477.041 100 475.454 99.1455 474.38 97.4365L455.337 66.8945H455.081C455.203 68.3594 455.264 69.8242 455.264 71.2891V97.2534C455.264 99.0845 454.409 100 452.7 100H447.134Z" fill="white"/>
<defs>
<linearGradient id="paint0_linear_53_2" x1="54.3369" y1="23.1907" x2="111.291" y2="71.7606" gradientUnits="userSpaceOnUse">
<stop stop-color="#5A9FD4"/>
<stop offset="1" stop-color="#306998"/>
</linearGradient>
<linearGradient id="paint1_linear_53_2" x1="132.719" y1="101.952" x2="112.294" y2="73.3101" gradientUnits="userSpaceOnUse">
<stop stop-color="#FFD43B"/>
<stop offset="1" stop-color="#FFE873"/>
</linearGradient>
<radialGradient id="paint2_radial_53_2" cx="0" cy="0" r="1" gradientUnits="userSpaceOnUse" gradientTransform="translate(108.084 127.413) rotate(-90) scale(6.41832 28.2139)">
<stop stop-color="#B8B8B8" stop-opacity="0.498"/>
<stop offset="1" stop-color="#7F7F7F" stop-opacity="0"/>
</radialGradient>
</defs>
</svg>
