<svg width="332" height="145" viewBox="0 0 332 145" fill="none" xmlns="http://www.w3.org/2000/svg">
<rect x="1.5" y="1.5" width="329" height="142" rx="36.5" fill="#2A2734" stroke="white" stroke-width="3"/>
<g clip-path="url(#clip0_53_2)">
<path d="M59.576 27L41.758 44.688V120.914H152.39L170.206 103.227V27H157.86H59.576ZM89.566 43.426C97.926 43.426 103.794 45.773 107.121 50.512C110.491 55.202 112.154 62.462 112.154 72.285C112.154 78.758 111.454 83.973 110.1 87.93C108.697 91.926 106.466 94.969 103.313 97.055L110.143 107.965L101.779 111.832L94.557 100.055C93.507 100.402 91.842 100.531 89.567 100.531C81.117 100.531 75.207 98.273 71.881 93.754C68.554 89.234 66.891 82.064 66.891 72.328C66.891 62.551 68.597 55.293 71.967 50.555C75.337 45.815 81.247 43.425 89.567 43.425L89.566 43.426ZM123.492 46.598H132.297V58.289H143.504V65.766H132.297V83.539C132.297 86.844 132.555 89.016 133.037 90.102C133.519 91.188 134.787 91.711 136.76 91.711L143.412 91.449L143.809 98.489C140.175 99.183 137.416 99.531 135.492 99.531C130.893 99.531 127.739 98.488 126.033 96.402C124.326 94.316 123.449 90.363 123.449 84.539V65.811H117.279V58.289H123.492V46.598ZM89.612 51.293C84.532 51.293 81.031 52.945 79.102 56.289C77.222 59.637 76.258 64.939 76.258 72.285C76.258 79.585 77.178 84.844 79.016 87.973C80.853 91.102 84.4 92.711 89.611 92.711C94.818 92.711 98.322 91.145 100.161 88.059C101.957 84.973 102.873 79.715 102.873 72.371C102.873 64.984 101.956 59.637 100.073 56.289C98.193 52.945 94.732 51.293 89.612 51.293Z" fill="#41CD52"/>
</g>
<path d="M188.149 73.7427C188.149 65.3198 190.322 58.6304 194.668 53.6743C199.014 48.7183 205.215 46.2402 213.271 46.2402C221.328 46.2402 227.529 48.7183 231.875 53.6743C236.221 58.6304 238.394 65.3198 238.394 73.7427C238.394 82.1655 236.221 88.855 231.875 93.811C228.555 97.5952 224.148 99.939 218.655 100.842C218.875 103.04 219.448 104.675 220.376 105.75C221.328 106.848 223.159 107.397 225.869 107.397C227.114 107.397 228.408 107.227 229.751 106.885C230.972 106.567 231.68 106.836 231.875 107.69L232.9 111.938C233.12 112.891 232.681 113.501 231.582 113.77C228.701 114.526 226.406 114.905 224.697 114.905C218.154 114.905 213.784 113.525 211.587 110.767C209.414 108.008 208.193 104.7 207.925 100.842C202.407 99.9634 197.988 97.6196 194.668 93.811C190.322 88.855 188.149 82.1655 188.149 73.7427ZM199.575 73.7427C199.575 79.8462 200.662 84.5215 202.834 87.7686C205.032 90.9912 208.511 92.6025 213.271 92.6025C218.032 92.6025 221.499 90.9912 223.672 87.7686C225.869 84.5215 226.968 79.8462 226.968 73.7427C226.968 67.6392 225.869 62.9761 223.672 59.7534C221.499 56.5063 218.032 54.8828 213.271 54.8828C208.511 54.8828 205.032 56.5063 202.834 59.7534C200.662 62.9761 199.575 67.6392 199.575 73.7427ZM245.535 56.8604C243.704 56.8604 242.788 56.0669 242.788 54.48V49.8657C242.788 48.2788 243.704 47.4854 245.535 47.4854H283.181C285.012 47.4854 285.928 48.2788 285.928 49.8657V54.48C285.928 56.0669 285.012 56.8604 283.181 56.8604H269.705V97.9858C269.705 99.3286 269.094 100 267.874 100H260.842C259.622 100 259.011 99.3286 259.011 97.9858V56.8604H245.535Z" fill="white"/>
<defs>
<clipPath id="clip0_53_2">
<rect width="128" height="128" fill="white" transform="translate(42 10)"/>
</clipPath>
</defs>
</svg>
