<svg width="276" height="145" viewBox="0 0 276 145" fill="none" xmlns="http://www.w3.org/2000/svg">
<rect x="1.5" y="1.5" width="273" height="142" rx="36.5" fill="#2A2734" stroke="white" stroke-width="3"/>
<path fill-rule="evenodd" clip-rule="evenodd" d="M108 110.38C72.654 110.38 44 91.19 44 67.5171C44 43.8451 72.654 24.6541 108 24.6541C143.346 24.6541 172 43.8441 172 67.5171C172 91.1891 143.346 110.38 108 110.38ZM117.796 41.4131C90.93 41.4131 69.15 54.5321 69.15 70.7161C69.15 86.8991 90.93 100.019 117.796 100.019C144.662 100.019 164.489 91.0491 164.489 70.7161C164.489 50.3891 144.662 41.4131 117.796 41.4131Z" fill="url(#paint0_linear_53_2)"/>
<path fill-rule="evenodd" clip-rule="evenodd" d="M141.469 91.033C141.469 91.033 145.343 92.202 147.593 93.341C148.373 93.736 149.725 94.524 150.699 95.56C151.271 96.1657 151.75 96.8533 152.119 97.6L167.385 123.34L142.711 123.35L131.174 101.684C131.174 101.684 128.811 97.624 127.357 96.447C126.144 95.465 125.627 95.116 124.428 95.116H118.566L118.57 123.335L96.7371 123.344V51.26H140.581C140.581 51.26 160.551 51.62 160.551 70.619C160.551 89.618 141.469 91.033 141.469 91.033ZM131.972 66.896L118.754 66.887L118.748 79.145L131.972 79.14C131.972 79.14 138.096 79.121 138.096 72.905C138.096 66.565 131.972 66.896 131.972 66.896Z" fill="url(#paint1_linear_53_2)"/>
<path d="M193.423 100C191.714 100 190.859 99.0845 190.859 97.2534V50.2319C190.859 48.4009 191.714 47.4854 193.423 47.4854H210.378C217.922 47.4854 223.428 48.6572 226.895 51.001C230.361 53.3203 232.095 57.1045 232.095 62.3535C232.095 66.2598 230.691 69.3726 227.883 71.6919C225.076 74.0112 221.511 75.5493 217.19 76.3062V76.3794C219.534 77.2583 221.304 78.479 222.5 80.0415C223.696 81.604 224.673 82.9712 225.43 84.1431L233.486 96.8506C234.829 98.9502 234.365 100 232.095 100H225.723C224.38 100 223.281 99.2798 222.427 97.8394L215.029 85.498C214.224 84.1797 212.747 82.7393 210.598 81.1768C208.474 79.5898 206.362 78.7964 204.263 78.7964H201.553V97.2534C201.553 99.0845 200.698 100 198.989 100H193.423ZM201.553 69.7144H208.108C212.991 69.7144 216.458 69.165 218.508 68.0664C220.583 66.9434 221.621 65.1733 221.621 62.7563C221.621 60.1196 220.62 58.4106 218.618 57.6294C216.641 56.8237 213.723 56.4209 209.866 56.4209H201.553V69.7144Z" fill="white"/>
<defs>
<linearGradient id="paint0_linear_53_2" x1="44.0007" y1="24.6446" x2="123.273" y2="143.005" gradientUnits="userSpaceOnUse">
<stop stop-color="#CBCED0"/>
<stop offset="1" stop-color="#84838B"/>
</linearGradient>
<linearGradient id="paint1_linear_53_2" x1="96.7371" y1="51.2595" x2="168.812" y2="121.892" gradientUnits="userSpaceOnUse">
<stop stop-color="#276DC3"/>
<stop offset="1" stop-color="#165CAA"/>
</linearGradient>
</defs>
</svg>
