<svg width="484" height="145" viewBox="0 0 484 145" fill="none" xmlns="http://www.w3.org/2000/svg">
<rect x="1.5" y="1.5" width="481" height="142" rx="36.5" fill="#2A2734" stroke="white" stroke-width="3"/>
<path d="M114.5 85.246C121.591 85.246 127.339 79.5394 127.339 72.5C127.339 65.4606 121.591 59.754 114.5 59.754C107.409 59.754 101.661 65.4606 101.661 72.5C101.661 79.5394 107.409 85.246 114.5 85.246Z" fill="#61DAFB"/>
<path d="M163.264 51.4803C160.787 50.5859 158.196 49.6914 155.494 48.9088C156.169 46.2254 156.732 43.542 157.183 40.9705C159.548 26.212 156.958 15.814 149.75 11.7889C147.61 10.559 145.245 10 142.542 10C134.659 10 124.636 15.814 114.5 25.5411C104.364 15.814 94.341 10 86.4577 10C83.7548 10 81.3898 10.559 79.25 11.7889C72.0423 15.9258 69.4521 26.3238 71.8171 40.9705C72.2676 43.542 72.8307 46.2254 73.5064 48.9088C70.8035 49.6914 68.2133 50.4741 65.7356 51.4803C51.6581 56.847 44 64.2263 44 72.5C44 80.7737 51.7708 88.153 65.7356 93.5197C68.2133 94.4141 70.8035 95.3086 73.5064 96.0912C72.8307 98.7746 72.2676 101.458 71.8171 104.03C69.4521 118.788 72.0423 129.186 79.25 133.211C81.3898 134.441 83.7548 135 86.4577 135C94.4537 135 104.477 129.186 114.5 119.459C124.636 129.186 134.659 135 142.542 135C145.245 135 147.61 134.441 149.75 133.211C156.958 129.074 159.548 118.676 157.183 104.03C156.732 101.458 156.169 98.7746 155.494 96.0912C158.196 95.3086 160.787 94.5259 163.264 93.5197C177.342 88.153 185 80.7737 185 72.5C185 64.2263 177.342 56.847 163.264 51.4803ZM146.597 17.3792C151.214 20.0626 152.791 28.3363 150.876 40.076C150.538 42.424 149.975 44.8837 149.3 47.4553C143.443 46.1136 137.249 45.2191 130.717 44.6601C126.888 39.2934 122.946 34.4857 119.005 30.1252C127.339 21.9633 135.785 16.373 142.655 16.373C144.119 16.373 145.47 16.7084 146.597 17.3792ZM133.983 83.6807C131.956 87.2585 129.591 90.8363 127.113 94.4141C122.946 94.7495 118.78 94.8614 114.5 94.8614C110.108 94.8614 105.941 94.7495 101.887 94.4141C99.4089 90.8363 97.1565 87.2585 95.1294 83.6807C92.9896 79.9911 90.9625 76.1896 89.1605 72.5C90.9625 68.8104 92.9896 65.0089 95.1294 61.3193C97.1565 57.7415 99.5216 54.1637 101.999 50.5859C106.166 50.2505 110.333 50.1386 114.613 50.1386C119.005 50.1386 123.172 50.2505 127.226 50.5859C129.704 54.1637 131.956 57.7415 133.983 61.3193C136.123 65.0089 138.15 68.8104 139.952 72.5C138.038 76.1896 136.123 79.8792 133.983 83.6807ZM143.331 79.9911C145.02 83.9043 146.371 87.7057 147.61 91.5072C143.781 92.4016 139.727 93.0725 135.447 93.6315C136.799 91.5072 138.263 89.271 139.502 86.9231C140.853 84.5751 142.092 82.2272 143.331 79.9911ZM114.5 110.291C111.797 107.384 109.207 104.253 106.729 101.011C109.319 101.123 111.91 101.234 114.5 101.234C117.09 101.234 119.681 101.123 122.271 101.011C119.793 104.253 117.203 107.384 114.5 110.291ZM93.5527 93.5197C89.2732 92.9606 85.2188 92.2898 81.3898 91.3954C82.6286 87.7057 83.98 83.7925 85.6693 79.8792C86.9081 82.1154 88.147 84.4633 89.4984 86.6995C90.8498 89.1592 92.2013 91.2835 93.5527 93.5197ZM85.6693 65.0089C83.98 61.0957 82.6286 57.2943 81.3898 53.4928C85.2188 52.5984 89.2732 51.9275 93.5527 51.3685C92.2013 53.4928 90.7372 55.729 89.4984 58.0769C88.147 60.4249 86.9081 62.7728 85.6693 65.0089ZM114.5 34.7093C117.203 37.6163 119.793 40.7469 122.271 43.9893C119.681 43.8775 117.09 43.7657 114.5 43.7657C111.91 43.7657 109.319 43.8775 106.729 43.9893C109.207 40.7469 111.797 37.6163 114.5 34.7093ZM139.502 58.1887L135.447 51.4803C139.727 52.0394 143.781 52.7102 147.61 53.6047C146.371 57.2943 145.02 61.2075 143.331 65.1208C142.092 62.7728 140.853 60.4249 139.502 58.1887ZM78.1238 40.076C76.2093 28.3363 77.7859 20.0626 82.4034 17.3792C83.5295 16.7084 84.881 16.373 86.345 16.373C93.1022 16.373 101.549 21.8515 109.995 30.1252C106.054 34.3739 102.112 39.2934 98.2827 44.6601C91.7508 45.2191 85.5567 46.2254 79.7005 47.4553C79.0248 44.8837 78.5743 42.424 78.1238 40.076ZM50.3067 72.5C50.3067 67.2451 56.726 61.6547 67.988 57.5179C70.2404 56.6234 72.7181 55.8408 75.1957 55.1699C76.9976 60.7603 79.25 66.686 81.9529 72.6118C79.25 78.5376 76.885 84.3515 75.1957 89.9419C59.6542 85.4696 50.3067 78.7612 50.3067 72.5ZM82.4034 127.621C77.7859 124.937 76.2093 116.664 78.1238 104.924C78.4617 102.576 79.0248 100.116 79.7005 97.5447C85.5567 98.8864 91.7508 99.7809 98.2827 100.34C102.112 105.707 106.054 110.514 109.995 114.875C101.661 123.037 93.2149 128.627 86.345 128.627C84.881 128.627 83.5295 128.292 82.4034 127.621ZM150.876 104.924C152.791 116.664 151.214 124.937 146.597 127.621C145.47 128.292 144.119 128.627 142.655 128.627C135.898 128.627 127.451 123.148 119.005 114.875C122.946 110.626 126.888 105.707 130.717 100.34C137.249 99.7809 143.443 98.7746 149.3 97.5447C149.975 100.116 150.426 102.576 150.876 104.924ZM161.012 87.4821C158.76 88.3766 156.282 89.1592 153.804 89.8301C152.002 84.2397 149.75 78.314 147.047 72.3882C149.75 66.4624 152.115 60.6485 153.804 55.0581C169.346 59.5304 178.693 66.2388 178.693 72.5C178.693 77.7549 172.161 83.3453 161.012 87.4821Z" fill="#61DAFB"/>
<path d="M210.423 99C208.714 99 207.859 98.0845 207.859 96.2534V49.2319C207.859 47.4009 208.714 46.4854 210.423 46.4854H227.378C234.922 46.4854 240.428 47.6572 243.895 50.001C247.361 52.3203 249.095 56.1045 249.095 61.3535C249.095 65.2598 247.691 68.3726 244.883 70.6919C242.076 73.0112 238.511 74.5493 234.19 75.3062V75.3794C236.534 76.2583 238.304 77.479 239.5 79.0415C240.696 80.604 241.673 81.9712 242.43 83.1431L250.486 95.8506C251.829 97.9502 251.365 99 249.095 99H242.723C241.38 99 240.281 98.2798 239.427 96.8394L232.029 84.498C231.224 83.1797 229.747 81.7393 227.598 80.1768C225.474 78.5898 223.362 77.7964 221.263 77.7964H218.553V96.2534C218.553 98.0845 217.698 99 215.989 99H210.423ZM218.553 68.7144H225.108C229.991 68.7144 233.458 68.165 235.508 67.0664C237.583 65.9434 238.621 64.1733 238.621 61.7563C238.621 59.1196 237.62 57.4106 235.618 56.6294C233.641 55.8237 230.723 55.4209 226.866 55.4209H218.553V68.7144ZM262.718 99C261.009 99 260.154 98.0845 260.154 96.2534V49.2319C260.154 47.4009 261.009 46.4854 262.718 46.4854H294.139C295.97 46.4854 296.885 47.2788 296.885 48.8657V53.187C296.885 54.7739 295.97 55.5674 294.139 55.5674H270.848V67.2129H292.198C294.029 67.2129 294.944 68.0063 294.944 69.5933V73.9146C294.944 75.5015 294.029 76.2949 292.198 76.2949H270.848V89.918H295.311C297.142 89.918 298.057 90.7114 298.057 92.2983V96.6196C298.057 98.2065 297.142 99 295.311 99H262.718ZM305.381 99C303.624 99 303.05 98.1943 303.66 96.583L321.604 49.4517C322.361 47.4741 323.509 46.4854 325.047 46.4854H330.174C331.712 46.4854 332.859 47.4741 333.616 49.4517L351.561 96.583C352.171 98.1943 351.597 99 349.839 99H344.017C342.405 99 341.282 98.1577 340.647 96.4731L336.912 86.6221H318.309L314.573 96.4731C313.938 98.1577 312.815 99 311.204 99H305.381ZM321.714 77.54H333.506L329.002 65.8945C328.465 64.5273 328.135 63.5386 328.013 62.9282C327.916 62.2935 327.806 61.3657 327.684 60.145H327.537C327.415 61.3657 327.293 62.2935 327.171 62.9282C327.073 63.5386 326.756 64.5273 326.219 65.8945L321.714 77.54ZM355.369 72.7427C355.369 64.3198 357.505 57.6304 361.778 52.6743C366.05 47.7183 372.215 45.2402 380.271 45.2402C384.91 45.2402 388.841 45.9604 392.063 47.4009C395.286 48.8413 397.557 50.9287 398.875 53.6631C399.754 55.4697 399.607 56.6904 398.436 57.3252L394.041 59.6689C392.503 60.499 391.233 60.0352 390.232 58.2773C389.598 57.1543 388.414 56.1411 386.68 55.2378C384.971 54.3345 382.957 53.8828 380.638 53.8828C375.511 53.8828 371.922 55.5063 369.871 58.7534C367.82 61.9761 366.795 66.6392 366.795 72.7427C366.795 78.8462 367.82 83.5215 369.871 86.7686C371.922 89.9912 375.511 91.6025 380.638 91.6025C383.396 91.6025 385.716 90.98 387.596 89.7349C389.5 88.4897 390.818 87.3057 391.551 86.1826C392.747 84.3516 394.017 83.8877 395.359 84.791L399.754 87.7207C400.95 88.5264 401.072 89.7471 400.12 91.3828C398.704 93.8242 396.275 95.9116 392.833 97.645C389.39 99.3784 385.203 100.245 380.271 100.245C372.337 100.245 366.197 97.7671 361.851 92.811C357.53 87.855 355.369 81.1655 355.369 72.7427ZM408.14 55.8604C406.309 55.8604 405.394 55.0669 405.394 53.48V48.8657C405.394 47.2788 406.309 46.4854 408.14 46.4854H445.787C447.618 46.4854 448.533 47.2788 448.533 48.8657V53.48C448.533 55.0669 447.618 55.8604 445.787 55.8604H432.31V96.9858C432.31 98.3286 431.7 99 430.479 99H423.448C422.227 99 421.617 98.3286 421.617 96.9858V55.8604H408.14Z" fill="white"/>
</svg>
