<svg width="418" height="145" viewBox="0 0 418 145" fill="none" xmlns="http://www.w3.org/2000/svg">
<rect x="1.5" y="1.5" width="415" height="142" rx="36.5" fill="#2A2734" stroke="white" stroke-width="3"/>
<path fill-rule="evenodd" clip-rule="evenodd" d="M45.219 63.156C45.219 63.859 45.426 64.323 45.542 64.774C46.298 67.707 47.923 70.224 49.851 72.52C52.597 75.792 55.96 78.426 59.405 80.903C62.393 83.051 65.442 85.151 68.442 87.283C68.957 87.649 69.444 88.07 70.003 88.519C69.522 88.779 69.122 89.008 68.706 89.219C64.747 91.227 60.938 93.478 57.427 96.205C55.311 97.849 53.265 99.596 51.82 101.879C49.495 105.551 48.672 109.463 50.405 113.64C50.911 114.86 51.683 115.914 52.772 116.693C53.125 116.945 53.521 117.195 53.934 117.293C54.992 117.542 56.07 117.705 57.141 117.902L60.174 117.9C63.528 117.601 66.581 116.452 69.34 114.548C73.652 111.572 76.557 107.582 77.806 102.461C78.714 98.739 78.751 95.013 77.681 91.308C77.5786 90.9648 77.4605 90.6264 77.327 90.294C77.197 89.961 77.044 89.637 76.864 89.222L83.74 85.268L83.843 85.356C83.718 85.765 83.585 86.173 83.472 86.586C82.655 89.57 82.112 92.606 82.307 95.703C82.515 99.003 83.436 102.092 85.368 104.849C86.93 107.079 90.652 107.162 92.312 104.924C92.901 104.129 93.472 103.298 93.901 102.411C95.022 100.096 96.06 97.74 97.131 95.4L97.318 94.972C97.241 96.08 97.151 97.053 97.11 98.027C97.046 99.548 97.135 101.06 97.655 102.507C98.1 103.745 98.857 104.67 100.275 104.833C101.245 104.944 102.018 104.5 102.731 103.937C103.836 103.064 104.751 101.976 105.422 100.738C107.323 97.247 109.275 93.777 110.998 90.198C112.862 86.327 114.492 82.343 116.223 78.406L116.509 77.708C116.918 79.315 117.203 80.889 117.728 82.379C118.338 84.108 119.093 85.796 119.915 87.437C120.304 88.212 120.259 88.715 119.72 89.365C117.464 92.085 115.247 94.838 113.028 97.588C112.537 98.195 112.048 98.813 111.639 99.476C111.391 99.8947 111.228 100.358 111.159 100.84C111.09 101.284 111.196 101.737 111.454 102.104C111.711 102.471 112.101 102.725 112.542 102.811C113.431 103.002 114.343 103.067 115.25 103.004C118.347 102.776 121.159 101.689 123.645 99.847C126.866 97.461 127.9 94.205 127.12 90.346C126.909 89.299 126.536 88.281 126.173 87.272C126.01 86.817 125.999 86.498 126.296 86.074C128.871 82.397 131.071 78.496 133.117 74.505C133.198 74.348 133.281 74.191 133.423 74.023C134.086 77.473 135.084 80.798 136.872 83.815C135.96 84.694 135.057 85.491 134.24 86.369C132.441 88.303 130.881 90.403 130.067 92.964C129.717 94.068 129.448 95.19 129.604 96.369C129.846 98.2 131.346 99.39 133.147 98.973C137.001 98.081 140.328 96.265 142.759 93.048C144.395 90.882 144.544 88.466 143.859 85.935C143.671 85.247 143.448 84.57 143.208 83.781C144.159 83.486 145.086 83.132 146.045 82.913C151.024 81.777 155.949 81.975 160.747 83.773C163.548 84.823 165.811 86.58 167.153 89.344C168.792 92.723 167.886 95.929 164.701 98.065C164.404 98.264 164.064 98.421 163.818 98.67C163.739 98.7613 163.68 98.8681 163.645 98.9834C163.61 99.0988 163.599 99.2202 163.613 99.34C163.634 99.463 163.959 99.617 164.146 99.615C165.193 99.607 166.042 99.058 166.857 98.494C168.899 97.081 170.389 95.18 170.71 92.677L170.773 92.489L170.696 90.859C170.665 90.765 170.719 90.672 170.712 90.601C170.278 86.956 168.331 84.129 165.499 81.913C162.219 79.348 158.346 78.292 154.25 78.125C150.928 77.982 147.61 78.4927 144.485 79.628C143.588 79.953 142.699 80.338 141.797 80.701C141.676 80.482 141.546 80.272 141.439 80.055C140.513 78.159 139.391 76.347 139.143 74.173C138.967 72.629 138.751 71.087 139.118 69.56C139.471 68.091 139.931 66.647 140.364 65.198C140.587 64.452 140.43 64.034 139.718 63.698C139.47 63.5743 139.205 63.4874 138.932 63.44C137.182 63.186 135.456 63.331 133.761 63.824C133.161 63.999 132.725 64.335 132.592 64.999C132.516 65.38 132.361 65.745 132.253 66.121C131.81 67.684 131.496 69.277 130.78 70.766C128.986 74.501 126.938 78.095 124.842 81.663C124.615 82.048 124.376 82.426 124.09 82.893C123.354 81.353 122.569 79.971 122.331 78.351C122.062 76.519 121.85 74.69 122.306 72.872C122.645 71.516 123.088 70.185 123.496 68.847C123.689 68.211 123.6 67.877 123.024 67.542C122.733 67.373 122.404 67.223 122.076 67.174C120.282 66.9007 118.448 67.0507 116.722 67.612C116.179 67.788 115.894 68.139 115.728 68.699C115.24 70.351 114.824 72.043 114.139 73.614C111.365 79.974 108.511 86.301 105.66 92.627C105.065 93.948 104.368 95.223 103.697 96.509C103.527 96.835 103.279 97.122 103.067 97.428C102.897 97.227 102.831 97.089 102.832 96.951C102.837 96.138 102.74 95.301 102.895 94.515C103.371 92.1378 103.897 89.771 104.473 87.416C104.943 85.47 105.49 83.542 106.011 81.609C106.186 80.962 106.189 80.357 105.724 79.813C104.943 78.902 103.311 78.702 102.343 79.404L101.915 79.646L101.998 78.956C102.202 77.477 102.243 76.003 101.837 74.546C101.331 72.73 100.035 71.685 98.151 71.743C97.273 71.77 96.351 71.92 95.538 72.24C92.119 73.58 89.49 75.953 87.252 78.808C87.0445 79.0731 86.7874 79.2952 86.495 79.462C83.602 81.066 80.7 82.65 77.799 84.24L74.57 86.009C73.704 85.183 72.917 84.326 72.024 83.599C69.297 81.375 66.526 79.206 63.78 77.007C61.346 75.058 58.988 73.028 57.184 70.447C55.842 68.527 54.977 66.426 54.894 64.052C54.789 61.027 55.647 58.263 57.187 55.69C59.157 52.398 61.844 49.756 64.798 47.363C67.923 44.833 71.303 42.685 74.806 40.724C79.707 37.981 84.748 35.553 90.153 33.95C95.695 32.306 101.318 31.365 107.118 32.021C109.398 32.279 111.612 32.801 113.645 33.916C115.202 34.769 116.479 35.886 117.073 37.632C117.659 39.35 117.641 41.091 117.235 42.836C116.41 46.37 114.475 49.283 112.04 51.886C108.046 56.153 103.174 59.058 97.689 60.977C94.5353 62.0818 91.254 62.7817 87.924 63.06C85.195 63.289 82.523 63.047 79.939 62.098C78.228 61.469 76.738 60.507 75.54 59.111C75.326 58.861 75.052 58.59 74.653 58.824C74.262 59.054 74.193 59.426 74.324 59.803C74.543 60.429 74.745 61.081 75.086 61.641C75.943 63.046 77.193 64.065 78.569 64.939C81.212 66.62 84.166 67.185 87.229 67.316C91.877 67.517 96.412 66.823 100.883 65.576C107.266 63.796 112.816 60.652 117.267 55.692C120.973 51.562 123.62 46.901 124.187 41.273C124.464 38.526 124.169 35.835 122.883 33.329C121.488 30.614 119.27 28.595 116.618 27.204C112.756 25.179 108.588 24 104.286 24H99.976C94.766 24 89.729 25.493 84.833 27.274C81.127 28.623 77.493 30.215 73.965 31.977C66.282 35.816 59.127 40.445 53.25 46.81C50.322 49.981 47.843 53.48 46.417 57.6C45.9866 58.8301 45.6158 60.0802 45.306 61.346M73.145 97.359C72.812 101.818 70.791 105.433 67.488 108.361C65.63 110.007 63.499 111.179 61.017 111.591C60.117 111.74 59.196 111.776 58.323 111.403C57.078 110.871 56.799 109.766 56.775 108.589C56.738 106.713 57.395 105.017 58.296 103.403C59.472 101.299 61.196 99.695 63.037 98.197C65.937 95.836 69.083 93.838 72.305 91.952L72.548 91.852C73.046 93.692 73.283 95.509 73.145 97.359ZM98.303 77.98C98.068 79.404 97.774 80.829 97.358 82.209C95.92 86.986 94.073 91.615 92.076 96.182C91.707 97.027 91.17 97.798 90.703 98.599C90.6235 98.7221 90.5284 98.8344 90.42 98.933C89.842 99.504 89.294 99.474 89.002 98.727C88.662 97.859 88.453 96.93 88.273 96.011C88.152 95.394 88.181 94.746 88.143 94.114C88.182 89.62 89.553 85.536 91.879 81.734C92.838 80.166 93.882 78.672 95.477 77.68C95.9732 77.3715 96.51 77.1339 97.072 76.974C97.922 76.735 98.444 77.128 98.303 77.98ZM115.467 99.848L121.636 92.645C121.893 95.32 117.346 100.66 115.467 99.848ZM135.17 95.001C134.734 95.251 134.259 95.431 133.812 95.662C133.403 95.874 133.268 95.66 133.256 95.308C133.25 95.0643 133.281 94.8212 133.349 94.587C134.182 91.649 135.715 89.141 137.996 87.101L138.156 87.019C139.241 90.054 137.987 93.387 135.17 95.001Z" fill="#CB6699"/>
<path d="M191.482 96.0815C189.968 94.9341 189.602 93.7744 190.383 92.6025L193.203 88.3545C194.131 86.9629 195.486 86.8896 197.268 88.1348C198.635 89.0869 200.417 90.0757 202.615 91.1011C204.836 92.1021 207.168 92.6025 209.609 92.6025C211.318 92.6025 212.966 92.4072 214.553 92.0166C216.14 91.626 217.349 90.8691 218.179 89.7461C219.009 88.623 219.424 87.2925 219.424 85.7544C219.424 84.6558 219.241 83.6914 218.875 82.8613C218.508 82.0312 217.91 81.3477 217.08 80.8105C216.25 80.2734 215.396 79.8218 214.517 79.4556C212.979 78.8208 211.038 78.1982 208.694 77.5879C206.375 76.9531 204.08 76.1963 201.809 75.3174C199.783 74.5361 197.927 73.4619 196.243 72.0947C194.558 70.7275 193.252 69.1895 192.324 67.4805C191.396 65.7715 190.933 63.4888 190.933 60.6323C190.933 57.2388 192.031 54.3335 194.229 51.9165C196.426 49.4995 198.953 47.9492 201.809 47.2656C204.666 46.582 207.546 46.2402 210.452 46.2402C213.333 46.2402 216.299 46.6797 219.351 47.5586C222.427 48.4375 224.746 49.5361 226.309 50.8545C227.847 52.1484 228.225 53.3203 227.444 54.3701L224.478 58.3618C223.477 59.729 222.134 59.8389 220.449 58.6914C219.375 57.959 217.898 57.1411 216.018 56.2378C214.163 55.3345 212.222 54.8828 210.195 54.8828C208.755 54.8828 207.424 55.0049 206.204 55.249C205.007 55.4932 203.945 56.0791 203.018 57.0068C202.09 57.9346 201.626 59.082 201.626 60.4492C201.626 61.7676 201.968 62.8418 202.651 63.6719C203.335 64.4775 204.092 65.0879 204.922 65.5029C205.752 65.8936 206.594 66.2231 207.449 66.4917C210.085 67.3462 212.441 68.103 214.517 68.7622C216.592 69.397 218.508 70.105 220.266 70.8862C222.708 71.9849 224.575 73.0835 225.869 74.1821C227.163 75.2808 228.225 76.7822 229.055 78.6865C229.91 80.5908 230.337 82.8613 230.337 85.498C230.337 89.4043 229.092 92.6392 226.602 95.2026C224.111 97.7417 221.34 99.3774 218.289 100.11C215.261 100.867 212.307 101.245 209.426 101.245C205.178 101.245 201.724 100.83 199.062 100C196.401 99.1943 193.875 97.8882 191.482 96.0815ZM237.112 100C235.354 100 234.78 99.1943 235.391 97.583L253.335 50.4517C254.092 48.4741 255.239 47.4854 256.777 47.4854H261.904C263.442 47.4854 264.59 48.4741 265.347 50.4517L283.291 97.583C283.901 99.1943 283.328 100 281.57 100H275.747C274.136 100 273.013 99.1577 272.378 97.4731L268.643 87.6221H250.039L246.304 97.4731C245.669 99.1577 244.546 100 242.935 100H237.112ZM253.445 78.54H265.237L260.732 66.8945C260.195 65.5273 259.866 64.5386 259.744 63.9282C259.646 63.2935 259.536 62.3657 259.414 61.145H259.268C259.146 62.3657 259.023 63.2935 258.901 63.9282C258.804 64.5386 258.486 65.5273 257.949 66.8945L253.445 78.54ZM290.432 96.0815C288.918 94.9341 288.552 93.7744 289.333 92.6025L292.153 88.3545C293.081 86.9629 294.436 86.8896 296.218 88.1348C297.585 89.0869 299.368 90.0757 301.565 91.1011C303.787 92.1021 306.118 92.6025 308.56 92.6025C310.269 92.6025 311.917 92.4072 313.503 92.0166C315.09 91.626 316.299 90.8691 317.129 89.7461C317.959 88.623 318.374 87.2925 318.374 85.7544C318.374 84.6558 318.191 83.6914 317.825 82.8613C317.458 82.0312 316.86 81.3477 316.03 80.8105C315.2 80.2734 314.346 79.8218 313.467 79.4556C311.929 78.8208 309.988 78.1982 307.644 77.5879C305.325 76.9531 303.03 76.1963 300.759 75.3174C298.733 74.5361 296.877 73.4619 295.193 72.0947C293.508 70.7275 292.202 69.1895 291.274 67.4805C290.347 65.7715 289.883 63.4888 289.883 60.6323C289.883 57.2388 290.981 54.3335 293.179 51.9165C295.376 49.4995 297.903 47.9492 300.759 47.2656C303.616 46.582 306.497 46.2402 309.402 46.2402C312.283 46.2402 315.249 46.6797 318.301 47.5586C321.377 48.4375 323.696 49.5361 325.259 50.8545C326.797 52.1484 327.175 53.3203 326.394 54.3701L323.428 58.3618C322.427 59.729 321.084 59.8389 319.399 58.6914C318.325 57.959 316.848 57.1411 314.968 56.2378C313.113 55.3345 311.172 54.8828 309.146 54.8828C307.705 54.8828 306.375 55.0049 305.154 55.249C303.958 55.4932 302.896 56.0791 301.968 57.0068C301.04 57.9346 300.576 59.082 300.576 60.4492C300.576 61.7676 300.918 62.8418 301.602 63.6719C302.285 64.4775 303.042 65.0879 303.872 65.5029C304.702 65.8936 305.544 66.2231 306.399 66.4917C309.036 67.3462 311.392 68.103 313.467 68.7622C315.542 69.397 317.458 70.105 319.216 70.8862C321.658 71.9849 323.525 73.0835 324.819 74.1821C326.113 75.2808 327.175 76.7822 328.005 78.6865C328.86 80.5908 329.287 82.8613 329.287 85.498C329.287 89.4043 328.042 92.6392 325.552 95.2026C323.062 97.7417 320.291 99.3774 317.239 100.11C314.211 100.867 311.257 101.245 308.376 101.245C304.128 101.245 300.674 100.83 298.013 100C295.352 99.1943 292.825 97.8882 290.432 96.0815ZM338.333 96.0815C336.819 94.9341 336.453 93.7744 337.234 92.6025L340.054 88.3545C340.981 86.9629 342.336 86.8896 344.119 88.1348C345.486 89.0869 347.268 90.0757 349.465 91.1011C351.687 92.1021 354.019 92.6025 356.46 92.6025C358.169 92.6025 359.817 92.4072 361.404 92.0166C362.991 91.626 364.199 90.8691 365.029 89.7461C365.859 88.623 366.274 87.2925 366.274 85.7544C366.274 84.6558 366.091 83.6914 365.725 82.8613C365.359 82.0312 364.761 81.3477 363.931 80.8105C363.101 80.2734 362.246 79.8218 361.367 79.4556C359.829 78.8208 357.888 78.1982 355.544 77.5879C353.225 76.9531 350.93 76.1963 348.66 75.3174C346.633 74.5361 344.778 73.4619 343.093 72.0947C341.409 70.7275 340.103 69.1895 339.175 67.4805C338.247 65.7715 337.783 63.4888 337.783 60.6323C337.783 57.2388 338.882 54.3335 341.079 51.9165C343.276 49.4995 345.803 47.9492 348.66 47.2656C351.516 46.582 354.397 46.2402 357.302 46.2402C360.183 46.2402 363.149 46.6797 366.201 47.5586C369.277 48.4375 371.597 49.5361 373.159 50.8545C374.697 52.1484 375.076 53.3203 374.294 54.3701L371.328 58.3618C370.327 59.729 368.984 59.8389 367.3 58.6914C366.226 57.959 364.749 57.1411 362.869 56.2378C361.013 55.3345 359.072 54.8828 357.046 54.8828C355.605 54.8828 354.275 55.0049 353.054 55.249C351.858 55.4932 350.796 56.0791 349.868 57.0068C348.94 57.9346 348.477 59.082 348.477 60.4492C348.477 61.7676 348.818 62.8418 349.502 63.6719C350.186 64.4775 350.942 65.0879 351.772 65.5029C352.603 65.8936 353.445 66.2231 354.299 66.4917C356.936 67.3462 359.292 68.103 361.367 68.7622C363.442 69.397 365.359 70.105 367.117 70.8862C369.558 71.9849 371.426 73.0835 372.72 74.1821C374.014 75.2808 375.076 76.7822 375.906 78.6865C376.76 80.5908 377.188 82.8613 377.188 85.498C377.188 89.4043 375.942 92.6392 373.452 95.2026C370.962 97.7417 368.191 99.3774 365.139 100.11C362.112 100.867 359.158 101.245 356.277 101.245C352.029 101.245 348.574 100.83 345.913 100C343.252 99.1943 340.725 97.8882 338.333 96.0815Z" fill="white"/>
</svg>
