<svg width="590" height="145" viewBox="0 0 590 145" fill="none" xmlns="http://www.w3.org/2000/svg">
<rect x="1.5" y="1.5" width="587" height="142" rx="36.5" fill="#2A2734" stroke="white" stroke-width="3"/>
<path d="M129.1 90.4999C124.4 90.3999 120.3 93.8999 119.8 98.5999C119.8 98.7999 119.9 98.8999 120.1 98.8999H138.1C138.3 98.8999 138.4 98.7999 138.4 98.5999C138 93.7999 133.9 90.1999 129.1 90.4999Z" fill="#CF0A2C"/>
<path d="M167.7 29.8999L129.3 72.8999C128.9 73.3999 128.1 73.3999 127.6 72.9999L127.5 72.8999L108.1 52.7999C107.7 52.3999 107.7 51.7999 108 51.2999L114.5 42.9999C114.9 42.4999 115.6 42.2999 116.1 42.6999C116.2 42.7999 116.3 42.7999 116.3 42.8999L127.3 54.9999C127.7 55.4999 128.5 55.4999 129 55.0999L129.1 54.9999L159.8 13.2999C160.1 12.8999 160 12.3999 159.6 12.0999C159.5 11.9999 159.3 11.9999 159.1 11.8999H51.7C51.2 11.9999 50.8 12.3999 50.8 12.8999V135.1C50.8 135.6 51.2 136 51.7 136H168.3C168.8 136 169.2 135.6 169.2 135.1V30.4999C169.2 29.9999 168.8 29.6999 168.4 29.6999C168.1 29.5999 167.9 29.6999 167.7 29.8999ZM83.9 122.4C76.2 122.7 68.7 120.1 63 115C62.6 114.6 62.5 114 62.9 113.5L67.4 107.1C67.8 106.6 68.5 106.5 69 106.8L69.1 106.9C73.3 110.8 78.7 112.9 84.4 112.9C90.4 112.9 93.3 110.1 93.3 107.2C93.3 98.0999 63.8 104.4 63.8 85.0999C63.8 76.5999 71.2 69.4999 83.2 69.4999C90.1 69.2999 96.9 71.5999 102.3 75.9999C102.7 76.3999 102.8 77.0999 102.4 77.4999L97.7 83.6999C97.3 84.1999 96.6 84.2999 96.1 83.8999C92.1 80.6999 87.2 78.9999 82.1 79.0999C77.4 79.0999 74.8 81.1999 74.8 84.1999C74.8 92.2999 104.2 86.8999 104.2 106C104.3 115.3 97.6 122.4 83.9 122.4ZM148.2 104.6C148.2 105.2 147.7 105.6 147.2 105.6H120.3C120.1 105.6 120 105.7 120 105.9C120.9 111.1 125.6 114.7 130.9 114.4C134.3 114.3 137.5 113.3 140.2 111.3C140.6 111 141.3 111 141.6 111.5L141.7 111.6L145 116.4C145.3 116.8 145.2 117.4 144.8 117.8C140.5 121 135.2 122.6 129.9 122.4C118.3 122.4 109.6 114.6 109.6 102.4C109.3 91.6999 117.7 82.7999 128.4 82.4999H129.3C140.6 82.4999 148.4 90.9999 148.4 103.4L148.2 104.6Z" fill="#CF0A2C"/>
<path d="M191.482 96.0815C189.968 94.9341 189.602 93.7744 190.383 92.6025L193.203 88.3545C194.131 86.9629 195.486 86.8896 197.268 88.1348C198.635 89.0869 200.417 90.0757 202.615 91.1011C204.836 92.1021 207.168 92.6025 209.609 92.6025C211.318 92.6025 212.966 92.4072 214.553 92.0166C216.14 91.626 217.349 90.8691 218.179 89.7461C219.009 88.623 219.424 87.2925 219.424 85.7544C219.424 84.6558 219.241 83.6914 218.875 82.8613C218.508 82.0312 217.91 81.3477 217.08 80.8105C216.25 80.2734 215.396 79.8218 214.517 79.4556C212.979 78.8208 211.038 78.1982 208.694 77.5879C206.375 76.9531 204.08 76.1963 201.809 75.3174C199.783 74.5361 197.927 73.4619 196.243 72.0947C194.558 70.7275 193.252 69.1895 192.324 67.4805C191.396 65.7715 190.933 63.4888 190.933 60.6323C190.933 57.2388 192.031 54.3335 194.229 51.9165C196.426 49.4995 198.953 47.9492 201.809 47.2656C204.666 46.582 207.546 46.2402 210.452 46.2402C213.333 46.2402 216.299 46.6797 219.351 47.5586C222.427 48.4375 224.746 49.5361 226.309 50.8545C227.847 52.1484 228.225 53.3203 227.444 54.3701L224.478 58.3618C223.477 59.729 222.134 59.8389 220.449 58.6914C219.375 57.959 217.898 57.1411 216.018 56.2378C214.163 55.3345 212.222 54.8828 210.195 54.8828C208.755 54.8828 207.424 55.0049 206.204 55.249C205.007 55.4932 203.945 56.0791 203.018 57.0068C202.09 57.9346 201.626 59.082 201.626 60.4492C201.626 61.7676 201.968 62.8418 202.651 63.6719C203.335 64.4775 204.092 65.0879 204.922 65.5029C205.752 65.8936 206.594 66.2231 207.449 66.4917C210.085 67.3462 212.441 68.103 214.517 68.7622C216.592 69.397 218.508 70.105 220.266 70.8862C222.708 71.9849 224.575 73.0835 225.869 74.1821C227.163 75.2808 228.225 76.7822 229.055 78.6865C229.91 80.5908 230.337 82.8613 230.337 85.498C230.337 89.4043 229.092 92.6392 226.602 95.2026C224.111 97.7417 221.34 99.3774 218.289 100.11C215.261 100.867 212.307 101.245 209.426 101.245C205.178 101.245 201.724 100.83 199.062 100C196.401 99.1943 193.875 97.8882 191.482 96.0815ZM241.323 100C239.614 100 238.76 99.0845 238.76 97.2534V50.2319C238.76 48.4009 239.614 47.4854 241.323 47.4854H272.744C274.575 47.4854 275.491 48.2788 275.491 49.8657V54.187C275.491 55.7739 274.575 56.5674 272.744 56.5674H249.453V68.2129H270.803C272.634 68.2129 273.55 69.0063 273.55 70.5933V74.9146C273.55 76.5015 272.634 77.2949 270.803 77.2949H249.453V90.918H273.916C275.747 90.918 276.663 91.7114 276.663 93.2983V97.6196C276.663 99.2065 275.747 100 273.916 100H241.323ZM288.198 100C286.489 100 285.635 99.0845 285.635 97.2534V50.2319C285.635 48.4009 286.489 47.4854 288.198 47.4854H294.131C295.596 47.4854 296.328 48.4009 296.328 50.2319V90.918H317.678C319.509 90.918 320.425 91.7114 320.425 93.2983V97.6196C320.425 99.2065 319.509 100 317.678 100H288.198ZM330.752 100C329.043 100 328.188 99.0845 328.188 97.2534V50.2319C328.188 48.4009 329.043 47.4854 330.752 47.4854H362.173C364.004 47.4854 364.919 48.2788 364.919 49.8657V54.187C364.919 55.7739 364.004 56.5674 362.173 56.5674H338.882V68.2129H360.232C362.063 68.2129 362.979 69.0063 362.979 70.5933V74.9146C362.979 76.5015 362.063 77.2949 360.232 77.2949H338.882V90.918H363.345C365.176 90.918 366.091 91.7114 366.091 93.2983V97.6196C366.091 99.2065 365.176 100 363.345 100H330.752ZM377.627 100C375.918 100 375.063 99.0845 375.063 97.2534V50.2319C375.063 48.4009 375.918 47.4854 377.627 47.4854H383.047C385.146 47.4854 386.733 48.3398 387.808 50.0488L406.484 80.0415H406.741C406.619 78.5767 406.558 77.1118 406.558 75.647V50.2319C406.558 48.4009 407.412 47.4854 409.121 47.4854H414.688C416.396 47.4854 417.251 48.4009 417.251 50.2319V97.2534C417.251 99.0845 416.396 100 414.688 100H409.634C407.534 100 405.947 99.1455 404.873 97.4365L385.83 66.8945H385.574C385.696 68.3594 385.757 69.8242 385.757 71.2891V97.2534C385.757 99.0845 384.902 100 383.193 100H377.627ZM431.533 100C429.824 100 428.97 99.0845 428.97 97.2534V50.2319C428.97 48.4009 429.824 47.4854 431.533 47.4854H437.1C438.809 47.4854 439.663 48.4009 439.663 50.2319V97.2534C439.663 99.0845 438.809 100 437.1 100H431.533ZM451.382 78.1372V49.4995C451.382 48.1567 452.236 47.4854 453.945 47.4854H459.512C461.221 47.4854 462.075 48.1567 462.075 49.4995V77.771C462.075 84.3628 463.04 88.4888 464.968 90.1489C466.921 91.7847 469.119 92.6025 471.56 92.6025C474.001 92.6025 476.187 91.7847 478.115 90.1489C480.068 88.4888 481.045 84.3628 481.045 77.771V49.4995C481.045 48.1567 481.899 47.4854 483.608 47.4854H489.175C490.884 47.4854 491.738 48.1567 491.738 49.4995V78.1372C491.738 86.6821 489.932 92.6758 486.318 96.1182C482.705 99.5361 477.786 101.245 471.56 101.245C465.334 101.245 460.415 99.5361 456.802 96.1182C453.188 92.6758 451.382 86.6821 451.382 78.1372ZM506.021 100C504.312 100 503.457 99.0845 503.457 97.2534V50.2319C503.457 48.4009 504.312 47.4854 506.021 47.4854H516.641C518.057 47.4854 519.07 48.4619 519.68 50.415L529.604 82.5317C530.044 83.9233 530.349 85.0708 530.52 85.9741C530.691 86.853 530.837 87.9028 530.959 89.1235H531.179C531.301 87.9028 531.448 86.853 531.619 85.9741C531.79 85.0708 532.095 83.9233 532.534 82.5317L542.458 50.415C543.069 48.4619 544.082 47.4854 545.498 47.4854H556.118C557.827 47.4854 558.682 48.4009 558.682 50.2319V97.2534C558.682 99.0845 557.827 100 556.118 100H550.552C548.843 100 547.988 99.0845 547.988 97.2534V67.0044C547.988 65.5396 548.049 64.0747 548.171 62.6099H547.915L537.332 97.0337C536.721 99.0112 535.671 100 534.182 100H527.957C526.467 100 525.417 99.0112 524.807 97.0337L514.224 62.6099H513.967C514.089 64.0747 514.15 65.5396 514.15 67.0044V97.2534C514.15 99.0845 513.296 100 511.587 100H506.021Z" fill="white"/>
</svg>
