<svg width="461" height="145" viewBox="0 0 461 145" fill="none" xmlns="http://www.w3.org/2000/svg">
<rect x="1.5" y="1.5" width="458" height="142" rx="36.5" fill="#2A2734" stroke="white" stroke-width="3"/>
<g clip-path="url(#clip0_53_2)">
<path d="M75.255 92.7191C75.255 100.049 69.277 106.036 61.946 106.036C54.616 106.036 48.63 100.049 48.63 92.7191C48.63 85.3891 54.617 79.4021 61.947 79.4021H75.256L75.255 92.7191ZM81.964 92.7191C81.964 85.3891 87.951 79.4021 95.281 79.4021C102.611 79.4021 108.598 85.3881 108.598 92.7191V126.054C108.598 133.384 102.612 139.371 95.281 139.371C87.951 139.371 81.964 133.384 81.964 126.054V92.7191Z" fill="#DE1C59"/>
<path d="M95.281 39.2549C87.951 39.2549 81.964 33.2769 81.964 25.9459C81.964 18.6159 87.951 12.6299 95.281 12.6299C102.611 12.6299 108.598 18.6169 108.598 25.9469V39.2559L95.281 39.2549ZM95.281 45.9639C102.611 45.9639 108.598 51.9509 108.598 59.2809C108.598 66.6109 102.612 72.5979 95.281 72.5979H61.946C54.616 72.5979 48.63 66.6119 48.63 59.2809C48.63 51.9509 54.617 45.9639 61.947 45.9639H95.281Z" fill="#35C5F0"/>
<path d="M148.745 59.2809C148.745 51.9509 154.723 45.9639 162.054 45.9639C169.384 45.9639 175.371 51.9509 175.371 59.2809C175.371 66.6109 169.384 72.5979 162.054 72.5979H148.745V59.2809ZM142.036 59.2809C142.036 66.6109 136.049 72.5979 128.719 72.5979C121.389 72.5979 115.402 66.6119 115.402 59.2809V25.9459C115.402 18.6159 121.388 12.6299 128.719 12.6299C136.049 12.6299 142.036 18.6169 142.036 25.9469V59.2809Z" fill="#2EB57D"/>
<path d="M128.719 112.745C136.049 112.745 142.036 118.723 142.036 126.054C142.036 133.384 136.049 139.371 128.719 139.371C121.389 139.371 115.402 133.384 115.402 126.054V112.745H128.719ZM128.719 106.036C121.389 106.036 115.402 100.049 115.402 92.7191C115.402 85.3891 121.388 79.4021 128.719 79.4021H162.054C169.384 79.4021 175.371 85.3881 175.371 92.7191C175.371 100.049 169.384 106.036 162.054 106.036H128.719Z" fill="#EBB02E"/>
</g>
<path d="M191.482 96.0815C189.968 94.9341 189.602 93.7744 190.383 92.6025L193.203 88.3545C194.131 86.9629 195.486 86.8896 197.268 88.1348C198.635 89.0869 200.417 90.0757 202.615 91.1011C204.836 92.1021 207.168 92.6025 209.609 92.6025C211.318 92.6025 212.966 92.4072 214.553 92.0166C216.14 91.626 217.349 90.8691 218.179 89.7461C219.009 88.623 219.424 87.2925 219.424 85.7544C219.424 84.6558 219.241 83.6914 218.875 82.8613C218.508 82.0312 217.91 81.3477 217.08 80.8105C216.25 80.2734 215.396 79.8218 214.517 79.4556C212.979 78.8208 211.038 78.1982 208.694 77.5879C206.375 76.9531 204.08 76.1963 201.809 75.3174C199.783 74.5361 197.927 73.4619 196.243 72.0947C194.558 70.7275 193.252 69.1895 192.324 67.4805C191.396 65.7715 190.933 63.4888 190.933 60.6323C190.933 57.2388 192.031 54.3335 194.229 51.9165C196.426 49.4995 198.953 47.9492 201.809 47.2656C204.666 46.582 207.546 46.2402 210.452 46.2402C213.333 46.2402 216.299 46.6797 219.351 47.5586C222.427 48.4375 224.746 49.5361 226.309 50.8545C227.847 52.1484 228.225 53.3203 227.444 54.3701L224.478 58.3618C223.477 59.729 222.134 59.8389 220.449 58.6914C219.375 57.959 217.898 57.1411 216.018 56.2378C214.163 55.3345 212.222 54.8828 210.195 54.8828C208.755 54.8828 207.424 55.0049 206.204 55.249C205.007 55.4932 203.945 56.0791 203.018 57.0068C202.09 57.9346 201.626 59.082 201.626 60.4492C201.626 61.7676 201.968 62.8418 202.651 63.6719C203.335 64.4775 204.092 65.0879 204.922 65.5029C205.752 65.8936 206.594 66.2231 207.449 66.4917C210.085 67.3462 212.441 68.103 214.517 68.7622C216.592 69.397 218.508 70.105 220.266 70.8862C222.708 71.9849 224.575 73.0835 225.869 74.1821C227.163 75.2808 228.225 76.7822 229.055 78.6865C229.91 80.5908 230.337 82.8613 230.337 85.498C230.337 89.4043 229.092 92.6392 226.602 95.2026C224.111 97.7417 221.34 99.3774 218.289 100.11C215.261 100.867 212.307 101.245 209.426 101.245C205.178 101.245 201.724 100.83 199.062 100C196.401 99.1943 193.875 97.8882 191.482 96.0815ZM241.323 100C239.614 100 238.76 99.0845 238.76 97.2534V50.2319C238.76 48.4009 239.614 47.4854 241.323 47.4854H247.256C248.721 47.4854 249.453 48.4009 249.453 50.2319V90.918H270.803C272.634 90.918 273.55 91.7114 273.55 93.2983V97.6196C273.55 99.2065 272.634 100 270.803 100H241.323ZM279.666 100C277.908 100 277.334 99.1943 277.944 97.583L295.889 50.4517C296.646 48.4741 297.793 47.4854 299.331 47.4854H304.458C305.996 47.4854 307.144 48.4741 307.9 50.4517L325.845 97.583C326.455 99.1943 325.881 100 324.124 100H318.301C316.689 100 315.566 99.1577 314.932 97.4731L311.196 87.6221H292.593L288.857 97.4731C288.223 99.1577 287.1 100 285.488 100H279.666ZM295.999 78.54H307.791L303.286 66.8945C302.749 65.5273 302.419 64.5386 302.297 63.9282C302.2 63.2935 302.09 62.3657 301.968 61.145H301.821C301.699 62.3657 301.577 63.2935 301.455 63.9282C301.357 64.5386 301.04 65.5273 300.503 66.8945L295.999 78.54ZM329.653 73.7427C329.653 65.3198 331.79 58.6304 336.062 53.6743C340.334 48.7183 346.499 46.2402 354.556 46.2402C359.194 46.2402 363.125 46.9604 366.348 48.4009C369.57 49.8413 371.841 51.9287 373.159 54.6631C374.038 56.4697 373.892 57.6904 372.72 58.3252L368.325 60.6689C366.787 61.499 365.518 61.0352 364.517 59.2773C363.882 58.1543 362.698 57.1411 360.964 56.2378C359.255 55.3345 357.241 54.8828 354.922 54.8828C349.795 54.8828 346.206 56.5063 344.155 59.7534C342.104 62.9761 341.079 67.6392 341.079 73.7427C341.079 79.8462 342.104 84.5215 344.155 87.7686C346.206 90.9912 349.795 92.6025 354.922 92.6025C357.681 92.6025 360 91.98 361.88 90.7349C363.784 89.4897 365.103 88.3057 365.835 87.1826C367.031 85.3516 368.301 84.8877 369.644 85.791L374.038 88.7207C375.234 89.5264 375.356 90.7471 374.404 92.3828C372.988 94.8242 370.559 96.9116 367.117 98.645C363.674 100.378 359.487 101.245 354.556 101.245C346.621 101.245 340.481 98.7671 336.135 93.811C331.814 88.855 329.653 82.1655 329.653 73.7427ZM386.855 100C385.146 100 384.292 99.0845 384.292 97.2534V50.2319C384.292 48.4009 385.146 47.4854 386.855 47.4854H392.422C394.131 47.4854 394.985 48.4009 394.985 50.2319V64.8071C394.985 66.272 394.924 67.7368 394.802 69.2017H395.059L412.856 49.646C414.175 48.2056 415.298 47.4854 416.226 47.4854H423.586C426.443 47.4854 426.907 48.5352 424.978 50.6348L408.315 68.8721L426.15 96.8506C427.493 98.9502 427.029 100 424.758 100H417.91C416.641 100 415.542 99.2798 414.614 97.8394L401.138 76.709L394.985 83.6304V97.2534C394.985 99.0845 394.131 100 392.422 100H386.855Z" fill="white"/>
<defs>
<clipPath id="clip0_53_2">
<rect width="128" height="128" fill="white" transform="translate(48 12)"/>
</clipPath>
</defs>
</svg>
