<svg width="528" height="145" viewBox="0 0 528 145" fill="none" xmlns="http://www.w3.org/2000/svg">
<rect x="1.5" y="1.5" width="525" height="142" rx="36.5" fill="#2A2734" stroke="white" stroke-width="3"/>
<g clip-path="url(#clip0_53_2)">
<path d="M160.452 14.6431C158.659 18.9438 156.364 23.0174 153.615 26.7791C141.569 14.74 125.236 7.97619 108.205 7.97412C72.984 7.97412 44 36.9821 44 72.2421C43.9996 80.9492 45.7672 89.5656 49.1956 97.5693C52.624 105.573 57.6418 112.797 63.945 118.804L66.313 120.904C77.8859 130.662 92.5336 136.017 107.671 136.026C141.158 136.026 169.308 109.786 171.692 76.3431C173.443 59.9721 168.641 39.2661 160.452 14.6431ZM73.067 119.17C72.5515 119.805 71.9008 120.317 71.1623 120.669C70.4237 121.021 69.616 121.204 68.798 121.204C65.78 121.204 63.311 118.72 63.311 115.702C63.311 112.685 65.796 110.201 68.798 110.201C70.048 110.201 71.283 110.634 72.25 111.435C74.601 113.335 74.968 116.819 73.067 119.17ZM160.186 99.9321C144.343 121.054 110.506 113.935 88.81 114.952C88.81 114.952 84.958 115.186 81.089 115.819C81.089 115.819 82.539 115.202 84.424 114.485C99.65 109.184 106.854 108.15 116.109 103.399C133.536 94.5301 150.763 75.1251 154.349 54.9361C147.712 74.3581 127.599 91.0461 109.272 97.8311C96.715 102.466 74.034 106.967 74.034 106.967L73.117 106.483C57.675 98.9651 57.207 65.5061 85.274 54.7031C97.565 49.9681 109.322 52.5691 122.597 49.4011C136.772 46.0341 153.165 35.3971 159.835 21.5271C167.306 43.7171 176.296 78.4591 160.186 99.9321Z" fill="#77BC1F"/>
</g>
<path d="M191.482 96.0815C189.968 94.9341 189.602 93.7744 190.383 92.6025L193.203 88.3545C194.131 86.9629 195.486 86.8896 197.268 88.1348C198.635 89.0869 200.417 90.0757 202.615 91.1011C204.836 92.1021 207.168 92.6025 209.609 92.6025C211.318 92.6025 212.966 92.4072 214.553 92.0166C216.14 91.626 217.349 90.8691 218.179 89.7461C219.009 88.623 219.424 87.2925 219.424 85.7544C219.424 84.6558 219.241 83.6914 218.875 82.8613C218.508 82.0312 217.91 81.3477 217.08 80.8105C216.25 80.2734 215.396 79.8218 214.517 79.4556C212.979 78.8208 211.038 78.1982 208.694 77.5879C206.375 76.9531 204.08 76.1963 201.809 75.3174C199.783 74.5361 197.927 73.4619 196.243 72.0947C194.558 70.7275 193.252 69.1895 192.324 67.4805C191.396 65.7715 190.933 63.4888 190.933 60.6323C190.933 57.2388 192.031 54.3335 194.229 51.9165C196.426 49.4995 198.953 47.9492 201.809 47.2656C204.666 46.582 207.546 46.2402 210.452 46.2402C213.333 46.2402 216.299 46.6797 219.351 47.5586C222.427 48.4375 224.746 49.5361 226.309 50.8545C227.847 52.1484 228.225 53.3203 227.444 54.3701L224.478 58.3618C223.477 59.729 222.134 59.8389 220.449 58.6914C219.375 57.959 217.898 57.1411 216.018 56.2378C214.163 55.3345 212.222 54.8828 210.195 54.8828C208.755 54.8828 207.424 55.0049 206.204 55.249C205.007 55.4932 203.945 56.0791 203.018 57.0068C202.09 57.9346 201.626 59.082 201.626 60.4492C201.626 61.7676 201.968 62.8418 202.651 63.6719C203.335 64.4775 204.092 65.0879 204.922 65.5029C205.752 65.8936 206.594 66.2231 207.449 66.4917C210.085 67.3462 212.441 68.103 214.517 68.7622C216.592 69.397 218.508 70.105 220.266 70.8862C222.708 71.9849 224.575 73.0835 225.869 74.1821C227.163 75.2808 228.225 76.7822 229.055 78.6865C229.91 80.5908 230.337 82.8613 230.337 85.498C230.337 89.4043 229.092 92.6392 226.602 95.2026C224.111 97.7417 221.34 99.3774 218.289 100.11C215.261 100.867 212.307 101.245 209.426 101.245C205.178 101.245 201.724 100.83 199.062 100C196.401 99.1943 193.875 97.8882 191.482 96.0815ZM241.323 100C239.614 100 238.76 99.0845 238.76 97.2534V50.2319C238.76 48.4009 239.614 47.4854 241.323 47.4854H255.02C263.809 47.4854 269.9 48.9136 273.293 51.77C276.711 54.6265 278.42 58.6792 278.42 63.9282C278.42 69.1772 276.711 73.23 273.293 76.0864C269.9 78.9429 263.809 80.3711 255.02 80.3711H249.453V97.2534C249.453 99.0845 248.599 100 246.89 100H241.323ZM249.453 71.4355H254.983C259.866 71.4355 263.186 70.8618 264.944 69.7144C266.702 68.5425 267.581 66.6138 267.581 63.9282C267.581 61.2427 266.702 59.3262 264.944 58.1787C263.186 57.0068 259.866 56.4209 254.983 56.4209H249.453V71.4355ZM289.956 100C288.247 100 287.393 99.0845 287.393 97.2534V50.2319C287.393 48.4009 288.247 47.4854 289.956 47.4854H306.912C314.456 47.4854 319.961 48.6572 323.428 51.001C326.895 53.3203 328.628 57.1045 328.628 62.3535C328.628 66.2598 327.224 69.3726 324.417 71.6919C321.609 74.0112 318.044 75.5493 313.723 76.3062V76.3794C316.067 77.2583 317.837 78.479 319.033 80.0415C320.229 81.604 321.206 82.9712 321.963 84.1431L330.02 96.8506C331.362 98.9502 330.898 100 328.628 100H322.256C320.913 100 319.814 99.2798 318.96 97.8394L311.562 85.498C310.757 84.1797 309.28 82.7393 307.131 81.1768C305.007 79.5898 302.896 78.7964 300.796 78.7964H298.086V97.2534C298.086 99.0845 297.231 100 295.522 100H289.956ZM298.086 69.7144H304.641C309.524 69.7144 312.991 69.165 315.042 68.0664C317.117 66.9434 318.154 65.1733 318.154 62.7563C318.154 60.1196 317.153 58.4106 315.151 57.6294C313.174 56.8237 310.256 56.4209 306.399 56.4209H298.086V69.7144ZM342.251 100C340.542 100 339.688 99.0845 339.688 97.2534V50.2319C339.688 48.4009 340.542 47.4854 342.251 47.4854H347.817C349.526 47.4854 350.381 48.4009 350.381 50.2319V97.2534C350.381 99.0845 349.526 100 347.817 100H342.251ZM364.663 100C362.954 100 362.1 99.0845 362.1 97.2534V50.2319C362.1 48.4009 362.954 47.4854 364.663 47.4854H370.083C372.183 47.4854 373.77 48.3398 374.844 50.0488L393.521 80.0415H393.777C393.655 78.5767 393.594 77.1118 393.594 75.647V50.2319C393.594 48.4009 394.448 47.4854 396.157 47.4854H401.724C403.433 47.4854 404.287 48.4009 404.287 50.2319V97.2534C404.287 99.0845 403.433 100 401.724 100H396.67C394.57 100 392.983 99.1455 391.909 97.4365L372.866 66.8945H372.61C372.732 68.3594 372.793 69.8242 372.793 71.2891V97.2534C372.793 99.0845 371.938 100 370.229 100H364.663ZM413.296 73.7427C413.296 65.3198 415.493 58.6304 419.888 53.6743C424.282 48.7183 430.508 46.2402 438.564 46.2402C443.423 46.2402 447.231 46.8628 449.99 48.1079C452.773 49.353 455.215 51.2817 457.314 53.894C458.584 55.481 458.547 56.7139 457.205 57.5928L453.03 60.3027C451.809 61.1084 450.503 60.7544 449.111 59.2407C447.964 57.9956 446.511 56.958 444.753 56.1279C442.996 55.2979 441.055 54.8828 438.931 54.8828C433.804 54.8828 430.154 56.5063 427.981 59.7534C425.808 62.9761 424.722 67.6392 424.722 73.7427C424.722 79.8462 425.808 84.5215 427.981 87.7686C430.154 90.9912 433.804 92.6025 438.931 92.6025C441.421 92.6025 443.569 92.3584 445.376 91.8701C447.183 91.3574 448.892 90.4419 450.503 89.1235V82.5684H442.556C440.725 82.5684 439.81 81.7749 439.81 80.188V75.8667C439.81 74.2798 440.725 73.4863 442.556 73.4863H458.45C460.281 73.4863 461.196 74.2798 461.196 75.8667V94.4702C457.778 96.9849 454.324 98.7427 450.833 99.7437C447.366 100.745 443.276 101.245 438.564 101.245C430.63 101.245 424.429 98.7671 419.961 93.811C415.518 88.855 413.296 82.1655 413.296 73.7427Z" fill="white"/>
<defs>
<clipPath id="clip0_53_2">
<rect width="128" height="128" fill="white" transform="translate(44 8)"/>
</clipPath>
</defs>
</svg>
