<svg width="486" height="145" viewBox="0 0 486 145" fill="none" xmlns="http://www.w3.org/2000/svg">
<rect x="1.5" y="1.5" width="483" height="142" rx="36.5" fill="#2A2734" stroke="white" stroke-width="3"/>
<path d="M113.5 109.176C113.441 108.446 113.406 107.976 113.406 107.976C113.406 107.976 111.2 93.0869 108.57 88.6419C108.156 87.9349 108.613 85.0479 109.777 80.7619C110.457 81.9309 113.317 86.9539 113.895 88.5719C114.543 90.3959 114.675 90.9189 114.675 90.9189C114.675 90.9189 113.105 82.8369 110.531 78.1219C111.157 76.0203 111.825 73.9315 112.535 71.8569C113.508 73.5669 115.848 77.7159 116.363 79.1569C116.465 79.4499 116.555 79.6999 116.633 79.9309C116.656 79.7939 116.683 79.6569 116.707 79.5169C116.117 77.0129 114.957 72.6569 113.371 69.4349C116.891 51.1069 128.902 26.6109 141.211 15.6809H60.9C55.513 15.6809 51.111 20.0869 51.111 25.4699V114.04C51.111 119.423 55.517 123.829 60.901 123.829H113.798C113.397 118.956 113.298 114.062 113.501 109.177" fill="#0B7FCC"/>
<path d="M109.777 80.7619C110.457 81.9299 113.317 86.9499 113.894 88.5709C114.543 90.3949 114.675 90.9179 114.675 90.9179C114.675 90.9179 113.105 82.8359 110.531 78.1209C111.157 76.0177 111.825 73.9273 112.535 71.8509C113.422 73.4179 115.457 77.0199 116.187 78.7229L116.269 77.7619C115.621 75.2659 114.636 71.9959 113.371 69.4339C116.613 52.5629 127.051 30.4639 138.297 18.5359H60.899C59.0606 18.5375 57.298 19.2684 55.998 20.5682C54.698 21.868 53.9668 23.6305 53.965 25.4689V107.579C71.492 100.848 92.629 94.6989 110.82 94.9649C110.148 92.3599 109.379 90.0049 108.57 88.6409C108.156 87.9339 108.613 85.0439 109.777 80.7619Z" fill="url(#paint0_linear_53_2)"/>
<path d="M159.95 12.781C154.45 7.87501 147.786 9.84801 141.216 15.68C140.201 16.5878 139.229 17.5418 138.302 18.539C127.052 30.465 116.618 52.562 113.376 69.434C114.638 71.997 115.626 75.266 116.27 77.762C116.438 78.402 116.59 79.004 116.712 79.516C116.997 80.723 117.149 81.512 117.149 81.512C117.149 81.512 117.048 81.129 116.634 79.93C116.556 79.7 116.466 79.446 116.364 79.157C116.321 79.032 116.259 78.883 116.192 78.723C115.458 77.02 113.427 73.418 112.536 71.856C111.774 74.106 111.099 76.216 110.532 78.121C113.11 82.836 114.681 90.918 114.681 90.918C114.681 90.918 114.544 90.395 113.899 88.571C113.321 86.95 110.458 81.931 109.782 80.762C108.618 85.043 108.157 87.934 108.575 88.642C109.384 90.004 110.149 92.364 110.825 94.965C112.349 100.832 113.411 107.977 113.411 107.977C113.411 107.977 113.442 108.446 113.505 109.177C113.302 114.062 113.401 118.955 113.802 123.828C114.306 129.938 115.255 135.191 116.466 138L117.294 137.551C115.513 132.016 114.79 124.758 115.106 116.395C115.586 103.602 118.528 88.18 123.962 72.106C133.153 47.836 145.9 28.368 157.564 19.071C146.931 28.673 132.541 59.755 128.232 71.266C123.412 84.157 119.994 96.25 117.931 107.84C121.481 96.977 132.978 92.31 132.978 92.31C132.978 92.31 138.615 85.352 145.205 75.422C141.255 76.325 134.775 77.864 132.607 78.774C129.407 80.118 128.54 80.574 128.54 80.574C128.54 80.574 138.911 74.262 147.81 71.403C160.044 52.133 173.372 24.755 159.951 12.782" fill="#003956"/>
<path d="M191.482 96.0815C189.968 94.9341 189.602 93.7744 190.383 92.6025L193.203 88.3545C194.131 86.9629 195.486 86.8896 197.268 88.1348C198.635 89.0869 200.417 90.0757 202.615 91.1011C204.836 92.1021 207.168 92.6025 209.609 92.6025C211.318 92.6025 212.966 92.4072 214.553 92.0166C216.14 91.626 217.349 90.8691 218.179 89.7461C219.009 88.623 219.424 87.2925 219.424 85.7544C219.424 84.6558 219.241 83.6914 218.875 82.8613C218.508 82.0312 217.91 81.3477 217.08 80.8105C216.25 80.2734 215.396 79.8218 214.517 79.4556C212.979 78.8208 211.038 78.1982 208.694 77.5879C206.375 76.9531 204.08 76.1963 201.809 75.3174C199.783 74.5361 197.927 73.4619 196.243 72.0947C194.558 70.7275 193.252 69.1895 192.324 67.4805C191.396 65.7715 190.933 63.4888 190.933 60.6323C190.933 57.2388 192.031 54.3335 194.229 51.9165C196.426 49.4995 198.953 47.9492 201.809 47.2656C204.666 46.582 207.546 46.2402 210.452 46.2402C213.333 46.2402 216.299 46.6797 219.351 47.5586C222.427 48.4375 224.746 49.5361 226.309 50.8545C227.847 52.1484 228.225 53.3203 227.444 54.3701L224.478 58.3618C223.477 59.729 222.134 59.8389 220.449 58.6914C219.375 57.959 217.898 57.1411 216.018 56.2378C214.163 55.3345 212.222 54.8828 210.195 54.8828C208.755 54.8828 207.424 55.0049 206.204 55.249C205.007 55.4932 203.945 56.0791 203.018 57.0068C202.09 57.9346 201.626 59.082 201.626 60.4492C201.626 61.7676 201.968 62.8418 202.651 63.6719C203.335 64.4775 204.092 65.0879 204.922 65.5029C205.752 65.8936 206.594 66.2231 207.449 66.4917C210.085 67.3462 212.441 68.103 214.517 68.7622C216.592 69.397 218.508 70.105 220.266 70.8862C222.708 71.9849 224.575 73.0835 225.869 74.1821C227.163 75.2808 228.225 76.7822 229.055 78.6865C229.91 80.5908 230.337 82.8613 230.337 85.498C230.337 89.4043 229.092 92.6392 226.602 95.2026C224.111 97.7417 221.34 99.3774 218.289 100.11C215.261 100.867 212.307 101.245 209.426 101.245C205.178 101.245 201.724 100.83 199.062 100C196.401 99.1943 193.875 97.8882 191.482 96.0815ZM236.05 73.7427C236.05 65.3198 238.223 58.6304 242.568 53.6743C246.914 48.7183 253.115 46.2402 261.172 46.2402C269.229 46.2402 275.43 48.7183 279.775 53.6743C284.121 58.6304 286.294 65.3198 286.294 73.7427C286.294 82.1655 284.121 88.855 279.775 93.811C276.455 97.5952 272.048 99.939 266.555 100.842C266.775 103.04 267.349 104.675 268.276 105.75C269.229 106.848 271.06 107.397 273.77 107.397C275.015 107.397 276.309 107.227 277.651 106.885C278.872 106.567 279.58 106.836 279.775 107.69L280.801 111.938C281.021 112.891 280.581 113.501 279.482 113.77C276.602 114.526 274.307 114.905 272.598 114.905C266.055 114.905 261.685 113.525 259.487 110.767C257.314 108.008 256.094 104.7 255.825 100.842C250.308 99.9634 245.889 97.6196 242.568 93.811C238.223 88.855 236.05 82.1655 236.05 73.7427ZM247.476 73.7427C247.476 79.8462 248.562 84.5215 250.735 87.7686C252.932 90.9912 256.411 92.6025 261.172 92.6025C265.933 92.6025 269.399 90.9912 271.572 87.7686C273.77 84.5215 274.868 79.8462 274.868 73.7427C274.868 67.6392 273.77 62.9761 271.572 59.7534C269.399 56.5063 265.933 54.8828 261.172 54.8828C256.411 54.8828 252.932 56.5063 250.735 59.7534C248.562 62.9761 247.476 67.6392 247.476 73.7427ZM297.866 100C296.157 100 295.303 99.0845 295.303 97.2534V50.2319C295.303 48.4009 296.157 47.4854 297.866 47.4854H303.799C305.264 47.4854 305.996 48.4009 305.996 50.2319V90.918H327.346C329.177 90.918 330.093 91.7114 330.093 93.2983V97.6196C330.093 99.2065 329.177 100 327.346 100H297.866ZM340.42 100C338.711 100 337.856 99.0845 337.856 97.2534V50.2319C337.856 48.4009 338.711 47.4854 340.42 47.4854H345.986C347.695 47.4854 348.55 48.4009 348.55 50.2319V97.2534C348.55 99.0845 347.695 100 345.986 100H340.42ZM358.401 56.8604C356.57 56.8604 355.654 56.0669 355.654 54.48V49.8657C355.654 48.2788 356.57 47.4854 358.401 47.4854H396.047C397.878 47.4854 398.794 48.2788 398.794 49.8657V54.48C398.794 56.0669 397.878 56.8604 396.047 56.8604H382.571V97.9858C382.571 99.3286 381.96 100 380.74 100H373.708C372.488 100 371.877 99.3286 371.877 97.9858V56.8604H358.401ZM408.462 100C406.753 100 405.898 99.0845 405.898 97.2534V50.2319C405.898 48.4009 406.753 47.4854 408.462 47.4854H439.883C441.714 47.4854 442.629 48.2788 442.629 49.8657V54.187C442.629 55.7739 441.714 56.5674 439.883 56.5674H416.592V68.2129H437.942C439.773 68.2129 440.688 69.0063 440.688 70.5933V74.9146C440.688 76.5015 439.773 77.2949 437.942 77.2949H416.592V90.918H441.055C442.886 90.918 443.801 91.7114 443.801 93.2983V97.6196C443.801 99.2065 442.886 100 441.055 100H408.462Z" fill="white"/>
<defs>
<linearGradient id="paint0_linear_53_2" x1="102.59" y1="20.3501" x2="102.59" y2="102.623" gradientUnits="userSpaceOnUse">
<stop stop-color="#95D7F4"/>
<stop offset="0.92" stop-color="#0F7FCC"/>
<stop offset="1" stop-color="#0F7FCC"/>
</linearGradient>
</defs>
</svg>
