<svg width="362" height="145" viewBox="0 0 362 145" fill="none" xmlns="http://www.w3.org/2000/svg">
<rect x="1.5" y="1.5" width="359" height="142" rx="36.5" fill="#2A2734" stroke="white" stroke-width="3"/>
<path d="M78.2699 119.182C74.6979 119.182 69.7199 122.907 69.7199 127.066C69.7199 129.121 70.9999 130.106 72.8549 130.106C76.2889 130.106 81.6889 126.506 81.6889 122.126C81.6869 119.97 80.1779 119.182 78.2699 119.182ZM90.1419 38.917C90.1419 35.255 87.5479 32.4571 83.6819 32.4571C80.0569 32.4571 77.1289 35.255 77.1289 38.917C77.1289 42.35 79.9149 45.4711 83.5869 45.4711C87.0569 45.4711 90.1409 42.738 90.1409 38.918L90.1419 38.917ZM107.905 23.624C107.905 20.834 106.08 17.26 102.205 17.26C98.6809 17.26 96.8869 20.358 96.8869 23.15C96.8869 25.848 98.7949 29.798 102.587 29.798C106.111 29.798 107.905 26.324 107.905 23.624ZM92.3799 127.066C89.1499 127.066 84.7069 131.29 84.7069 134.476C84.7069 136.094 85.3769 136.946 87.1389 136.946C89.4419 136.946 92.7689 134.993 94.2029 132.101C94.4869 131.533 94.9979 130.574 94.9979 130.391V128.777C93.9979 127.43 93.3249 127.067 92.3779 127.067L92.3799 127.066ZM72.4749 107.213C72.4749 104.423 70.4089 103.319 68.1049 103.319C64.7369 103.319 58.8919 106.555 58.8919 111.202C58.8919 113.826 60.6789 115.002 63.1659 115.002C66.3509 115.002 72.4759 112.114 72.4759 107.212L72.4749 107.213ZM68.3899 68.173C71.7699 68.173 76.4639 65.841 76.4639 61.049C76.4639 57.431 73.4809 55.159 70.1939 55.159C66.6239 55.159 62.0259 57.639 62.0259 62.2831C62.0259 65.855 64.9109 68.173 68.3899 68.173ZM70.1949 85.556C70.1949 82.231 67.4819 80.712 64.5909 80.712C64.4089 80.712 64.2709 80.656 63.5469 80.712C59.3699 81.062 55.4729 84.658 55.4729 88.312C55.4729 91.726 58.5769 93.155 61.2669 93.155C64.7469 93.155 70.1969 90.485 70.1969 85.555L70.1949 85.556ZM150.174 19.445C147.631 19.445 146.754 23.393 146.754 24.669C146.754 25.935 147.192 28.7521 149.414 28.7521C152.021 28.7521 152.834 24.804 152.834 23.528C152.834 22.454 152.258 19.443 150.174 19.443V19.445ZM137.73 12.32C134.775 12.32 133.837 16.02 133.837 17.735C133.837 18.865 134.533 22.891 137.352 22.865C140.172 22.835 141.246 19.172 141.246 17.355C141.246 15.942 140.566 12.321 137.731 12.321L137.73 12.32ZM158.438 29.893C156.088 29.893 155.208 33.753 155.208 34.927C155.208 35.909 155.584 38.2521 157.393 38.2521C159.678 38.2521 160.528 34.487 160.528 33.312C160.528 32.532 160.183 29.893 158.438 29.893ZM133.742 116.617C131.062 116.617 129.182 120.711 129.182 122.317C129.182 123.153 129.396 124.027 130.608 124.027C133.26 124.027 135.168 119.997 135.168 118.327C135.166 117.545 134.88 116.617 133.742 116.617ZM107.145 128.3C104.115 128.3 100.591 132.348 100.591 135.14C100.591 135.55 100.599 136.353 101.351 136.85C102.139 137.365 103.547 137.413 105.246 136.28C107.526 134.758 109.046 132.067 109.046 130.295C109.046 129.322 108.422 128.301 107.145 128.3ZM121.203 10.8C117.973 10.8 116.739 14.634 116.739 16.69C116.739 18.847 118.329 22.58 121.487 22.58C124.692 22.58 125.917 18.75 125.857 16.785C125.782 14.27 124.728 10.8 121.203 10.8ZM121.203 124.31C118.266 124.31 115.789 128.52 115.789 130.675C115.789 131.76 116.283 132.385 117.403 132.385C120.056 132.385 122.817 128.321 122.817 126.211C122.817 125.284 122.627 124.311 121.202 124.311L121.203 124.31Z" fill="white"/>
<path d="M191.482 96.0815C189.968 94.9341 189.602 93.7744 190.383 92.6025L193.203 88.3545C194.131 86.9629 195.486 86.8896 197.268 88.1348C198.635 89.0869 200.417 90.0757 202.615 91.1011C204.836 92.1021 207.168 92.6025 209.609 92.6025C211.318 92.6025 212.966 92.4072 214.553 92.0166C216.14 91.626 217.349 90.8691 218.179 89.7461C219.009 88.623 219.424 87.2925 219.424 85.7544C219.424 84.6558 219.241 83.6914 218.875 82.8613C218.508 82.0312 217.91 81.3477 217.08 80.8105C216.25 80.2734 215.396 79.8218 214.517 79.4556C212.979 78.8208 211.038 78.1982 208.694 77.5879C206.375 76.9531 204.08 76.1963 201.809 75.3174C199.783 74.5361 197.927 73.4619 196.243 72.0947C194.558 70.7275 193.252 69.1895 192.324 67.4805C191.396 65.7715 190.933 63.4888 190.933 60.6323C190.933 57.2388 192.031 54.3335 194.229 51.9165C196.426 49.4995 198.953 47.9492 201.809 47.2656C204.666 46.582 207.546 46.2402 210.452 46.2402C213.333 46.2402 216.299 46.6797 219.351 47.5586C222.427 48.4375 224.746 49.5361 226.309 50.8545C227.847 52.1484 228.225 53.3203 227.444 54.3701L224.478 58.3618C223.477 59.729 222.134 59.8389 220.449 58.6914C219.375 57.959 217.898 57.1411 216.018 56.2378C214.163 55.3345 212.222 54.8828 210.195 54.8828C208.755 54.8828 207.424 55.0049 206.204 55.249C205.007 55.4932 203.945 56.0791 203.018 57.0068C202.09 57.9346 201.626 59.082 201.626 60.4492C201.626 61.7676 201.968 62.8418 202.651 63.6719C203.335 64.4775 204.092 65.0879 204.922 65.5029C205.752 65.8936 206.594 66.2231 207.449 66.4917C210.085 67.3462 212.441 68.103 214.517 68.7622C216.592 69.397 218.508 70.105 220.266 70.8862C222.708 71.9849 224.575 73.0835 225.869 74.1821C227.163 75.2808 228.225 76.7822 229.055 78.6865C229.91 80.5908 230.337 82.8613 230.337 85.498C230.337 89.4043 229.092 92.6392 226.602 95.2026C224.111 97.7417 221.34 99.3774 218.289 100.11C215.261 100.867 212.307 101.245 209.426 101.245C205.178 101.245 201.724 100.83 199.062 100C196.401 99.1943 193.875 97.8882 191.482 96.0815ZM239.382 96.0815C237.869 94.9341 237.502 93.7744 238.284 92.6025L241.104 88.3545C242.031 86.9629 243.386 86.8896 245.168 88.1348C246.536 89.0869 248.318 90.0757 250.515 91.1011C252.737 92.1021 255.068 92.6025 257.51 92.6025C259.219 92.6025 260.867 92.4072 262.454 92.0166C264.041 91.626 265.249 90.8691 266.079 89.7461C266.909 88.623 267.324 87.2925 267.324 85.7544C267.324 84.6558 267.141 83.6914 266.775 82.8613C266.409 82.0312 265.811 81.3477 264.98 80.8105C264.15 80.2734 263.296 79.8218 262.417 79.4556C260.879 78.8208 258.938 78.1982 256.594 77.5879C254.275 76.9531 251.98 76.1963 249.709 75.3174C247.683 74.5361 245.828 73.4619 244.143 72.0947C242.458 70.7275 241.152 69.1895 240.225 67.4805C239.297 65.7715 238.833 63.4888 238.833 60.6323C238.833 57.2388 239.932 54.3335 242.129 51.9165C244.326 49.4995 246.853 47.9492 249.709 47.2656C252.566 46.582 255.447 46.2402 258.352 46.2402C261.233 46.2402 264.199 46.6797 267.251 47.5586C270.327 48.4375 272.646 49.5361 274.209 50.8545C275.747 52.1484 276.125 53.3203 275.344 54.3701L272.378 58.3618C271.377 59.729 270.034 59.8389 268.35 58.6914C267.275 57.959 265.798 57.1411 263.918 56.2378C262.063 55.3345 260.122 54.8828 258.096 54.8828C256.655 54.8828 255.325 55.0049 254.104 55.249C252.908 55.4932 251.846 56.0791 250.918 57.0068C249.99 57.9346 249.526 59.082 249.526 60.4492C249.526 61.7676 249.868 62.8418 250.552 63.6719C251.235 64.4775 251.992 65.0879 252.822 65.5029C253.652 65.8936 254.495 66.2231 255.349 66.4917C257.986 67.3462 260.342 68.103 262.417 68.7622C264.492 69.397 266.409 70.105 268.167 70.8862C270.608 71.9849 272.476 73.0835 273.77 74.1821C275.063 75.2808 276.125 76.7822 276.956 78.6865C277.81 80.5908 278.237 82.8613 278.237 85.498C278.237 89.4043 276.992 92.6392 274.502 95.2026C272.012 97.7417 269.241 99.3774 266.189 100.11C263.162 100.867 260.208 101.245 257.327 101.245C253.079 101.245 249.624 100.83 246.963 100C244.302 99.1943 241.775 97.8882 239.382 96.0815ZM289.224 100C287.515 100 286.66 99.0845 286.66 97.2534V50.2319C286.66 48.4009 287.515 47.4854 289.224 47.4854H294.79C296.499 47.4854 297.354 48.4009 297.354 50.2319V68.1396H317.056V50.2319C317.056 48.4009 317.91 47.4854 319.619 47.4854H325.186C326.895 47.4854 327.749 48.4009 327.749 50.2319V97.2534C327.749 99.0845 326.895 100 325.186 100H319.619C317.91 100 317.056 99.0845 317.056 97.2534V77.2217H297.354V97.2534C297.354 99.0845 296.499 100 294.79 100H289.224Z" fill="white"/>
</svg>
