<svg width="750" height="145" viewBox="0 0 750 145" fill="none" xmlns="http://www.w3.org/2000/svg">
<rect x="1.5" y="1.5" width="747" height="142" rx="36.5" fill="#2A2734" stroke="white" stroke-width="3"/>
<g clip-path="url(#clip0_53_2)">
<path d="M106.004 35.6021C88.937 35.6021 78.274 44.1321 74.004 61.1991C80.402 52.6681 87.871 49.4691 96.402 51.6021C101.273 52.8161 104.754 56.3481 108.609 60.2621C114.883 66.6291 122.145 74.0001 138.004 74.0001C155.07 74.0001 165.734 65.469 170.004 48.3981C163.605 56.9341 156.137 60.1331 147.605 58.0001C142.735 56.7851 139.258 53.2541 135.398 49.3401C129.128 42.9731 121.868 35.6021 106.004 35.6021ZM74.004 74.0001C56.938 74.0001 46.274 82.5311 42.004 99.6021C48.402 91.0661 55.87 87.8671 64.402 90.0001C69.273 91.2151 72.754 94.7461 76.609 98.6601C82.883 105.027 90.145 112.398 106.004 112.398C123.07 112.398 133.734 103.868 138.004 86.8011C131.605 95.3321 124.137 98.5311 115.605 96.3981C110.735 95.1841 107.258 91.6521 103.398 87.7381C97.128 81.3711 89.868 74.0001 74.004 74.0001Z" fill="#38BDF8"/>
</g>
<path d="M188.992 56.8604C187.161 56.8604 186.245 56.0669 186.245 54.48V49.8657C186.245 48.2788 187.161 47.4854 188.992 47.4854H226.638C228.469 47.4854 229.385 48.2788 229.385 49.8657V54.48C229.385 56.0669 228.469 56.8604 226.638 56.8604H213.162V97.9858C213.162 99.3286 212.551 100 211.331 100H204.299C203.079 100 202.468 99.3286 202.468 97.9858V56.8604H188.992ZM228.469 100C226.711 100 226.138 99.1943 226.748 97.583L244.692 50.4517C245.449 48.4741 246.597 47.4854 248.135 47.4854H253.262C254.8 47.4854 255.947 48.4741 256.704 50.4517L274.648 97.583C275.259 99.1943 274.685 100 272.927 100H267.104C265.493 100 264.37 99.1577 263.735 97.4731L260 87.6221H241.396L237.661 97.4731C237.026 99.1577 235.903 100 234.292 100H228.469ZM244.802 78.54H256.594L252.09 66.8945C251.553 65.5273 251.223 64.5386 251.101 63.9282C251.003 63.2935 250.894 62.3657 250.771 61.145H250.625C250.503 62.3657 250.381 63.2935 250.259 63.9282C250.161 64.5386 249.844 65.5273 249.307 66.8945L244.802 78.54ZM283.73 100C282.021 100 281.167 99.0845 281.167 97.2534V50.2319C281.167 48.4009 282.021 47.4854 283.73 47.4854H289.297C291.006 47.4854 291.86 48.4009 291.86 50.2319V97.2534C291.86 99.0845 291.006 100 289.297 100H283.73ZM306.143 100C304.434 100 303.579 99.0845 303.579 97.2534V50.2319C303.579 48.4009 304.434 47.4854 306.143 47.4854H312.075C313.54 47.4854 314.272 48.4009 314.272 50.2319V90.918H335.623C337.454 90.918 338.369 91.7114 338.369 93.2983V97.6196C338.369 99.2065 337.454 100 335.623 100H306.143ZM339.944 50.415C339.407 48.4619 339.968 47.4854 341.628 47.4854H348.403C349.551 47.4854 350.32 48.291 350.71 49.9023L357.668 78.6865C358.181 80.7861 358.511 82.2266 358.657 83.0078C358.828 83.7646 358.975 84.9976 359.097 86.7065H359.28C359.402 84.9976 359.524 83.7036 359.646 82.8247C359.768 81.9458 360.122 80.4932 360.708 78.4668L368.875 50.1953C369.387 48.3887 370.413 47.4854 371.951 47.4854H378.689C380.227 47.4854 381.252 48.3887 381.765 50.1953L389.932 78.4668C390.518 80.4932 390.872 81.9458 390.994 82.8247C391.116 83.7036 391.238 84.9976 391.36 86.7065H391.543C391.665 84.9976 391.799 83.7646 391.946 83.0078C392.117 82.2266 392.458 80.7861 392.971 78.6865L399.929 49.9023C400.32 48.291 401.089 47.4854 402.236 47.4854H409.011C410.671 47.4854 411.233 48.4619 410.696 50.415L398.245 96.4478C397.61 98.8159 396.462 100 394.802 100H388.394C386.978 100 385.94 98.8281 385.281 96.4844L376.492 65.7959C376.003 64.1357 375.723 63.0615 375.649 62.5732C375.576 62.0605 375.479 61.1206 375.356 59.7534H375.283C375.161 61.1206 375.063 62.0605 374.99 62.5732C374.917 63.0615 374.636 64.1357 374.148 65.7959L365.359 96.4844C364.7 98.8281 363.662 100 362.246 100H355.837C354.177 100 353.03 98.8159 352.395 96.4478L339.944 50.415ZM419.961 100C418.252 100 417.397 99.0845 417.397 97.2534V50.2319C417.397 48.4009 418.252 47.4854 419.961 47.4854H425.527C427.236 47.4854 428.091 48.4009 428.091 50.2319V97.2534C428.091 99.0845 427.236 100 425.527 100H419.961ZM442.373 100C440.664 100 439.81 99.0845 439.81 97.2534V50.2319C439.81 48.4009 440.664 47.4854 442.373 47.4854H447.793C449.893 47.4854 451.479 48.3398 452.554 50.0488L471.23 80.0415H471.487C471.365 78.5767 471.304 77.1118 471.304 75.647V50.2319C471.304 48.4009 472.158 47.4854 473.867 47.4854H479.434C481.143 47.4854 481.997 48.4009 481.997 50.2319V97.2534C481.997 99.0845 481.143 100 479.434 100H474.38C472.28 100 470.693 99.1455 469.619 97.4365L450.576 66.8945H450.32C450.442 68.3594 450.503 69.8242 450.503 71.2891V97.2534C450.503 99.0845 449.648 100 447.939 100H442.373ZM496.279 100C494.57 100 493.716 99.0845 493.716 97.2534V50.2319C493.716 48.4009 494.57 47.4854 496.279 47.4854H509.06C520.291 47.4854 527.883 49.7559 531.838 54.2969C535.818 58.8379 537.808 65.2954 537.808 73.6694C537.808 82.0435 535.818 88.5254 531.838 93.1152C527.883 97.7051 520.291 100 509.06 100H496.279ZM504.409 90.918H508.364C515.933 90.918 520.828 89.5142 523.049 86.7065C525.271 83.8745 526.382 79.5288 526.382 73.6694C526.382 67.8101 525.271 63.4888 523.049 60.7056C520.828 57.8979 515.933 56.4941 508.364 56.4941H504.409V90.918ZM569.741 73.7427C569.741 65.3198 571.877 58.6304 576.15 53.6743C580.422 48.7183 586.587 46.2402 594.644 46.2402C599.282 46.2402 603.213 46.9604 606.436 48.4009C609.658 49.8413 611.929 51.9287 613.247 54.6631C614.126 56.4697 613.979 57.6904 612.808 58.3252L608.413 60.6689C606.875 61.499 605.605 61.0352 604.604 59.2773C603.97 58.1543 602.786 57.1411 601.052 56.2378C599.343 55.3345 597.329 54.8828 595.01 54.8828C589.883 54.8828 586.294 56.5063 584.243 59.7534C582.192 62.9761 581.167 67.6392 581.167 73.7427C581.167 79.8462 582.192 84.5215 584.243 87.7686C586.294 90.9912 589.883 92.6025 595.01 92.6025C597.769 92.6025 600.088 91.98 601.968 90.7349C603.872 89.4897 605.19 88.3057 605.923 87.1826C607.119 85.3516 608.389 84.8877 609.731 85.791L614.126 88.7207C615.322 89.5264 615.444 90.7471 614.492 92.3828C613.076 94.8242 610.647 96.9116 607.205 98.645C603.762 100.378 599.575 101.245 594.644 101.245C586.709 101.245 580.569 98.7671 576.223 93.811C571.902 88.855 569.741 82.1655 569.741 73.7427ZM625.002 96.0815C623.489 94.9341 623.123 93.7744 623.904 92.6025L626.724 88.3545C627.651 86.9629 629.006 86.8896 630.789 88.1348C632.156 89.0869 633.938 90.0757 636.135 91.1011C638.357 92.1021 640.688 92.6025 643.13 92.6025C644.839 92.6025 646.487 92.4072 648.074 92.0166C649.661 91.626 650.869 90.8691 651.699 89.7461C652.529 88.623 652.944 87.2925 652.944 85.7544C652.944 84.6558 652.761 83.6914 652.395 82.8613C652.029 82.0312 651.431 81.3477 650.601 80.8105C649.771 80.2734 648.916 79.8218 648.037 79.4556C646.499 78.8208 644.558 78.1982 642.214 77.5879C639.895 76.9531 637.6 76.1963 635.33 75.3174C633.303 74.5361 631.448 73.4619 629.763 72.0947C628.079 70.7275 626.772 69.1895 625.845 67.4805C624.917 65.7715 624.453 63.4888 624.453 60.6323C624.453 57.2388 625.552 54.3335 627.749 51.9165C629.946 49.4995 632.473 47.9492 635.33 47.2656C638.186 46.582 641.067 46.2402 643.972 46.2402C646.853 46.2402 649.819 46.6797 652.871 47.5586C655.947 48.4375 658.267 49.5361 659.829 50.8545C661.367 52.1484 661.746 53.3203 660.964 54.3701L657.998 58.3618C656.997 59.729 655.654 59.8389 653.97 58.6914C652.896 57.959 651.418 57.1411 649.539 56.2378C647.683 55.3345 645.742 54.8828 643.716 54.8828C642.275 54.8828 640.945 55.0049 639.724 55.249C638.528 55.4932 637.466 56.0791 636.538 57.0068C635.61 57.9346 635.146 59.082 635.146 60.4492C635.146 61.7676 635.488 62.8418 636.172 63.6719C636.855 64.4775 637.612 65.0879 638.442 65.5029C639.272 65.8936 640.115 66.2231 640.969 66.4917C643.606 67.3462 645.962 68.103 648.037 68.7622C650.112 69.397 652.029 70.105 653.787 70.8862C656.228 71.9849 658.096 73.0835 659.39 74.1821C660.684 75.2808 661.746 76.7822 662.576 78.6865C663.43 80.5908 663.857 82.8613 663.857 85.498C663.857 89.4043 662.612 92.6392 660.122 95.2026C657.632 97.7417 654.861 99.3774 651.809 100.11C648.782 100.867 645.828 101.245 642.947 101.245C638.699 101.245 635.244 100.83 632.583 100C629.922 99.1943 627.395 97.8882 625.002 96.0815ZM672.903 96.0815C671.389 94.9341 671.023 93.7744 671.804 92.6025L674.624 88.3545C675.552 86.9629 676.907 86.8896 678.689 88.1348C680.056 89.0869 681.838 90.0757 684.036 91.1011C686.257 92.1021 688.589 92.6025 691.03 92.6025C692.739 92.6025 694.387 92.4072 695.974 92.0166C697.561 91.626 698.77 90.8691 699.6 89.7461C700.43 88.623 700.845 87.2925 700.845 85.7544C700.845 84.6558 700.662 83.6914 700.295 82.8613C699.929 82.0312 699.331 81.3477 698.501 80.8105C697.671 80.2734 696.816 79.8218 695.938 79.4556C694.399 78.8208 692.458 78.1982 690.115 77.5879C687.795 76.9531 685.5 76.1963 683.23 75.3174C681.204 74.5361 679.348 73.4619 677.664 72.0947C675.979 70.7275 674.673 69.1895 673.745 67.4805C672.817 65.7715 672.354 63.4888 672.354 60.6323C672.354 57.2388 673.452 54.3335 675.649 51.9165C677.847 49.4995 680.374 47.9492 683.23 47.2656C686.086 46.582 688.967 46.2402 691.873 46.2402C694.753 46.2402 697.72 46.6797 700.771 47.5586C703.848 48.4375 706.167 49.5361 707.729 50.8545C709.268 52.1484 709.646 53.3203 708.865 54.3701L705.898 58.3618C704.897 59.729 703.555 59.8389 701.87 58.6914C700.796 57.959 699.319 57.1411 697.439 56.2378C695.583 55.3345 693.643 54.8828 691.616 54.8828C690.176 54.8828 688.845 55.0049 687.625 55.249C686.428 55.4932 685.366 56.0791 684.438 57.0068C683.511 57.9346 683.047 59.082 683.047 60.4492C683.047 61.7676 683.389 62.8418 684.072 63.6719C684.756 64.4775 685.513 65.0879 686.343 65.5029C687.173 65.8936 688.015 66.2231 688.87 66.4917C691.506 67.3462 693.862 68.103 695.938 68.7622C698.013 69.397 699.929 70.105 701.687 70.8862C704.128 71.9849 705.996 73.0835 707.29 74.1821C708.584 75.2808 709.646 76.7822 710.476 78.6865C711.331 80.5908 711.758 82.8613 711.758 85.498C711.758 89.4043 710.513 92.6392 708.022 95.2026C705.532 97.7417 702.761 99.3774 699.709 100.11C696.682 100.867 693.728 101.245 690.847 101.245C686.599 101.245 683.145 100.83 680.483 100C677.822 99.1943 675.295 97.8882 672.903 96.0815Z" fill="white"/>
<defs>
<clipPath id="clip0_53_2">
<rect width="128" height="128" fill="white" transform="translate(42 10)"/>
</clipPath>
</defs>
</svg>
