<svg width="526" height="145" viewBox="0 0 526 145" fill="none" xmlns="http://www.w3.org/2000/svg">
<rect x="1.5" y="1.5" width="523" height="142" rx="36.5" fill="#2A2734" stroke="white" stroke-width="3"/>
<g clip-path="url(#clip0_53_2)">
<path d="M65.148 85.3059C66.6841 87.1935 68.3047 89.0107 70.005 90.7519C64.819 92.3119 61.419 95.2099 59.299 97.7689C55.943 101.819 54.167 107.167 54.576 111.757H45.646C47.436 107.87 54.586 96.6419 65.149 85.3069L65.148 85.3059ZM168.597 114.192H157.74C132.83 101.193 110.96 92.0269 87.728 90.0249C87.777 86.7919 88.352 83.1319 89.459 79.0529L87.319 78.4769C86.183 82.6689 85.587 86.4619 85.519 89.8569C83.098 89.6949 80.662 89.6169 78.202 89.6169C76.121 89.6169 74.222 89.8079 72.49 90.1429C70.232 87.8889 68.308 85.7349 66.675 83.6929C77.389 72.5339 95.038 62.4379 110.398 58.6399C114.723 73.0159 124.007 82.8659 135.274 89.4929C136.1 89.0224 136.912 88.5271 137.709 88.0079L157.365 109.168L158.225 109.095C163.593 108.633 166.644 111.545 167.451 112.451C168.046 113.11 168.401 113.715 168.597 114.192Z" fill="#D1A41A"/>
<path d="M159.008 43.4121C159.407 62.9401 149.444 78.4821 135.495 86.4521C111.82 74.6601 107.362 44.7761 111.397 28.7471C112.519 34.8771 114.561 38.7201 118.969 40.6041C128.583 37.8541 141.813 37.6371 151.559 40.3241C155.619 37.3721 157.193 32.8601 158.054 28.9191C159.126 33.5041 159.004 43.4121 159.008 43.4121Z" fill="#FFDC76"/>
<path d="M92.096 65.2461L99.456 61.9011L103.067 72.6031L92.096 65.2461ZM84.604 69.1261L88.888 66.5841L92.765 73.2721L84.604 69.1261ZM76.309 74.6101L80.055 71.8001L81.928 78.4921L76.309 74.6101ZM142.536 92.2731L139.859 89.7301L136.381 95.0831L142.536 92.2731ZM147.49 98.1581L145.345 95.8841L139.727 100.164L147.49 98.1581ZM138.526 37.6841L131.702 37.8181L135.85 46.9161L138.526 37.6841ZM111.362 54.9431L110.693 51.0631L117.252 54.5421L111.362 54.9431ZM112.966 60.6961L112.297 58.1551L116.312 59.7601L112.966 60.6961ZM158.191 56.5501L159.131 53.6061L153.778 55.8801L158.191 56.5501ZM156.184 62.5701L156.986 60.1621L152.838 61.3661L156.184 62.5701Z" fill="black"/>
<path d="M108.538 70.2029H121.451V71.7969H108.538V70.2029ZM108.538 66.3769H121.451V67.9709H108.538V66.3769ZM147.968 70.2029H160.88V71.7969H147.968V70.2029ZM147.968 66.3769H160.88V67.9709H147.968V66.3769ZM143.417 56.9259H122.374V55.4899H128.922C129.729 52.0369 129.888 48.7369 128.916 47.0639C128.5 46.3539 127.926 46.0209 127.108 46.0209C123.364 46.0209 121.818 49.9799 121.753 50.1479L121.754 50.1469L120.411 49.6429C120.488 49.4359 122.361 44.5859 127.108 44.5859C128.433 44.5859 129.486 45.1939 130.154 46.3429C131.34 48.3799 131.201 51.9049 130.397 55.4899H141.887C143.414 51.0049 146.601 48.8899 151.927 48.8899V50.3249C146.155 50.3249 144.537 52.7719 143.383 55.4899H149.653L149.638 56.9179L143.416 56.9249L143.417 56.9259ZM144.361 64.0109L144.371 64.0099L144.361 64.0109ZM144.361 64.0109L144.371 64.0099L144.361 64.0109Z" fill="black"/>
<path d="M144.361 64.0109L144.371 64.0099C142.669 61.4999 142.129 59.3579 142.841 56.9189L141.379 56.9259C140.87 58.5499 141.074 60.9959 142.329 63.0959H127.729C128.617 61.3159 129.44 59.1469 130.042 56.9259H128.556C127.892 59.2809 126.961 61.6119 125.912 63.4579L125.573 64.0549L133.766 69.2119L129.154 72.2519L129.944 73.4499L135.099 70.0509L140.665 73.6829L141.429 72.4689L136.269 69.2769C136.269 69.2769 143.985 64.2649 144.368 64.0199C144.365 64.0169 144.364 64.0139 144.362 64.0099L144.361 64.0109ZM135.082 68.3449L129.022 64.5299L140.865 64.5329L135.082 68.3449Z" fill="black"/>
<path d="M161.414 41.682C161.405 39.187 160.628 28.644 159.2 25.741C155.328 27.212 148.283 31.98 146.688 36.854C139.046 35.714 130.431 35.848 122.884 37.154C121.624 31.909 115.296 27.896 110.522 25.634C108.508 29.032 107.616 36.911 107.842 42.5L107.816 42.518C108.702 65.986 120.215 80.598 135.269 89.454C150.759 80.604 161.824 63.35 161.395 41.671L161.415 41.681L161.414 41.682ZM148.526 37.157L148.695 37.188L148.525 37.158L148.526 37.157ZM147.562 36.991C147.698 37.013 147.835 37.037 147.971 37.061L147.562 36.991ZM159.005 43.375C159.403 62.903 149.44 78.445 135.492 86.415C111.818 74.62 107.358 44.739 111.395 28.71C112.518 34.837 114.555 38.681 118.969 40.566C128.579 37.816 141.809 37.599 151.555 40.286C155.616 37.333 157.191 32.823 158.051 28.882C159.126 33.468 159.001 43.373 159.005 43.375Z" fill="black"/>
<path d="M169.104 110.935C166.673 108.215 161.91 106.928 157.932 107.023C155.109 103.663 138.742 86.427 138.742 86.427L137.608 87.856L157.368 109.129L158.225 109.055C163.594 108.595 166.645 111.507 167.454 112.41C168.046 113.073 168.404 113.677 168.598 114.152H157.738C132.827 101.152 110.958 91.987 87.7249 89.989C87.7749 86.756 88.3509 83.096 89.4549 79.019L87.3189 78.439C86.1839 82.631 85.5849 86.427 85.5179 89.821C83.0979 89.661 80.6609 89.577 78.2029 89.577C76.1179 89.577 74.2199 89.771 72.4889 90.107C70.2299 87.85 68.3069 85.699 66.6719 83.657C77.4619 72.416 95.2819 62.255 110.72 58.519L110.219 56.356C93.5939 60.366 75.396 71.279 65.2559 81.823C60.5499 75.471 58.6829 70.259 58.1279 66.309C57.4279 61.32 58.6179 56.744 61.5719 53.074C66.195 47.331 72.7639 46.926 79.5179 48.062C79.3869 49.129 79.5269 50.149 79.9539 50.779C81.7399 53.418 91.3409 54.345 97.0709 51.788C92.8419 45.862 84.2759 42.968 81.9029 44.128C81.1169 44.512 80.5229 45.218 80.1169 46.04C77.7819 45.622 75.4629 45.311 73.7689 45.324C67.8119 45.368 63.2579 47.449 59.8469 51.687C56.4999 55.844 55.1469 61.007 55.9349 66.617C56.6809 71.931 59.3119 77.583 63.7209 83.443C62.9889 84.229 62.2809 85.005 61.5989 85.767C50.8529 97.792 42.9969 110.687 42.9969 112.824V113.931H57.1739L56.9259 112.618C56.1259 108.386 57.7239 103.098 60.9989 99.144C63.0559 96.663 66.4609 93.83 71.8079 92.524C76.562 97.164 82.6199 102.091 89.3619 106.845H99.8979V105.738C99.8979 104.489 99.2779 103.396 98.1539 102.66C96.4889 101.572 93.9199 101.422 91.5599 102.227C89.3099 99.721 88.0479 96.374 87.7759 92.216C110.641 94.24 132.512 103.474 157.188 116.366H170.766L170.944 115.476C171.198 114.209 170.507 112.511 169.098 110.935H169.104ZM59.2999 97.729C55.9459 101.777 54.1679 107.124 54.5759 111.714H45.6429C47.4379 107.831 54.5859 96.604 65.1479 85.264C66.684 87.1526 68.305 88.9705 70.0059 90.712C64.82 92.271 61.4209 95.169 59.2999 97.729Z" fill="black"/>
</g>
<path d="M188.992 56.8604C187.161 56.8604 186.245 56.0669 186.245 54.48V49.8657C186.245 48.2788 187.161 47.4854 188.992 47.4854H226.638C228.469 47.4854 229.385 48.2788 229.385 49.8657V54.48C229.385 56.0669 228.469 56.8604 226.638 56.8604H213.162V97.9858C213.162 99.3286 212.551 100 211.331 100H204.299C203.079 100 202.468 99.3286 202.468 97.9858V56.8604H188.992ZM233.779 73.7427C233.779 65.3198 235.952 58.6304 240.298 53.6743C244.644 48.7183 250.845 46.2402 258.901 46.2402C266.958 46.2402 273.159 48.7183 277.505 53.6743C281.851 58.6304 284.023 65.3198 284.023 73.7427C284.023 82.1655 281.851 88.855 277.505 93.811C273.159 98.7671 266.958 101.245 258.901 101.245C250.845 101.245 244.644 98.7671 240.298 93.811C235.952 88.855 233.779 82.1655 233.779 73.7427ZM245.205 73.7427C245.205 79.8462 246.292 84.5215 248.464 87.7686C250.662 90.9912 254.141 92.6025 258.901 92.6025C263.662 92.6025 267.129 90.9912 269.302 87.7686C271.499 84.5215 272.598 79.8462 272.598 73.7427C272.598 67.6392 271.499 62.9761 269.302 59.7534C267.129 56.5063 263.662 54.8828 258.901 54.8828C254.141 54.8828 250.662 56.5063 248.464 59.7534C246.292 62.9761 245.205 67.6392 245.205 73.7427ZM295.596 100C293.887 100 293.032 99.0845 293.032 97.2534V50.2319C293.032 48.4009 293.887 47.4854 295.596 47.4854H306.216C307.632 47.4854 308.645 48.4619 309.255 50.415L319.18 82.5317C319.619 83.9233 319.924 85.0708 320.095 85.9741C320.266 86.853 320.413 87.9028 320.535 89.1235H320.754C320.876 87.9028 321.023 86.853 321.194 85.9741C321.365 85.0708 321.67 83.9233 322.109 82.5317L332.034 50.415C332.644 48.4619 333.657 47.4854 335.073 47.4854H345.693C347.402 47.4854 348.257 48.4009 348.257 50.2319V97.2534C348.257 99.0845 347.402 100 345.693 100H340.127C338.418 100 337.563 99.0845 337.563 97.2534V67.0044C337.563 65.5396 337.625 64.0747 337.747 62.6099H337.49L326.907 97.0337C326.296 99.0112 325.247 100 323.757 100H317.532C316.042 100 314.993 99.0112 314.382 97.0337L303.799 62.6099H303.542C303.665 64.0747 303.726 65.5396 303.726 67.0044V97.2534C303.726 99.0845 302.871 100 301.162 100H295.596ZM357.266 73.7427C357.266 65.3198 359.402 58.6304 363.674 53.6743C367.947 48.7183 374.111 46.2402 382.168 46.2402C386.807 46.2402 390.737 46.9604 393.96 48.4009C397.183 49.8413 399.453 51.9287 400.771 54.6631C401.65 56.4697 401.504 57.6904 400.332 58.3252L395.938 60.6689C394.399 61.499 393.13 61.0352 392.129 59.2773C391.494 58.1543 390.31 57.1411 388.577 56.2378C386.868 55.3345 384.854 54.8828 382.534 54.8828C377.407 54.8828 373.818 56.5063 371.768 59.7534C369.717 62.9761 368.691 67.6392 368.691 73.7427C368.691 79.8462 369.717 84.5215 371.768 87.7686C373.818 90.9912 377.407 92.6025 382.534 92.6025C385.293 92.6025 387.612 91.98 389.492 90.7349C391.396 89.4897 392.715 88.3057 393.447 87.1826C394.644 85.3516 395.913 84.8877 397.256 85.791L401.65 88.7207C402.847 89.5264 402.969 90.7471 402.017 92.3828C400.601 94.8242 398.171 96.9116 394.729 98.645C391.287 100.378 387.1 101.245 382.168 101.245C374.233 101.245 368.093 98.7671 363.748 93.811C359.426 88.855 357.266 82.1655 357.266 73.7427ZM410.256 100C408.499 100 407.925 99.1943 408.535 97.583L426.479 50.4517C427.236 48.4741 428.384 47.4854 429.922 47.4854H435.049C436.587 47.4854 437.734 48.4741 438.491 50.4517L456.436 97.583C457.046 99.1943 456.472 100 454.714 100H448.892C447.28 100 446.157 99.1577 445.522 97.4731L441.787 87.6221H423.184L419.448 97.4731C418.813 99.1577 417.69 100 416.079 100H410.256ZM426.589 78.54H438.381L433.877 66.8945C433.34 65.5273 433.01 64.5386 432.888 63.9282C432.791 63.2935 432.681 62.3657 432.559 61.145H432.412C432.29 62.3657 432.168 63.2935 432.046 63.9282C431.948 64.5386 431.631 65.5273 431.094 66.8945L426.589 78.54ZM454.714 56.8604C452.883 56.8604 451.968 56.0669 451.968 54.48V49.8657C451.968 48.2788 452.883 47.4854 454.714 47.4854H492.361C494.192 47.4854 495.107 48.2788 495.107 49.8657V54.48C495.107 56.0669 494.192 56.8604 492.361 56.8604H478.884V97.9858C478.884 99.3286 478.274 100 477.053 100H470.022C468.801 100 468.191 99.3286 468.191 97.9858V56.8604H454.714Z" fill="white"/>
<defs>
<clipPath id="clip0_53_2">
<rect width="128" height="128" fill="white" transform="translate(43 7)"/>
</clipPath>
</defs>
</svg>
