<svg width="491" height="145" viewBox="0 0 491 145" fill="none" xmlns="http://www.w3.org/2000/svg">
<rect x="1.5" y="1.5" width="488" height="142" rx="36.5" fill="#2A2734" stroke="white" stroke-width="3"/>
<g clip-path="url(#clip0_53_2)">
<path d="M56.5 10H159.5C166.425 10 172 15.575 172 22.5V125.5C172 132.425 166.425 138 159.5 138H56.5C49.575 138 44 132.425 44 125.5V22.5C44 15.575 49.575 10 56.5 10Z" fill="url(#paint0_linear_53_2)"/>
<path d="M122.32 26.6399H149.36C152.684 26.6399 155.36 29.3159 155.36 32.6399V76.6399C155.36 79.9639 152.684 82.6399 149.36 82.6399H122.32C118.996 82.6399 116.32 79.9639 116.32 76.6399V32.6399C116.32 29.3159 118.996 26.6399 122.32 26.6399ZM66.6399 26.6399H93.6799C97.0039 26.6399 99.6799 29.3159 99.6799 32.6399V108.64C99.6799 111.964 97.0039 114.64 93.6799 114.64H66.6399C63.3159 114.64 60.6399 111.964 60.6399 108.64V32.6399C60.6399 29.3159 63.3159 26.6399 66.6399 26.6399Z" fill="white"/>
</g>
<path d="M188.992 56.8604C187.161 56.8604 186.245 56.0669 186.245 54.48V49.8657C186.245 48.2788 187.161 47.4854 188.992 47.4854H226.638C228.469 47.4854 229.385 48.2788 229.385 49.8657V54.48C229.385 56.0669 228.469 56.8604 226.638 56.8604H213.162V97.9858C213.162 99.3286 212.551 100 211.331 100H204.299C203.079 100 202.468 99.3286 202.468 97.9858V56.8604H188.992ZM239.053 100C237.344 100 236.489 99.0845 236.489 97.2534V50.2319C236.489 48.4009 237.344 47.4854 239.053 47.4854H256.008C263.552 47.4854 269.058 48.6572 272.524 51.001C275.991 53.3203 277.725 57.1045 277.725 62.3535C277.725 66.2598 276.321 69.3726 273.513 71.6919C270.706 74.0112 267.141 75.5493 262.82 76.3062V76.3794C265.164 77.2583 266.934 78.479 268.13 80.0415C269.326 81.604 270.303 82.9712 271.06 84.1431L279.116 96.8506C280.459 98.9502 279.995 100 277.725 100H271.353C270.01 100 268.911 99.2798 268.057 97.8394L260.659 85.498C259.854 84.1797 258.376 82.7393 256.228 81.1768C254.104 79.5898 251.992 78.7964 249.893 78.7964H247.183V97.2534C247.183 99.0845 246.328 100 244.619 100H239.053ZM247.183 69.7144H253.738C258.621 69.7144 262.087 69.165 264.138 68.0664C266.213 66.9434 267.251 65.1733 267.251 62.7563C267.251 60.1196 266.25 58.4106 264.248 57.6294C262.271 56.8237 259.353 56.4209 255.496 56.4209H247.183V69.7144ZM291.348 100C289.639 100 288.784 99.0845 288.784 97.2534V50.2319C288.784 48.4009 289.639 47.4854 291.348 47.4854H322.769C324.6 47.4854 325.515 48.2788 325.515 49.8657V54.187C325.515 55.7739 324.6 56.5674 322.769 56.5674H299.478V68.2129H320.828C322.659 68.2129 323.574 69.0063 323.574 70.5933V74.9146C323.574 76.5015 322.659 77.2949 320.828 77.2949H299.478V90.918H323.94C325.771 90.918 326.687 91.7114 326.687 93.2983V97.6196C326.687 99.2065 325.771 100 323.94 100H291.348ZM338.223 100C336.514 100 335.659 99.0845 335.659 97.2534V50.2319C335.659 48.4009 336.514 47.4854 338.223 47.4854H344.155C345.62 47.4854 346.353 48.4009 346.353 50.2319V90.918H367.703C369.534 90.918 370.449 91.7114 370.449 93.2983V97.6196C370.449 99.2065 369.534 100 367.703 100H338.223ZM380.776 100C379.067 100 378.213 99.0845 378.213 97.2534V50.2319C378.213 48.4009 379.067 47.4854 380.776 47.4854H386.709C388.174 47.4854 388.906 48.4009 388.906 50.2319V90.918H410.256C412.087 90.918 413.003 91.7114 413.003 93.2983V97.6196C413.003 99.2065 412.087 100 410.256 100H380.776ZM418.057 73.7427C418.057 65.3198 420.229 58.6304 424.575 53.6743C428.921 48.7183 435.122 46.2402 443.179 46.2402C451.235 46.2402 457.437 48.7183 461.782 53.6743C466.128 58.6304 468.301 65.3198 468.301 73.7427C468.301 82.1655 466.128 88.855 461.782 93.811C457.437 98.7671 451.235 101.245 443.179 101.245C435.122 101.245 428.921 98.7671 424.575 93.811C420.229 88.855 418.057 82.1655 418.057 73.7427ZM429.482 73.7427C429.482 79.8462 430.569 84.5215 432.742 87.7686C434.939 90.9912 438.418 92.6025 443.179 92.6025C447.939 92.6025 451.406 90.9912 453.579 87.7686C455.776 84.5215 456.875 79.8462 456.875 73.7427C456.875 67.6392 455.776 62.9761 453.579 59.7534C451.406 56.5063 447.939 54.8828 443.179 54.8828C438.418 54.8828 434.939 56.5063 432.742 59.7534C430.569 62.9761 429.482 67.6392 429.482 73.7427Z" fill="white"/>
<defs>
<linearGradient id="paint0_linear_53_2" x1="108" y1="10" x2="108" y2="138" gradientUnits="userSpaceOnUse">
<stop stop-color="#2684FF"/>
<stop offset="1" stop-color="#0052CC"/>
</linearGradient>
<clipPath id="clip0_53_2">
<rect width="128" height="128" fill="white" transform="translate(44 10)"/>
</clipPath>
</defs>
</svg>
