<svg width="698" height="145" viewBox="0 0 698 145" fill="none" xmlns="http://www.w3.org/2000/svg">
<rect x="1.5" y="1.5" width="695" height="142" rx="36.5" fill="#2A2734" stroke="white" stroke-width="3"/>
<path d="M52 72.5V135H177V10H52V72.5ZM152.73 67.5C155.724 68.1948 158.445 69.7606 160.55 72C161.709 73.2064 162.716 74.5497 163.55 76C163.55 76.16 158.15 79.81 154.86 81.85C154.74 81.93 154.26 81.41 153.73 80.62C153.129 79.5837 152.276 78.7164 151.25 78.0991C150.223 77.4818 149.057 77.1346 147.86 77.09C144.07 76.83 141.63 78.82 141.65 82.09C141.619 82.9041 141.805 83.7119 142.19 84.43C143.02 86.16 144.57 87.19 149.43 89.29C158.38 93.14 162.21 95.68 164.59 99.29C167.25 103.29 167.84 109.75 166.04 114.53C164.04 119.73 159.14 123.26 152.21 124.43C149.045 124.793 145.847 124.759 142.69 124.33C137.872 123.548 133.428 121.254 130 117.78C128.85 116.51 126.61 113.2 126.75 112.96C127.115 112.689 127.499 112.445 127.9 112.23L132.5 109.59L136.09 107.51L136.84 108.62C138.106 110.431 139.717 111.973 141.58 113.16C145.58 115.26 151.04 114.97 153.74 112.54C154.647 111.65 155.212 110.469 155.338 109.205C155.464 107.941 155.143 106.672 154.43 105.62C153.43 104.23 151.43 103.06 145.84 100.62C139.39 97.84 136.61 96.12 134.07 93.38C132.484 91.5719 131.314 89.4386 130.64 87.13C130.138 84.4924 130.063 81.7912 130.42 79.13C131.75 72.9 136.42 68.55 143.24 67.26C146.398 66.8692 149.598 66.9569 152.73 67.52V67.5ZM123.39 72.74V77.86H107.16V124.09H95.65V77.85H79.38V72.85C79.3363 71.1287 79.3831 69.4064 79.52 67.69C79.58 67.61 89.52 67.57 101.52 67.59H123.33L123.39 72.74Z" fill="#007ACC"/>
<path d="M205.992 55.8604C204.161 55.8604 203.245 55.0669 203.245 53.48V48.8657C203.245 47.2788 204.161 46.4854 205.992 46.4854H243.638C245.469 46.4854 246.385 47.2788 246.385 48.8657V53.48C246.385 55.0669 245.469 55.8604 243.638 55.8604H230.162V96.9858C230.162 98.3286 229.551 99 228.331 99H221.299C220.079 99 219.468 98.3286 219.468 96.9858V55.8604H205.992ZM251.365 49.6348C250.12 47.5352 250.694 46.4854 253.086 46.4854H259.495C260.765 46.4854 261.888 47.3276 262.864 49.0122L270.665 62.5986C270.884 62.9648 271.531 64.1123 272.605 66.041C273.68 67.9453 274.302 69.8008 274.473 71.6074H274.62C274.791 69.8008 275.413 67.9453 276.487 66.041C277.562 64.1123 278.208 62.9648 278.428 62.5986L286.229 49.0122C287.205 47.3276 288.328 46.4854 289.598 46.4854H296.006C298.399 46.4854 298.973 47.5352 297.728 49.6348L279.893 79.7739V96.9858C279.893 98.3286 279.039 99 277.33 99H271.763C270.054 99 269.2 98.3286 269.2 96.9858V79.7739L251.365 49.6348ZM306.15 99C304.441 99 303.587 98.0845 303.587 96.2534V49.2319C303.587 47.4009 304.441 46.4854 306.15 46.4854H319.847C328.636 46.4854 334.727 47.9136 338.121 50.77C341.539 53.6265 343.248 57.6792 343.248 62.9282C343.248 68.1772 341.539 72.23 338.121 75.0864C334.727 77.9429 328.636 79.3711 319.847 79.3711H314.28V96.2534C314.28 98.0845 313.426 99 311.717 99H306.15ZM314.28 70.4355H319.81C324.693 70.4355 328.013 69.8618 329.771 68.7144C331.529 67.5425 332.408 65.6138 332.408 62.9282C332.408 60.2427 331.529 58.3262 329.771 57.1787C328.013 56.0068 324.693 55.4209 319.81 55.4209H314.28V70.4355ZM354.783 99C353.074 99 352.22 98.0845 352.22 96.2534V49.2319C352.22 47.4009 353.074 46.4854 354.783 46.4854H386.204C388.035 46.4854 388.951 47.2788 388.951 48.8657V53.187C388.951 54.7739 388.035 55.5674 386.204 55.5674H362.913V67.2129H384.263C386.094 67.2129 387.01 68.0063 387.01 69.5933V73.9146C387.01 75.5015 386.094 76.2949 384.263 76.2949H362.913V89.918H387.376C389.207 89.918 390.123 90.7114 390.123 92.2983V96.6196C390.123 98.2065 389.207 99 387.376 99H354.783ZM399.717 95.0815C398.204 93.9341 397.837 92.7744 398.619 91.6025L401.438 87.3545C402.366 85.9629 403.721 85.8896 405.503 87.1348C406.871 88.0869 408.653 89.0757 410.85 90.1011C413.072 91.1021 415.403 91.6025 417.845 91.6025C419.554 91.6025 421.202 91.4072 422.789 91.0166C424.375 90.626 425.584 89.8691 426.414 88.7461C427.244 87.623 427.659 86.2925 427.659 84.7544C427.659 83.6558 427.476 82.6914 427.11 81.8613C426.744 81.0312 426.146 80.3477 425.315 79.8105C424.485 79.2734 423.631 78.8218 422.752 78.4556C421.214 77.8208 419.273 77.1982 416.929 76.5879C414.61 75.9531 412.315 75.1963 410.044 74.3174C408.018 73.5361 406.163 72.4619 404.478 71.0947C402.793 69.7275 401.487 68.1895 400.56 66.4805C399.632 64.7715 399.168 62.4888 399.168 59.6323C399.168 56.2388 400.267 53.3335 402.464 50.9165C404.661 48.4995 407.188 46.9492 410.044 46.2656C412.901 45.582 415.782 45.2402 418.687 45.2402C421.568 45.2402 424.534 45.6797 427.586 46.5586C430.662 47.4375 432.981 48.5361 434.544 49.8545C436.082 51.1484 436.46 52.3203 435.679 53.3701L432.713 57.3618C431.712 58.729 430.369 58.8389 428.685 57.6914C427.61 56.959 426.133 56.1411 424.253 55.2378C422.398 54.3345 420.457 53.8828 418.431 53.8828C416.99 53.8828 415.66 54.0049 414.439 54.249C413.243 54.4932 412.181 55.0791 411.253 56.0068C410.325 56.9346 409.861 58.082 409.861 59.4492C409.861 60.7676 410.203 61.8418 410.887 62.6719C411.57 63.4775 412.327 64.0879 413.157 64.5029C413.987 64.8936 414.83 65.2231 415.684 65.4917C418.321 66.3462 420.677 67.103 422.752 67.7622C424.827 68.397 426.744 69.105 428.501 69.8862C430.943 70.9849 432.811 72.0835 434.104 73.1821C435.398 74.2808 436.46 75.7822 437.291 77.6865C438.145 79.5908 438.572 81.8613 438.572 84.498C438.572 88.4043 437.327 91.6392 434.837 94.2026C432.347 96.7417 429.576 98.3774 426.524 99.1099C423.497 99.8667 420.542 100.245 417.662 100.245C413.414 100.245 409.959 99.8301 407.298 99C404.637 98.1943 402.11 96.8882 399.717 95.0815ZM444.285 72.7427C444.285 64.3198 446.421 57.6304 450.694 52.6743C454.966 47.7183 461.131 45.2402 469.188 45.2402C473.826 45.2402 477.757 45.9604 480.979 47.4009C484.202 48.8413 486.473 50.9287 487.791 53.6631C488.67 55.4697 488.523 56.6904 487.352 57.3252L482.957 59.6689C481.419 60.499 480.149 60.0352 479.148 58.2773C478.514 57.1543 477.33 56.1411 475.596 55.2378C473.887 54.3345 471.873 53.8828 469.554 53.8828C464.427 53.8828 460.838 55.5063 458.787 58.7534C456.736 61.9761 455.711 66.6392 455.711 72.7427C455.711 78.8462 456.736 83.5215 458.787 86.7686C460.838 89.9912 464.427 91.6025 469.554 91.6025C472.312 91.6025 474.632 90.98 476.512 89.7349C478.416 88.4897 479.734 87.3057 480.467 86.1826C481.663 84.3516 482.933 83.8877 484.275 84.791L488.67 87.7207C489.866 88.5264 489.988 89.7471 489.036 91.3828C487.62 93.8242 485.191 95.9116 481.749 97.645C478.306 99.3784 474.119 100.245 469.188 100.245C461.253 100.245 455.113 97.7671 450.767 92.811C446.446 87.855 444.285 81.1655 444.285 72.7427ZM501.487 99C499.778 99 498.924 98.0845 498.924 96.2534V49.2319C498.924 47.4009 499.778 46.4854 501.487 46.4854H518.443C525.987 46.4854 531.492 47.6572 534.959 50.001C538.426 52.3203 540.159 56.1045 540.159 61.3535C540.159 65.2598 538.755 68.3726 535.948 70.6919C533.14 73.0112 529.576 74.5493 525.254 75.3062V75.3794C527.598 76.2583 529.368 77.479 530.564 79.0415C531.761 80.604 532.737 81.9712 533.494 83.1431L541.551 95.8506C542.894 97.9502 542.43 99 540.159 99H533.787C532.444 99 531.346 98.2798 530.491 96.8394L523.094 84.498C522.288 83.1797 520.811 81.7393 518.663 80.1768C516.539 78.5898 514.427 77.7964 512.327 77.7964H509.617V96.2534C509.617 98.0845 508.763 99 507.054 99H501.487ZM509.617 68.7144H516.172C521.055 68.7144 524.522 68.165 526.573 67.0664C528.648 65.9434 529.686 64.1733 529.686 61.7563C529.686 59.1196 528.685 57.4106 526.683 56.6294C524.705 55.8237 521.788 55.4209 517.93 55.4209H509.617V68.7144ZM553.782 99C552.073 99 551.219 98.0845 551.219 96.2534V49.2319C551.219 47.4009 552.073 46.4854 553.782 46.4854H559.349C561.058 46.4854 561.912 47.4009 561.912 49.2319V96.2534C561.912 98.0845 561.058 99 559.349 99H553.782ZM576.194 99C574.485 99 573.631 98.0845 573.631 96.2534V49.2319C573.631 47.4009 574.485 46.4854 576.194 46.4854H589.891C598.68 46.4854 604.771 47.9136 608.165 50.77C611.583 53.6265 613.292 57.6792 613.292 62.9282C613.292 68.1772 611.583 72.23 608.165 75.0864C604.771 77.9429 598.68 79.3711 589.891 79.3711H584.324V96.2534C584.324 98.0845 583.47 99 581.761 99H576.194ZM584.324 70.4355H589.854C594.737 70.4355 598.057 69.8618 599.815 68.7144C601.573 67.5425 602.452 65.6138 602.452 62.9282C602.452 60.2427 601.573 58.3262 599.815 57.1787C598.057 56.0068 594.737 55.4209 589.854 55.4209H584.324V70.4355ZM620.396 55.8604C618.565 55.8604 617.649 55.0669 617.649 53.48V48.8657C617.649 47.2788 618.565 46.4854 620.396 46.4854H658.042C659.874 46.4854 660.789 47.2788 660.789 48.8657V53.48C660.789 55.0669 659.874 55.8604 658.042 55.8604H644.566V96.9858C644.566 98.3286 643.956 99 642.735 99H635.704C634.483 99 633.873 98.3286 633.873 96.9858V55.8604H620.396Z" fill="white"/>
</svg>