<svg width="525" height="145" viewBox="0 0 525 145" fill="none" xmlns="http://www.w3.org/2000/svg">
<rect x="1.5" y="1.5" width="522" height="142" rx="36.5" fill="#2A2734" stroke="white" stroke-width="3"/>
<path d="M150.663 10H70V138H150.663V10Z" fill="#E95420"/>
<path d="M88.443 100.31C93.054 100.31 96.793 96.5419 96.793 91.8939C96.793 87.2459 93.054 83.4779 88.443 83.4779C83.831 83.4779 80.093 87.2459 80.093 91.8939C80.093 96.5419 83.831 100.31 88.443 100.31ZM123.221 81.8559C127.833 81.8559 131.571 78.0879 131.571 73.4399C131.571 68.7919 127.833 65.0239 123.221 65.0239C118.61 65.0239 114.871 68.7919 114.871 73.4399C114.871 78.0879 118.61 81.8559 123.221 81.8559ZM107.276 113.558C101.26 112.259 96.234 108.388 93.408 102.896C91.1755 103.918 88.6822 104.226 86.268 103.779C89.687 112.243 96.938 118.39 105.841 120.314C107.794 120.736 109.784 120.941 111.771 120.928C110.237 118.897 109.382 116.435 109.327 113.891C108.639 113.814 107.955 113.702 107.279 113.555L107.276 113.558ZM121.342 122.019C125.954 122.019 129.692 118.251 129.692 113.603C129.692 108.955 125.954 105.187 121.342 105.187C116.731 105.187 112.992 108.955 112.992 113.603C112.992 118.251 116.731 122.019 121.342 122.019ZM132.962 110.512C135.559 107.212 137.388 103.312 138.267 99.1679C139.025 95.5867 139.067 91.891 138.391 88.2934C137.716 84.6958 136.335 81.2672 134.33 78.2049C133.369 80.4895 131.731 82.424 129.635 83.7469C131.892 88.0365 132.575 92.9812 131.565 97.7219C131.078 100.028 130.199 102.233 128.968 104.243C130.926 105.862 132.325 108.056 132.965 110.515L132.962 110.512ZM87.8 79.8239C88.8587 79.7669 89.9203 79.853 90.956 80.0799C92.317 80.3739 93.596 80.8929 94.768 81.6289C98.528 76.1789 104.594 72.9089 111.167 72.7869C111.298 70.3069 112.182 67.9257 113.701 65.9609C103.198 65.1229 92.993 70.5859 87.796 79.8269L87.8 79.8239Z" fill="white"/>
<path d="M190.859 78.1372V49.4995C190.859 48.1567 191.714 47.4854 193.423 47.4854H198.989C200.698 47.4854 201.553 48.1567 201.553 49.4995V77.771C201.553 84.3628 202.517 88.4888 204.446 90.1489C206.399 91.7847 208.596 92.6025 211.038 92.6025C213.479 92.6025 215.664 91.7847 217.593 90.1489C219.546 88.4888 220.522 84.3628 220.522 77.771V49.4995C220.522 48.1567 221.377 47.4854 223.086 47.4854H228.652C230.361 47.4854 231.216 48.1567 231.216 49.4995V78.1372C231.216 86.6821 229.409 92.6758 225.796 96.1182C222.183 99.5361 217.263 101.245 211.038 101.245C204.812 101.245 199.893 99.5361 196.279 96.1182C192.666 92.6758 190.859 86.6821 190.859 78.1372ZM245.864 100C243.911 100 242.935 99.0845 242.935 97.2534V50.2319C242.935 48.4009 243.911 47.4854 245.864 47.4854H258.315C267.69 47.4854 274.014 48.645 277.285 50.9644C280.581 53.2593 282.229 56.7993 282.229 61.5845C282.229 64.9292 280.996 67.5171 278.53 69.3481C276.089 71.1792 273.721 72.2412 271.426 72.5342V72.644C273.647 72.7905 276.26 73.9136 279.263 76.0132C282.266 78.1128 283.767 81.0791 283.767 84.9121C283.767 89.4043 281.936 93.042 278.274 95.8252C274.612 98.6084 268.569 100 260.146 100H245.864ZM253.628 91.0645H258.975C264.15 91.0645 267.666 90.6128 269.521 89.7095C271.401 88.8062 272.341 86.9751 272.341 84.2163C272.341 81.6284 271.255 79.8462 269.082 78.8696C266.934 77.8687 263.564 77.3682 258.975 77.3682H253.628V91.0645ZM253.628 68.7256H258.425C261.575 68.7256 264.517 68.1763 267.251 67.0776C270.01 65.979 271.389 64.27 271.389 61.9507C271.389 60.144 270.62 58.7769 269.082 57.8491C267.568 56.897 264.016 56.4209 258.425 56.4209H253.628V68.7256ZM293.472 78.1372V49.4995C293.472 48.1567 294.326 47.4854 296.035 47.4854H301.602C303.311 47.4854 304.165 48.1567 304.165 49.4995V77.771C304.165 84.3628 305.129 88.4888 307.058 90.1489C309.011 91.7847 311.208 92.6025 313.65 92.6025C316.091 92.6025 318.276 91.7847 320.205 90.1489C322.158 88.4888 323.135 84.3628 323.135 77.771V49.4995C323.135 48.1567 323.989 47.4854 325.698 47.4854H331.265C332.974 47.4854 333.828 48.1567 333.828 49.4995V78.1372C333.828 86.6821 332.021 92.6758 328.408 96.1182C324.795 99.5361 319.875 101.245 313.65 101.245C307.424 101.245 302.505 99.5361 298.892 96.1182C295.278 92.6758 293.472 86.6821 293.472 78.1372ZM348.11 100C346.401 100 345.547 99.0845 345.547 97.2534V50.2319C345.547 48.4009 346.401 47.4854 348.11 47.4854H353.53C355.63 47.4854 357.217 48.3398 358.291 50.0488L376.968 80.0415H377.224C377.102 78.5767 377.041 77.1118 377.041 75.647V50.2319C377.041 48.4009 377.896 47.4854 379.604 47.4854H385.171C386.88 47.4854 387.734 48.4009 387.734 50.2319V97.2534C387.734 99.0845 386.88 100 385.171 100H380.117C378.018 100 376.431 99.1455 375.356 97.4365L356.313 66.8945H356.057C356.179 68.3594 356.24 69.8242 356.24 71.2891V97.2534C356.24 99.0845 355.386 100 353.677 100H348.11ZM397.585 56.8604C395.754 56.8604 394.839 56.0669 394.839 54.48V49.8657C394.839 48.2788 395.754 47.4854 397.585 47.4854H435.232C437.063 47.4854 437.979 48.2788 437.979 49.8657V54.48C437.979 56.0669 437.063 56.8604 435.232 56.8604H421.755V97.9858C421.755 99.3286 421.145 100 419.924 100H412.893C411.672 100 411.062 99.3286 411.062 97.9858V56.8604H397.585ZM445.083 78.1372V49.4995C445.083 48.1567 445.938 47.4854 447.646 47.4854H453.213C454.922 47.4854 455.776 48.1567 455.776 49.4995V77.771C455.776 84.3628 456.741 88.4888 458.669 90.1489C460.623 91.7847 462.82 92.6025 465.261 92.6025C467.703 92.6025 469.888 91.7847 471.816 90.1489C473.77 88.4888 474.746 84.3628 474.746 77.771V49.4995C474.746 48.1567 475.601 47.4854 477.31 47.4854H482.876C484.585 47.4854 485.439 48.1567 485.439 49.4995V78.1372C485.439 86.6821 483.633 92.6758 480.02 96.1182C476.406 99.5361 471.487 101.245 465.261 101.245C459.036 101.245 454.116 99.5361 450.503 96.1182C446.89 92.6758 445.083 86.6821 445.083 78.1372Z" fill="white"/>
</svg>
