<svg width="810" height="145" viewBox="0 0 810 145" fill="none" xmlns="http://www.w3.org/2000/svg">
<rect x="1.5" y="1.5" width="807" height="142" rx="36.5" fill="#2A2734" stroke="white" stroke-width="3"/>
<path fill-rule="evenodd" clip-rule="evenodd" d="M151.61 81.8752C150.547 86.9962 145.825 100.141 130.758 107.254L124.708 100.454L114.496 110.715C108.687 110.637 102.975 109.217 97.8061 106.566C92.6372 103.914 88.1516 100.103 84.7 95.4302C85.786 95.7702 86.903 95.9812 88.036 96.0602C89.708 96.0902 91.521 95.4772 91.521 92.6692V64.9742C91.5446 64.2621 91.4015 63.5544 91.1029 62.9075C90.8044 62.2606 90.3587 61.6925 89.8015 61.2485C89.2443 60.8045 88.5911 60.4969 87.8938 60.3503C87.1966 60.2037 86.4748 60.2221 85.786 60.4042C81.06 61.4932 77.282 73.2862 77.282 73.2862C77.2298 67.8409 78.3639 62.4496 80.6054 57.4869C82.8469 52.5242 86.1421 48.109 90.262 44.5482C95.6845 39.8573 102.322 36.7942 109.41 35.7122C104.25 38.6542 101.352 43.4512 101.352 47.4742C101.352 53.9512 105.25 53.1662 106.406 52.2132V89.5922C106.602 90.0602 106.859 90.5022 107.168 90.9082C107.684 91.6211 108.364 92.2004 109.149 92.5978C109.935 92.9953 110.804 93.1994 111.684 93.1932C115.586 93.1932 120.652 88.7362 120.652 88.7362V58.4782C120.652 55.4002 118.332 51.6852 116.008 50.4082C116.008 50.4082 120.308 49.6462 123.629 52.1852C124.252 51.4235 124.914 50.6949 125.613 50.0022C133.36 42.4042 140.653 40.2402 146.73 39.1582C146.73 39.1582 135.683 47.8412 135.683 59.4902C135.683 68.1542 135.906 89.2792 135.906 89.2792C140.004 93.2362 146.101 87.5212 151.609 81.8762L151.61 81.8752Z" fill="white"/>
<path fill-rule="evenodd" clip-rule="evenodd" d="M115 11.3831C80.973 11.3831 53.383 38.9731 53.383 73.0001C53.383 107.027 80.973 134.617 115 134.617C149.027 134.617 176.617 107.027 176.617 73.0001C176.617 38.9731 149.027 11.3831 115 11.3831ZM115 132.153C82.332 132.153 55.848 105.669 55.848 73.0001C55.852 40.3331 82.336 13.8491 115.004 13.8531C147.672 13.8531 174.152 40.3371 174.152 73.0051C174.152 105.673 147.668 132.157 115 132.157V132.153Z" fill="white"/>
<path d="M190.859 78.1372V49.4995C190.859 48.1567 191.714 47.4854 193.423 47.4854H198.989C200.698 47.4854 201.553 48.1567 201.553 49.4995V77.771C201.553 84.3628 202.517 88.4888 204.446 90.1489C206.399 91.7847 208.596 92.6025 211.038 92.6025C213.479 92.6025 215.664 91.7847 217.593 90.1489C219.546 88.4888 220.522 84.3628 220.522 77.771V49.4995C220.522 48.1567 221.377 47.4854 223.086 47.4854H228.652C230.361 47.4854 231.216 48.1567 231.216 49.4995V78.1372C231.216 86.6821 229.409 92.6758 225.796 96.1182C222.183 99.5361 217.263 101.245 211.038 101.245C204.812 101.245 199.893 99.5361 196.279 96.1182C192.666 92.6758 190.859 86.6821 190.859 78.1372ZM245.498 100C243.789 100 242.935 99.0845 242.935 97.2534V50.2319C242.935 48.4009 243.789 47.4854 245.498 47.4854H250.918C253.018 47.4854 254.604 48.3398 255.679 50.0488L274.355 80.0415H274.612C274.49 78.5767 274.429 77.1118 274.429 75.647V50.2319C274.429 48.4009 275.283 47.4854 276.992 47.4854H282.559C284.268 47.4854 285.122 48.4009 285.122 50.2319V97.2534C285.122 99.0845 284.268 100 282.559 100H277.505C275.405 100 273.818 99.1455 272.744 97.4365L253.701 66.8945H253.445C253.567 68.3594 253.628 69.8242 253.628 71.2891V97.2534C253.628 99.0845 252.773 100 251.064 100H245.498ZM299.404 100C297.695 100 296.841 99.0845 296.841 97.2534V50.2319C296.841 48.4009 297.695 47.4854 299.404 47.4854H316.36C323.904 47.4854 329.409 48.6572 332.876 51.001C336.343 53.3203 338.076 57.1045 338.076 62.3535C338.076 66.2598 336.672 69.3726 333.865 71.6919C331.057 74.0112 327.493 75.5493 323.171 76.3062V76.3794C325.515 77.2583 327.285 78.479 328.481 80.0415C329.678 81.604 330.654 82.9712 331.411 84.1431L339.468 96.8506C340.811 98.9502 340.347 100 338.076 100H331.704C330.361 100 329.263 99.2798 328.408 97.8394L321.011 85.498C320.205 84.1797 318.728 82.7393 316.58 81.1768C314.456 79.5898 312.344 78.7964 310.244 78.7964H307.534V97.2534C307.534 99.0845 306.68 100 304.971 100H299.404ZM307.534 69.7144H314.089C318.972 69.7144 322.439 69.165 324.49 68.0664C326.565 66.9434 327.603 65.1733 327.603 62.7563C327.603 60.1196 326.602 58.4106 324.6 57.6294C322.622 56.8237 319.705 56.4209 315.847 56.4209H307.534V69.7144ZM351.699 100C349.99 100 349.136 99.0845 349.136 97.2534V50.2319C349.136 48.4009 349.99 47.4854 351.699 47.4854H383.12C384.951 47.4854 385.867 48.2788 385.867 49.8657V54.187C385.867 55.7739 384.951 56.5674 383.12 56.5674H359.829V68.2129H381.179C383.01 68.2129 383.926 69.0063 383.926 70.5933V74.9146C383.926 76.5015 383.01 77.2949 381.179 77.2949H359.829V90.918H384.292C386.123 90.918 387.039 91.7114 387.039 93.2983V97.6196C387.039 99.2065 386.123 100 384.292 100H351.699ZM394.363 100C392.605 100 392.031 99.1943 392.642 97.583L410.586 50.4517C411.343 48.4741 412.49 47.4854 414.028 47.4854H419.155C420.693 47.4854 421.841 48.4741 422.598 50.4517L440.542 97.583C441.152 99.1943 440.579 100 438.821 100H432.998C431.387 100 430.264 99.1577 429.629 97.4731L425.894 87.6221H407.29L403.555 97.4731C402.92 99.1577 401.797 100 400.186 100H394.363ZM410.696 78.54H422.488L417.983 66.8945C417.446 65.5273 417.117 64.5386 416.995 63.9282C416.897 63.2935 416.787 62.3657 416.665 61.145H416.519C416.396 62.3657 416.274 63.2935 416.152 63.9282C416.055 64.5386 415.737 65.5273 415.2 66.8945L410.696 78.54ZM449.624 100C447.915 100 447.061 99.0845 447.061 97.2534V50.2319C447.061 48.4009 447.915 47.4854 449.624 47.4854H455.557C457.021 47.4854 457.754 48.4009 457.754 50.2319V90.918H479.104C480.935 90.918 481.851 91.7114 481.851 93.2983V97.6196C481.851 99.2065 480.935 100 479.104 100H449.624ZM517.812 100C516.104 100 515.249 99.0845 515.249 97.2534V50.2319C515.249 48.4009 516.104 47.4854 517.812 47.4854H549.233C551.064 47.4854 551.98 48.2788 551.98 49.8657V54.187C551.98 55.7739 551.064 56.5674 549.233 56.5674H525.942V68.2129H547.292C549.124 68.2129 550.039 69.0063 550.039 70.5933V74.9146C550.039 76.5015 549.124 77.2949 547.292 77.2949H525.942V90.918H550.405C552.236 90.918 553.152 91.7114 553.152 93.2983V97.6196C553.152 99.2065 552.236 100 550.405 100H517.812ZM564.688 100C562.979 100 562.124 99.0845 562.124 97.2534V50.2319C562.124 48.4009 562.979 47.4854 564.688 47.4854H570.107C572.207 47.4854 573.794 48.3398 574.868 50.0488L593.545 80.0415H593.801C593.679 78.5767 593.618 77.1118 593.618 75.647V50.2319C593.618 48.4009 594.473 47.4854 596.182 47.4854H601.748C603.457 47.4854 604.312 48.4009 604.312 50.2319V97.2534C604.312 99.0845 603.457 100 601.748 100H596.694C594.595 100 593.008 99.1455 591.934 97.4365L572.891 66.8945H572.634C572.756 68.3594 572.817 69.8242 572.817 71.2891V97.2534C572.817 99.0845 571.963 100 570.254 100H564.688ZM613.32 73.7427C613.32 65.3198 615.518 58.6304 619.912 53.6743C624.307 48.7183 630.532 46.2402 638.589 46.2402C643.447 46.2402 647.256 46.8628 650.015 48.1079C652.798 49.353 655.239 51.2817 657.339 53.894C658.608 55.481 658.572 56.7139 657.229 57.5928L653.054 60.3027C651.833 61.1084 650.527 60.7544 649.136 59.2407C647.988 57.9956 646.536 56.958 644.778 56.1279C643.02 55.2979 641.079 54.8828 638.955 54.8828C633.828 54.8828 630.178 56.5063 628.005 59.7534C625.833 62.9761 624.746 67.6392 624.746 73.7427C624.746 79.8462 625.833 84.5215 628.005 87.7686C630.178 90.9912 633.828 92.6025 638.955 92.6025C641.445 92.6025 643.594 92.3584 645.4 91.8701C647.207 91.3574 648.916 90.4419 650.527 89.1235V82.5684H642.581C640.75 82.5684 639.834 81.7749 639.834 80.188V75.8667C639.834 74.2798 640.75 73.4863 642.581 73.4863H658.474C660.305 73.4863 661.221 74.2798 661.221 75.8667V94.4702C657.803 96.9849 654.348 98.7427 650.857 99.7437C647.39 100.745 643.301 101.245 638.589 101.245C630.654 101.245 624.453 98.7671 619.985 93.811C615.542 88.855 613.32 82.1655 613.32 73.7427ZM673.745 100C672.036 100 671.182 99.0845 671.182 97.2534V50.2319C671.182 48.4009 672.036 47.4854 673.745 47.4854H679.312C681.021 47.4854 681.875 48.4009 681.875 50.2319V97.2534C681.875 99.0845 681.021 100 679.312 100H673.745ZM696.157 100C694.448 100 693.594 99.0845 693.594 97.2534V50.2319C693.594 48.4009 694.448 47.4854 696.157 47.4854H701.577C703.677 47.4854 705.264 48.3398 706.338 50.0488L725.015 80.0415H725.271C725.149 78.5767 725.088 77.1118 725.088 75.647V50.2319C725.088 48.4009 725.942 47.4854 727.651 47.4854H733.218C734.927 47.4854 735.781 48.4009 735.781 50.2319V97.2534C735.781 99.0845 734.927 100 733.218 100H728.164C726.064 100 724.478 99.1455 723.403 97.4365L704.36 66.8945H704.104C704.226 68.3594 704.287 69.8242 704.287 71.2891V97.2534C704.287 99.0845 703.433 100 701.724 100H696.157ZM750.063 100C748.354 100 747.5 99.0845 747.5 97.2534V50.2319C747.5 48.4009 748.354 47.4854 750.063 47.4854H781.484C783.315 47.4854 784.231 48.2788 784.231 49.8657V54.187C784.231 55.7739 783.315 56.5674 781.484 56.5674H758.193V68.2129H779.543C781.375 68.2129 782.29 69.0063 782.29 70.5933V74.9146C782.29 76.5015 781.375 77.2949 779.543 77.2949H758.193V90.918H782.656C784.487 90.918 785.403 91.7114 785.403 93.2983V97.6196C785.403 99.2065 784.487 100 782.656 100H750.063Z" fill="white"/>
</svg>
