<svg width="773" height="145" viewBox="0 0 773 145" fill="none" xmlns="http://www.w3.org/2000/svg">
<rect x="1.5" y="1.5" width="770" height="142" rx="36.5" fill="#2A2734" stroke="white" stroke-width="3"/>
<g clip-path="url(#clip0_53_2)">
<path d="M58.39 36.2952C57.9028 36.3538 57.4259 36.4793 56.973 36.6682L47.279 40.6682C46.3123 41.0716 45.4858 41.7508 44.9027 42.621C44.3196 43.4911 44.0056 44.5138 44 45.5612V102.441C44.0057 103.489 44.3198 104.512 44.9031 105.382C45.4864 106.252 46.3131 106.931 47.28 107.334L56.973 111.4C57.8832 111.781 58.8812 111.902 59.8559 111.749C60.8306 111.596 61.7438 111.176 62.494 110.535L64.666 108.668C64.2252 108.985 63.7056 109.173 63.1645 109.213C62.6233 109.254 62.0816 109.143 61.599 108.895C61.1165 108.647 60.7118 108.27 60.4297 107.807C60.1475 107.343 59.9988 106.811 60 106.268V41.7342C59.9988 41.1916 60.1475 40.6592 60.4297 40.1956C60.7118 39.7321 61.1165 39.3555 61.599 39.1073C62.0816 38.8591 62.6233 38.7489 63.1645 38.789C63.7056 38.829 64.2252 39.0177 64.666 39.3342L62.494 37.5352C61.9331 37.056 61.2788 36.6983 60.5726 36.4849C59.8663 36.2714 59.1225 36.2069 58.39 36.2952Z" fill="#52218A"/>
<path d="M138.75 10.4159C137.527 10.245 136.282 10.3594 135.111 10.7501C133.94 11.1408 132.875 11.7972 132 12.6679L49.334 104.068C48.9144 104.519 48.3694 104.833 47.7693 104.971C47.1692 105.109 46.5416 105.064 45.9674 104.841C45.3932 104.619 44.8989 104.229 44.5482 103.723C44.1975 103.217 44.0066 102.618 44 102.002V102.442C44.0059 103.489 44.3201 104.512 44.9034 105.382C45.4867 106.252 46.3133 106.931 47.28 107.334L56.973 111.4C57.8832 111.78 58.8812 111.901 59.8559 111.748C60.8306 111.596 61.7438 111.176 62.494 110.535L64.666 108.668L163.746 27.4279C164.486 26.822 165.383 26.4386 166.332 26.3222C167.281 26.2058 168.244 26.3612 169.108 26.7703C169.973 27.1793 170.703 27.8253 171.215 28.6332C171.727 29.441 171.999 30.3775 172 31.3339V31.0269C172.001 29.5197 171.575 28.0429 170.773 26.7668C169.971 25.4907 168.825 24.4671 167.467 23.8139L141.094 11.1209C140.353 10.767 139.563 10.5292 138.75 10.4159Z" fill="#6C33AF"/>
<path d="M58.871 36.238C58.2173 36.2638 57.5739 36.4095 56.973 36.668L47.279 40.668C46.3123 41.0715 45.4858 41.7506 44.9027 42.6208C44.3196 43.491 44.0056 44.5136 44 45.561V46.002C44.0066 45.3864 44.1975 44.7868 44.5482 44.2807C44.8989 43.7746 45.3932 43.3852 45.9674 43.1628C46.5416 42.9404 47.1692 42.8952 47.7693 43.033C48.3694 43.1709 48.9144 43.4854 49.334 43.936L132 135.334C133.171 136.499 134.673 137.273 136.302 137.55C137.93 137.827 139.604 137.593 141.094 136.881L167.467 124.187C168.825 123.534 169.971 122.51 170.773 121.235C171.575 119.959 172 118.482 172 116.975V116.668C171.999 117.624 171.727 118.561 171.215 119.369C170.703 120.177 169.973 120.823 169.108 121.232C168.244 121.641 167.281 121.796 166.332 121.68C165.383 121.563 164.486 121.18 163.746 120.574L64.666 39.334L62.494 37.469C61.48 36.625 60.1892 36.1858 58.871 36.238Z" fill="#854CC7"/>
<path d="M138.75 10.4161C136.741 10.1704 134.713 10.6953 133.076 11.8851C133.791 11.4988 134.594 11.3047 135.407 11.322C136.219 11.3392 137.013 11.5671 137.711 11.9835C138.409 12.3998 138.987 12.9902 139.388 13.6969C139.789 14.4036 140 15.2025 140 16.0151V132.015C139.998 132.941 139.722 133.846 139.207 134.615C138.692 135.384 137.961 135.984 137.105 136.339C136.25 136.694 135.309 136.788 134.401 136.609C133.492 136.43 132.657 135.987 132 135.334C133.171 136.499 134.673 137.273 136.302 137.55C137.93 137.827 139.604 137.594 141.094 136.881L167.467 124.201C168.825 123.548 169.971 122.524 170.773 121.248C171.575 119.972 172.001 118.495 172 116.988V31.0161C172.001 29.5086 171.576 28.0314 170.774 26.7549C169.972 25.4784 168.826 24.4545 167.467 23.8011L141.094 11.1201C140.353 10.7666 139.563 10.5292 138.75 10.4161ZM133.076 11.8851C132.682 12.0937 132.32 12.3574 132 12.6681C132.336 12.3777 132.696 12.1158 133.076 11.8851Z" fill="#B179F1"/>
<path opacity="0.25" fill-rule="evenodd" clip-rule="evenodd" d="M138.145 10.3479C137.121 10.2813 136.094 10.4124 135.119 10.7339C133.944 11.1282 132.876 11.7903 132 12.6679L89.494 59.6819L64.666 39.3339L62.494 37.4689C61.8404 36.9097 61.0613 36.5169 60.223 36.3239C59.3848 36.131 58.5123 36.1437 57.68 36.3609C57.4362 36.4147 57.1991 36.4952 56.973 36.6009L47.279 40.6679C46.3718 41.0427 45.5856 41.6606 45.0071 42.4535C44.4285 43.2464 44.0801 44.1836 44 45.1619V102.841C44.0803 103.819 44.429 104.756 45.0078 105.549C45.5865 106.342 46.3728 106.959 47.28 107.334L56.973 111.334C57.1991 111.44 57.4362 111.52 57.68 111.574C58.512 111.792 59.3844 111.805 60.2226 111.612C61.0609 111.42 61.8402 111.028 62.494 110.469L64.666 108.668L89.494 88.3219L132 135.334C133.06 136.392 134.395 137.132 135.854 137.469C137.617 137.871 139.464 137.663 141.094 136.881L167.467 124.201C168.825 123.548 169.971 122.524 170.773 121.248C171.575 119.972 172.001 118.495 172 116.988V31.0159C172.001 29.5084 171.576 28.0312 170.774 26.7547C169.972 25.4782 168.826 24.4543 167.467 23.8009L141.094 11.1199C140.169 10.6755 139.168 10.4131 138.144 10.3469L138.145 10.3479ZM140 46.9079V101.094L106.947 74.0019L140 46.9079ZM60 55.6949L76.547 74.0019L60 92.3089V55.6949Z" fill="url(#paint0_linear_53_2)"/>
</g>
<path d="M187.49 49.9023C186.88 48.291 187.454 47.4854 189.211 47.4854H195.034C196.67 47.4854 197.793 48.3276 198.403 50.0122L209.609 80.5908C210.171 82.1533 210.5 83.2031 210.598 83.7402C210.696 84.2529 210.806 85.1196 210.928 86.3403H211.074C211.196 85.1196 211.306 84.2529 211.404 83.7402C211.501 83.2031 211.831 82.1533 212.393 80.5908L223.599 50.0122C224.209 48.3276 225.332 47.4854 226.968 47.4854H232.791C234.548 47.4854 235.122 48.291 234.512 49.9023L217.007 97.0337C216.274 99.0112 215.127 100 213.564 100H208.438C206.875 100 205.728 99.0112 204.995 97.0337L187.49 49.9023ZM243.594 100C241.885 100 241.03 99.0845 241.03 97.2534V50.2319C241.03 48.4009 241.885 47.4854 243.594 47.4854H249.16C250.869 47.4854 251.724 48.4009 251.724 50.2319V97.2534C251.724 99.0845 250.869 100 249.16 100H243.594ZM264.065 96.0815C262.551 94.9341 262.185 93.7744 262.966 92.6025L265.786 88.3545C266.714 86.9629 268.069 86.8896 269.851 88.1348C271.218 89.0869 273 90.0757 275.198 91.1011C277.419 92.1021 279.751 92.6025 282.192 92.6025C283.901 92.6025 285.549 92.4072 287.136 92.0166C288.723 91.626 289.932 90.8691 290.762 89.7461C291.592 88.623 292.007 87.2925 292.007 85.7544C292.007 84.6558 291.824 83.6914 291.458 82.8613C291.091 82.0312 290.493 81.3477 289.663 80.8105C288.833 80.2734 287.979 79.8218 287.1 79.4556C285.562 78.8208 283.621 78.1982 281.277 77.5879C278.958 76.9531 276.663 76.1963 274.392 75.3174C272.366 74.5361 270.51 73.4619 268.826 72.0947C267.141 70.7275 265.835 69.1895 264.907 67.4805C263.979 65.7715 263.516 63.4888 263.516 60.6323C263.516 57.2388 264.614 54.3335 266.812 51.9165C269.009 49.4995 271.536 47.9492 274.392 47.2656C277.249 46.582 280.129 46.2402 283.035 46.2402C285.916 46.2402 288.882 46.6797 291.934 47.5586C295.01 48.4375 297.329 49.5361 298.892 50.8545C300.43 52.1484 300.808 53.3203 300.027 54.3701L297.061 58.3618C296.06 59.729 294.717 59.8389 293.032 58.6914C291.958 57.959 290.481 57.1411 288.601 56.2378C286.746 55.3345 284.805 54.8828 282.778 54.8828C281.338 54.8828 280.007 55.0049 278.787 55.249C277.59 55.4932 276.528 56.0791 275.601 57.0068C274.673 57.9346 274.209 59.082 274.209 60.4492C274.209 61.7676 274.551 62.8418 275.234 63.6719C275.918 64.4775 276.675 65.0879 277.505 65.5029C278.335 65.8936 279.177 66.2231 280.032 66.4917C282.668 67.3462 285.024 68.103 287.1 68.7622C289.175 69.397 291.091 70.105 292.849 70.8862C295.291 71.9849 297.158 73.0835 298.452 74.1821C299.746 75.2808 300.808 76.7822 301.638 78.6865C302.493 80.5908 302.92 82.8613 302.92 85.498C302.92 89.4043 301.675 92.6392 299.185 95.2026C296.694 97.7417 293.923 99.3774 290.872 100.11C287.844 100.867 284.89 101.245 282.009 101.245C277.761 101.245 274.307 100.83 271.646 100C268.984 99.1943 266.458 97.8882 264.065 96.0815ZM311.343 78.1372V49.4995C311.343 48.1567 312.197 47.4854 313.906 47.4854H319.473C321.182 47.4854 322.036 48.1567 322.036 49.4995V77.771C322.036 84.3628 323 88.4888 324.929 90.1489C326.882 91.7847 329.08 92.6025 331.521 92.6025C333.962 92.6025 336.147 91.7847 338.076 90.1489C340.029 88.4888 341.006 84.3628 341.006 77.771V49.4995C341.006 48.1567 341.86 47.4854 343.569 47.4854H349.136C350.845 47.4854 351.699 48.1567 351.699 49.4995V78.1372C351.699 86.6821 349.893 92.6758 346.279 96.1182C342.666 99.5361 337.747 101.245 331.521 101.245C325.295 101.245 320.376 99.5361 316.763 96.1182C313.149 92.6758 311.343 86.6821 311.343 78.1372ZM361.77 100C360.012 100 359.438 99.1943 360.049 97.583L377.993 50.4517C378.75 48.4741 379.897 47.4854 381.436 47.4854H386.562C388.101 47.4854 389.248 48.4741 390.005 50.4517L407.949 97.583C408.56 99.1943 407.986 100 406.228 100H400.405C398.794 100 397.671 99.1577 397.036 97.4731L393.301 87.6221H374.697L370.962 97.4731C370.327 99.1577 369.204 100 367.593 100H361.77ZM378.103 78.54H389.895L385.391 66.8945C384.854 65.5273 384.524 64.5386 384.402 63.9282C384.304 63.2935 384.194 62.3657 384.072 61.145H383.926C383.804 62.3657 383.682 63.2935 383.56 63.9282C383.462 64.5386 383.145 65.5273 382.607 66.8945L378.103 78.54ZM417.031 100C415.322 100 414.468 99.0845 414.468 97.2534V50.2319C414.468 48.4009 415.322 47.4854 417.031 47.4854H422.964C424.429 47.4854 425.161 48.4009 425.161 50.2319V90.918H446.511C448.342 90.918 449.258 91.7114 449.258 93.2983V97.6196C449.258 99.2065 448.342 100 446.511 100H417.031ZM483.279 96.0815C481.765 94.9341 481.399 93.7744 482.18 92.6025L485 88.3545C485.928 86.9629 487.283 86.8896 489.065 88.1348C490.432 89.0869 492.214 90.0757 494.412 91.1011C496.633 92.1021 498.965 92.6025 501.406 92.6025C503.115 92.6025 504.763 92.4072 506.35 92.0166C507.937 91.626 509.146 90.8691 509.976 89.7461C510.806 88.623 511.221 87.2925 511.221 85.7544C511.221 84.6558 511.038 83.6914 510.671 82.8613C510.305 82.0312 509.707 81.3477 508.877 80.8105C508.047 80.2734 507.192 79.8218 506.313 79.4556C504.775 78.8208 502.834 78.1982 500.491 77.5879C498.171 76.9531 495.876 76.1963 493.606 75.3174C491.58 74.5361 489.724 73.4619 488.04 72.0947C486.355 70.7275 485.049 69.1895 484.121 67.4805C483.193 65.7715 482.729 63.4888 482.729 60.6323C482.729 57.2388 483.828 54.3335 486.025 51.9165C488.223 49.4995 490.75 47.9492 493.606 47.2656C496.462 46.582 499.343 46.2402 502.249 46.2402C505.129 46.2402 508.096 46.6797 511.147 47.5586C514.224 48.4375 516.543 49.5361 518.105 50.8545C519.644 52.1484 520.022 53.3203 519.241 54.3701L516.274 58.3618C515.273 59.729 513.931 59.8389 512.246 58.6914C511.172 57.959 509.695 57.1411 507.815 56.2378C505.959 55.3345 504.019 54.8828 501.992 54.8828C500.552 54.8828 499.221 55.0049 498 55.249C496.804 55.4932 495.742 56.0791 494.814 57.0068C493.887 57.9346 493.423 59.082 493.423 60.4492C493.423 61.7676 493.765 62.8418 494.448 63.6719C495.132 64.4775 495.889 65.0879 496.719 65.5029C497.549 65.8936 498.391 66.2231 499.246 66.4917C501.882 67.3462 504.238 68.103 506.313 68.7622C508.389 69.397 510.305 70.105 512.063 70.8862C514.504 71.9849 516.372 73.0835 517.666 74.1821C518.96 75.2808 520.022 76.7822 520.852 78.6865C521.707 80.5908 522.134 82.8613 522.134 85.498C522.134 89.4043 520.889 92.6392 518.398 95.2026C515.908 97.7417 513.137 99.3774 510.085 100.11C507.058 100.867 504.104 101.245 501.223 101.245C496.975 101.245 493.521 100.83 490.859 100C488.198 99.1943 485.671 97.8882 483.279 96.0815ZM528.689 56.8604C526.858 56.8604 525.942 56.0669 525.942 54.48V49.8657C525.942 48.2788 526.858 47.4854 528.689 47.4854H566.335C568.167 47.4854 569.082 48.2788 569.082 49.8657V54.48C569.082 56.0669 568.167 56.8604 566.335 56.8604H552.859V97.9858C552.859 99.3286 552.249 100 551.028 100H543.997C542.776 100 542.166 99.3286 542.166 97.9858V56.8604H528.689ZM576.187 78.1372V49.4995C576.187 48.1567 577.041 47.4854 578.75 47.4854H584.316C586.025 47.4854 586.88 48.1567 586.88 49.4995V77.771C586.88 84.3628 587.844 88.4888 589.773 90.1489C591.726 91.7847 593.923 92.6025 596.365 92.6025C598.806 92.6025 600.991 91.7847 602.92 90.1489C604.873 88.4888 605.85 84.3628 605.85 77.771V49.4995C605.85 48.1567 606.704 47.4854 608.413 47.4854H613.979C615.688 47.4854 616.543 48.1567 616.543 49.4995V78.1372C616.543 86.6821 614.736 92.6758 611.123 96.1182C607.51 99.5361 602.59 101.245 596.365 101.245C590.139 101.245 585.22 99.5361 581.606 96.1182C577.993 92.6758 576.187 86.6821 576.187 78.1372ZM630.825 100C629.116 100 628.262 99.0845 628.262 97.2534V50.2319C628.262 48.4009 629.116 47.4854 630.825 47.4854H643.606C654.836 47.4854 662.429 49.7559 666.384 54.2969C670.364 58.8379 672.354 65.2954 672.354 73.6694C672.354 82.0435 670.364 88.5254 666.384 93.1152C662.429 97.7051 654.836 100 643.606 100H630.825ZM638.955 90.918H642.91C650.479 90.918 655.374 89.5142 657.595 86.7065C659.817 83.8745 660.928 79.5288 660.928 73.6694C660.928 67.8101 659.817 63.4888 657.595 60.7056C655.374 57.8979 650.479 56.4941 642.91 56.4941H638.955V90.918ZM683.926 100C682.217 100 681.362 99.0845 681.362 97.2534V50.2319C681.362 48.4009 682.217 47.4854 683.926 47.4854H689.492C691.201 47.4854 692.056 48.4009 692.056 50.2319V97.2534C692.056 99.0845 691.201 100 689.492 100H683.926ZM701.064 73.7427C701.064 65.3198 703.237 58.6304 707.583 53.6743C711.929 48.7183 718.13 46.2402 726.187 46.2402C734.243 46.2402 740.444 48.7183 744.79 53.6743C749.136 58.6304 751.309 65.3198 751.309 73.7427C751.309 82.1655 749.136 88.855 744.79 93.811C740.444 98.7671 734.243 101.245 726.187 101.245C718.13 101.245 711.929 98.7671 707.583 93.811C703.237 88.855 701.064 82.1655 701.064 73.7427ZM712.49 73.7427C712.49 79.8462 713.577 84.5215 715.75 87.7686C717.947 90.9912 721.426 92.6025 726.187 92.6025C730.947 92.6025 734.414 90.9912 736.587 87.7686C738.784 84.5215 739.883 79.8462 739.883 73.7427C739.883 67.6392 738.784 62.9761 736.587 59.7534C734.414 56.5063 730.947 54.8828 726.187 54.8828C721.426 54.8828 717.947 56.5063 715.75 59.7534C713.577 62.9761 712.49 67.6392 712.49 73.7427Z" fill="white"/>
<defs>
<linearGradient id="paint0_linear_53_2" x1="92" y1="9.99993" x2="92" y2="105.5" gradientUnits="userSpaceOnUse">
<stop stop-color="white"/>
<stop offset="1" stop-color="white" stop-opacity="0"/>
</linearGradient>
<clipPath id="clip0_53_2">
<rect width="128" height="128" fill="white" transform="translate(44 10)"/>
</clipPath>
</defs>
</svg>
