<svg width="559" height="145" viewBox="0 0 559 145" fill="none" xmlns="http://www.w3.org/2000/svg">
<rect x="1.5" y="1.5" width="556" height="142" rx="36.5" fill="#2A2734" stroke="white" stroke-width="3"/>
<g clip-path="url(#clip0_53_2)">
<mask id="mask0_53_2" style="mask-type:alpha" maskUnits="userSpaceOnUse" x="43" y="7" width="129" height="128">
<path fill-rule="evenodd" clip-rule="evenodd" d="M134.767 134.126C135.786 134.523 136.875 134.707 137.967 134.665C139.06 134.623 140.132 134.356 141.117 133.882L167.47 121.201C168.827 120.548 169.972 119.525 170.774 118.249C171.575 116.974 172 115.498 172 113.992V28.0091C172 26.5028 171.575 25.0269 170.774 23.7514C169.973 22.4759 168.827 21.4525 167.47 20.7991L141.117 8.12014C139.628 7.40365 137.953 7.16774 136.324 7.44508C134.695 7.72242 133.192 8.49928 132.024 9.66814L81.574 55.6941L59.6 39.0131C58.6087 38.2605 57.3853 37.8786 56.1419 37.9338C54.8985 37.989 53.7137 38.4777 52.793 39.3151L45.745 45.7261C45.1957 46.2257 44.7568 46.8344 44.4563 47.5133C44.1557 48.1922 44.0002 48.9264 43.9996 49.6688C43.9991 50.4113 44.1535 51.1457 44.453 51.825C44.7525 52.5044 45.1905 53.1137 45.739 53.6141L64.796 71.0001L45.74 88.3871C45.1918 88.8876 44.7541 89.4969 44.4547 90.1762C44.1554 90.8555 44.0011 91.5897 44.0017 92.332C44.0022 93.0742 44.1577 93.8082 44.458 94.487C44.7584 95.1658 45.197 95.7745 45.746 96.2741L52.794 102.685C53.7145 103.523 54.8993 104.012 56.1427 104.067C57.3861 104.123 58.6097 103.741 59.601 102.988L81.575 86.3081L132.025 132.333C132.805 133.115 133.738 133.725 134.767 134.126ZM140.019 41.9431L101.74 71.0001L140.02 100.058L140.019 41.9431Z" fill="white"/>
</mask>
<g mask="url(#mask0_53_2)">
<path d="M167.471 20.8198L141.097 8.11984C139.607 7.40287 137.932 7.16671 136.302 7.44405C134.672 7.72139 133.169 8.49851 132 9.66784L45.662 88.3868C45.1134 88.8871 44.6753 89.4963 44.3757 90.1756C44.0761 90.8549 43.9217 91.5892 43.9222 92.3317C43.9228 93.0741 44.0784 93.8082 44.379 94.487C44.6796 95.1659 45.1187 95.7745 45.668 96.2738L52.72 102.685C53.6413 103.523 54.8268 104.011 56.0708 104.067C57.3148 104.122 58.539 103.74 59.531 102.988L163.502 24.1128C166.99 21.4668 172 23.9548 172 28.3328V28.0268C172 26.5209 171.575 25.0456 170.774 23.7705C169.973 22.4954 168.828 21.4733 167.471 20.8198Z" fill="#0065A9"/>
<g filter="url(#filter0_d_53_2)">
<path d="M167.471 121.181L141.097 133.879C139.608 134.596 137.932 134.833 136.302 134.556C134.672 134.279 133.169 133.502 132 132.333L45.662 53.613C45.1134 53.1128 44.6753 52.5035 44.3757 51.8242C44.0761 51.145 43.9217 50.4106 43.9222 49.6682C43.9228 48.9258 44.0784 48.1916 44.379 47.5128C44.6796 46.834 45.1187 46.2254 45.668 45.726L52.72 39.315C53.6413 38.4773 54.8268 37.9883 56.0708 37.933C57.3148 37.8777 58.539 38.2594 59.531 39.012L163.502 117.886C166.99 120.533 172 118.045 172 113.667V113.973C172 115.479 171.575 116.954 170.774 118.229C169.973 119.504 168.828 120.528 167.471 121.181Z" fill="#007ACC"/>
</g>
<g filter="url(#filter1_d_53_2)">
<path d="M141.098 133.882C139.608 134.599 137.932 134.834 136.302 134.557C134.672 134.279 133.169 133.502 132 132.333C134.952 135.285 140 133.194 140 129.019V12.98C140 8.80503 134.952 6.71403 132 9.66703C133.169 8.49783 134.672 7.72075 136.302 7.44325C137.932 7.16575 139.608 7.40155 141.098 8.11803L167.467 20.8C168.825 21.453 169.971 22.4761 170.773 23.7517C171.575 25.0272 172 26.5033 172 28.01V113.992C172 115.499 171.575 116.975 170.773 118.25C169.971 119.526 168.825 120.549 167.467 121.202L141.098 133.882Z" fill="#1F9CF0"/>
</g>
<path style="mix-blend-mode:overlay" opacity="0.25" fill-rule="evenodd" clip-rule="evenodd" d="M134.69 134.126C135.708 134.523 136.798 134.706 137.89 134.664C138.982 134.622 140.054 134.356 141.039 133.882L167.392 121.201C168.749 120.548 169.895 119.524 170.696 118.249C171.497 116.973 171.922 115.498 171.922 113.991V28.0091C171.922 26.5028 171.497 25.0269 170.696 23.7514C169.895 22.4759 168.749 21.4525 167.392 20.7991L141.039 8.12014C139.55 7.40365 137.875 7.16774 136.246 7.44508C134.617 7.72242 133.114 8.49928 131.946 9.66814L81.496 55.6941L59.522 39.0141C58.5307 38.2615 57.3073 37.8796 56.0639 37.9348C54.8205 37.99 53.6357 38.4787 52.715 39.3161L45.667 45.7271C45.1179 46.2268 44.6791 46.8355 44.3786 47.5144C44.0782 48.1933 43.9227 48.9274 43.9221 49.6698C43.9216 50.4122 44.0759 51.1466 44.3753 51.8259C44.6748 52.5053 45.1126 53.1147 45.661 53.6151L64.718 71.0001L45.662 88.3861C45.1135 88.8865 44.6755 89.4959 44.376 90.1753C44.0765 90.8546 43.9221 91.589 43.9226 92.3315C43.9232 93.0739 44.0787 93.8081 44.3793 94.487C44.6798 95.1659 45.1187 95.7746 45.668 96.2741L52.716 102.685C53.6366 103.523 54.8213 104.012 56.0647 104.067C57.3081 104.122 58.5316 103.741 59.523 102.988L81.498 86.3071L131.948 132.333C132.728 133.114 133.662 133.725 134.69 134.126ZM139.942 41.9421L101.662 71.0001L139.942 100.057V41.9421Z" fill="url(#paint0_linear_53_2)"/>
</g>
</g>
<path d="M187.49 49.9023C186.88 48.291 187.454 47.4854 189.211 47.4854H195.034C196.67 47.4854 197.793 48.3276 198.403 50.0122L209.609 80.5908C210.171 82.1533 210.5 83.2031 210.598 83.7402C210.696 84.2529 210.806 85.1196 210.928 86.3403H211.074C211.196 85.1196 211.306 84.2529 211.404 83.7402C211.501 83.2031 211.831 82.1533 212.393 80.5908L223.599 50.0122C224.209 48.3276 225.332 47.4854 226.968 47.4854H232.791C234.548 47.4854 235.122 48.291 234.512 49.9023L217.007 97.0337C216.274 99.0112 215.127 100 213.564 100H208.438C206.875 100 205.728 99.0112 204.995 97.0337L187.49 49.9023ZM241.653 96.0815C240.139 94.9341 239.773 93.7744 240.554 92.6025L243.374 88.3545C244.302 86.9629 245.657 86.8896 247.439 88.1348C248.806 89.0869 250.588 90.0757 252.786 91.1011C255.007 92.1021 257.339 92.6025 259.78 92.6025C261.489 92.6025 263.137 92.4072 264.724 92.0166C266.311 91.626 267.52 90.8691 268.35 89.7461C269.18 88.623 269.595 87.2925 269.595 85.7544C269.595 84.6558 269.412 83.6914 269.045 82.8613C268.679 82.0312 268.081 81.3477 267.251 80.8105C266.421 80.2734 265.566 79.8218 264.688 79.4556C263.149 78.8208 261.208 78.1982 258.865 77.5879C256.545 76.9531 254.25 76.1963 251.98 75.3174C249.954 74.5361 248.098 73.4619 246.414 72.0947C244.729 70.7275 243.423 69.1895 242.495 67.4805C241.567 65.7715 241.104 63.4888 241.104 60.6323C241.104 57.2388 242.202 54.3335 244.399 51.9165C246.597 49.4995 249.124 47.9492 251.98 47.2656C254.836 46.582 257.717 46.2402 260.623 46.2402C263.503 46.2402 266.47 46.6797 269.521 47.5586C272.598 48.4375 274.917 49.5361 276.479 50.8545C278.018 52.1484 278.396 53.3203 277.615 54.3701L274.648 58.3618C273.647 59.729 272.305 59.8389 270.62 58.6914C269.546 57.959 268.069 57.1411 266.189 56.2378C264.333 55.3345 262.393 54.8828 260.366 54.8828C258.926 54.8828 257.595 55.0049 256.375 55.249C255.178 55.4932 254.116 56.0791 253.188 57.0068C252.261 57.9346 251.797 59.082 251.797 60.4492C251.797 61.7676 252.139 62.8418 252.822 63.6719C253.506 64.4775 254.263 65.0879 255.093 65.5029C255.923 65.8936 256.765 66.2231 257.62 66.4917C260.256 67.3462 262.612 68.103 264.688 68.7622C266.763 69.397 268.679 70.105 270.437 70.8862C272.878 71.9849 274.746 73.0835 276.04 74.1821C277.334 75.2808 278.396 76.7822 279.226 78.6865C280.081 80.5908 280.508 82.8613 280.508 85.498C280.508 89.4043 279.263 92.6392 276.772 95.2026C274.282 97.7417 271.511 99.3774 268.459 100.11C265.432 100.867 262.478 101.245 259.597 101.245C255.349 101.245 251.895 100.83 249.233 100C246.572 99.1943 244.045 97.8882 241.653 96.0815ZM311.855 73.7427C311.855 65.3198 313.992 58.6304 318.264 53.6743C322.537 48.7183 328.701 46.2402 336.758 46.2402C341.396 46.2402 345.327 46.9604 348.55 48.4009C351.772 49.8413 354.043 51.9287 355.361 54.6631C356.24 56.4697 356.094 57.6904 354.922 58.3252L350.527 60.6689C348.989 61.499 347.72 61.0352 346.719 59.2773C346.084 58.1543 344.9 57.1411 343.167 56.2378C341.458 55.3345 339.443 54.8828 337.124 54.8828C331.997 54.8828 328.408 56.5063 326.357 59.7534C324.307 62.9761 323.281 67.6392 323.281 73.7427C323.281 79.8462 324.307 84.5215 326.357 87.7686C328.408 90.9912 331.997 92.6025 337.124 92.6025C339.883 92.6025 342.202 91.98 344.082 90.7349C345.986 89.4897 347.305 88.3057 348.037 87.1826C349.233 85.3516 350.503 84.8877 351.846 85.791L356.24 88.7207C357.437 89.5264 357.559 90.7471 356.606 92.3828C355.19 94.8242 352.761 96.9116 349.319 98.645C345.876 100.378 341.689 101.245 336.758 101.245C328.823 101.245 322.683 98.7671 318.337 93.811C314.016 88.855 311.855 82.1655 311.855 73.7427ZM363.784 73.7427C363.784 65.3198 365.957 58.6304 370.303 53.6743C374.648 48.7183 380.85 46.2402 388.906 46.2402C396.963 46.2402 403.164 48.7183 407.51 53.6743C411.855 58.6304 414.028 65.3198 414.028 73.7427C414.028 82.1655 411.855 88.855 407.51 93.811C403.164 98.7671 396.963 101.245 388.906 101.245C380.85 101.245 374.648 98.7671 370.303 93.811C365.957 88.855 363.784 82.1655 363.784 73.7427ZM375.21 73.7427C375.21 79.8462 376.296 84.5215 378.469 87.7686C380.667 90.9912 384.146 92.6025 388.906 92.6025C393.667 92.6025 397.134 90.9912 399.307 87.7686C401.504 84.5215 402.603 79.8462 402.603 73.7427C402.603 67.6392 401.504 62.9761 399.307 59.7534C397.134 56.5063 393.667 54.8828 388.906 54.8828C384.146 54.8828 380.667 56.5063 378.469 59.7534C376.296 62.9761 375.21 67.6392 375.21 73.7427ZM425.601 100C423.892 100 423.037 99.0845 423.037 97.2534V50.2319C423.037 48.4009 423.892 47.4854 425.601 47.4854H438.381C449.612 47.4854 457.205 49.7559 461.16 54.2969C465.139 58.8379 467.129 65.2954 467.129 73.6694C467.129 82.0435 465.139 88.5254 461.16 93.1152C457.205 97.7051 449.612 100 438.381 100H425.601ZM433.73 90.918H437.686C445.254 90.918 450.149 89.5142 452.371 86.7065C454.592 83.8745 455.703 79.5288 455.703 73.6694C455.703 67.8101 454.592 63.4888 452.371 60.7056C450.149 57.8979 445.254 56.4941 437.686 56.4941H433.73V90.918ZM478.701 100C476.992 100 476.138 99.0845 476.138 97.2534V50.2319C476.138 48.4009 476.992 47.4854 478.701 47.4854H510.122C511.953 47.4854 512.869 48.2788 512.869 49.8657V54.187C512.869 55.7739 511.953 56.5674 510.122 56.5674H486.831V68.2129H508.181C510.012 68.2129 510.928 69.0063 510.928 70.5933V74.9146C510.928 76.5015 510.012 77.2949 508.181 77.2949H486.831V90.918H511.294C513.125 90.918 514.041 91.7114 514.041 93.2983V97.6196C514.041 99.2065 513.125 100 511.294 100H478.701Z" fill="white"/>
<defs>
<filter id="filter0_d_53_2" x="35.5889" y="29.5944" width="144.744" height="113.407" filterUnits="userSpaceOnUse" color-interpolation-filters="sRGB">
<feFlood flood-opacity="0" result="BackgroundImageFix"/>
<feColorMatrix in="SourceAlpha" type="matrix" values="0 0 0 0 0 0 0 0 0 0 0 0 0 0 0 0 0 0 127 0" result="hardAlpha"/>
<feOffset/>
<feGaussianBlur stdDeviation="4.16667"/>
<feColorMatrix type="matrix" values="0 0 0 0 0 0 0 0 0 0 0 0 0 0 0 0 0 0 0.25 0"/>
<feBlend mode="overlay" in2="BackgroundImageFix" result="effect1_dropShadow_53_2"/>
<feBlend mode="normal" in="SourceGraphic" in2="effect1_dropShadow_53_2" result="shape"/>
</filter>
<filter id="filter1_d_53_2" x="123.667" y="-1.00326" width="56.6667" height="144.007" filterUnits="userSpaceOnUse" color-interpolation-filters="sRGB">
<feFlood flood-opacity="0" result="BackgroundImageFix"/>
<feColorMatrix in="SourceAlpha" type="matrix" values="0 0 0 0 0 0 0 0 0 0 0 0 0 0 0 0 0 0 127 0" result="hardAlpha"/>
<feOffset/>
<feGaussianBlur stdDeviation="4.16667"/>
<feColorMatrix type="matrix" values="0 0 0 0 0 0 0 0 0 0 0 0 0 0 0 0 0 0 0.25 0"/>
<feBlend mode="overlay" in2="BackgroundImageFix" result="effect1_dropShadow_53_2"/>
<feBlend mode="normal" in="SourceGraphic" in2="effect1_dropShadow_53_2" result="shape"/>
</filter>
<linearGradient id="paint0_linear_53_2" x1="107.922" y1="7.33004" x2="107.922" y2="134.67" gradientUnits="userSpaceOnUse">
<stop stop-color="white"/>
<stop offset="1" stop-color="white" stop-opacity="0"/>
</linearGradient>
<clipPath id="clip0_53_2">
<rect width="128" height="128" fill="white" transform="translate(44 7)"/>
</clipPath>
</defs>
</svg>
