<svg width="590" height="145" viewBox="0 0 590 145" fill="none" xmlns="http://www.w3.org/2000/svg">
<rect x="1.5" y="1.5" width="587" height="142" rx="36.5" fill="#2A2734" stroke="white" stroke-width="3"/>
<path d="M172 9.63721L105 19.4712V69.3022L172 68.7682V9.63721ZM47.647 74.7092L47.65 117.113L98.441 124.096L98.401 75.0392L47.647 74.7092ZM104.467 75.3892L104.561 124.854L171.937 134.363L171.953 75.5002L104.467 75.3892ZM47.61 27.2972L47.657 69.6802L98.448 69.3912L98.425 20.3752L47.61 27.2972Z" fill="#00ADEF"/>
<path d="M187.454 50.415C186.917 48.4619 187.478 47.4854 189.138 47.4854H195.913C197.061 47.4854 197.83 48.291 198.22 49.9023L205.178 78.6865C205.691 80.7861 206.021 82.2266 206.167 83.0078C206.338 83.7646 206.484 84.9976 206.606 86.7065H206.79C206.912 84.9976 207.034 83.7036 207.156 82.8247C207.278 81.9458 207.632 80.4932 208.218 78.4668L216.384 50.1953C216.897 48.3887 217.922 47.4854 219.46 47.4854H226.199C227.737 47.4854 228.762 48.3887 229.275 50.1953L237.441 78.4668C238.027 80.4932 238.381 81.9458 238.503 82.8247C238.625 83.7036 238.748 84.9976 238.87 86.7065H239.053C239.175 84.9976 239.309 83.7646 239.456 83.0078C239.626 82.2266 239.968 80.7861 240.481 78.6865L247.439 49.9023C247.83 48.291 248.599 47.4854 249.746 47.4854H256.521C258.181 47.4854 258.743 48.4619 258.206 50.415L245.754 96.4478C245.12 98.8159 243.972 100 242.312 100H235.903C234.487 100 233.45 98.8281 232.791 96.4844L224.001 65.7959C223.513 64.1357 223.232 63.0615 223.159 62.5732C223.086 62.0605 222.988 61.1206 222.866 59.7534H222.793C222.671 61.1206 222.573 62.0605 222.5 62.5732C222.427 63.0615 222.146 64.1357 221.658 65.7959L212.869 96.4844C212.209 98.8281 211.172 100 209.756 100H203.347C201.687 100 200.54 98.8159 199.905 96.4478L187.454 50.415ZM267.471 100C265.762 100 264.907 99.0845 264.907 97.2534V50.2319C264.907 48.4009 265.762 47.4854 267.471 47.4854H273.037C274.746 47.4854 275.601 48.4009 275.601 50.2319V97.2534C275.601 99.0845 274.746 100 273.037 100H267.471ZM289.883 100C288.174 100 287.319 99.0845 287.319 97.2534V50.2319C287.319 48.4009 288.174 47.4854 289.883 47.4854H295.303C297.402 47.4854 298.989 48.3398 300.063 50.0488L318.74 80.0415H318.997C318.875 78.5767 318.813 77.1118 318.813 75.647V50.2319C318.813 48.4009 319.668 47.4854 321.377 47.4854H326.943C328.652 47.4854 329.507 48.4009 329.507 50.2319V97.2534C329.507 99.0845 328.652 100 326.943 100H321.89C319.79 100 318.203 99.1455 317.129 97.4365L298.086 66.8945H297.83C297.952 68.3594 298.013 69.8242 298.013 71.2891V97.2534C298.013 99.0845 297.158 100 295.449 100H289.883ZM343.789 100C342.08 100 341.226 99.0845 341.226 97.2534V50.2319C341.226 48.4009 342.08 47.4854 343.789 47.4854H356.57C367.8 47.4854 375.393 49.7559 379.348 54.2969C383.328 58.8379 385.317 65.2954 385.317 73.6694C385.317 82.0435 383.328 88.5254 379.348 93.1152C375.393 97.7051 367.8 100 356.57 100H343.789ZM351.919 90.918H355.874C363.442 90.918 368.337 89.5142 370.559 86.7065C372.781 83.8745 373.892 79.5288 373.892 73.6694C373.892 67.8101 372.781 63.4888 370.559 60.7056C368.337 57.8979 363.442 56.4941 355.874 56.4941H351.919V90.918ZM391.616 73.7427C391.616 65.3198 393.789 58.6304 398.135 53.6743C402.48 48.7183 408.682 46.2402 416.738 46.2402C424.795 46.2402 430.996 48.7183 435.342 53.6743C439.688 58.6304 441.86 65.3198 441.86 73.7427C441.86 82.1655 439.688 88.855 435.342 93.811C430.996 98.7671 424.795 101.245 416.738 101.245C408.682 101.245 402.48 98.7671 398.135 93.811C393.789 88.855 391.616 82.1655 391.616 73.7427ZM403.042 73.7427C403.042 79.8462 404.128 84.5215 406.301 87.7686C408.499 90.9912 411.978 92.6025 416.738 92.6025C421.499 92.6025 424.966 90.9912 427.139 87.7686C429.336 84.5215 430.435 79.8462 430.435 73.7427C430.435 67.6392 429.336 62.9761 427.139 59.7534C424.966 56.5063 421.499 54.8828 416.738 54.8828C411.978 54.8828 408.499 56.5063 406.301 59.7534C404.128 62.9761 403.042 67.6392 403.042 73.7427ZM447.463 50.415C446.926 48.4619 447.488 47.4854 449.148 47.4854H455.923C457.07 47.4854 457.839 48.291 458.23 49.9023L465.188 78.6865C465.701 80.7861 466.03 82.2266 466.177 83.0078C466.348 83.7646 466.494 84.9976 466.616 86.7065H466.799C466.921 84.9976 467.043 83.7036 467.166 82.8247C467.288 81.9458 467.642 80.4932 468.228 78.4668L476.394 50.1953C476.907 48.3887 477.932 47.4854 479.47 47.4854H486.208C487.747 47.4854 488.772 48.3887 489.285 50.1953L497.451 78.4668C498.037 80.4932 498.391 81.9458 498.513 82.8247C498.635 83.7036 498.757 84.9976 498.879 86.7065H499.062C499.185 84.9976 499.319 83.7646 499.465 83.0078C499.636 82.2266 499.978 80.7861 500.491 78.6865L507.449 49.9023C507.839 48.291 508.608 47.4854 509.756 47.4854H516.531C518.191 47.4854 518.752 48.4619 518.215 50.415L505.764 96.4478C505.129 98.8159 503.982 100 502.322 100H495.913C494.497 100 493.459 98.8281 492.8 96.4844L484.011 65.7959C483.523 64.1357 483.242 63.0615 483.169 62.5732C483.096 62.0605 482.998 61.1206 482.876 59.7534H482.803C482.681 61.1206 482.583 62.0605 482.51 62.5732C482.437 63.0615 482.156 64.1357 481.667 65.7959L472.878 96.4844C472.219 98.8281 471.182 100 469.766 100H463.357C461.697 100 460.549 98.8159 459.915 96.4478L447.463 50.415ZM525.54 96.0815C524.026 94.9341 523.66 93.7744 524.441 92.6025L527.261 88.3545C528.188 86.9629 529.543 86.8896 531.326 88.1348C532.693 89.0869 534.475 90.0757 536.672 91.1011C538.894 92.1021 541.226 92.6025 543.667 92.6025C545.376 92.6025 547.024 92.4072 548.611 92.0166C550.198 91.626 551.406 90.8691 552.236 89.7461C553.066 88.623 553.481 87.2925 553.481 85.7544C553.481 84.6558 553.298 83.6914 552.932 82.8613C552.566 82.0312 551.968 81.3477 551.138 80.8105C550.308 80.2734 549.453 79.8218 548.574 79.4556C547.036 78.8208 545.095 78.1982 542.751 77.5879C540.432 76.9531 538.137 76.1963 535.867 75.3174C533.84 74.5361 531.985 73.4619 530.3 72.0947C528.616 70.7275 527.31 69.1895 526.382 67.4805C525.454 65.7715 524.99 63.4888 524.99 60.6323C524.99 57.2388 526.089 54.3335 528.286 51.9165C530.483 49.4995 533.01 47.9492 535.867 47.2656C538.723 46.582 541.604 46.2402 544.509 46.2402C547.39 46.2402 550.356 46.6797 553.408 47.5586C556.484 48.4375 558.804 49.5361 560.366 50.8545C561.904 52.1484 562.283 53.3203 561.501 54.3701L558.535 58.3618C557.534 59.729 556.191 59.8389 554.507 58.6914C553.433 57.959 551.956 57.1411 550.076 56.2378C548.22 55.3345 546.279 54.8828 544.253 54.8828C542.812 54.8828 541.482 55.0049 540.261 55.249C539.065 55.4932 538.003 56.0791 537.075 57.0068C536.147 57.9346 535.684 59.082 535.684 60.4492C535.684 61.7676 536.025 62.8418 536.709 63.6719C537.393 64.4775 538.149 65.0879 538.979 65.5029C539.81 65.8936 540.652 66.2231 541.506 66.4917C544.143 67.3462 546.499 68.103 548.574 68.7622C550.649 69.397 552.566 70.105 554.324 70.8862C556.765 71.9849 558.633 73.0835 559.927 74.1821C561.221 75.2808 562.283 76.7822 563.113 78.6865C563.967 80.5908 564.395 82.8613 564.395 85.498C564.395 89.4043 563.149 92.6392 560.659 95.2026C558.169 97.7417 555.398 99.3774 552.346 100.11C549.319 100.867 546.365 101.245 543.484 101.245C539.236 101.245 535.781 100.83 533.12 100C530.459 99.1943 527.932 97.8882 525.54 96.0815Z" fill="white"/>
</svg>
